%TF.GenerationSoftware,Altium Limited,Altium Designer,23.6.0 (18)*%
G04 Layer_Color=65535*
%FSLAX43Y43*%
%MOMM*%
%TF.SameCoordinates,D53825AC-E4B0-4A88-80AE-088D3BB8A1E7*%
%TF.FilePolarity,Positive*%
%TF.FileFunction,Legend,Top*%
%TF.Part,Single*%
G01*
G75*
%TA.AperFunction,NonConductor*%
%ADD47C,0.200*%
%ADD48C,0.100*%
%ADD49C,0.400*%
%ADD50C,0.250*%
%ADD51C,0.600*%
%ADD52C,0.127*%
%ADD53C,0.254*%
D47*
X36200Y52900D02*
G03*
X36200Y52900I-100J0D01*
G01*
X9000Y58150D02*
G03*
X9000Y58150I-100J0D01*
G01*
X33900Y32100D02*
G03*
X33900Y32100I-100J0D01*
G01*
X36100Y50000D02*
G03*
X36100Y49900I0J-50D01*
G01*
D02*
G03*
X36100Y50000I0J50D01*
G01*
D02*
G03*
X36100Y49900I0J-50D01*
G01*
X25200Y39100D02*
G03*
X25200Y39100I-100J0D01*
G01*
X5300Y27850D02*
Y42090D01*
X700Y29245D02*
Y41370D01*
X4300Y50430D02*
X5550D01*
X4300Y59370D02*
X5550D01*
X300Y50430D02*
X1580D01*
X300Y59370D02*
X1580D01*
X32300Y21000D02*
Y22100D01*
X32340Y22450D02*
X35260D01*
Y22950D01*
X32340D02*
X35260D01*
X32340Y22450D02*
Y22950D01*
X43250Y16350D02*
X52550D01*
Y7050D02*
Y16350D01*
X43250Y7050D02*
X52550D01*
X43250D02*
Y16350D01*
X48078Y29990D02*
X51278D01*
Y25090D02*
Y29990D01*
X48078Y25090D02*
X51278D01*
X48078D02*
Y29990D01*
X46203Y30120D02*
X47728D01*
X11640Y56855D02*
X22100D01*
X11640D02*
Y59545D01*
X22100D01*
Y56855D02*
Y59545D01*
X15835Y35217D02*
X19035D01*
X15835Y30217D02*
Y35217D01*
X19035Y30217D02*
Y35217D01*
X15835Y30217D02*
X19035D01*
X34516Y11044D02*
Y10537D01*
X34770Y10283D01*
X35023Y10537D01*
Y11044D01*
X35277Y10156D02*
X35785D01*
X36039Y10283D02*
Y11044D01*
X36420D01*
X36547Y10917D01*
Y10663D01*
X36420Y10537D01*
X36039D01*
X36801Y10283D02*
X37055D01*
X36928D01*
Y10790D01*
X36801D01*
X37436Y10283D02*
X37690D01*
X37563D01*
Y11044D01*
X37436D01*
X38451Y10283D02*
X38197D01*
X38071Y10410D01*
Y10663D01*
X38197Y10790D01*
X38451D01*
X38578Y10663D01*
Y10537D01*
X38071D01*
X39315Y1344D02*
Y710D01*
X39442Y583D01*
X39696D01*
X39823Y710D01*
Y1344D01*
X40584Y1217D02*
X40457Y1344D01*
X40203D01*
X40077Y1217D01*
Y1090D01*
X40203Y963D01*
X40457D01*
X40584Y837D01*
Y710D01*
X40457Y583D01*
X40203D01*
X40077Y710D01*
X40838Y1344D02*
Y583D01*
X41219D01*
X41346Y710D01*
Y837D01*
X41219Y963D01*
X40838D01*
X41219D01*
X41346Y1090D01*
Y1217D01*
X41219Y1344D01*
X40838D01*
X41600Y456D02*
X42108D01*
X42362Y1344D02*
X42870D01*
X42616D01*
Y583D01*
X43124Y1344D02*
X43631Y583D01*
Y1344D02*
X43124Y583D01*
X11162Y25244D02*
Y24610D01*
X11289Y24483D01*
X11543D01*
X11670Y24610D01*
Y25244D01*
X12431Y25117D02*
X12304Y25244D01*
X12050D01*
X11923Y25117D01*
Y24990D01*
X12050Y24863D01*
X12304D01*
X12431Y24737D01*
Y24610D01*
X12304Y24483D01*
X12050D01*
X11923Y24610D01*
X12685Y25244D02*
Y24483D01*
X13066D01*
X13193Y24610D01*
Y24737D01*
X13066Y24863D01*
X12685D01*
X13066D01*
X13193Y24990D01*
Y25117D01*
X13066Y25244D01*
X12685D01*
X13447Y24356D02*
X13955D01*
X14209Y24483D02*
Y25244D01*
X14590D01*
X14717Y25117D01*
Y24863D01*
X14590Y24737D01*
X14209D01*
X14463D02*
X14717Y24483D01*
X14970Y25244D02*
X15478Y24483D01*
Y25244D02*
X14970Y24483D01*
X21061Y25244D02*
Y24610D01*
X21188Y24483D01*
X21442D01*
X21569Y24610D01*
Y25244D01*
X22330Y25117D02*
X22203Y25244D01*
X21950D01*
X21823Y25117D01*
Y24990D01*
X21950Y24863D01*
X22203D01*
X22330Y24737D01*
Y24610D01*
X22203Y24483D01*
X21950D01*
X21823Y24610D01*
X22584Y25244D02*
Y24483D01*
X22965D01*
X23092Y24610D01*
Y24737D01*
X22965Y24863D01*
X22584D01*
X22965D01*
X23092Y24990D01*
Y25117D01*
X22965Y25244D01*
X22584D01*
X23346Y24356D02*
X23854D01*
X24108Y24483D02*
Y25244D01*
X24489D01*
X24616Y25117D01*
Y24863D01*
X24489Y24737D01*
X24108D01*
X24362D02*
X24616Y24483D01*
X24870Y25244D02*
X25377D01*
X25124D01*
Y24483D01*
X26139Y25117D02*
X26012Y25244D01*
X25758D01*
X25631Y25117D01*
Y24990D01*
X25758Y24863D01*
X26012D01*
X26139Y24737D01*
Y24610D01*
X26012Y24483D01*
X25758D01*
X25631Y24610D01*
X26161Y35744D02*
Y35110D01*
X26288Y34983D01*
X26542D01*
X26669Y35110D01*
Y35744D01*
X27430Y35617D02*
X27303Y35744D01*
X27050D01*
X26923Y35617D01*
Y35490D01*
X27050Y35363D01*
X27303D01*
X27430Y35237D01*
Y35110D01*
X27303Y34983D01*
X27050D01*
X26923Y35110D01*
X27684Y35744D02*
Y34983D01*
X28065D01*
X28192Y35110D01*
Y35237D01*
X28065Y35363D01*
X27684D01*
X28065D01*
X28192Y35490D01*
Y35617D01*
X28065Y35744D01*
X27684D01*
X28446Y34856D02*
X28954D01*
X29716Y35617D02*
X29589Y35744D01*
X29335D01*
X29208Y35617D01*
Y35110D01*
X29335Y34983D01*
X29589D01*
X29716Y35110D01*
X29970Y35744D02*
X30477D01*
X30224D01*
Y34983D01*
X31239Y35617D02*
X31112Y35744D01*
X30858D01*
X30731Y35617D01*
Y35490D01*
X30858Y35363D01*
X31112D01*
X31239Y35237D01*
Y35110D01*
X31112Y34983D01*
X30858D01*
X30731Y35110D01*
X37588Y6517D02*
X37461Y6644D01*
X37207D01*
X37080Y6517D01*
Y6390D01*
X37207Y6263D01*
X37461D01*
X37588Y6137D01*
Y6010D01*
X37461Y5883D01*
X37207D01*
X37080Y6010D01*
X38350Y6644D02*
X37842D01*
Y5883D01*
X38350D01*
X37842Y6263D02*
X38096D01*
X38603Y5883D02*
Y6644D01*
X39111Y5883D01*
Y6644D01*
X39873Y6517D02*
X39746Y6644D01*
X39492D01*
X39365Y6517D01*
Y6390D01*
X39492Y6263D01*
X39746D01*
X39873Y6137D01*
Y6010D01*
X39746Y5883D01*
X39492D01*
X39365Y6010D01*
X40127Y5756D02*
X40635D01*
X41397Y6517D02*
X41270Y6644D01*
X41016D01*
X40889Y6517D01*
Y6390D01*
X41016Y6263D01*
X41270D01*
X41397Y6137D01*
Y6010D01*
X41270Y5883D01*
X41016D01*
X40889Y6010D01*
X41650Y6644D02*
Y5883D01*
X42031D01*
X42158Y6010D01*
Y6517D01*
X42031Y6644D01*
X41650D01*
X42412Y5883D02*
Y6390D01*
X42666Y6644D01*
X42920Y6390D01*
Y5883D01*
Y6263D01*
X42412D01*
X30570Y6517D02*
X30443Y6644D01*
X30189D01*
X30062Y6517D01*
Y6390D01*
X30189Y6263D01*
X30443D01*
X30570Y6137D01*
Y6010D01*
X30443Y5883D01*
X30189D01*
X30062Y6010D01*
X31332Y6644D02*
X30824D01*
Y5883D01*
X31332D01*
X30824Y6263D02*
X31078D01*
X31586Y5883D02*
Y6644D01*
X32093Y5883D01*
Y6644D01*
X32855Y6517D02*
X32728Y6644D01*
X32474D01*
X32347Y6517D01*
Y6390D01*
X32474Y6263D01*
X32728D01*
X32855Y6137D01*
Y6010D01*
X32728Y5883D01*
X32474D01*
X32347Y6010D01*
X33109Y5756D02*
X33617D01*
X34379Y6517D02*
X34252Y6644D01*
X33998D01*
X33871Y6517D01*
Y6390D01*
X33998Y6263D01*
X34252D01*
X34379Y6137D01*
Y6010D01*
X34252Y5883D01*
X33998D01*
X33871Y6010D01*
X35141Y6517D02*
X35014Y6644D01*
X34760D01*
X34633Y6517D01*
Y6010D01*
X34760Y5883D01*
X35014D01*
X35141Y6010D01*
X35394Y6644D02*
Y5883D01*
X35902D01*
X28853Y11399D02*
X28980Y11526D01*
Y11780D01*
X28853Y11907D01*
X28726D01*
X28599Y11780D01*
Y11526D01*
X28472Y11399D01*
X28345D01*
X28218Y11526D01*
Y11780D01*
X28345Y11907D01*
X28980Y10637D02*
Y11145D01*
X28218D01*
Y10637D01*
X28599Y11145D02*
Y10891D01*
X28218Y10383D02*
X28980D01*
X28218Y9875D01*
X28980D01*
X28853Y9113D02*
X28980Y9240D01*
Y9494D01*
X28853Y9621D01*
X28726D01*
X28599Y9494D01*
Y9240D01*
X28472Y9113D01*
X28345D01*
X28218Y9240D01*
Y9494D01*
X28345Y9621D01*
X28092Y8860D02*
Y8352D01*
X28980Y8098D02*
Y7844D01*
Y7971D01*
X28218D01*
Y8098D01*
Y7844D01*
Y7463D02*
X28980D01*
X28218Y6955D01*
X28980D01*
Y6701D02*
Y6193D01*
Y6447D01*
X28218D01*
X52811Y34008D02*
Y34769D01*
X53192D01*
X53319Y34642D01*
Y34388D01*
X53192Y34262D01*
X52811D01*
X53065D02*
X53319Y34008D01*
X53573Y34769D02*
X54080D01*
X53827D01*
Y34008D01*
X54842Y34642D02*
X54715Y34769D01*
X54461D01*
X54334Y34642D01*
Y34135D01*
X54461Y34008D01*
X54715D01*
X54842Y34135D01*
X55096Y33881D02*
X55604D01*
X56366Y34642D02*
X56239Y34769D01*
X55985D01*
X55858Y34642D01*
Y34515D01*
X55985Y34388D01*
X56239D01*
X56366Y34262D01*
Y34135D01*
X56239Y34008D01*
X55985D01*
X55858Y34135D01*
X56620Y34769D02*
Y34008D01*
X57000D01*
X57127Y34135D01*
Y34642D01*
X57000Y34769D01*
X56620D01*
X57381Y34008D02*
Y34515D01*
X57635Y34769D01*
X57889Y34515D01*
Y34008D01*
Y34388D01*
X57381D01*
X45126Y26039D02*
X45888D01*
Y25658D01*
X45761Y25531D01*
X45507D01*
X45380Y25658D01*
Y26039D01*
Y25785D02*
X45126Y25531D01*
X45888Y25277D02*
Y24770D01*
Y25023D01*
X45126D01*
X45761Y24008D02*
X45888Y24135D01*
Y24389D01*
X45761Y24516D01*
X45253D01*
X45126Y24389D01*
Y24135D01*
X45253Y24008D01*
X44999Y23754D02*
Y23246D01*
X45761Y22484D02*
X45888Y22611D01*
Y22865D01*
X45761Y22992D01*
X45634D01*
X45507Y22865D01*
Y22611D01*
X45380Y22484D01*
X45253D01*
X45126Y22611D01*
Y22865D01*
X45253Y22992D01*
X45761Y21723D02*
X45888Y21850D01*
Y22103D01*
X45761Y22230D01*
X45253D01*
X45126Y22103D01*
Y21850D01*
X45253Y21723D01*
X45888Y21469D02*
X45126D01*
Y20961D01*
X58663Y34406D02*
X59424D01*
Y34025D01*
X59297Y33898D01*
X59044D01*
X58917Y34025D01*
Y34406D01*
Y34152D02*
X58663Y33898D01*
X59424Y33644D02*
Y33137D01*
Y33391D01*
X58663D01*
X59297Y32375D02*
X59424Y32502D01*
Y32756D01*
X59297Y32883D01*
X58790D01*
X58663Y32756D01*
Y32502D01*
X58790Y32375D01*
X58536Y32121D02*
Y31613D01*
X59424Y31359D02*
Y31105D01*
Y31232D01*
X58663D01*
Y31359D01*
Y31105D01*
Y30724D02*
X59424D01*
X58663Y30217D01*
X59424D01*
Y29963D02*
Y29455D01*
Y29709D01*
X58663D01*
X32100Y46944D02*
X31592D01*
Y46183D01*
X32100D01*
X31592Y46563D02*
X31846D01*
X32861Y46817D02*
X32734Y46944D01*
X32480D01*
X32353Y46817D01*
Y46690D01*
X32480Y46563D01*
X32734D01*
X32861Y46437D01*
Y46310D01*
X32734Y46183D01*
X32480D01*
X32353Y46310D01*
X33115Y46183D02*
Y46944D01*
X33496D01*
X33623Y46817D01*
Y46563D01*
X33496Y46437D01*
X33115D01*
X33877Y46056D02*
X34385D01*
X34639Y46944D02*
X35147D01*
X34893D01*
Y46183D01*
X35400Y46944D02*
X35908Y46183D01*
Y46944D02*
X35400Y46183D01*
X38150Y24644D02*
X37642D01*
Y23883D01*
X38150D01*
X37642Y24263D02*
X37896D01*
X38911Y24517D02*
X38784Y24644D01*
X38530D01*
X38403Y24517D01*
Y24390D01*
X38530Y24263D01*
X38784D01*
X38911Y24137D01*
Y24010D01*
X38784Y23883D01*
X38530D01*
X38403Y24010D01*
X39165Y23883D02*
Y24644D01*
X39546D01*
X39673Y24517D01*
Y24263D01*
X39546Y24137D01*
X39165D01*
X39927Y23756D02*
X40435D01*
X40689Y23883D02*
Y24644D01*
X41070D01*
X41197Y24517D01*
Y24263D01*
X41070Y24137D01*
X40689D01*
X40943D02*
X41197Y23883D01*
X41450Y24644D02*
X41958Y23883D01*
Y24644D02*
X41450Y23883D01*
X41350Y34772D02*
X40842D01*
Y34010D01*
X41350D01*
X40842Y34391D02*
X41096D01*
X42111Y34645D02*
X41984Y34772D01*
X41730D01*
X41603Y34645D01*
Y34518D01*
X41730Y34391D01*
X41984D01*
X42111Y34264D01*
Y34137D01*
X41984Y34010D01*
X41730D01*
X41603Y34137D01*
X42365Y34010D02*
Y34772D01*
X42746D01*
X42873Y34645D01*
Y34391D01*
X42746Y34264D01*
X42365D01*
X43127Y33883D02*
X43635D01*
X44397Y34772D02*
X43889D01*
Y34010D01*
X44397D01*
X43889Y34391D02*
X44143D01*
X44650Y34010D02*
Y34772D01*
X45158Y34010D01*
Y34772D01*
X11154Y42216D02*
X11281Y42089D01*
Y41835D01*
X11154Y41708D01*
X11027D01*
X10900Y41835D01*
Y41962D01*
Y41835D01*
X10773Y41708D01*
X10646D01*
X10519Y41835D01*
Y42089D01*
X10646Y42216D01*
X11281Y41454D02*
X10773D01*
X10519Y41200D01*
X10773Y40946D01*
X11281D01*
X11154Y40692D02*
X11281Y40565D01*
Y40311D01*
X11154Y40184D01*
X11027D01*
X10900Y40311D01*
Y40438D01*
Y40311D01*
X10773Y40184D01*
X10646D01*
X10519Y40311D01*
Y40565D01*
X10646Y40692D01*
D48*
X25540Y51400D02*
G03*
X25440Y51400I-50J0D01*
G01*
D02*
G03*
X25540Y51400I50J0D01*
G01*
X49700Y37100D02*
G03*
X49600Y37100I-50J0D01*
G01*
D02*
G03*
X49700Y37100I50J0D01*
G01*
X35000D02*
G03*
X34900Y37100I-50J0D01*
G01*
D02*
G03*
X35000Y37100I50J0D01*
G01*
X31300Y7300D02*
G03*
X31300Y7200I0J-50D01*
G01*
D02*
G03*
X31300Y7300I0J50D01*
G01*
X24700Y46000D02*
Y53550D01*
X13100D02*
X24700D01*
X13100Y46000D02*
Y53550D01*
Y46000D02*
X24700D01*
X1350Y19410D02*
X3705D01*
X1350Y6710D02*
Y19410D01*
X3705Y6710D02*
Y19410D01*
X1350Y6710D02*
X2527D01*
X3668D01*
X57800Y35150D02*
Y35700D01*
X51800Y35150D02*
X57800D01*
X51800D02*
Y35700D01*
X57800Y38100D02*
Y38650D01*
X51800D02*
X57800D01*
X51800Y38100D02*
Y38650D01*
X43100Y35150D02*
Y35700D01*
X37100Y35150D02*
X43100D01*
X37100D02*
Y35700D01*
X43100Y38100D02*
Y38650D01*
X37100D02*
X43100D01*
X37100Y38100D02*
Y38650D01*
X32700Y15400D02*
X33250D01*
Y9400D02*
Y15400D01*
X32700Y9400D02*
X33250D01*
X29750Y15400D02*
X30300D01*
X29750Y9400D02*
Y15400D01*
Y9400D02*
X30300D01*
X31500Y48700D02*
X35000D01*
X31500D02*
X35000D01*
X31500Y51100D02*
X35000D01*
X31500D02*
X35000D01*
D49*
X42025Y16900D02*
G03*
X42025Y16900I-200J0D01*
G01*
D50*
X36375Y27150D02*
G03*
X36375Y27150I-125J0D01*
G01*
X20185Y29745D02*
G03*
X20185Y29745I-125J0D01*
G01*
D51*
X18335Y31217D02*
G03*
X18335Y31217I-300J0D01*
G01*
D52*
X37600Y40000D02*
Y40130D01*
X55600Y40000D02*
Y40130D01*
X37600Y53670D02*
Y60000D01*
Y40000D02*
X55600D01*
Y53670D02*
Y60000D01*
X37600D02*
X55600D01*
X26464Y39175D02*
X26736D01*
X26464Y38225D02*
X26736D01*
D53*
X5804Y47554D02*
X5931Y47681D01*
Y47935D01*
X5804Y48062D01*
X5296D01*
X5169Y47935D01*
Y47681D01*
X5296Y47554D01*
X5550D01*
Y47808D01*
X5169Y47300D02*
X5931D01*
X5169Y46792D01*
X5931D01*
Y46539D02*
X5169D01*
Y46158D01*
X5296Y46031D01*
X5804D01*
X5931Y46158D01*
Y46539D01*
X5169Y45269D02*
Y45777D01*
X5677Y45269D01*
X5804D01*
X5931Y45396D01*
Y45650D01*
X5804Y45777D01*
X53366Y18947D02*
X53239Y19074D01*
X52985D01*
X52859Y18947D01*
Y18439D01*
X52985Y18312D01*
X53239D01*
X53366Y18439D01*
Y18693D01*
X53112D01*
X53620Y18312D02*
Y19074D01*
X54128Y18312D01*
Y19074D01*
X54382D02*
Y18312D01*
X54763D01*
X54890Y18439D01*
Y18947D01*
X54763Y19074D01*
X54382D01*
X55144Y18312D02*
X55398D01*
X55271D01*
Y19074D01*
X55144Y18947D01*
X5092Y26279D02*
Y27041D01*
X5473D01*
X5600Y26914D01*
Y26660D01*
X5473Y26533D01*
X5092D01*
X5854Y26279D02*
X6108D01*
X5981D01*
Y27041D01*
X5854Y26914D01*
X9692Y59381D02*
X10200Y58619D01*
Y59381D02*
X9692Y58619D01*
X10454D02*
X10708D01*
X10581D01*
Y59381D01*
X10454Y59254D01*
X23965Y45281D02*
Y44646D01*
X24092Y44519D01*
X24346D01*
X24473Y44646D01*
Y45281D01*
X25235D02*
X24727D01*
Y44900D01*
X24981Y45027D01*
X25108D01*
X25235Y44900D01*
Y44646D01*
X25108Y44519D01*
X24854D01*
X24727Y44646D01*
X21222Y38854D02*
X21095Y38981D01*
X20841D01*
X20714Y38854D01*
Y38346D01*
X20841Y38219D01*
X21095D01*
X21222Y38346D01*
X21984Y38219D02*
X21476D01*
X21984Y38727D01*
Y38854D01*
X21857Y38981D01*
X21603D01*
X21476Y38854D01*
X57465Y52581D02*
Y51946D01*
X57592Y51819D01*
X57846D01*
X57973Y51946D01*
Y52581D01*
X58227Y52454D02*
X58354Y52581D01*
X58608D01*
X58735Y52454D01*
Y52327D01*
X58608Y52200D01*
X58481D01*
X58608D01*
X58735Y52073D01*
Y51946D01*
X58608Y51819D01*
X58354D01*
X58227Y51946D01*
X33159Y34266D02*
X32397D01*
Y33885D01*
X32524Y33758D01*
X33032D01*
X33159Y33885D01*
Y34266D01*
X33032Y33504D02*
X33159Y33377D01*
Y33123D01*
X33032Y32996D01*
X32905D01*
X32778Y33123D01*
Y33250D01*
Y33123D01*
X32651Y32996D01*
X32524D01*
X32397Y33123D01*
Y33377D01*
X32524Y33504D01*
X43767Y30981D02*
Y30854D01*
X44021Y30600D01*
X44275Y30854D01*
Y30981D01*
X44021Y30600D02*
Y30219D01*
X44529D02*
X44783D01*
X44656D01*
Y30981D01*
X44529Y30854D01*
X7274Y44409D02*
X6766D01*
X6512Y44155D01*
X6766Y43902D01*
X7274D01*
X6385Y43648D02*
Y43140D01*
X7274Y42886D02*
X6639D01*
X6512Y42759D01*
Y42505D01*
X6639Y42378D01*
X7274D01*
X7147Y41616D02*
X7274Y41743D01*
Y41997D01*
X7147Y42124D01*
X7020D01*
X6893Y41997D01*
Y41743D01*
X6766Y41616D01*
X6639D01*
X6512Y41743D01*
Y41997D01*
X6639Y42124D01*
X7274Y41362D02*
X6512D01*
Y40981D01*
X6639Y40855D01*
X6766D01*
X6893Y40981D01*
Y41362D01*
Y40981D01*
X7020Y40855D01*
X7147D01*
X7274Y40981D01*
Y41362D01*
X31765Y31631D02*
Y30996D01*
X31892Y30869D01*
X32146D01*
X32273Y30996D01*
Y31631D01*
X32908Y30869D02*
Y31631D01*
X32527Y31250D01*
X33035D01*
X41774Y18781D02*
Y18146D01*
X41901Y18019D01*
X42155D01*
X42282Y18146D01*
Y18781D01*
X43044Y18019D02*
X42536D01*
X43044Y18527D01*
Y18654D01*
X42917Y18781D01*
X42663D01*
X42536Y18654D01*
X13092Y29981D02*
Y29346D01*
X13219Y29219D01*
X13473D01*
X13600Y29346D01*
Y29981D01*
X13854Y29219D02*
X14108D01*
X13981D01*
Y29981D01*
X13854Y29854D01*
X57392Y40154D02*
X57265Y40281D01*
X57011D01*
X56884Y40154D01*
Y40027D01*
X57011Y39900D01*
X57265D01*
X57392Y39773D01*
Y39646D01*
X57265Y39519D01*
X57011D01*
X56884Y39646D01*
X57646Y40281D02*
Y39519D01*
X57900Y39773D01*
X58154Y39519D01*
Y40281D01*
X58408Y40154D02*
X58535Y40281D01*
X58789D01*
X58916Y40154D01*
Y40027D01*
X58789Y39900D01*
X58662D01*
X58789D01*
X58916Y39773D01*
Y39646D01*
X58789Y39519D01*
X58535D01*
X58408Y39646D01*
X33592Y39254D02*
X33465Y39381D01*
X33211D01*
X33084Y39254D01*
Y39127D01*
X33211Y39000D01*
X33465D01*
X33592Y38873D01*
Y38746D01*
X33465Y38619D01*
X33211D01*
X33084Y38746D01*
X33846Y39381D02*
Y38619D01*
X34100Y38873D01*
X34354Y38619D01*
Y39381D01*
X35116Y38619D02*
X34608D01*
X35116Y39127D01*
Y39254D01*
X34989Y39381D01*
X34735D01*
X34608Y39254D01*
X28754Y16081D02*
X28881Y16208D01*
Y16462D01*
X28754Y16589D01*
X28627D01*
X28500Y16462D01*
Y16208D01*
X28373Y16081D01*
X28246D01*
X28119Y16208D01*
Y16462D01*
X28246Y16589D01*
X28881Y15827D02*
X28119D01*
X28373Y15573D01*
X28119Y15319D01*
X28881D01*
X28119Y15065D02*
Y14811D01*
Y14938D01*
X28881D01*
X28754Y15065D01*
X6284Y48419D02*
Y49181D01*
X6665D01*
X6792Y49054D01*
Y48800D01*
X6665Y48673D01*
X6284D01*
X6538D02*
X6792Y48419D01*
X7554D02*
X7046D01*
X7554Y48927D01*
Y49054D01*
X7427Y49181D01*
X7173D01*
X7046Y49054D01*
X7808Y48546D02*
X7935Y48419D01*
X8189D01*
X8316Y48546D01*
Y49054D01*
X8189Y49181D01*
X7935D01*
X7808Y49054D01*
Y48927D01*
X7935Y48800D01*
X8316D01*
X17584Y42919D02*
Y43681D01*
X17965D01*
X18092Y43554D01*
Y43300D01*
X17965Y43173D01*
X17584D01*
X17838D02*
X18092Y42919D01*
X18854D02*
X18346D01*
X18854Y43427D01*
Y43554D01*
X18727Y43681D01*
X18473D01*
X18346Y43554D01*
X19108D02*
X19235Y43681D01*
X19489D01*
X19616Y43554D01*
Y43427D01*
X19489Y43300D01*
X19616Y43173D01*
Y43046D01*
X19489Y42919D01*
X19235D01*
X19108Y43046D01*
Y43173D01*
X19235Y43300D01*
X19108Y43427D01*
Y43554D01*
X19235Y43300D02*
X19489D01*
X32084Y51719D02*
Y52481D01*
X32465D01*
X32592Y52354D01*
Y52100D01*
X32465Y51973D01*
X32084D01*
X32338D02*
X32592Y51719D01*
X33354D02*
X32846D01*
X33354Y52227D01*
Y52354D01*
X33227Y52481D01*
X32973D01*
X32846Y52354D01*
X34116Y52481D02*
X33862Y52354D01*
X33608Y52100D01*
Y51846D01*
X33735Y51719D01*
X33989D01*
X34116Y51846D01*
Y51973D01*
X33989Y52100D01*
X33608D01*
X37441Y32841D02*
X38203D01*
Y32460D01*
X38076Y32333D01*
X37822D01*
X37695Y32460D01*
Y32841D01*
Y32587D02*
X37441Y32333D01*
Y31571D02*
Y32079D01*
X37949Y31571D01*
X38076D01*
X38203Y31698D01*
Y31952D01*
X38076Y32079D01*
X38203Y30809D02*
Y31317D01*
X37822D01*
X37949Y31063D01*
Y30936D01*
X37822Y30809D01*
X37568D01*
X37441Y30936D01*
Y31190D01*
X37568Y31317D01*
X30219Y20316D02*
X30981D01*
Y19935D01*
X30854Y19808D01*
X30600D01*
X30473Y19935D01*
Y20316D01*
Y20062D02*
X30219Y19808D01*
Y19046D02*
Y19554D01*
X30727Y19046D01*
X30854D01*
X30981Y19173D01*
Y19427D01*
X30854Y19554D01*
X30219Y18411D02*
X30981D01*
X30600Y18792D01*
Y18284D01*
X27584Y28919D02*
Y29681D01*
X27965D01*
X28092Y29554D01*
Y29300D01*
X27965Y29173D01*
X27584D01*
X27838D02*
X28092Y28919D01*
X28854D02*
X28346D01*
X28854Y29427D01*
Y29554D01*
X28727Y29681D01*
X28473D01*
X28346Y29554D01*
X29108D02*
X29235Y29681D01*
X29489D01*
X29616Y29554D01*
Y29427D01*
X29489Y29300D01*
X29362D01*
X29489D01*
X29616Y29173D01*
Y29046D01*
X29489Y28919D01*
X29235D01*
X29108Y29046D01*
X27384Y27273D02*
Y28035D01*
X27765D01*
X27892Y27908D01*
Y27654D01*
X27765Y27527D01*
X27384D01*
X27638D02*
X27892Y27273D01*
X28654D02*
X28146D01*
X28654Y27781D01*
Y27908D01*
X28527Y28035D01*
X28273D01*
X28146Y27908D01*
X29416Y27273D02*
X28908D01*
X29416Y27781D01*
Y27908D01*
X29289Y28035D01*
X29035D01*
X28908Y27908D01*
X28519Y20389D02*
X29281D01*
Y20008D01*
X29154Y19881D01*
X28900D01*
X28773Y20008D01*
Y20389D01*
Y20135D02*
X28519Y19881D01*
Y19119D02*
Y19627D01*
X29027Y19119D01*
X29154D01*
X29281Y19246D01*
Y19500D01*
X29154Y19627D01*
X28519Y18865D02*
Y18611D01*
Y18738D01*
X29281D01*
X29154Y18865D01*
X33771Y36729D02*
X34533D01*
Y36348D01*
X34406Y36221D01*
X34152D01*
X34025Y36348D01*
Y36729D01*
Y36475D02*
X33771Y36221D01*
Y35459D02*
Y35967D01*
X34279Y35459D01*
X34406D01*
X34533Y35586D01*
Y35840D01*
X34406Y35967D01*
Y35205D02*
X34533Y35078D01*
Y34824D01*
X34406Y34697D01*
X33898D01*
X33771Y34824D01*
Y35078D01*
X33898Y35205D01*
X34406D01*
X26648Y42219D02*
Y42981D01*
X27029D01*
X27156Y42854D01*
Y42600D01*
X27029Y42473D01*
X26648D01*
X26902D02*
X27156Y42219D01*
X27410D02*
X27663D01*
X27537D01*
Y42981D01*
X27410Y42854D01*
X28044Y42346D02*
X28171Y42219D01*
X28425D01*
X28552Y42346D01*
Y42854D01*
X28425Y42981D01*
X28171D01*
X28044Y42854D01*
Y42727D01*
X28171Y42600D01*
X28552D01*
X30719Y38552D02*
X31481D01*
Y38171D01*
X31354Y38044D01*
X31100D01*
X30973Y38171D01*
Y38552D01*
Y38298D02*
X30719Y38044D01*
Y37790D02*
Y37537D01*
Y37663D01*
X31481D01*
X31354Y37790D01*
Y37156D02*
X31481Y37029D01*
Y36775D01*
X31354Y36648D01*
X31227D01*
X31100Y36775D01*
X30973Y36648D01*
X30846D01*
X30719Y36775D01*
Y37029D01*
X30846Y37156D01*
X30973D01*
X31100Y37029D01*
X31227Y37156D01*
X31354D01*
X31100Y37029D02*
Y36775D01*
X23913Y43052D02*
X24675D01*
Y42671D01*
X24548Y42544D01*
X24294D01*
X24167Y42671D01*
Y43052D01*
Y42798D02*
X23913Y42544D01*
Y42290D02*
Y42037D01*
Y42163D01*
X24675D01*
X24548Y42290D01*
X24675Y41656D02*
Y41148D01*
X24548D01*
X24040Y41656D01*
X23913D01*
X35594Y42198D02*
X36356D01*
Y41818D01*
X36229Y41691D01*
X35975D01*
X35848Y41818D01*
Y42198D01*
Y41944D02*
X35594Y41691D01*
Y41437D02*
Y41183D01*
Y41310D01*
X36356D01*
X36229Y41437D01*
X36356Y40294D02*
X36229Y40548D01*
X35975Y40802D01*
X35721D01*
X35594Y40675D01*
Y40421D01*
X35721Y40294D01*
X35848D01*
X35975Y40421D01*
Y40802D01*
X49148Y38319D02*
Y39081D01*
X49529D01*
X49656Y38954D01*
Y38700D01*
X49529Y38573D01*
X49148D01*
X49402D02*
X49656Y38319D01*
X49910D02*
X50163D01*
X50037D01*
Y39081D01*
X49910Y38954D01*
X51052Y39081D02*
X50544D01*
Y38700D01*
X50798Y38827D01*
X50925D01*
X51052Y38700D01*
Y38446D01*
X50925Y38319D01*
X50671D01*
X50544Y38446D01*
X58319Y45852D02*
X59081D01*
Y45471D01*
X58954Y45344D01*
X58700D01*
X58573Y45471D01*
Y45852D01*
Y45598D02*
X58319Y45344D01*
Y45090D02*
Y44837D01*
Y44963D01*
X59081D01*
X58954Y45090D01*
X58319Y44075D02*
X59081D01*
X58700Y44456D01*
Y43948D01*
X45508Y30869D02*
Y31631D01*
X45889D01*
X46016Y31504D01*
Y31250D01*
X45889Y31123D01*
X45508D01*
X45762D02*
X46016Y30869D01*
X46270D02*
X46523D01*
X46397D01*
Y31631D01*
X46270Y31504D01*
X46904D02*
X47031Y31631D01*
X47285D01*
X47412Y31504D01*
Y31377D01*
X47285Y31250D01*
X47158D01*
X47285D01*
X47412Y31123D01*
Y30996D01*
X47285Y30869D01*
X47031D01*
X46904Y30996D01*
X54719Y30352D02*
X55481D01*
Y29971D01*
X55354Y29844D01*
X55100D01*
X54973Y29971D01*
Y30352D01*
Y30098D02*
X54719Y29844D01*
Y29590D02*
Y29337D01*
Y29463D01*
X55481D01*
X55354Y29590D01*
X54719Y28448D02*
Y28956D01*
X55227Y28448D01*
X55354D01*
X55481Y28575D01*
Y28829D01*
X55354Y28956D01*
X37328Y12319D02*
Y13081D01*
X37709D01*
X37836Y12954D01*
Y12700D01*
X37709Y12573D01*
X37328D01*
X37582D02*
X37836Y12319D01*
X38090D02*
X38343D01*
X38216D01*
Y13081D01*
X38090Y12954D01*
X38724Y12319D02*
X38978D01*
X38851D01*
Y13081D01*
X38724Y12954D01*
X35019Y20667D02*
X35781D01*
Y20286D01*
X35654Y20159D01*
X35400D01*
X35273Y20286D01*
Y20667D01*
Y20413D02*
X35019Y20159D01*
Y19905D02*
Y19651D01*
Y19778D01*
X35781D01*
X35654Y19905D01*
Y19270D02*
X35781Y19143D01*
Y18889D01*
X35654Y18762D01*
X35146D01*
X35019Y18889D01*
Y19143D01*
X35146Y19270D01*
X35654D01*
X11919Y51435D02*
X12681D01*
Y51054D01*
X12554Y50927D01*
X12300D01*
X12173Y51054D01*
Y51435D01*
Y51181D02*
X11919Y50927D01*
X12046Y50673D02*
X11919Y50546D01*
Y50292D01*
X12046Y50165D01*
X12554D01*
X12681Y50292D01*
Y50546D01*
X12554Y50673D01*
X12427D01*
X12300Y50546D01*
Y50165D01*
X9677Y56782D02*
Y57543D01*
X10058D01*
X10185Y57416D01*
Y57162D01*
X10058Y57035D01*
X9677D01*
X9931D02*
X10185Y56782D01*
X10439Y57416D02*
X10566Y57543D01*
X10820D01*
X10947Y57416D01*
Y57289D01*
X10820Y57162D01*
X10947Y57035D01*
Y56909D01*
X10820Y56782D01*
X10566D01*
X10439Y56909D01*
Y57035D01*
X10566Y57162D01*
X10439Y57289D01*
Y57416D01*
X10566Y57162D02*
X10820D01*
X21219Y37081D02*
X21981D01*
Y36700D01*
X21854Y36573D01*
X21600D01*
X21473Y36700D01*
Y37081D01*
Y36827D02*
X21219Y36573D01*
X21981Y36319D02*
Y35811D01*
X21854D01*
X21346Y36319D01*
X21219D01*
X19679Y37081D02*
X20441D01*
Y36700D01*
X20314Y36573D01*
X20060D01*
X19933Y36700D01*
Y37081D01*
Y36827D02*
X19679Y36573D01*
X20441Y35811D02*
X20314Y36065D01*
X20060Y36319D01*
X19806D01*
X19679Y36192D01*
Y35938D01*
X19806Y35811D01*
X19933D01*
X20060Y35938D01*
Y36319D01*
X25265Y33294D02*
Y34056D01*
X25646D01*
X25773Y33929D01*
Y33675D01*
X25646Y33548D01*
X25265D01*
X25519D02*
X25773Y33294D01*
X26535Y34056D02*
X26027D01*
Y33675D01*
X26281Y33802D01*
X26408D01*
X26535Y33675D01*
Y33421D01*
X26408Y33294D01*
X26154D01*
X26027Y33421D01*
X25165Y29619D02*
Y30381D01*
X25546D01*
X25673Y30254D01*
Y30000D01*
X25546Y29873D01*
X25165D01*
X25419D02*
X25673Y29619D01*
X26308D02*
Y30381D01*
X25927Y30000D01*
X26435D01*
X25309Y31432D02*
Y32194D01*
X25690D01*
X25817Y32067D01*
Y31813D01*
X25690Y31686D01*
X25309D01*
X25563D02*
X25817Y31432D01*
X26071Y32067D02*
X26198Y32194D01*
X26452D01*
X26579Y32067D01*
Y31940D01*
X26452Y31813D01*
X26325D01*
X26452D01*
X26579Y31686D01*
Y31559D01*
X26452Y31432D01*
X26198D01*
X26071Y31559D01*
X19065Y26919D02*
Y27681D01*
X19446D01*
X19573Y27554D01*
Y27300D01*
X19446Y27173D01*
X19065D01*
X19319D02*
X19573Y26919D01*
X20335D02*
X19827D01*
X20335Y27427D01*
Y27554D01*
X20208Y27681D01*
X19954D01*
X19827Y27554D01*
X32850Y19246D02*
Y19754D01*
X32723Y19881D01*
X32469D01*
X32342Y19754D01*
Y19246D01*
X32469Y19119D01*
X32723D01*
X32596Y19373D02*
X32850Y19119D01*
X32723D02*
X32850Y19246D01*
X33104Y19119D02*
X33358D01*
X33231D01*
Y19881D01*
X33104Y19754D01*
X20405Y55319D02*
Y56081D01*
X20786D01*
X20913Y55954D01*
Y55700D01*
X20786Y55573D01*
X20405D01*
X21675Y55319D02*
X21167D01*
X21675Y55827D01*
Y55954D01*
X21548Y56081D01*
X21294D01*
X21167Y55954D01*
X51960Y30219D02*
Y30981D01*
X52468Y30219D01*
Y30981D01*
X52722Y30219D02*
X52976D01*
X52849D01*
Y30981D01*
X52722Y30854D01*
X10235Y39708D02*
X9473D01*
Y39200D01*
Y38946D02*
Y38692D01*
Y38819D01*
X10235D01*
X10108Y38946D01*
X2200Y4061D02*
X1946D01*
X2073D01*
Y3426D01*
X1946Y3299D01*
X1819D01*
X1692Y3426D01*
X2454Y3299D02*
X2708D01*
X2581D01*
Y4061D01*
X2454Y3934D01*
X25965Y37481D02*
Y36719D01*
X26346D01*
X26473Y36846D01*
Y37354D01*
X26346Y37481D01*
X25965D01*
X27235Y36719D02*
X26727D01*
X27235Y37227D01*
Y37354D01*
X27108Y37481D01*
X26854D01*
X26727Y37354D01*
X18092Y44954D02*
X17965Y45081D01*
X17711D01*
X17584Y44954D01*
Y44446D01*
X17711Y44319D01*
X17965D01*
X18092Y44446D01*
X18854Y44319D02*
X18346D01*
X18854Y44827D01*
Y44954D01*
X18727Y45081D01*
X18473D01*
X18346Y44954D01*
X19489Y44319D02*
Y45081D01*
X19108Y44700D01*
X19616D01*
X21292Y42354D02*
X21165Y42481D01*
X20911D01*
X20784Y42354D01*
Y41846D01*
X20911Y41719D01*
X21165D01*
X21292Y41846D01*
X22054Y41719D02*
X21546D01*
X22054Y42227D01*
Y42354D01*
X21927Y42481D01*
X21673D01*
X21546Y42354D01*
X22308D02*
X22435Y42481D01*
X22689D01*
X22816Y42354D01*
Y42227D01*
X22689Y42100D01*
X22562D01*
X22689D01*
X22816Y41973D01*
Y41846D01*
X22689Y41719D01*
X22435D01*
X22308Y41846D01*
X29707Y26454D02*
X29580Y26581D01*
X29326D01*
X29199Y26454D01*
Y25946D01*
X29326Y25819D01*
X29580D01*
X29707Y25946D01*
X30469Y25819D02*
X29961D01*
X30469Y26327D01*
Y26454D01*
X30342Y26581D01*
X30088D01*
X29961Y26454D01*
X31231Y25819D02*
X30723D01*
X31231Y26327D01*
Y26454D01*
X31104Y26581D01*
X30850D01*
X30723Y26454D01*
X35219Y24454D02*
X35092Y24581D01*
X34838D01*
X34711Y24454D01*
Y23946D01*
X34838Y23819D01*
X35092D01*
X35219Y23946D01*
X35981Y23819D02*
X35473D01*
X35981Y24327D01*
Y24454D01*
X35854Y24581D01*
X35600D01*
X35473Y24454D01*
X36235Y23819D02*
X36489D01*
X36362D01*
Y24581D01*
X36235Y24454D01*
X5498Y19418D02*
X5371Y19545D01*
X5118D01*
X4991Y19418D01*
Y18910D01*
X5118Y18783D01*
X5371D01*
X5498Y18910D01*
X6260Y18783D02*
X5752D01*
X6260Y19291D01*
Y19418D01*
X6133Y19545D01*
X5879D01*
X5752Y19418D01*
X6514D02*
X6641Y19545D01*
X6895D01*
X7022Y19418D01*
Y18910D01*
X6895Y18783D01*
X6641D01*
X6514Y18910D01*
Y19418D01*
X16256Y55854D02*
X16129Y55981D01*
X15875D01*
X15748Y55854D01*
Y55346D01*
X15875Y55219D01*
X16129D01*
X16256Y55346D01*
X16510Y55219D02*
X16763D01*
X16637D01*
Y55981D01*
X16510Y55854D01*
X17144Y55346D02*
X17271Y55219D01*
X17525D01*
X17652Y55346D01*
Y55854D01*
X17525Y55981D01*
X17271D01*
X17144Y55854D01*
Y55727D01*
X17271Y55600D01*
X17652D01*
X27854Y48844D02*
X27981Y48971D01*
Y49225D01*
X27854Y49352D01*
X27346D01*
X27219Y49225D01*
Y48971D01*
X27346Y48844D01*
X27219Y48590D02*
Y48337D01*
Y48463D01*
X27981D01*
X27854Y48590D01*
Y47956D02*
X27981Y47829D01*
Y47575D01*
X27854Y47448D01*
X27727D01*
X27600Y47575D01*
X27473Y47448D01*
X27346D01*
X27219Y47575D01*
Y47829D01*
X27346Y47956D01*
X27473D01*
X27600Y47829D01*
X27727Y47956D01*
X27854D01*
X27600Y47829D02*
Y47575D01*
X29739Y48844D02*
X29866Y48971D01*
Y49225D01*
X29739Y49352D01*
X29231D01*
X29104Y49225D01*
Y48971D01*
X29231Y48844D01*
X29104Y48590D02*
Y48337D01*
Y48463D01*
X29866D01*
X29739Y48590D01*
X29866Y47956D02*
Y47448D01*
X29739D01*
X29231Y47956D01*
X29104D01*
X46656Y33754D02*
X46529Y33881D01*
X46275D01*
X46148Y33754D01*
Y33246D01*
X46275Y33119D01*
X46529D01*
X46656Y33246D01*
X46910Y33119D02*
X47163D01*
X47037D01*
Y33881D01*
X46910Y33754D01*
X48052Y33881D02*
X47798Y33754D01*
X47544Y33500D01*
Y33246D01*
X47671Y33119D01*
X47925D01*
X48052Y33246D01*
Y33373D01*
X47925Y33500D01*
X47544D01*
X49656Y35454D02*
X49529Y35581D01*
X49275D01*
X49148Y35454D01*
Y34946D01*
X49275Y34819D01*
X49529D01*
X49656Y34946D01*
X49910Y34819D02*
X50163D01*
X50037D01*
Y35581D01*
X49910Y35454D01*
X51052Y35581D02*
X50544D01*
Y35200D01*
X50798Y35327D01*
X50925D01*
X51052Y35200D01*
Y34946D01*
X50925Y34819D01*
X50671D01*
X50544Y34946D01*
X48368Y23754D02*
X48241Y23881D01*
X47988D01*
X47861Y23754D01*
Y23246D01*
X47988Y23119D01*
X48241D01*
X48368Y23246D01*
X48622Y23119D02*
X48876D01*
X48749D01*
Y23881D01*
X48622Y23754D01*
X49638Y23119D02*
Y23881D01*
X49257Y23500D01*
X49765D01*
X39956Y26254D02*
X39829Y26381D01*
X39575D01*
X39448Y26254D01*
Y25746D01*
X39575Y25619D01*
X39829D01*
X39956Y25746D01*
X40210Y25619D02*
X40463D01*
X40337D01*
Y26381D01*
X40210Y26254D01*
X40844D02*
X40971Y26381D01*
X41225D01*
X41352Y26254D01*
Y26127D01*
X41225Y26000D01*
X41098D01*
X41225D01*
X41352Y25873D01*
Y25746D01*
X41225Y25619D01*
X40971D01*
X40844Y25746D01*
X40954Y29144D02*
X41081Y29271D01*
Y29525D01*
X40954Y29652D01*
X40446D01*
X40319Y29525D01*
Y29271D01*
X40446Y29144D01*
X40319Y28890D02*
Y28637D01*
Y28763D01*
X41081D01*
X40954Y28890D01*
X40319Y27748D02*
Y28256D01*
X40827Y27748D01*
X40954D01*
X41081Y27875D01*
Y28129D01*
X40954Y28256D01*
X39120Y19010D02*
X39247Y19137D01*
Y19391D01*
X39120Y19518D01*
X38612D01*
X38485Y19391D01*
Y19137D01*
X38612Y19010D01*
X38485Y18756D02*
Y18502D01*
Y18629D01*
X39247D01*
X39120Y18756D01*
X38485Y18121D02*
Y17867D01*
Y17994D01*
X39247D01*
X39120Y18121D01*
X50295Y19966D02*
X50168Y20093D01*
X49914D01*
X49787Y19966D01*
Y19458D01*
X49914Y19331D01*
X50168D01*
X50295Y19458D01*
X50549Y19331D02*
X50803D01*
X50676D01*
Y20093D01*
X50549Y19966D01*
X51183D02*
X51310Y20093D01*
X51564D01*
X51691Y19966D01*
Y19458D01*
X51564Y19331D01*
X51310D01*
X51183Y19458D01*
Y19966D01*
X56354Y14527D02*
X56481Y14654D01*
Y14908D01*
X56354Y15035D01*
X55846D01*
X55719Y14908D01*
Y14654D01*
X55846Y14527D01*
Y14273D02*
X55719Y14146D01*
Y13892D01*
X55846Y13765D01*
X56354D01*
X56481Y13892D01*
Y14146D01*
X56354Y14273D01*
X56227D01*
X56100Y14146D01*
Y13765D01*
X46439Y2354D02*
X46312Y2481D01*
X46058D01*
X45931Y2354D01*
Y1846D01*
X46058Y1719D01*
X46312D01*
X46439Y1846D01*
X46693Y2354D02*
X46820Y2481D01*
X47074D01*
X47201Y2354D01*
Y2227D01*
X47074Y2100D01*
X47201Y1973D01*
Y1846D01*
X47074Y1719D01*
X46820D01*
X46693Y1846D01*
Y1973D01*
X46820Y2100D01*
X46693Y2227D01*
Y2354D01*
X46820Y2100D02*
X47074D01*
X40254Y14527D02*
X40381Y14654D01*
Y14908D01*
X40254Y15035D01*
X39746D01*
X39619Y14908D01*
Y14654D01*
X39746Y14527D01*
X40381Y14273D02*
Y13765D01*
X40254D01*
X39746Y14273D01*
X39619D01*
X12554Y31122D02*
X12681Y31249D01*
Y31503D01*
X12554Y31630D01*
X12046D01*
X11919Y31503D01*
Y31249D01*
X12046Y31122D01*
X12681Y30360D02*
X12554Y30614D01*
X12300Y30868D01*
X12046D01*
X11919Y30741D01*
Y30487D01*
X12046Y30360D01*
X12173D01*
X12300Y30487D01*
Y30868D01*
X6754Y36327D02*
X6881Y36454D01*
Y36708D01*
X6754Y36835D01*
X6246D01*
X6119Y36708D01*
Y36454D01*
X6246Y36327D01*
X6881Y35565D02*
Y36073D01*
X6500D01*
X6627Y35819D01*
Y35692D01*
X6500Y35565D01*
X6246D01*
X6119Y35692D01*
Y35946D01*
X6246Y36073D01*
X12554Y37401D02*
X12681Y37528D01*
Y37782D01*
X12554Y37909D01*
X12046D01*
X11919Y37782D01*
Y37528D01*
X12046Y37401D01*
X11919Y36766D02*
X12681D01*
X12300Y37147D01*
Y36639D01*
X6373Y33289D02*
X6246Y33416D01*
X5992D01*
X5865Y33289D01*
Y32781D01*
X5992Y32654D01*
X6246D01*
X6373Y32781D01*
X6627Y33289D02*
X6754Y33416D01*
X7008D01*
X7135Y33289D01*
Y33162D01*
X7008Y33035D01*
X6881D01*
X7008D01*
X7135Y32908D01*
Y32781D01*
X7008Y32654D01*
X6754D01*
X6627Y32781D01*
X18140Y42094D02*
X18013Y42221D01*
X17759D01*
X17632Y42094D01*
Y41586D01*
X17759Y41459D01*
X18013D01*
X18140Y41586D01*
X18394Y41459D02*
X18648D01*
X18521D01*
Y42221D01*
X18394Y42094D01*
%TF.MD5,cbf532637ab8f6b229472cb0c41a11fc*%
M02*
