%TF.GenerationSoftware,Altium Limited,Altium Designer,19.1.6 (110)*%
G04 Layer_Color=16711935*
%FSLAX43Y43*%
%MOMM*%
%TF.FileFunction,Soldermask,Bot*%
%TF.Part,Single*%
G01*
G75*
%TA.AperFunction,ComponentPad*%
%ADD26C,1.600*%
%ADD27R,1.600X1.600*%
%ADD28C,1.650*%
%ADD29O,2.100X1.400*%
%ADD30R,1.524X1.524*%
%ADD31C,1.524*%
%ADD32R,1.650X1.650*%
%ADD33C,1.651*%
%ADD34R,1.651X1.651*%
D26*
X82036Y18930D02*
D03*
Y21470D02*
D03*
Y24010D02*
D03*
Y29090D02*
D03*
Y31630D02*
D03*
Y36710D02*
D03*
Y41790D02*
D03*
Y44330D02*
D03*
Y39250D02*
D03*
Y34170D02*
D03*
Y26550D02*
D03*
Y16390D02*
D03*
Y13850D02*
D03*
X59000Y18930D02*
D03*
Y21470D02*
D03*
Y24010D02*
D03*
Y29090D02*
D03*
Y31630D02*
D03*
Y36710D02*
D03*
Y41790D02*
D03*
Y44330D02*
D03*
Y39250D02*
D03*
Y34170D02*
D03*
Y26550D02*
D03*
Y16390D02*
D03*
Y13850D02*
D03*
D27*
X82036Y46870D02*
D03*
X59000D02*
D03*
D28*
X51620Y9200D02*
D03*
X49080D02*
D03*
X46540D02*
D03*
X44000D02*
D03*
X41460D02*
D03*
X38920D02*
D03*
X36380D02*
D03*
X7100Y44341D02*
D03*
Y41801D02*
D03*
Y39261D02*
D03*
Y36721D02*
D03*
Y34181D02*
D03*
D29*
X2340Y13800D02*
D03*
X2498Y21687D02*
D03*
D30*
X25900Y30150D02*
D03*
D31*
Y32690D02*
D03*
D32*
X7100Y46881D02*
D03*
D33*
X63740Y81425D02*
D03*
X58660D02*
D03*
X56120D02*
D03*
X53580D02*
D03*
X51040D02*
D03*
X48500D02*
D03*
X61200D02*
D03*
Y58565D02*
D03*
X48500D02*
D03*
X51040D02*
D03*
X53580D02*
D03*
X56120D02*
D03*
X58660D02*
D03*
X63740D02*
D03*
D34*
X45960Y81425D02*
D03*
Y58565D02*
D03*
%TF.MD5,c61fc27372d8af33881a45b3b3e67f87*%
M02*
