%TF.GenerationSoftware,Altium Limited,Altium Designer,19.1.6 (110)*%
G04 Layer_Color=255*
%FSLAX43Y43*%
%MOMM*%
%TF.FileFunction,Pads,Top*%
%TF.Part,Single*%
G01*
G75*
%TA.AperFunction,SMDPad,CuDef*%
%ADD10R,3.800X2.030*%
%ADD11R,1.285X1.470*%
%ADD12R,0.500X0.800*%
%ADD13R,2.000X1.400*%
%ADD14R,1.470X1.285*%
%ADD15R,1.800X0.450*%
%ADD16O,0.400X1.250*%
%TA.AperFunction,ConnectorPad*%
%ADD17R,1.900X1.375*%
%ADD18R,2.100X1.475*%
%ADD19R,1.380X0.450*%
%TA.AperFunction,SMDPad,CuDef*%
%ADD20R,2.030X3.800*%
%ADD21R,3.100X3.100*%
%ADD22R,1.450X0.450*%
%TA.AperFunction,ComponentPad*%
%ADD26C,1.600*%
%ADD27R,1.600X1.600*%
%ADD28C,1.650*%
%ADD29O,2.100X1.400*%
%ADD30R,1.524X1.524*%
%ADD31C,1.524*%
%ADD32R,1.650X1.650*%
%ADD33C,1.651*%
%ADD34R,1.651X1.651*%
D10*
X4575Y28150D02*
D03*
D11*
X48545Y43200D02*
D03*
X46600D02*
D03*
Y45175D02*
D03*
X48545D02*
D03*
X11175Y46881D02*
D03*
X13120D02*
D03*
Y44341D02*
D03*
X11175D02*
D03*
X74068Y37154D02*
D03*
X72123D02*
D03*
X23502Y22602D02*
D03*
X25448D02*
D03*
X48545Y47325D02*
D03*
X46600D02*
D03*
X16748Y18400D02*
D03*
X14802D02*
D03*
X16748Y16450D02*
D03*
X14802D02*
D03*
X24178Y11912D02*
D03*
X22232D02*
D03*
D12*
X43550Y43200D02*
D03*
X44450D02*
D03*
Y44800D02*
D03*
X43550D02*
D03*
D13*
X33325Y45550D02*
D03*
X40325D02*
D03*
X33325Y42550D02*
D03*
X40325D02*
D03*
X25619D02*
D03*
X18620D02*
D03*
X25619Y45550D02*
D03*
X18620D02*
D03*
D14*
X29425Y41130D02*
D03*
Y43075D02*
D03*
X79150Y28848D02*
D03*
Y26902D02*
D03*
X64605Y26398D02*
D03*
Y24452D02*
D03*
X22469Y30100D02*
D03*
Y28155D02*
D03*
X12475Y18302D02*
D03*
Y20248D02*
D03*
X14720Y41112D02*
D03*
Y43057D02*
D03*
X10250Y14060D02*
D03*
Y16005D02*
D03*
X10245Y9967D02*
D03*
Y11912D02*
D03*
X12475Y14602D02*
D03*
Y16548D02*
D03*
X7825Y14060D02*
D03*
Y16005D02*
D03*
D15*
X66968Y34602D02*
D03*
Y33952D02*
D03*
Y33302D02*
D03*
Y32652D02*
D03*
Y32002D02*
D03*
Y31352D02*
D03*
Y30702D02*
D03*
Y30052D02*
D03*
Y29402D02*
D03*
Y28752D02*
D03*
Y28102D02*
D03*
Y27452D02*
D03*
Y26802D02*
D03*
Y26152D02*
D03*
X74068D02*
D03*
Y26802D02*
D03*
Y27452D02*
D03*
Y28102D02*
D03*
Y28752D02*
D03*
Y29402D02*
D03*
Y30052D02*
D03*
Y30702D02*
D03*
Y31352D02*
D03*
Y32002D02*
D03*
Y32652D02*
D03*
Y33302D02*
D03*
Y33952D02*
D03*
Y34602D02*
D03*
D16*
X20327Y14800D02*
D03*
X20962D02*
D03*
X21597D02*
D03*
X20327Y20050D02*
D03*
X20962D02*
D03*
X21597D02*
D03*
X23502Y14800D02*
D03*
X24137D02*
D03*
X22232D02*
D03*
X22867D02*
D03*
X24772D02*
D03*
X22232Y20050D02*
D03*
X22867D02*
D03*
X23502D02*
D03*
X24137D02*
D03*
X24772D02*
D03*
D17*
X2340Y18688D02*
D03*
Y16812D02*
D03*
D18*
X4640Y15288D02*
D03*
Y20212D02*
D03*
D19*
X5000Y19050D02*
D03*
Y18400D02*
D03*
Y17750D02*
D03*
Y17100D02*
D03*
Y16450D02*
D03*
D20*
X22469Y4675D02*
D03*
X14727D02*
D03*
D21*
X16992Y30425D02*
D03*
D22*
X19917Y32700D02*
D03*
Y32050D02*
D03*
Y31400D02*
D03*
Y30750D02*
D03*
Y30100D02*
D03*
Y29450D02*
D03*
Y28800D02*
D03*
Y28150D02*
D03*
X14067D02*
D03*
Y28800D02*
D03*
Y29450D02*
D03*
Y30100D02*
D03*
Y30750D02*
D03*
Y31400D02*
D03*
Y32050D02*
D03*
Y32700D02*
D03*
D26*
X82036Y18930D02*
D03*
Y21470D02*
D03*
Y24010D02*
D03*
Y29090D02*
D03*
Y31630D02*
D03*
Y36710D02*
D03*
Y41790D02*
D03*
Y44330D02*
D03*
Y39250D02*
D03*
Y34170D02*
D03*
Y26550D02*
D03*
Y16390D02*
D03*
Y13850D02*
D03*
X59000Y18930D02*
D03*
Y21470D02*
D03*
Y24010D02*
D03*
Y29090D02*
D03*
Y31630D02*
D03*
Y36710D02*
D03*
Y41790D02*
D03*
Y44330D02*
D03*
Y39250D02*
D03*
Y34170D02*
D03*
Y26550D02*
D03*
Y16390D02*
D03*
Y13850D02*
D03*
D27*
X82036Y46870D02*
D03*
X59000D02*
D03*
D28*
X51620Y9200D02*
D03*
X49080D02*
D03*
X46540D02*
D03*
X44000D02*
D03*
X41460D02*
D03*
X38920D02*
D03*
X36380D02*
D03*
X7100Y44341D02*
D03*
Y41801D02*
D03*
Y39261D02*
D03*
Y36721D02*
D03*
Y34181D02*
D03*
D29*
X2340Y13800D02*
D03*
X2498Y21687D02*
D03*
D30*
X25900Y30150D02*
D03*
D31*
Y32690D02*
D03*
D32*
X7100Y46881D02*
D03*
D33*
X63740Y81425D02*
D03*
X58660D02*
D03*
X56120D02*
D03*
X53580D02*
D03*
X51040D02*
D03*
X48500D02*
D03*
X61200D02*
D03*
Y58565D02*
D03*
X48500D02*
D03*
X51040D02*
D03*
X53580D02*
D03*
X56120D02*
D03*
X58660D02*
D03*
X63740D02*
D03*
D34*
X45960Y81425D02*
D03*
Y58565D02*
D03*
%TF.MD5,759619119f4e5c5444402c4d43c44676*%
M02*
