M48
;Layer_Color=9474304
;FILE_FORMAT=4:3
METRIC,LZ
;TYPE=PLATED
T1F00S00C0.450
T3F00S00C0.711
T4F00S00C0.889
T5F00S00C1.000
T6F00S00C1.100
T7F00S00C3.500
%
T01
X0012791Y0004675
Y0011912
X00235Y00135
X002285Y0018675
X00216Y001867
X0024762Y0018801
X0024178Y0021285
X00259Y0004675
X0049125Y0016375
X0064605Y002297
X00685Y0030052
X0072525Y0028725
Y0033952
X0079125Y00254
X0078825Y0051025
X0078125Y0050325
X007735Y004965
X00766Y004895
X0070175Y0051675
X007105Y00527
X006945Y0053775
X0071825Y0054775
X008205Y00559
X00612
X00523Y0054775
X005105Y0053775
X004985Y00527
X0048525Y0051675
X005Y00503
X0051075Y004965
X00523Y0048975
X0049925Y004735
X0051053Y0045188
X0052312Y0043213
X0042275Y004255
X003892Y004008
X003635Y004073
X00259Y0041112
Y00441
Y00559
X004225Y005095
X0044Y0031625
X004655Y0034175
X0049125Y0032652
X0041447Y0026548
X0026805Y0022602
X0024126Y0024251
X0022175Y0023587
X0022469Y0026549
X0017767Y0029609
X0016156
X0016212Y003125
X0017767
X0012791Y00301
T03
X0001025Y0004325
X0003525Y0009325
X0011025Y0004325
X0018525Y0009325
X0016025Y0014325
X0008525Y0019325
X0023525Y0009325
X0028525
X0033525
X0036025Y0004325
X0031025
X0051025
X0056025
X0058525Y0009325
X0053525
X0063525
X0068525
X0073525
X0078525
X0076025Y0014325
X0071025
X0066025
X0061025
Y0004325
X0066025
X0071025
X0076025
X0068525Y0019325
X0076025Y0024325
X0068525Y0039325
X0063525
X0066025Y0044325
X0076025Y0054325
X0083525Y0049325
X0056025Y0044325
X0048525Y0049325
X0043525
X0038525
X0033525
X0028525
X0023525
X0031025Y0054325
X0036025
X0041025
X0046025
X0041025Y0034325
X0031025
X0033525Y0029325
X0028525
X0053525
X0021025Y0034325
X0016025
X0011025
X0008525Y0029325
X0011025Y0024325
X0016025
X0021025
X0006025
X0001025
Y0034325
X0003525Y0039325
X0001025Y0044325
X0003525Y0049325
X0008525
X0013525
X0018525
X0021025Y0054325
X0016025
X0011025
X0006025
X0001025
X0021025Y0044325
T04
X00612Y0058565
X006374
X005866
X005612
X005358
X005104
X00485
X004596
Y0081425
X00485
X005104
X005358
X005612
X005866
X00612
X006374
T05
X00259Y003015
Y003269
T06
X003638Y00092
X003892
X004146
X0044
X004654
X004908
X005162
X0059Y001385
Y001639
Y001893
Y002147
X0082036
Y001893
Y001639
Y001385
Y002401
Y002655
Y002909
Y003163
Y003417
Y003671
Y003925
Y004179
Y004433
Y004687
X0059
Y004433
Y004179
Y003925
Y003671
Y003417
Y003163
Y002909
Y002655
Y002401
X00071Y0034181
Y0036721
Y0039261
Y0041801
Y0044341
Y0046881
T07
X00065Y00065
X00815
X00065Y00815
X00815
M30
