%TF.GenerationSoftware,Altium Limited,Altium Designer,19.1.6 (110)*%
G04 Layer_Color=32896*
%FSLAX43Y43*%
%MOMM*%
%TF.FileFunction,Legend,Bot*%
%TF.Part,Single*%
G01*
G75*
%TA.AperFunction,NonConductor*%
%ADD42C,0.305*%
%ADD46C,0.025*%
G36*
X64599Y70870D02*
X64592Y70856D01*
X64586Y70842D01*
X64579Y70829D01*
X64574Y70818D01*
X64569Y70809D01*
X64565Y70804D01*
X64564Y70803D01*
Y70802D01*
X64554Y70785D01*
X64544Y70770D01*
X64535Y70757D01*
X64527Y70747D01*
X64520Y70738D01*
X64515Y70732D01*
X64511Y70728D01*
X64510Y70727D01*
X65010D01*
Y70648D01*
X64367D01*
Y70699D01*
X64383Y70708D01*
X64398Y70718D01*
X64413Y70731D01*
X64426Y70742D01*
X64437Y70753D01*
X64446Y70761D01*
X64449Y70765D01*
X64452Y70768D01*
X64453Y70768D01*
X64453Y70769D01*
X64469Y70789D01*
X64484Y70808D01*
X64497Y70827D01*
X64507Y70845D01*
X64516Y70861D01*
X64520Y70867D01*
X64523Y70873D01*
X64526Y70878D01*
X64527Y70881D01*
X64528Y70883D01*
Y70884D01*
X64604D01*
X64599Y70870D01*
D02*
G37*
G36*
X49135Y64004D02*
X48851D01*
Y63895D01*
X48852Y63885D01*
Y63878D01*
X48853Y63871D01*
X48854Y63866D01*
Y63863D01*
X48855Y63861D01*
Y63860D01*
X48860Y63845D01*
X48862Y63839D01*
X48865Y63833D01*
X48868Y63828D01*
X48870Y63824D01*
X48871Y63822D01*
X48872Y63821D01*
X48877Y63814D01*
X48884Y63806D01*
X48897Y63792D01*
X48904Y63786D01*
X48909Y63781D01*
X48913Y63779D01*
X48914Y63778D01*
X48927Y63768D01*
X48941Y63758D01*
X48956Y63748D01*
X48970Y63738D01*
X48983Y63730D01*
X48993Y63723D01*
X48996Y63720D01*
X48999Y63719D01*
X49001Y63717D01*
X49002D01*
X49135Y63633D01*
Y63527D01*
X48961Y63637D01*
X48943Y63650D01*
X48926Y63662D01*
X48912Y63674D01*
X48899Y63684D01*
X48890Y63694D01*
X48883Y63701D01*
X48878Y63706D01*
X48876Y63707D01*
X48871Y63715D01*
X48864Y63723D01*
X48854Y63740D01*
X48850Y63747D01*
X48847Y63753D01*
X48845Y63756D01*
X48844Y63758D01*
X48841Y63742D01*
X48838Y63726D01*
X48834Y63712D01*
X48830Y63698D01*
X48825Y63686D01*
X48820Y63675D01*
X48815Y63665D01*
X48811Y63656D01*
X48805Y63648D01*
X48800Y63641D01*
X48797Y63635D01*
X48793Y63631D01*
X48790Y63627D01*
X48787Y63624D01*
X48786Y63623D01*
X48786Y63622D01*
X48776Y63615D01*
X48767Y63608D01*
X48748Y63596D01*
X48728Y63589D01*
X48710Y63584D01*
X48694Y63580D01*
X48688Y63579D01*
X48681D01*
X48676Y63578D01*
X48673D01*
X48671D01*
X48670D01*
X48651Y63579D01*
X48633Y63582D01*
X48616Y63586D01*
X48603Y63591D01*
X48590Y63596D01*
X48581Y63600D01*
X48576Y63604D01*
X48575Y63605D01*
X48574D01*
X48559Y63616D01*
X48546Y63627D01*
X48535Y63639D01*
X48527Y63650D01*
X48520Y63660D01*
X48517Y63669D01*
X48514Y63674D01*
X48513Y63675D01*
Y63676D01*
X48510Y63684D01*
X48507Y63694D01*
X48503Y63715D01*
X48500Y63737D01*
X48497Y63757D01*
X48496Y63777D01*
Y63785D01*
X48495Y63792D01*
Y64089D01*
X49135D01*
Y64004D01*
D02*
G37*
G36*
X48953Y63472D02*
X48975Y63468D01*
X48995Y63462D01*
X49012Y63456D01*
X49026Y63449D01*
X49032Y63447D01*
X49036Y63445D01*
X49040Y63442D01*
X49043Y63441D01*
X49044Y63439D01*
X49045D01*
X49063Y63425D01*
X49079Y63411D01*
X49092Y63395D01*
X49103Y63380D01*
X49111Y63367D01*
X49117Y63356D01*
X49118Y63352D01*
X49120Y63350D01*
X49121Y63348D01*
Y63347D01*
X49130Y63324D01*
X49136Y63300D01*
X49140Y63276D01*
X49143Y63253D01*
X49144Y63241D01*
X49145Y63232D01*
Y63224D01*
X49146Y63216D01*
Y63202D01*
X49145Y63177D01*
X49142Y63154D01*
X49138Y63132D01*
X49133Y63115D01*
X49130Y63100D01*
X49127Y63094D01*
X49125Y63088D01*
X49123Y63084D01*
X49122Y63082D01*
X49121Y63080D01*
Y63079D01*
X49111Y63059D01*
X49100Y63043D01*
X49088Y63028D01*
X49077Y63016D01*
X49068Y63007D01*
X49059Y63000D01*
X49054Y62996D01*
X49053Y62995D01*
X49052D01*
X49034Y62984D01*
X49018Y62977D01*
X49002Y62972D01*
X48987Y62969D01*
X48974Y62967D01*
X48964Y62965D01*
X48960D01*
X48958D01*
X48957D01*
X48956D01*
X48937Y62966D01*
X48920Y62969D01*
X48904Y62973D01*
X48891Y62978D01*
X48880Y62984D01*
X48872Y62987D01*
X48867Y62991D01*
X48865Y62992D01*
X48851Y63003D01*
X48838Y63016D01*
X48827Y63030D01*
X48817Y63044D01*
X48810Y63056D01*
X48804Y63066D01*
X48802Y63069D01*
X48800Y63072D01*
X48799Y63074D01*
Y63075D01*
X48796Y63082D01*
X48793Y63092D01*
X48789Y63102D01*
X48786Y63113D01*
X48779Y63136D01*
X48773Y63160D01*
X48770Y63171D01*
X48767Y63181D01*
X48764Y63192D01*
X48762Y63200D01*
X48761Y63206D01*
X48760Y63212D01*
X48759Y63216D01*
Y63216D01*
X48754Y63235D01*
X48750Y63252D01*
X48746Y63266D01*
X48742Y63279D01*
X48737Y63291D01*
X48734Y63302D01*
X48730Y63311D01*
X48727Y63319D01*
X48724Y63326D01*
X48721Y63331D01*
X48719Y63335D01*
X48716Y63339D01*
X48713Y63343D01*
X48713Y63344D01*
X48703Y63352D01*
X48694Y63358D01*
X48685Y63363D01*
X48676Y63365D01*
X48668Y63367D01*
X48662Y63368D01*
X48658D01*
X48656D01*
X48641Y63366D01*
X48628Y63363D01*
X48617Y63357D01*
X48607Y63351D01*
X48600Y63345D01*
X48593Y63339D01*
X48590Y63336D01*
X48589Y63334D01*
X48584Y63327D01*
X48579Y63319D01*
X48572Y63302D01*
X48567Y63283D01*
X48564Y63265D01*
X48562Y63248D01*
X48561Y63241D01*
X48560Y63235D01*
Y63222D01*
X48561Y63196D01*
X48565Y63173D01*
X48570Y63155D01*
X48576Y63139D01*
X48581Y63127D01*
X48587Y63118D01*
X48590Y63113D01*
X48591Y63111D01*
X48604Y63098D01*
X48618Y63088D01*
X48633Y63080D01*
X48648Y63074D01*
X48662Y63070D01*
X48672Y63068D01*
X48676Y63067D01*
X48679Y63066D01*
X48681D01*
X48682D01*
X48676Y62984D01*
X48655Y62986D01*
X48637Y62991D01*
X48619Y62996D01*
X48604Y63002D01*
X48592Y63008D01*
X48583Y63012D01*
X48580Y63014D01*
X48578Y63016D01*
X48577Y63017D01*
X48576D01*
X48560Y63029D01*
X48546Y63042D01*
X48534Y63056D01*
X48525Y63069D01*
X48517Y63082D01*
X48512Y63091D01*
X48510Y63094D01*
X48508Y63097D01*
X48507Y63099D01*
Y63100D01*
X48500Y63120D01*
X48494Y63143D01*
X48490Y63163D01*
X48487Y63182D01*
X48485Y63200D01*
Y63206D01*
X48484Y63213D01*
Y63225D01*
X48485Y63249D01*
X48488Y63270D01*
X48492Y63290D01*
X48495Y63308D01*
X48499Y63322D01*
X48501Y63328D01*
X48503Y63333D01*
X48505Y63337D01*
X48505Y63339D01*
X48506Y63341D01*
Y63342D01*
X48516Y63361D01*
X48526Y63377D01*
X48537Y63391D01*
X48547Y63402D01*
X48556Y63411D01*
X48564Y63417D01*
X48569Y63422D01*
X48570Y63423D01*
X48571D01*
X48587Y63432D01*
X48603Y63438D01*
X48618Y63443D01*
X48632Y63446D01*
X48644Y63448D01*
X48653Y63449D01*
X48657D01*
X48660D01*
X48661D01*
X48662D01*
X48677Y63449D01*
X48692Y63446D01*
X48706Y63442D01*
X48718Y63438D01*
X48727Y63435D01*
X48735Y63431D01*
X48739Y63428D01*
X48741Y63427D01*
X48754Y63418D01*
X48766Y63407D01*
X48776Y63396D01*
X48785Y63385D01*
X48792Y63376D01*
X48797Y63367D01*
X48800Y63362D01*
X48801Y63361D01*
Y63360D01*
X48805Y63352D01*
X48809Y63344D01*
X48815Y63326D01*
X48822Y63304D01*
X48828Y63284D01*
X48834Y63265D01*
X48836Y63257D01*
X48837Y63250D01*
X48839Y63244D01*
X48840Y63240D01*
X48841Y63237D01*
Y63236D01*
X48845Y63220D01*
X48848Y63205D01*
X48852Y63192D01*
X48855Y63181D01*
X48858Y63170D01*
X48860Y63161D01*
X48862Y63153D01*
X48865Y63146D01*
X48867Y63140D01*
X48868Y63135D01*
X48871Y63128D01*
X48872Y63123D01*
X48872Y63122D01*
X48878Y63108D01*
X48885Y63096D01*
X48891Y63086D01*
X48897Y63079D01*
X48902Y63072D01*
X48906Y63069D01*
X48909Y63066D01*
X48909Y63065D01*
X48918Y63058D01*
X48927Y63054D01*
X48936Y63051D01*
X48944Y63048D01*
X48951Y63047D01*
X48957Y63046D01*
X48961D01*
X48962D01*
X48973Y63047D01*
X48983Y63049D01*
X48993Y63052D01*
X49000Y63056D01*
X49007Y63059D01*
X49012Y63062D01*
X49016Y63064D01*
X49017Y63065D01*
X49026Y63072D01*
X49033Y63082D01*
X49040Y63091D01*
X49046Y63099D01*
X49050Y63107D01*
X49054Y63114D01*
X49056Y63118D01*
X49056Y63120D01*
X49061Y63134D01*
X49065Y63149D01*
X49067Y63164D01*
X49068Y63177D01*
X49069Y63188D01*
X49070Y63197D01*
Y63205D01*
X49069Y63226D01*
X49068Y63244D01*
X49065Y63261D01*
X49061Y63276D01*
X49057Y63288D01*
X49055Y63297D01*
X49054Y63300D01*
X49053Y63302D01*
X49052Y63303D01*
Y63304D01*
X49044Y63319D01*
X49036Y63333D01*
X49028Y63343D01*
X49019Y63352D01*
X49013Y63360D01*
X49007Y63364D01*
X49003Y63367D01*
X49002Y63368D01*
X48990Y63375D01*
X48977Y63381D01*
X48963Y63385D01*
X48951Y63388D01*
X48939Y63391D01*
X48931Y63393D01*
X48927D01*
X48924Y63394D01*
X48923D01*
X48922D01*
X48930Y63474D01*
X48953Y63472D01*
D02*
G37*
G36*
X48571Y62686D02*
X49135D01*
Y62601D01*
X48571D01*
Y62390D01*
X48495D01*
Y62897D01*
X48571D01*
Y62686D01*
D02*
G37*
G36*
X51384Y63110D02*
X51416Y63106D01*
X51445Y63101D01*
X51459Y63098D01*
X51471Y63095D01*
X51482Y63092D01*
X51492Y63088D01*
X51501Y63086D01*
X51509Y63084D01*
X51514Y63081D01*
X51519Y63080D01*
X51522Y63078D01*
X51523D01*
X51550Y63064D01*
X51575Y63049D01*
X51596Y63032D01*
X51605Y63024D01*
X51613Y63016D01*
X51621Y63009D01*
X51627Y63002D01*
X51633Y62995D01*
X51636Y62990D01*
X51640Y62986D01*
X51643Y62982D01*
X51644Y62980D01*
X51645Y62979D01*
X51652Y62966D01*
X51658Y62953D01*
X51669Y62926D01*
X51676Y62898D01*
X51681Y62871D01*
X51682Y62858D01*
X51684Y62847D01*
X51685Y62837D01*
Y62829D01*
X51686Y62821D01*
Y62811D01*
X51685Y62793D01*
X51683Y62775D01*
X51682Y62758D01*
X51678Y62743D01*
X51673Y62728D01*
X51669Y62714D01*
X51664Y62701D01*
X51658Y62689D01*
X51654Y62679D01*
X51649Y62669D01*
X51645Y62661D01*
X51640Y62654D01*
X51636Y62649D01*
X51634Y62645D01*
X51633Y62643D01*
X51632Y62642D01*
X51621Y62629D01*
X51609Y62618D01*
X51596Y62608D01*
X51584Y62598D01*
X51558Y62581D01*
X51532Y62568D01*
X51520Y62562D01*
X51509Y62558D01*
X51498Y62554D01*
X51490Y62551D01*
X51483Y62549D01*
X51477Y62547D01*
X51474Y62546D01*
X51473D01*
X51451Y62631D01*
X51466Y62635D01*
X51480Y62639D01*
X51493Y62644D01*
X51505Y62648D01*
X51516Y62654D01*
X51525Y62659D01*
X51535Y62666D01*
X51543Y62672D01*
X51550Y62676D01*
X51556Y62682D01*
X51561Y62686D01*
X51566Y62690D01*
X51569Y62694D01*
X51572Y62696D01*
X51572Y62697D01*
X51573Y62698D01*
X51581Y62708D01*
X51586Y62718D01*
X51596Y62738D01*
X51604Y62757D01*
X51608Y62777D01*
X51612Y62794D01*
X51613Y62800D01*
Y62806D01*
X51614Y62812D01*
Y62819D01*
X51613Y62840D01*
X51609Y62860D01*
X51605Y62879D01*
X51599Y62895D01*
X51594Y62908D01*
X51591Y62914D01*
X51589Y62918D01*
X51587Y62922D01*
X51585Y62925D01*
X51584Y62927D01*
Y62928D01*
X51572Y62945D01*
X51558Y62960D01*
X51542Y62973D01*
X51527Y62983D01*
X51514Y62991D01*
X51503Y62997D01*
X51498Y62999D01*
X51496Y63001D01*
X51494Y63002D01*
X51493D01*
X51469Y63009D01*
X51445Y63015D01*
X51421Y63019D01*
X51399Y63022D01*
X51388Y63023D01*
X51379Y63024D01*
X51371D01*
X51364Y63025D01*
X51359D01*
X51354D01*
X51351D01*
X51351D01*
X51326Y63024D01*
X51304Y63022D01*
X51284Y63018D01*
X51265Y63015D01*
X51250Y63012D01*
X51243Y63010D01*
X51238Y63008D01*
X51233Y63007D01*
X51230Y63006D01*
X51229Y63005D01*
X51228D01*
X51206Y62996D01*
X51187Y62986D01*
X51171Y62975D01*
X51157Y62963D01*
X51146Y62953D01*
X51139Y62944D01*
X51134Y62938D01*
X51132Y62937D01*
Y62936D01*
X51120Y62917D01*
X51111Y62895D01*
X51105Y62875D01*
X51101Y62855D01*
X51098Y62838D01*
X51097Y62831D01*
Y62824D01*
X51096Y62819D01*
Y62812D01*
X51097Y62789D01*
X51101Y62768D01*
X51106Y62750D01*
X51112Y62734D01*
X51118Y62722D01*
X51123Y62713D01*
X51127Y62708D01*
X51129Y62706D01*
X51143Y62691D01*
X51158Y62677D01*
X51175Y62666D01*
X51192Y62657D01*
X51206Y62649D01*
X51214Y62647D01*
X51219Y62645D01*
X51224Y62643D01*
X51228Y62641D01*
X51229Y62640D01*
X51230D01*
X51211Y62557D01*
X51194Y62562D01*
X51180Y62568D01*
X51166Y62575D01*
X51152Y62582D01*
X51140Y62589D01*
X51129Y62598D01*
X51118Y62605D01*
X51108Y62612D01*
X51101Y62620D01*
X51094Y62626D01*
X51087Y62633D01*
X51082Y62637D01*
X51078Y62642D01*
X51075Y62646D01*
X51074Y62647D01*
X51073Y62648D01*
X51065Y62661D01*
X51057Y62674D01*
X51050Y62687D01*
X51045Y62701D01*
X51036Y62729D01*
X51031Y62754D01*
X51028Y62766D01*
X51027Y62776D01*
X51026Y62786D01*
X51025Y62794D01*
X51024Y62801D01*
Y62810D01*
X51026Y62841D01*
X51031Y62870D01*
X51036Y62896D01*
X51040Y62908D01*
X51044Y62919D01*
X51047Y62929D01*
X51051Y62939D01*
X51054Y62946D01*
X51057Y62953D01*
X51059Y62958D01*
X51061Y62962D01*
X51062Y62965D01*
X51063Y62966D01*
X51079Y62990D01*
X51097Y63012D01*
X51116Y63030D01*
X51134Y63046D01*
X51151Y63058D01*
X51158Y63063D01*
X51165Y63066D01*
X51169Y63070D01*
X51173Y63072D01*
X51176Y63073D01*
X51177Y63074D01*
X51205Y63087D01*
X51235Y63096D01*
X51265Y63102D01*
X51291Y63107D01*
X51303Y63109D01*
X51315Y63110D01*
X51325Y63111D01*
X51334D01*
X51340Y63112D01*
X51346D01*
X51350D01*
X51351D01*
X51384Y63110D01*
D02*
G37*
G36*
X51493Y62468D02*
X51515Y62464D01*
X51535Y62459D01*
X51552Y62452D01*
X51566Y62446D01*
X51572Y62443D01*
X51576Y62441D01*
X51580Y62439D01*
X51583Y62438D01*
X51584Y62436D01*
X51585D01*
X51603Y62422D01*
X51619Y62407D01*
X51632Y62391D01*
X51643Y62377D01*
X51651Y62364D01*
X51657Y62353D01*
X51658Y62349D01*
X51660Y62346D01*
X51661Y62344D01*
Y62343D01*
X51670Y62320D01*
X51676Y62296D01*
X51680Y62272D01*
X51683Y62249D01*
X51684Y62238D01*
X51685Y62229D01*
Y62220D01*
X51686Y62213D01*
Y62198D01*
X51685Y62173D01*
X51682Y62150D01*
X51678Y62129D01*
X51673Y62111D01*
X51670Y62096D01*
X51667Y62090D01*
X51665Y62084D01*
X51663Y62081D01*
X51662Y62078D01*
X51661Y62076D01*
Y62075D01*
X51651Y62056D01*
X51640Y62039D01*
X51628Y62024D01*
X51617Y62012D01*
X51608Y62003D01*
X51599Y61997D01*
X51594Y61992D01*
X51593Y61991D01*
X51592D01*
X51574Y61981D01*
X51558Y61973D01*
X51542Y61969D01*
X51527Y61965D01*
X51514Y61963D01*
X51504Y61961D01*
X51500D01*
X51498D01*
X51497D01*
X51496D01*
X51477Y61962D01*
X51460Y61965D01*
X51444Y61970D01*
X51431Y61974D01*
X51420Y61980D01*
X51412Y61984D01*
X51407Y61987D01*
X51405Y61988D01*
X51391Y61999D01*
X51378Y62012D01*
X51367Y62026D01*
X51357Y62040D01*
X51350Y62052D01*
X51344Y62062D01*
X51342Y62066D01*
X51340Y62069D01*
X51339Y62071D01*
Y62071D01*
X51336Y62079D01*
X51333Y62088D01*
X51329Y62098D01*
X51326Y62109D01*
X51319Y62132D01*
X51313Y62157D01*
X51310Y62168D01*
X51307Y62178D01*
X51304Y62188D01*
X51302Y62196D01*
X51301Y62203D01*
X51300Y62208D01*
X51299Y62212D01*
Y62213D01*
X51294Y62231D01*
X51290Y62248D01*
X51286Y62263D01*
X51282Y62276D01*
X51278Y62288D01*
X51274Y62298D01*
X51270Y62307D01*
X51267Y62316D01*
X51264Y62322D01*
X51261Y62328D01*
X51259Y62331D01*
X51256Y62335D01*
X51253Y62340D01*
X51253Y62341D01*
X51243Y62349D01*
X51234Y62354D01*
X51225Y62359D01*
X51216Y62362D01*
X51208Y62364D01*
X51202Y62365D01*
X51198D01*
X51196D01*
X51181Y62363D01*
X51168Y62359D01*
X51157Y62353D01*
X51147Y62347D01*
X51140Y62341D01*
X51133Y62336D01*
X51130Y62332D01*
X51129Y62330D01*
X51124Y62323D01*
X51119Y62316D01*
X51112Y62298D01*
X51107Y62279D01*
X51104Y62261D01*
X51102Y62244D01*
X51101Y62237D01*
X51100Y62231D01*
Y62218D01*
X51101Y62193D01*
X51105Y62169D01*
X51110Y62151D01*
X51116Y62135D01*
X51121Y62123D01*
X51127Y62114D01*
X51131Y62109D01*
X51131Y62108D01*
X51144Y62095D01*
X51158Y62084D01*
X51173Y62076D01*
X51188Y62071D01*
X51202Y62067D01*
X51212Y62064D01*
X51216Y62063D01*
X51219Y62062D01*
X51221D01*
X51222D01*
X51216Y61981D01*
X51195Y61983D01*
X51177Y61987D01*
X51159Y61992D01*
X51144Y61998D01*
X51132Y62004D01*
X51123Y62009D01*
X51120Y62010D01*
X51118Y62012D01*
X51117Y62013D01*
X51116D01*
X51100Y62025D01*
X51086Y62038D01*
X51074Y62052D01*
X51065Y62066D01*
X51057Y62078D01*
X51052Y62087D01*
X51050Y62091D01*
X51048Y62094D01*
X51047Y62096D01*
Y62096D01*
X51040Y62117D01*
X51034Y62139D01*
X51030Y62159D01*
X51027Y62179D01*
X51025Y62196D01*
Y62203D01*
X51024Y62209D01*
Y62221D01*
X51025Y62245D01*
X51028Y62267D01*
X51032Y62287D01*
X51035Y62304D01*
X51039Y62318D01*
X51041Y62325D01*
X51043Y62329D01*
X51045Y62333D01*
X51045Y62336D01*
X51046Y62338D01*
Y62339D01*
X51056Y62357D01*
X51066Y62374D01*
X51077Y62388D01*
X51087Y62399D01*
X51096Y62407D01*
X51104Y62414D01*
X51109Y62418D01*
X51110Y62419D01*
X51111D01*
X51127Y62428D01*
X51143Y62435D01*
X51158Y62439D01*
X51172Y62442D01*
X51184Y62444D01*
X51193Y62446D01*
X51197D01*
X51200D01*
X51201D01*
X51202D01*
X51217Y62445D01*
X51232Y62442D01*
X51246Y62439D01*
X51258Y62435D01*
X51267Y62431D01*
X51275Y62427D01*
X51279Y62425D01*
X51281Y62424D01*
X51294Y62414D01*
X51306Y62403D01*
X51316Y62392D01*
X51325Y62381D01*
X51332Y62372D01*
X51337Y62364D01*
X51340Y62358D01*
X51341Y62357D01*
Y62356D01*
X51345Y62349D01*
X51349Y62341D01*
X51355Y62322D01*
X51362Y62301D01*
X51368Y62280D01*
X51374Y62262D01*
X51376Y62254D01*
X51377Y62246D01*
X51379Y62241D01*
X51380Y62236D01*
X51381Y62233D01*
Y62232D01*
X51385Y62217D01*
X51388Y62202D01*
X51392Y62189D01*
X51395Y62178D01*
X51398Y62167D01*
X51400Y62157D01*
X51402Y62149D01*
X51405Y62143D01*
X51407Y62136D01*
X51408Y62132D01*
X51411Y62124D01*
X51412Y62120D01*
X51412Y62119D01*
X51418Y62105D01*
X51425Y62093D01*
X51431Y62083D01*
X51437Y62075D01*
X51442Y62069D01*
X51446Y62065D01*
X51449Y62062D01*
X51449Y62061D01*
X51458Y62055D01*
X51467Y62050D01*
X51476Y62047D01*
X51484Y62045D01*
X51491Y62044D01*
X51497Y62043D01*
X51501D01*
X51502D01*
X51513Y62044D01*
X51523Y62046D01*
X51533Y62048D01*
X51540Y62052D01*
X51547Y62056D01*
X51552Y62059D01*
X51556Y62060D01*
X51557Y62061D01*
X51566Y62069D01*
X51573Y62078D01*
X51580Y62087D01*
X51586Y62096D01*
X51590Y62104D01*
X51594Y62110D01*
X51596Y62115D01*
X51596Y62117D01*
X51601Y62131D01*
X51605Y62145D01*
X51607Y62160D01*
X51608Y62173D01*
X51609Y62184D01*
X51610Y62194D01*
Y62202D01*
X51609Y62222D01*
X51608Y62241D01*
X51605Y62257D01*
X51601Y62272D01*
X51597Y62284D01*
X51595Y62293D01*
X51594Y62296D01*
X51593Y62299D01*
X51592Y62300D01*
Y62301D01*
X51584Y62316D01*
X51576Y62329D01*
X51568Y62340D01*
X51559Y62349D01*
X51553Y62356D01*
X51547Y62361D01*
X51543Y62364D01*
X51542Y62365D01*
X51530Y62371D01*
X51517Y62377D01*
X51503Y62381D01*
X51491Y62385D01*
X51479Y62388D01*
X51471Y62390D01*
X51467D01*
X51464Y62390D01*
X51463D01*
X51462D01*
X51470Y62470D01*
X51493Y62468D01*
D02*
G37*
G36*
X56755Y64862D02*
X56210D01*
X56755Y64677D01*
Y64601D01*
X56220Y64415D01*
X56755D01*
Y64333D01*
X56115D01*
Y64447D01*
X56561Y64600D01*
X56585Y64609D01*
X56605Y64615D01*
X56623Y64622D01*
X56638Y64626D01*
X56649Y64630D01*
X56657Y64633D01*
X56662Y64634D01*
X56664Y64635D01*
X56651Y64638D01*
X56636Y64643D01*
X56620Y64649D01*
X56604Y64653D01*
X56590Y64658D01*
X56579Y64662D01*
X56575Y64663D01*
X56572Y64664D01*
X56570Y64665D01*
X56569D01*
X56115Y64817D01*
Y64943D01*
X56755D01*
Y64862D01*
D02*
G37*
G36*
Y64097D02*
X56115D01*
Y64182D01*
X56755D01*
Y64097D01*
D02*
G37*
G36*
X56573Y63974D02*
X56595Y63970D01*
X56614Y63964D01*
X56632Y63958D01*
X56646Y63951D01*
X56651Y63949D01*
X56656Y63947D01*
X56660Y63944D01*
X56663Y63943D01*
X56664Y63941D01*
X56665D01*
X56683Y63927D01*
X56699Y63913D01*
X56712Y63897D01*
X56723Y63882D01*
X56731Y63869D01*
X56737Y63858D01*
X56738Y63854D01*
X56740Y63852D01*
X56741Y63850D01*
Y63849D01*
X56749Y63826D01*
X56756Y63802D01*
X56760Y63778D01*
X56763Y63755D01*
X56764Y63743D01*
X56765Y63734D01*
Y63726D01*
X56766Y63718D01*
Y63704D01*
X56765Y63679D01*
X56762Y63656D01*
X56758Y63634D01*
X56753Y63617D01*
X56749Y63602D01*
X56747Y63596D01*
X56745Y63590D01*
X56743Y63586D01*
X56742Y63583D01*
X56741Y63582D01*
Y63581D01*
X56731Y63561D01*
X56720Y63545D01*
X56708Y63530D01*
X56697Y63518D01*
X56688Y63509D01*
X56679Y63502D01*
X56674Y63497D01*
X56673Y63497D01*
X56672D01*
X56654Y63486D01*
X56638Y63479D01*
X56622Y63474D01*
X56607Y63471D01*
X56594Y63469D01*
X56584Y63467D01*
X56580D01*
X56578D01*
X56577D01*
X56576D01*
X56557Y63468D01*
X56540Y63471D01*
X56524Y63475D01*
X56511Y63480D01*
X56500Y63485D01*
X56492Y63489D01*
X56487Y63493D01*
X56485Y63494D01*
X56471Y63505D01*
X56458Y63518D01*
X56447Y63532D01*
X56437Y63546D01*
X56430Y63558D01*
X56424Y63568D01*
X56422Y63571D01*
X56420Y63574D01*
X56419Y63576D01*
Y63577D01*
X56416Y63584D01*
X56413Y63594D01*
X56409Y63604D01*
X56406Y63615D01*
X56399Y63638D01*
X56393Y63662D01*
X56390Y63673D01*
X56387Y63683D01*
X56384Y63694D01*
X56382Y63702D01*
X56381Y63708D01*
X56380Y63714D01*
X56379Y63718D01*
Y63718D01*
X56374Y63737D01*
X56370Y63754D01*
X56366Y63768D01*
X56362Y63781D01*
X56357Y63793D01*
X56354Y63804D01*
X56350Y63813D01*
X56347Y63821D01*
X56344Y63828D01*
X56341Y63833D01*
X56339Y63837D01*
X56336Y63840D01*
X56333Y63845D01*
X56333Y63846D01*
X56323Y63854D01*
X56314Y63860D01*
X56305Y63865D01*
X56296Y63867D01*
X56288Y63869D01*
X56282Y63870D01*
X56278D01*
X56276D01*
X56261Y63868D01*
X56248Y63865D01*
X56237Y63859D01*
X56227Y63853D01*
X56220Y63847D01*
X56213Y63841D01*
X56210Y63838D01*
X56209Y63836D01*
X56204Y63828D01*
X56199Y63821D01*
X56192Y63804D01*
X56187Y63785D01*
X56184Y63767D01*
X56182Y63750D01*
X56181Y63743D01*
X56180Y63737D01*
Y63724D01*
X56181Y63698D01*
X56185Y63675D01*
X56190Y63657D01*
X56196Y63641D01*
X56201Y63629D01*
X56207Y63620D01*
X56210Y63615D01*
X56211Y63613D01*
X56224Y63600D01*
X56238Y63590D01*
X56253Y63582D01*
X56268Y63576D01*
X56282Y63572D01*
X56292Y63570D01*
X56296Y63569D01*
X56299Y63568D01*
X56301D01*
X56302D01*
X56296Y63486D01*
X56275Y63488D01*
X56257Y63493D01*
X56239Y63497D01*
X56224Y63504D01*
X56212Y63510D01*
X56203Y63514D01*
X56200Y63516D01*
X56198Y63518D01*
X56197Y63519D01*
X56196D01*
X56180Y63531D01*
X56166Y63544D01*
X56154Y63558D01*
X56145Y63571D01*
X56137Y63583D01*
X56132Y63593D01*
X56130Y63596D01*
X56128Y63599D01*
X56127Y63601D01*
Y63602D01*
X56120Y63622D01*
X56114Y63645D01*
X56110Y63665D01*
X56107Y63684D01*
X56105Y63702D01*
Y63708D01*
X56104Y63715D01*
Y63727D01*
X56105Y63751D01*
X56108Y63772D01*
X56112Y63792D01*
X56115Y63810D01*
X56119Y63824D01*
X56121Y63830D01*
X56123Y63835D01*
X56124Y63839D01*
X56125Y63841D01*
X56126Y63843D01*
Y63844D01*
X56136Y63863D01*
X56146Y63879D01*
X56157Y63893D01*
X56167Y63904D01*
X56176Y63913D01*
X56184Y63919D01*
X56189Y63924D01*
X56190Y63925D01*
X56191D01*
X56207Y63934D01*
X56222Y63940D01*
X56238Y63945D01*
X56252Y63948D01*
X56264Y63950D01*
X56273Y63951D01*
X56277D01*
X56280D01*
X56281D01*
X56282D01*
X56297Y63951D01*
X56312Y63948D01*
X56326Y63944D01*
X56338Y63940D01*
X56347Y63937D01*
X56355Y63933D01*
X56359Y63930D01*
X56361Y63929D01*
X56374Y63920D01*
X56386Y63909D01*
X56396Y63898D01*
X56405Y63887D01*
X56412Y63877D01*
X56417Y63869D01*
X56420Y63864D01*
X56421Y63863D01*
Y63862D01*
X56425Y63854D01*
X56429Y63846D01*
X56435Y63828D01*
X56442Y63806D01*
X56448Y63786D01*
X56454Y63767D01*
X56455Y63759D01*
X56457Y63752D01*
X56459Y63746D01*
X56460Y63742D01*
X56461Y63739D01*
Y63738D01*
X56465Y63722D01*
X56468Y63707D01*
X56472Y63694D01*
X56475Y63683D01*
X56478Y63672D01*
X56480Y63663D01*
X56482Y63655D01*
X56485Y63648D01*
X56487Y63642D01*
X56488Y63637D01*
X56491Y63630D01*
X56492Y63625D01*
X56492Y63624D01*
X56498Y63610D01*
X56504Y63598D01*
X56511Y63588D01*
X56516Y63581D01*
X56522Y63574D01*
X56526Y63571D01*
X56529Y63568D01*
X56529Y63567D01*
X56538Y63560D01*
X56547Y63556D01*
X56556Y63553D01*
X56564Y63550D01*
X56571Y63549D01*
X56577Y63548D01*
X56581D01*
X56582D01*
X56593Y63549D01*
X56603Y63551D01*
X56613Y63554D01*
X56620Y63558D01*
X56627Y63561D01*
X56632Y63564D01*
X56636Y63566D01*
X56637Y63567D01*
X56646Y63574D01*
X56653Y63583D01*
X56660Y63593D01*
X56666Y63601D01*
X56670Y63609D01*
X56674Y63616D01*
X56676Y63620D01*
X56676Y63622D01*
X56681Y63636D01*
X56685Y63651D01*
X56687Y63666D01*
X56688Y63679D01*
X56689Y63690D01*
X56690Y63699D01*
Y63707D01*
X56689Y63728D01*
X56688Y63746D01*
X56685Y63763D01*
X56681Y63778D01*
X56677Y63790D01*
X56675Y63799D01*
X56674Y63802D01*
X56673Y63804D01*
X56672Y63805D01*
Y63806D01*
X56664Y63821D01*
X56656Y63835D01*
X56648Y63845D01*
X56639Y63854D01*
X56633Y63862D01*
X56627Y63866D01*
X56623Y63869D01*
X56622Y63870D01*
X56610Y63877D01*
X56597Y63883D01*
X56583Y63887D01*
X56571Y63890D01*
X56559Y63893D01*
X56551Y63895D01*
X56547D01*
X56544Y63896D01*
X56543D01*
X56542D01*
X56550Y63975D01*
X56573Y63974D01*
D02*
G37*
G36*
X56476Y63375D02*
X56504Y63371D01*
X56532Y63365D01*
X56544Y63362D01*
X56556Y63358D01*
X56566Y63355D01*
X56576Y63351D01*
X56584Y63349D01*
X56591Y63346D01*
X56597Y63344D01*
X56601Y63342D01*
X56603Y63340D01*
X56604D01*
X56631Y63325D01*
X56654Y63308D01*
X56675Y63289D01*
X56691Y63272D01*
X56705Y63256D01*
X56711Y63250D01*
X56714Y63244D01*
X56718Y63239D01*
X56721Y63235D01*
X56722Y63233D01*
X56723Y63232D01*
X56730Y63218D01*
X56737Y63204D01*
X56748Y63177D01*
X56755Y63150D01*
X56761Y63125D01*
X56762Y63113D01*
X56763Y63103D01*
X56765Y63093D01*
Y63085D01*
X56766Y63080D01*
Y63070D01*
X56764Y63040D01*
X56760Y63011D01*
X56754Y62984D01*
X56750Y62972D01*
X56747Y62961D01*
X56743Y62951D01*
X56739Y62942D01*
X56737Y62934D01*
X56734Y62928D01*
X56731Y62922D01*
X56729Y62918D01*
X56727Y62916D01*
Y62915D01*
X56711Y62889D01*
X56692Y62867D01*
X56673Y62848D01*
X56654Y62833D01*
X56637Y62820D01*
X56630Y62815D01*
X56624Y62811D01*
X56618Y62808D01*
X56614Y62806D01*
X56612Y62804D01*
X56611D01*
X56596Y62797D01*
X56581Y62791D01*
X56552Y62781D01*
X56522Y62774D01*
X56495Y62769D01*
X56483Y62768D01*
X56472Y62766D01*
X56462Y62765D01*
X56454D01*
X56446Y62764D01*
X56442D01*
X56438D01*
X56437D01*
X56402Y62766D01*
X56369Y62770D01*
X56355Y62773D01*
X56340Y62776D01*
X56327Y62780D01*
X56315Y62783D01*
X56304Y62787D01*
X56294Y62790D01*
X56285Y62793D01*
X56278Y62797D01*
X56272Y62799D01*
X56269Y62800D01*
X56266Y62802D01*
X56265D01*
X56238Y62817D01*
X56214Y62835D01*
X56194Y62853D01*
X56177Y62870D01*
X56164Y62885D01*
X56159Y62893D01*
X56154Y62898D01*
X56151Y62904D01*
X56149Y62908D01*
X56148Y62909D01*
X56147Y62910D01*
X56139Y62924D01*
X56133Y62938D01*
X56122Y62965D01*
X56114Y62993D01*
X56110Y63017D01*
X56108Y63028D01*
X56106Y63039D01*
X56105Y63047D01*
Y63056D01*
X56104Y63062D01*
Y63070D01*
X56105Y63095D01*
X56108Y63118D01*
X56112Y63141D01*
X56118Y63162D01*
X56125Y63181D01*
X56133Y63200D01*
X56141Y63216D01*
X56149Y63231D01*
X56158Y63245D01*
X56166Y63257D01*
X56173Y63267D01*
X56181Y63276D01*
X56186Y63282D01*
X56191Y63288D01*
X56194Y63290D01*
X56195Y63291D01*
X56212Y63306D01*
X56231Y63319D01*
X56251Y63331D01*
X56271Y63340D01*
X56293Y63349D01*
X56313Y63356D01*
X56333Y63362D01*
X56353Y63365D01*
X56371Y63369D01*
X56389Y63372D01*
X56405Y63374D01*
X56418Y63375D01*
X56429D01*
X56437Y63376D01*
X56443D01*
X56443D01*
X56444D01*
X56476Y63375D01*
D02*
G37*
G36*
X54033Y64259D02*
X54055Y64255D01*
X54075Y64249D01*
X54092Y64243D01*
X54106Y64236D01*
X54112Y64234D01*
X54116Y64232D01*
X54120Y64229D01*
X54123Y64228D01*
X54124Y64226D01*
X54125D01*
X54143Y64212D01*
X54159Y64198D01*
X54172Y64182D01*
X54183Y64167D01*
X54191Y64154D01*
X54197Y64143D01*
X54198Y64139D01*
X54200Y64137D01*
X54201Y64135D01*
Y64134D01*
X54210Y64111D01*
X54216Y64087D01*
X54220Y64063D01*
X54223Y64039D01*
X54224Y64028D01*
X54225Y64019D01*
Y64011D01*
X54226Y64003D01*
Y63989D01*
X54225Y63964D01*
X54222Y63941D01*
X54218Y63919D01*
X54213Y63902D01*
X54210Y63887D01*
X54207Y63880D01*
X54205Y63875D01*
X54203Y63871D01*
X54202Y63868D01*
X54201Y63867D01*
Y63866D01*
X54191Y63846D01*
X54180Y63830D01*
X54168Y63815D01*
X54157Y63803D01*
X54148Y63794D01*
X54139Y63787D01*
X54134Y63782D01*
X54133Y63782D01*
X54132D01*
X54114Y63771D01*
X54098Y63764D01*
X54082Y63759D01*
X54067Y63756D01*
X54054Y63754D01*
X54044Y63752D01*
X54040D01*
X54038D01*
X54037D01*
X54036D01*
X54017Y63753D01*
X54000Y63756D01*
X53984Y63760D01*
X53971Y63765D01*
X53960Y63770D01*
X53952Y63774D01*
X53947Y63778D01*
X53945Y63779D01*
X53931Y63790D01*
X53918Y63803D01*
X53907Y63817D01*
X53897Y63831D01*
X53890Y63843D01*
X53884Y63853D01*
X53882Y63856D01*
X53880Y63859D01*
X53879Y63861D01*
Y63862D01*
X53876Y63869D01*
X53873Y63879D01*
X53869Y63889D01*
X53866Y63900D01*
X53859Y63923D01*
X53853Y63947D01*
X53850Y63958D01*
X53847Y63968D01*
X53844Y63978D01*
X53842Y63987D01*
X53841Y63993D01*
X53840Y63999D01*
X53839Y64003D01*
Y64003D01*
X53834Y64022D01*
X53830Y64039D01*
X53826Y64053D01*
X53822Y64066D01*
X53818Y64078D01*
X53814Y64088D01*
X53810Y64098D01*
X53807Y64106D01*
X53804Y64113D01*
X53801Y64118D01*
X53799Y64122D01*
X53796Y64125D01*
X53793Y64130D01*
X53793Y64131D01*
X53783Y64139D01*
X53774Y64145D01*
X53765Y64149D01*
X53756Y64152D01*
X53748Y64154D01*
X53742Y64155D01*
X53738D01*
X53736D01*
X53721Y64153D01*
X53708Y64149D01*
X53697Y64144D01*
X53687Y64137D01*
X53680Y64132D01*
X53673Y64126D01*
X53670Y64123D01*
X53669Y64121D01*
X53664Y64113D01*
X53659Y64106D01*
X53652Y64088D01*
X53647Y64070D01*
X53644Y64051D01*
X53642Y64035D01*
X53641Y64027D01*
X53640Y64022D01*
Y64009D01*
X53641Y63983D01*
X53645Y63960D01*
X53650Y63941D01*
X53656Y63926D01*
X53661Y63914D01*
X53667Y63904D01*
X53671Y63900D01*
X53671Y63898D01*
X53684Y63885D01*
X53698Y63875D01*
X53713Y63867D01*
X53728Y63861D01*
X53742Y63857D01*
X53752Y63855D01*
X53756Y63854D01*
X53759Y63853D01*
X53761D01*
X53762D01*
X53756Y63771D01*
X53735Y63773D01*
X53717Y63778D01*
X53699Y63782D01*
X53684Y63789D01*
X53672Y63794D01*
X53663Y63799D01*
X53660Y63801D01*
X53658Y63803D01*
X53657Y63804D01*
X53656D01*
X53640Y63816D01*
X53626Y63829D01*
X53614Y63843D01*
X53605Y63856D01*
X53597Y63868D01*
X53592Y63878D01*
X53590Y63881D01*
X53588Y63884D01*
X53587Y63886D01*
Y63887D01*
X53580Y63907D01*
X53574Y63929D01*
X53570Y63950D01*
X53567Y63969D01*
X53565Y63987D01*
Y63993D01*
X53564Y64000D01*
Y64012D01*
X53565Y64036D01*
X53568Y64057D01*
X53572Y64077D01*
X53575Y64095D01*
X53579Y64109D01*
X53581Y64115D01*
X53583Y64120D01*
X53585Y64124D01*
X53585Y64126D01*
X53586Y64128D01*
Y64129D01*
X53596Y64148D01*
X53606Y64164D01*
X53617Y64178D01*
X53627Y64189D01*
X53636Y64198D01*
X53644Y64204D01*
X53649Y64209D01*
X53650Y64210D01*
X53651D01*
X53667Y64219D01*
X53683Y64225D01*
X53698Y64230D01*
X53712Y64233D01*
X53724Y64235D01*
X53733Y64236D01*
X53737D01*
X53740D01*
X53741D01*
X53742D01*
X53757Y64235D01*
X53772Y64233D01*
X53786Y64229D01*
X53798Y64225D01*
X53807Y64222D01*
X53815Y64218D01*
X53819Y64215D01*
X53821Y64214D01*
X53834Y64205D01*
X53846Y64194D01*
X53856Y64183D01*
X53865Y64172D01*
X53872Y64162D01*
X53877Y64154D01*
X53880Y64149D01*
X53881Y64148D01*
Y64147D01*
X53885Y64139D01*
X53889Y64131D01*
X53895Y64113D01*
X53902Y64091D01*
X53908Y64071D01*
X53914Y64052D01*
X53916Y64044D01*
X53917Y64037D01*
X53919Y64031D01*
X53920Y64027D01*
X53921Y64024D01*
Y64023D01*
X53925Y64007D01*
X53928Y63992D01*
X53932Y63979D01*
X53935Y63968D01*
X53938Y63957D01*
X53940Y63948D01*
X53942Y63940D01*
X53945Y63933D01*
X53947Y63927D01*
X53948Y63922D01*
X53951Y63915D01*
X53952Y63910D01*
X53952Y63909D01*
X53958Y63895D01*
X53965Y63883D01*
X53971Y63873D01*
X53977Y63866D01*
X53982Y63859D01*
X53986Y63855D01*
X53989Y63853D01*
X53989Y63852D01*
X53998Y63845D01*
X54007Y63841D01*
X54016Y63838D01*
X54024Y63835D01*
X54031Y63834D01*
X54037Y63833D01*
X54041D01*
X54042D01*
X54053Y63834D01*
X54063Y63836D01*
X54073Y63839D01*
X54080Y63843D01*
X54087Y63846D01*
X54092Y63849D01*
X54096Y63851D01*
X54097Y63852D01*
X54106Y63859D01*
X54113Y63868D01*
X54120Y63878D01*
X54126Y63886D01*
X54130Y63894D01*
X54134Y63901D01*
X54136Y63905D01*
X54136Y63907D01*
X54141Y63921D01*
X54145Y63936D01*
X54147Y63951D01*
X54148Y63964D01*
X54149Y63975D01*
X54150Y63984D01*
Y63992D01*
X54149Y64013D01*
X54148Y64031D01*
X54145Y64048D01*
X54141Y64063D01*
X54137Y64075D01*
X54135Y64084D01*
X54134Y64087D01*
X54133Y64089D01*
X54132Y64090D01*
Y64091D01*
X54124Y64106D01*
X54116Y64120D01*
X54108Y64130D01*
X54099Y64139D01*
X54093Y64147D01*
X54087Y64151D01*
X54083Y64154D01*
X54082Y64155D01*
X54070Y64162D01*
X54057Y64168D01*
X54043Y64172D01*
X54031Y64175D01*
X54019Y64178D01*
X54011Y64180D01*
X54007D01*
X54004Y64181D01*
X54003D01*
X54002D01*
X54010Y64260D01*
X54033Y64259D01*
D02*
G37*
G36*
X53924Y63659D02*
X53956Y63655D01*
X53985Y63650D01*
X53999Y63647D01*
X54011Y63644D01*
X54022Y63641D01*
X54032Y63637D01*
X54041Y63635D01*
X54049Y63633D01*
X54054Y63630D01*
X54059Y63629D01*
X54062Y63627D01*
X54063D01*
X54090Y63613D01*
X54115Y63598D01*
X54136Y63581D01*
X54145Y63573D01*
X54153Y63565D01*
X54161Y63558D01*
X54167Y63550D01*
X54173Y63544D01*
X54176Y63538D01*
X54180Y63535D01*
X54183Y63531D01*
X54184Y63529D01*
X54185Y63528D01*
X54192Y63515D01*
X54198Y63502D01*
X54209Y63475D01*
X54216Y63447D01*
X54221Y63420D01*
X54222Y63407D01*
X54224Y63396D01*
X54225Y63386D01*
Y63377D01*
X54226Y63370D01*
Y63360D01*
X54225Y63341D01*
X54223Y63324D01*
X54222Y63307D01*
X54218Y63292D01*
X54213Y63277D01*
X54209Y63263D01*
X54204Y63250D01*
X54198Y63238D01*
X54194Y63228D01*
X54189Y63218D01*
X54185Y63210D01*
X54180Y63203D01*
X54176Y63198D01*
X54174Y63194D01*
X54173Y63192D01*
X54172Y63191D01*
X54161Y63178D01*
X54149Y63167D01*
X54136Y63157D01*
X54124Y63146D01*
X54098Y63130D01*
X54072Y63117D01*
X54060Y63111D01*
X54049Y63107D01*
X54038Y63103D01*
X54030Y63100D01*
X54023Y63097D01*
X54017Y63096D01*
X54014Y63095D01*
X54013D01*
X53991Y63180D01*
X54006Y63183D01*
X54020Y63188D01*
X54033Y63193D01*
X54045Y63197D01*
X54056Y63203D01*
X54065Y63208D01*
X54075Y63215D01*
X54083Y63220D01*
X54090Y63225D01*
X54096Y63230D01*
X54101Y63235D01*
X54106Y63239D01*
X54109Y63243D01*
X54112Y63245D01*
X54112Y63246D01*
X54113Y63247D01*
X54121Y63256D01*
X54126Y63267D01*
X54136Y63287D01*
X54144Y63306D01*
X54148Y63326D01*
X54152Y63342D01*
X54153Y63349D01*
Y63355D01*
X54154Y63361D01*
Y63367D01*
X54153Y63389D01*
X54149Y63409D01*
X54145Y63427D01*
X54139Y63444D01*
X54134Y63457D01*
X54131Y63463D01*
X54129Y63467D01*
X54127Y63471D01*
X54125Y63474D01*
X54124Y63475D01*
Y63476D01*
X54112Y63494D01*
X54098Y63509D01*
X54082Y63522D01*
X54067Y63532D01*
X54054Y63540D01*
X54043Y63546D01*
X54038Y63548D01*
X54036Y63549D01*
X54034Y63550D01*
X54033D01*
X54009Y63558D01*
X53985Y63563D01*
X53961Y63568D01*
X53939Y63571D01*
X53928Y63572D01*
X53919Y63573D01*
X53911D01*
X53904Y63574D01*
X53899D01*
X53894D01*
X53891D01*
X53891D01*
X53867Y63573D01*
X53844Y63571D01*
X53824Y63567D01*
X53805Y63563D01*
X53790Y63561D01*
X53783Y63559D01*
X53778Y63557D01*
X53773Y63556D01*
X53770Y63555D01*
X53769Y63554D01*
X53768D01*
X53746Y63545D01*
X53727Y63535D01*
X53711Y63524D01*
X53697Y63512D01*
X53686Y63501D01*
X53679Y63493D01*
X53674Y63487D01*
X53672Y63486D01*
Y63485D01*
X53660Y63465D01*
X53651Y63444D01*
X53645Y63424D01*
X53641Y63404D01*
X53638Y63387D01*
X53637Y63379D01*
Y63373D01*
X53636Y63368D01*
Y63361D01*
X53637Y63338D01*
X53641Y63316D01*
X53646Y63299D01*
X53652Y63283D01*
X53658Y63271D01*
X53663Y63262D01*
X53667Y63256D01*
X53669Y63255D01*
X53683Y63240D01*
X53698Y63226D01*
X53715Y63215D01*
X53732Y63206D01*
X53746Y63198D01*
X53754Y63195D01*
X53759Y63194D01*
X53764Y63192D01*
X53768Y63190D01*
X53769Y63189D01*
X53770D01*
X53751Y63106D01*
X53734Y63111D01*
X53720Y63117D01*
X53706Y63124D01*
X53692Y63131D01*
X53680Y63138D01*
X53669Y63146D01*
X53658Y63154D01*
X53648Y63161D01*
X53641Y63169D01*
X53634Y63175D01*
X53627Y63181D01*
X53622Y63186D01*
X53618Y63191D01*
X53615Y63194D01*
X53614Y63196D01*
X53613Y63197D01*
X53605Y63210D01*
X53597Y63223D01*
X53590Y63236D01*
X53585Y63250D01*
X53576Y63278D01*
X53571Y63303D01*
X53568Y63315D01*
X53567Y63325D01*
X53566Y63335D01*
X53565Y63343D01*
X53564Y63350D01*
Y63359D01*
X53566Y63390D01*
X53571Y63419D01*
X53576Y63445D01*
X53580Y63457D01*
X53584Y63468D01*
X53587Y63478D01*
X53591Y63488D01*
X53594Y63495D01*
X53597Y63502D01*
X53599Y63507D01*
X53601Y63511D01*
X53602Y63513D01*
X53603Y63514D01*
X53619Y63539D01*
X53637Y63561D01*
X53656Y63579D01*
X53674Y63595D01*
X53691Y63607D01*
X53698Y63611D01*
X53705Y63615D01*
X53709Y63619D01*
X53713Y63621D01*
X53716Y63622D01*
X53717Y63623D01*
X53745Y63635D01*
X53775Y63645D01*
X53805Y63651D01*
X53831Y63656D01*
X53843Y63658D01*
X53855Y63659D01*
X53865Y63659D01*
X53874D01*
X53880Y63660D01*
X53886D01*
X53890D01*
X53891D01*
X53924Y63659D01*
D02*
G37*
G36*
X54215Y62909D02*
X53993D01*
X53892Y62804D01*
X54215Y62577D01*
Y62465D01*
X53835Y62745D01*
X53575Y62477D01*
Y62593D01*
X53893Y62909D01*
X53575D01*
Y62994D01*
X54215D01*
Y62909D01*
D02*
G37*
G36*
X59295Y64790D02*
X58750D01*
X59295Y64605D01*
Y64529D01*
X58760Y64342D01*
X59295D01*
Y64261D01*
X58655D01*
Y64375D01*
X59101Y64528D01*
X59125Y64536D01*
X59145Y64543D01*
X59163Y64549D01*
X59178Y64554D01*
X59189Y64558D01*
X59197Y64560D01*
X59202Y64561D01*
X59204Y64562D01*
X59191Y64566D01*
X59176Y64571D01*
X59160Y64576D01*
X59144Y64581D01*
X59130Y64585D01*
X59119Y64589D01*
X59115Y64591D01*
X59112Y64592D01*
X59110Y64593D01*
X59109D01*
X58655Y64744D01*
Y64871D01*
X59295D01*
Y64790D01*
D02*
G37*
G36*
X59016Y64147D02*
X59045Y64143D01*
X59072Y64138D01*
X59084Y64134D01*
X59096Y64131D01*
X59106Y64128D01*
X59116Y64124D01*
X59124Y64121D01*
X59131Y64118D01*
X59137Y64117D01*
X59141Y64115D01*
X59143Y64113D01*
X59144D01*
X59171Y64097D01*
X59194Y64081D01*
X59215Y64062D01*
X59231Y64045D01*
X59245Y64029D01*
X59251Y64022D01*
X59254Y64017D01*
X59258Y64011D01*
X59261Y64008D01*
X59262Y64006D01*
X59263Y64005D01*
X59270Y63991D01*
X59277Y63977D01*
X59288Y63949D01*
X59295Y63922D01*
X59301Y63898D01*
X59302Y63886D01*
X59303Y63875D01*
X59305Y63866D01*
Y63858D01*
X59306Y63852D01*
Y63843D01*
X59304Y63812D01*
X59300Y63784D01*
X59294Y63757D01*
X59290Y63745D01*
X59287Y63734D01*
X59283Y63724D01*
X59279Y63714D01*
X59277Y63707D01*
X59274Y63701D01*
X59271Y63695D01*
X59269Y63690D01*
X59267Y63689D01*
Y63688D01*
X59251Y63662D01*
X59232Y63640D01*
X59213Y63621D01*
X59194Y63605D01*
X59177Y63592D01*
X59170Y63588D01*
X59164Y63584D01*
X59158Y63580D01*
X59155Y63579D01*
X59152Y63577D01*
X59151D01*
X59136Y63569D01*
X59121Y63564D01*
X59092Y63554D01*
X59062Y63546D01*
X59035Y63542D01*
X59023Y63541D01*
X59012Y63539D01*
X59002Y63538D01*
X58994D01*
X58986Y63537D01*
X58982D01*
X58978D01*
X58977D01*
X58942Y63539D01*
X58910Y63542D01*
X58895Y63545D01*
X58880Y63549D01*
X58867Y63553D01*
X58855Y63555D01*
X58844Y63559D01*
X58834Y63563D01*
X58825Y63566D01*
X58818Y63569D01*
X58812Y63571D01*
X58809Y63573D01*
X58806Y63575D01*
X58805D01*
X58778Y63590D01*
X58754Y63607D01*
X58734Y63626D01*
X58717Y63642D01*
X58704Y63658D01*
X58699Y63665D01*
X58694Y63671D01*
X58691Y63677D01*
X58689Y63680D01*
X58688Y63682D01*
X58687Y63683D01*
X58679Y63697D01*
X58673Y63711D01*
X58662Y63738D01*
X58654Y63765D01*
X58650Y63789D01*
X58648Y63800D01*
X58646Y63812D01*
X58645Y63820D01*
Y63828D01*
X58644Y63835D01*
Y63843D01*
X58645Y63868D01*
X58648Y63891D01*
X58652Y63913D01*
X58658Y63935D01*
X58665Y63954D01*
X58673Y63972D01*
X58681Y63989D01*
X58689Y64004D01*
X58698Y64018D01*
X58706Y64030D01*
X58714Y64040D01*
X58721Y64048D01*
X58726Y64055D01*
X58731Y64060D01*
X58734Y64063D01*
X58735Y64064D01*
X58752Y64079D01*
X58771Y64092D01*
X58791Y64104D01*
X58812Y64113D01*
X58833Y64121D01*
X58853Y64129D01*
X58873Y64134D01*
X58893Y64138D01*
X58911Y64142D01*
X58929Y64144D01*
X58945Y64146D01*
X58958Y64148D01*
X58969D01*
X58977Y64149D01*
X58983D01*
X58983D01*
X58984D01*
X59016Y64147D01*
D02*
G37*
G36*
X59113Y63455D02*
X59135Y63451D01*
X59155Y63445D01*
X59172Y63439D01*
X59186Y63432D01*
X59192Y63430D01*
X59196Y63428D01*
X59200Y63425D01*
X59203Y63424D01*
X59204Y63422D01*
X59205D01*
X59223Y63408D01*
X59239Y63394D01*
X59252Y63378D01*
X59263Y63363D01*
X59271Y63350D01*
X59277Y63339D01*
X59278Y63335D01*
X59280Y63333D01*
X59281Y63331D01*
Y63330D01*
X59290Y63307D01*
X59296Y63283D01*
X59300Y63259D01*
X59303Y63236D01*
X59304Y63224D01*
X59305Y63215D01*
Y63207D01*
X59306Y63199D01*
Y63185D01*
X59305Y63160D01*
X59302Y63137D01*
X59298Y63115D01*
X59293Y63098D01*
X59290Y63083D01*
X59287Y63077D01*
X59285Y63071D01*
X59283Y63067D01*
X59282Y63064D01*
X59281Y63063D01*
Y63062D01*
X59271Y63042D01*
X59260Y63026D01*
X59248Y63011D01*
X59237Y62999D01*
X59228Y62990D01*
X59219Y62983D01*
X59214Y62979D01*
X59213Y62978D01*
X59212D01*
X59194Y62967D01*
X59178Y62960D01*
X59162Y62955D01*
X59147Y62952D01*
X59134Y62950D01*
X59124Y62948D01*
X59120D01*
X59118D01*
X59117D01*
X59116D01*
X59097Y62949D01*
X59080Y62952D01*
X59064Y62956D01*
X59051Y62961D01*
X59040Y62966D01*
X59032Y62970D01*
X59027Y62974D01*
X59025Y62975D01*
X59011Y62986D01*
X58998Y62999D01*
X58987Y63013D01*
X58977Y63027D01*
X58970Y63039D01*
X58964Y63049D01*
X58962Y63052D01*
X58960Y63055D01*
X58959Y63057D01*
Y63058D01*
X58956Y63065D01*
X58953Y63075D01*
X58949Y63085D01*
X58946Y63096D01*
X58939Y63119D01*
X58933Y63143D01*
X58930Y63154D01*
X58927Y63164D01*
X58924Y63175D01*
X58922Y63183D01*
X58921Y63189D01*
X58920Y63195D01*
X58919Y63199D01*
Y63199D01*
X58914Y63218D01*
X58910Y63235D01*
X58906Y63249D01*
X58902Y63262D01*
X58897Y63274D01*
X58894Y63285D01*
X58890Y63294D01*
X58887Y63302D01*
X58884Y63309D01*
X58881Y63314D01*
X58879Y63318D01*
X58876Y63322D01*
X58873Y63326D01*
X58873Y63327D01*
X58863Y63335D01*
X58854Y63341D01*
X58845Y63346D01*
X58836Y63348D01*
X58828Y63350D01*
X58822Y63351D01*
X58818D01*
X58816D01*
X58801Y63349D01*
X58788Y63346D01*
X58777Y63340D01*
X58767Y63334D01*
X58760Y63328D01*
X58753Y63322D01*
X58750Y63319D01*
X58749Y63317D01*
X58744Y63310D01*
X58739Y63302D01*
X58732Y63285D01*
X58727Y63266D01*
X58724Y63248D01*
X58722Y63231D01*
X58721Y63224D01*
X58720Y63218D01*
Y63205D01*
X58721Y63179D01*
X58725Y63156D01*
X58730Y63138D01*
X58736Y63122D01*
X58741Y63110D01*
X58747Y63101D01*
X58750Y63096D01*
X58751Y63094D01*
X58764Y63081D01*
X58778Y63071D01*
X58793Y63063D01*
X58808Y63057D01*
X58822Y63053D01*
X58832Y63051D01*
X58836Y63050D01*
X58839Y63049D01*
X58841D01*
X58842D01*
X58836Y62967D01*
X58815Y62969D01*
X58797Y62974D01*
X58779Y62979D01*
X58764Y62985D01*
X58752Y62991D01*
X58743Y62995D01*
X58740Y62997D01*
X58738Y62999D01*
X58737Y63000D01*
X58736D01*
X58720Y63012D01*
X58706Y63025D01*
X58694Y63039D01*
X58685Y63052D01*
X58677Y63064D01*
X58672Y63074D01*
X58670Y63077D01*
X58668Y63080D01*
X58667Y63082D01*
Y63083D01*
X58660Y63103D01*
X58654Y63126D01*
X58650Y63146D01*
X58647Y63165D01*
X58645Y63183D01*
Y63189D01*
X58644Y63196D01*
Y63208D01*
X58645Y63232D01*
X58648Y63253D01*
X58652Y63273D01*
X58655Y63291D01*
X58659Y63305D01*
X58661Y63311D01*
X58663Y63316D01*
X58665Y63320D01*
X58665Y63322D01*
X58666Y63324D01*
Y63325D01*
X58676Y63344D01*
X58686Y63360D01*
X58697Y63374D01*
X58707Y63385D01*
X58716Y63394D01*
X58724Y63400D01*
X58729Y63405D01*
X58730Y63406D01*
X58731D01*
X58747Y63415D01*
X58763Y63421D01*
X58778Y63426D01*
X58792Y63429D01*
X58804Y63431D01*
X58813Y63432D01*
X58817D01*
X58820D01*
X58821D01*
X58822D01*
X58837Y63432D01*
X58852Y63429D01*
X58866Y63425D01*
X58878Y63421D01*
X58887Y63418D01*
X58895Y63414D01*
X58899Y63411D01*
X58901Y63410D01*
X58914Y63401D01*
X58926Y63390D01*
X58936Y63379D01*
X58945Y63368D01*
X58952Y63359D01*
X58957Y63350D01*
X58960Y63345D01*
X58961Y63344D01*
Y63343D01*
X58965Y63335D01*
X58969Y63327D01*
X58975Y63309D01*
X58982Y63287D01*
X58988Y63267D01*
X58994Y63248D01*
X58996Y63240D01*
X58997Y63233D01*
X58999Y63227D01*
X59000Y63223D01*
X59001Y63220D01*
Y63219D01*
X59005Y63203D01*
X59008Y63188D01*
X59012Y63175D01*
X59015Y63164D01*
X59018Y63153D01*
X59020Y63144D01*
X59022Y63136D01*
X59025Y63129D01*
X59027Y63123D01*
X59028Y63118D01*
X59031Y63111D01*
X59032Y63106D01*
X59032Y63105D01*
X59038Y63091D01*
X59045Y63079D01*
X59051Y63069D01*
X59057Y63062D01*
X59062Y63055D01*
X59066Y63052D01*
X59069Y63049D01*
X59069Y63048D01*
X59078Y63041D01*
X59087Y63037D01*
X59096Y63034D01*
X59104Y63031D01*
X59111Y63030D01*
X59117Y63029D01*
X59121D01*
X59122D01*
X59133Y63030D01*
X59143Y63032D01*
X59153Y63035D01*
X59160Y63039D01*
X59167Y63042D01*
X59172Y63045D01*
X59176Y63047D01*
X59177Y63048D01*
X59186Y63055D01*
X59193Y63064D01*
X59200Y63074D01*
X59206Y63082D01*
X59210Y63090D01*
X59214Y63097D01*
X59216Y63101D01*
X59216Y63103D01*
X59221Y63117D01*
X59225Y63132D01*
X59227Y63147D01*
X59228Y63160D01*
X59229Y63171D01*
X59230Y63180D01*
Y63188D01*
X59229Y63209D01*
X59228Y63227D01*
X59225Y63244D01*
X59221Y63259D01*
X59217Y63271D01*
X59215Y63280D01*
X59214Y63283D01*
X59213Y63285D01*
X59212Y63286D01*
Y63287D01*
X59204Y63302D01*
X59196Y63316D01*
X59188Y63326D01*
X59179Y63335D01*
X59173Y63343D01*
X59167Y63347D01*
X59163Y63350D01*
X59162Y63351D01*
X59150Y63358D01*
X59137Y63364D01*
X59123Y63368D01*
X59111Y63371D01*
X59099Y63374D01*
X59091Y63376D01*
X59087D01*
X59084Y63377D01*
X59083D01*
X59082D01*
X59090Y63457D01*
X59113Y63455D01*
D02*
G37*
G36*
X59295Y62733D02*
X58655D01*
Y62818D01*
X59295D01*
Y62733D01*
D02*
G37*
G36*
X61556Y64995D02*
X61732D01*
Y64921D01*
X61556D01*
Y64747D01*
X61483D01*
Y64921D01*
X61309D01*
Y64995D01*
X61483D01*
Y65169D01*
X61556D01*
Y64995D01*
D02*
G37*
G36*
X61681Y64656D02*
X61695Y64653D01*
X61720Y64645D01*
X61743Y64635D01*
X61752Y64629D01*
X61761Y64624D01*
X61769Y64618D01*
X61776Y64612D01*
X61782Y64608D01*
X61787Y64603D01*
X61791Y64600D01*
X61793Y64598D01*
X61795Y64596D01*
X61796Y64595D01*
X61805Y64584D01*
X61813Y64573D01*
X61819Y64562D01*
X61825Y64550D01*
X61834Y64526D01*
X61840Y64504D01*
X61842Y64494D01*
X61843Y64485D01*
X61844Y64477D01*
X61845Y64469D01*
X61846Y64464D01*
Y64455D01*
X61845Y64438D01*
X61843Y64422D01*
X61841Y64406D01*
X61837Y64391D01*
X61832Y64378D01*
X61828Y64366D01*
X61822Y64354D01*
X61817Y64343D01*
X61812Y64333D01*
X61806Y64325D01*
X61802Y64317D01*
X61797Y64312D01*
X61793Y64307D01*
X61791Y64304D01*
X61789Y64302D01*
X61788Y64301D01*
X61777Y64290D01*
X61765Y64280D01*
X61753Y64272D01*
X61741Y64265D01*
X61730Y64259D01*
X61718Y64254D01*
X61695Y64246D01*
X61685Y64244D01*
X61676Y64243D01*
X61668Y64241D01*
X61660Y64240D01*
X61655Y64239D01*
X61650D01*
X61647D01*
X61646D01*
X61624Y64240D01*
X61604Y64244D01*
X61586Y64249D01*
X61572Y64255D01*
X61560Y64260D01*
X61550Y64266D01*
X61545Y64269D01*
X61543Y64270D01*
X61529Y64283D01*
X61517Y64297D01*
X61508Y64312D01*
X61500Y64327D01*
X61495Y64340D01*
X61491Y64350D01*
X61490Y64354D01*
X61489Y64356D01*
X61488Y64358D01*
Y64359D01*
X61480Y64343D01*
X61472Y64330D01*
X61462Y64319D01*
X61454Y64310D01*
X61447Y64303D01*
X61440Y64297D01*
X61437Y64294D01*
X61435Y64293D01*
X61422Y64286D01*
X61409Y64280D01*
X61396Y64276D01*
X61384Y64273D01*
X61374Y64271D01*
X61366Y64270D01*
X61361D01*
X61359D01*
X61343Y64271D01*
X61327Y64274D01*
X61314Y64278D01*
X61302Y64282D01*
X61291Y64287D01*
X61283Y64291D01*
X61278Y64293D01*
X61277Y64294D01*
X61263Y64304D01*
X61251Y64315D01*
X61241Y64326D01*
X61231Y64337D01*
X61225Y64346D01*
X61219Y64354D01*
X61217Y64360D01*
X61216Y64361D01*
Y64362D01*
X61208Y64379D01*
X61203Y64395D01*
X61198Y64412D01*
X61195Y64427D01*
X61193Y64439D01*
X61192Y64449D01*
Y64472D01*
X61194Y64485D01*
X61199Y64510D01*
X61206Y64531D01*
X61214Y64550D01*
X61218Y64558D01*
X61222Y64564D01*
X61226Y64571D01*
X61229Y64575D01*
X61232Y64579D01*
X61234Y64582D01*
X61235Y64584D01*
X61236Y64585D01*
X61254Y64602D01*
X61273Y64616D01*
X61293Y64627D01*
X61314Y64636D01*
X61331Y64642D01*
X61339Y64645D01*
X61345Y64647D01*
X61351Y64648D01*
X61354Y64648D01*
X61357Y64649D01*
X61358D01*
X61372Y64571D01*
X61352Y64567D01*
X61334Y64562D01*
X61319Y64555D01*
X61307Y64549D01*
X61298Y64542D01*
X61291Y64537D01*
X61287Y64533D01*
X61286Y64532D01*
X61277Y64520D01*
X61269Y64507D01*
X61265Y64495D01*
X61261Y64483D01*
X61259Y64472D01*
X61257Y64464D01*
Y64456D01*
X61258Y64440D01*
X61262Y64425D01*
X61266Y64412D01*
X61271Y64401D01*
X61277Y64392D01*
X61281Y64386D01*
X61285Y64381D01*
X61286Y64380D01*
X61297Y64370D01*
X61309Y64363D01*
X61321Y64358D01*
X61332Y64354D01*
X61342Y64353D01*
X61350Y64351D01*
X61355D01*
X61356D01*
X61357D01*
X61367D01*
X61376Y64353D01*
X61392Y64357D01*
X61406Y64364D01*
X61418Y64371D01*
X61426Y64379D01*
X61433Y64385D01*
X61437Y64390D01*
X61438Y64391D01*
Y64391D01*
X61446Y64407D01*
X61452Y64422D01*
X61457Y64438D01*
X61460Y64452D01*
X61462Y64464D01*
X61463Y64474D01*
Y64486D01*
X61462Y64489D01*
Y64494D01*
X61532Y64503D01*
X61529Y64491D01*
X61527Y64480D01*
X61525Y64471D01*
X61524Y64463D01*
X61523Y64456D01*
Y64448D01*
X61525Y64428D01*
X61529Y64411D01*
X61535Y64395D01*
X61541Y64382D01*
X61548Y64372D01*
X61553Y64365D01*
X61557Y64360D01*
X61559Y64358D01*
X61572Y64346D01*
X61587Y64337D01*
X61602Y64330D01*
X61617Y64327D01*
X61629Y64324D01*
X61639Y64323D01*
X61643Y64322D01*
X61646D01*
X61647D01*
X61648D01*
X61669Y64324D01*
X61687Y64329D01*
X61703Y64334D01*
X61717Y64342D01*
X61728Y64349D01*
X61736Y64354D01*
X61742Y64359D01*
X61744Y64361D01*
X61756Y64376D01*
X61766Y64391D01*
X61772Y64407D01*
X61777Y64422D01*
X61780Y64435D01*
X61781Y64445D01*
X61781Y64449D01*
Y64454D01*
X61781Y64471D01*
X61777Y64487D01*
X61772Y64501D01*
X61767Y64512D01*
X61762Y64521D01*
X61757Y64528D01*
X61754Y64532D01*
X61753Y64534D01*
X61740Y64545D01*
X61725Y64554D01*
X61709Y64562D01*
X61693Y64569D01*
X61679Y64574D01*
X61672Y64575D01*
X61667Y64576D01*
X61662Y64577D01*
X61658Y64578D01*
X61657Y64579D01*
X61656D01*
X61666Y64658D01*
X61681Y64656D01*
D02*
G37*
G36*
X61835Y64027D02*
X61745D01*
Y64117D01*
X61835D01*
Y64027D01*
D02*
G37*
G36*
X61681Y63910D02*
X61695Y63907D01*
X61720Y63899D01*
X61743Y63888D01*
X61752Y63883D01*
X61761Y63877D01*
X61769Y63872D01*
X61776Y63866D01*
X61782Y63862D01*
X61787Y63857D01*
X61791Y63854D01*
X61793Y63852D01*
X61795Y63850D01*
X61796Y63849D01*
X61805Y63838D01*
X61813Y63827D01*
X61819Y63815D01*
X61825Y63803D01*
X61834Y63780D01*
X61840Y63758D01*
X61842Y63748D01*
X61843Y63739D01*
X61844Y63730D01*
X61845Y63723D01*
X61846Y63717D01*
Y63709D01*
X61845Y63692D01*
X61843Y63676D01*
X61841Y63660D01*
X61837Y63645D01*
X61832Y63631D01*
X61828Y63619D01*
X61822Y63607D01*
X61817Y63597D01*
X61812Y63587D01*
X61806Y63579D01*
X61802Y63571D01*
X61797Y63566D01*
X61793Y63561D01*
X61791Y63557D01*
X61789Y63556D01*
X61788Y63555D01*
X61777Y63544D01*
X61765Y63534D01*
X61753Y63526D01*
X61741Y63519D01*
X61730Y63513D01*
X61718Y63508D01*
X61695Y63500D01*
X61685Y63498D01*
X61676Y63496D01*
X61668Y63495D01*
X61660Y63494D01*
X61655Y63493D01*
X61650D01*
X61647D01*
X61646D01*
X61624Y63494D01*
X61604Y63497D01*
X61586Y63503D01*
X61572Y63508D01*
X61560Y63514D01*
X61550Y63520D01*
X61545Y63523D01*
X61543Y63524D01*
X61529Y63537D01*
X61517Y63551D01*
X61508Y63566D01*
X61500Y63581D01*
X61495Y63594D01*
X61491Y63604D01*
X61490Y63607D01*
X61489Y63610D01*
X61488Y63612D01*
Y63613D01*
X61480Y63597D01*
X61472Y63584D01*
X61462Y63573D01*
X61454Y63564D01*
X61447Y63557D01*
X61440Y63551D01*
X61437Y63548D01*
X61435Y63547D01*
X61422Y63540D01*
X61409Y63534D01*
X61396Y63530D01*
X61384Y63527D01*
X61374Y63525D01*
X61366Y63524D01*
X61361D01*
X61359D01*
X61343Y63525D01*
X61327Y63528D01*
X61314Y63532D01*
X61302Y63536D01*
X61291Y63541D01*
X61283Y63545D01*
X61278Y63547D01*
X61277Y63548D01*
X61263Y63557D01*
X61251Y63569D01*
X61241Y63580D01*
X61231Y63591D01*
X61225Y63600D01*
X61219Y63608D01*
X61217Y63614D01*
X61216Y63615D01*
Y63616D01*
X61208Y63632D01*
X61203Y63649D01*
X61198Y63666D01*
X61195Y63680D01*
X61193Y63692D01*
X61192Y63703D01*
Y63726D01*
X61194Y63739D01*
X61199Y63764D01*
X61206Y63785D01*
X61214Y63803D01*
X61218Y63812D01*
X61222Y63818D01*
X61226Y63825D01*
X61229Y63829D01*
X61232Y63833D01*
X61234Y63836D01*
X61235Y63838D01*
X61236Y63839D01*
X61254Y63856D01*
X61273Y63870D01*
X61293Y63881D01*
X61314Y63890D01*
X61331Y63896D01*
X61339Y63899D01*
X61345Y63901D01*
X61351Y63901D01*
X61354Y63902D01*
X61357Y63903D01*
X61358D01*
X61372Y63825D01*
X61352Y63821D01*
X61334Y63815D01*
X61319Y63809D01*
X61307Y63803D01*
X61298Y63796D01*
X61291Y63790D01*
X61287Y63787D01*
X61286Y63786D01*
X61277Y63774D01*
X61269Y63761D01*
X61265Y63749D01*
X61261Y63737D01*
X61259Y63726D01*
X61257Y63717D01*
Y63710D01*
X61258Y63693D01*
X61262Y63679D01*
X61266Y63666D01*
X61271Y63655D01*
X61277Y63646D01*
X61281Y63640D01*
X61285Y63635D01*
X61286Y63634D01*
X61297Y63624D01*
X61309Y63617D01*
X61321Y63612D01*
X61332Y63608D01*
X61342Y63606D01*
X61350Y63605D01*
X61355D01*
X61356D01*
X61357D01*
X61367D01*
X61376Y63606D01*
X61392Y63611D01*
X61406Y63618D01*
X61418Y63625D01*
X61426Y63632D01*
X61433Y63639D01*
X61437Y63643D01*
X61438Y63644D01*
Y63645D01*
X61446Y63661D01*
X61452Y63676D01*
X61457Y63692D01*
X61460Y63705D01*
X61462Y63717D01*
X61463Y63728D01*
Y63740D01*
X61462Y63743D01*
Y63748D01*
X61532Y63757D01*
X61529Y63745D01*
X61527Y63734D01*
X61525Y63725D01*
X61524Y63717D01*
X61523Y63710D01*
Y63702D01*
X61525Y63682D01*
X61529Y63665D01*
X61535Y63649D01*
X61541Y63636D01*
X61548Y63626D01*
X61553Y63619D01*
X61557Y63614D01*
X61559Y63612D01*
X61572Y63600D01*
X61587Y63591D01*
X61602Y63584D01*
X61617Y63581D01*
X61629Y63578D01*
X61639Y63577D01*
X61643Y63576D01*
X61646D01*
X61647D01*
X61648D01*
X61669Y63578D01*
X61687Y63582D01*
X61703Y63588D01*
X61717Y63595D01*
X61728Y63603D01*
X61736Y63608D01*
X61742Y63613D01*
X61744Y63615D01*
X61756Y63630D01*
X61766Y63645D01*
X61772Y63661D01*
X61777Y63676D01*
X61780Y63689D01*
X61781Y63699D01*
X61781Y63703D01*
Y63708D01*
X61781Y63725D01*
X61777Y63741D01*
X61772Y63754D01*
X61767Y63766D01*
X61762Y63775D01*
X61757Y63782D01*
X61754Y63786D01*
X61753Y63788D01*
X61740Y63799D01*
X61725Y63808D01*
X61709Y63816D01*
X61693Y63823D01*
X61679Y63827D01*
X61672Y63829D01*
X61667Y63830D01*
X61662Y63831D01*
X61658Y63832D01*
X61657Y63833D01*
X61656D01*
X61666Y63912D01*
X61681Y63910D01*
D02*
G37*
G36*
X61835Y63202D02*
Y63113D01*
X61195Y62863D01*
Y62949D01*
X61660Y63123D01*
X61680Y63130D01*
X61698Y63137D01*
X61716Y63142D01*
X61732Y63147D01*
X61745Y63152D01*
X61756Y63154D01*
X61759Y63155D01*
X61762Y63156D01*
X61764Y63157D01*
X61765D01*
X61728Y63168D01*
X61710Y63174D01*
X61695Y63179D01*
X61681Y63184D01*
X61675Y63186D01*
X61670Y63187D01*
X61666Y63189D01*
X61663Y63190D01*
X61661Y63190D01*
X61660D01*
X61195Y63357D01*
Y63449D01*
X61835Y63202D01*
D02*
G37*
G36*
X64093Y64405D02*
X64125Y64401D01*
X64140Y64398D01*
X64154Y64395D01*
X64168Y64391D01*
X64180Y64388D01*
X64191Y64384D01*
X64200Y64380D01*
X64210Y64377D01*
X64216Y64375D01*
X64223Y64372D01*
X64226Y64370D01*
X64229Y64368D01*
X64230D01*
X64257Y64352D01*
X64280Y64333D01*
X64300Y64314D01*
X64317Y64295D01*
X64330Y64278D01*
X64334Y64271D01*
X64339Y64265D01*
X64342Y64259D01*
X64345Y64255D01*
X64345Y64253D01*
X64346Y64252D01*
X64354Y64237D01*
X64359Y64222D01*
X64370Y64192D01*
X64376Y64164D01*
X64382Y64137D01*
X64382Y64125D01*
X64384Y64114D01*
X64385Y64104D01*
Y64095D01*
X64386Y64089D01*
Y64080D01*
X64385Y64054D01*
X64382Y64029D01*
X64378Y64006D01*
X64373Y63985D01*
X64371Y63977D01*
X64370Y63969D01*
X64367Y63961D01*
X64365Y63955D01*
X64363Y63950D01*
X64362Y63947D01*
X64361Y63945D01*
Y63944D01*
X64351Y63919D01*
X64339Y63896D01*
X64326Y63874D01*
X64314Y63854D01*
X64308Y63846D01*
X64303Y63837D01*
X64298Y63831D01*
X64295Y63825D01*
X64291Y63821D01*
X64288Y63817D01*
X64287Y63815D01*
X64286Y63814D01*
X64049D01*
Y64086D01*
X64125D01*
Y63898D01*
X64245D01*
X64254Y63909D01*
X64262Y63922D01*
X64270Y63935D01*
X64276Y63948D01*
X64282Y63960D01*
X64286Y63970D01*
X64288Y63973D01*
X64289Y63975D01*
X64290Y63977D01*
Y63978D01*
X64296Y63997D01*
X64302Y64017D01*
X64306Y64034D01*
X64308Y64051D01*
X64309Y64065D01*
Y64070D01*
X64310Y64076D01*
Y64085D01*
X64309Y64108D01*
X64306Y64131D01*
X64301Y64151D01*
X64296Y64169D01*
X64291Y64184D01*
X64289Y64191D01*
X64287Y64195D01*
X64285Y64200D01*
X64284Y64203D01*
X64283Y64205D01*
Y64205D01*
X64271Y64225D01*
X64258Y64242D01*
X64244Y64257D01*
X64230Y64269D01*
X64217Y64279D01*
X64207Y64286D01*
X64203Y64289D01*
X64200Y64290D01*
X64198Y64291D01*
X64198D01*
X64174Y64301D01*
X64150Y64308D01*
X64126Y64313D01*
X64103Y64316D01*
X64093Y64317D01*
X64084Y64318D01*
X64075Y64319D01*
X64067D01*
X64062Y64320D01*
X64057D01*
X64054D01*
X64053D01*
X64027Y64319D01*
X64004Y64316D01*
X63982Y64313D01*
X63963Y64308D01*
X63954Y64306D01*
X63947Y64303D01*
X63941Y64302D01*
X63935Y64300D01*
X63930Y64298D01*
X63928Y64297D01*
X63926Y64296D01*
X63925D01*
X63912Y64290D01*
X63900Y64283D01*
X63889Y64277D01*
X63880Y64270D01*
X63872Y64265D01*
X63866Y64260D01*
X63862Y64256D01*
X63861Y64255D01*
X63851Y64245D01*
X63842Y64234D01*
X63834Y64222D01*
X63827Y64211D01*
X63822Y64202D01*
X63818Y64194D01*
X63816Y64189D01*
X63815Y64187D01*
X63808Y64170D01*
X63804Y64154D01*
X63801Y64136D01*
X63798Y64120D01*
X63797Y64107D01*
Y64101D01*
X63796Y64096D01*
Y64086D01*
X63797Y64069D01*
X63799Y64052D01*
X63802Y64037D01*
X63805Y64024D01*
X63808Y64013D01*
X63811Y64005D01*
X63813Y64000D01*
X63814Y63998D01*
X63820Y63984D01*
X63828Y63972D01*
X63835Y63961D01*
X63843Y63953D01*
X63849Y63947D01*
X63854Y63941D01*
X63857Y63938D01*
X63858Y63937D01*
X63869Y63929D01*
X63882Y63923D01*
X63894Y63916D01*
X63907Y63911D01*
X63918Y63907D01*
X63927Y63904D01*
X63930Y63903D01*
X63933Y63902D01*
X63934Y63901D01*
X63935D01*
X63915Y63825D01*
X63892Y63831D01*
X63871Y63839D01*
X63853Y63848D01*
X63838Y63855D01*
X63826Y63862D01*
X63818Y63868D01*
X63812Y63872D01*
X63810Y63874D01*
X63795Y63886D01*
X63783Y63900D01*
X63772Y63915D01*
X63763Y63929D01*
X63757Y63942D01*
X63751Y63952D01*
X63749Y63956D01*
X63748Y63959D01*
X63747Y63960D01*
Y63961D01*
X63740Y63983D01*
X63734Y64005D01*
X63730Y64025D01*
X63727Y64045D01*
X63725Y64062D01*
Y64070D01*
X63724Y64075D01*
Y64105D01*
X63726Y64121D01*
X63731Y64154D01*
X63733Y64168D01*
X63737Y64182D01*
X63740Y64195D01*
X63744Y64207D01*
X63747Y64218D01*
X63751Y64228D01*
X63755Y64236D01*
X63757Y64243D01*
X63760Y64249D01*
X63762Y64253D01*
X63763Y64255D01*
X63764Y64256D01*
X63772Y64269D01*
X63781Y64282D01*
X63800Y64304D01*
X63819Y64324D01*
X63840Y64340D01*
X63857Y64352D01*
X63865Y64357D01*
X63872Y64361D01*
X63878Y64364D01*
X63881Y64366D01*
X63884Y64367D01*
X63885Y64368D01*
X63916Y64381D01*
X63946Y64390D01*
X63976Y64398D01*
X63990Y64400D01*
X64002Y64402D01*
X64014Y64403D01*
X64025Y64405D01*
X64035Y64406D01*
X64043D01*
X64050Y64407D01*
X64054D01*
X64058D01*
X64059D01*
X64093Y64405D01*
D02*
G37*
G36*
X64375Y63609D02*
X63873D01*
X64375Y63274D01*
Y63187D01*
X63735D01*
Y63268D01*
X64238D01*
X63735Y63604D01*
Y63690D01*
X64375D01*
Y63609D01*
D02*
G37*
G36*
Y62814D02*
X64374Y62793D01*
X64373Y62773D01*
X64371Y62756D01*
X64370Y62741D01*
X64368Y62728D01*
X64367Y62719D01*
X64366Y62716D01*
X64365Y62713D01*
Y62711D01*
X64360Y62695D01*
X64355Y62680D01*
X64350Y62667D01*
X64345Y62656D01*
X64340Y62647D01*
X64336Y62640D01*
X64333Y62636D01*
X64333Y62635D01*
X64324Y62623D01*
X64314Y62612D01*
X64305Y62602D01*
X64296Y62594D01*
X64287Y62587D01*
X64281Y62581D01*
X64276Y62577D01*
X64274Y62576D01*
X64259Y62567D01*
X64244Y62558D01*
X64229Y62550D01*
X64214Y62545D01*
X64201Y62539D01*
X64191Y62536D01*
X64187Y62535D01*
X64185Y62534D01*
X64183Y62533D01*
X64182D01*
X64160Y62527D01*
X64137Y62523D01*
X64116Y62520D01*
X64096Y62517D01*
X64078Y62516D01*
X64071D01*
X64064Y62515D01*
X64060D01*
X64055D01*
X64053D01*
X64052D01*
X64021Y62516D01*
X63992Y62519D01*
X63966Y62524D01*
X63954Y62526D01*
X63944Y62528D01*
X63934Y62531D01*
X63926Y62533D01*
X63918Y62535D01*
X63912Y62538D01*
X63906Y62538D01*
X63903Y62540D01*
X63901Y62541D01*
X63900D01*
X63876Y62551D01*
X63855Y62563D01*
X63836Y62576D01*
X63820Y62588D01*
X63807Y62599D01*
X63798Y62609D01*
X63795Y62612D01*
X63793Y62615D01*
X63792Y62616D01*
X63791Y62617D01*
X63779Y62632D01*
X63769Y62648D01*
X63761Y62663D01*
X63755Y62678D01*
X63750Y62691D01*
X63747Y62701D01*
X63745Y62705D01*
Y62708D01*
X63745Y62709D01*
Y62710D01*
X63742Y62726D01*
X63739Y62745D01*
X63737Y62763D01*
X63736Y62782D01*
X63735Y62798D01*
Y63044D01*
X64375D01*
Y62814D01*
D02*
G37*
G36*
X46595Y63056D02*
X46401Y62987D01*
Y62719D01*
X46595Y62644D01*
Y62548D01*
X45955Y62810D01*
Y62902D01*
X46595Y63146D01*
Y63056D01*
D02*
G37*
G36*
Y62399D02*
X46093D01*
X46595Y62064D01*
Y61977D01*
X45955D01*
Y62058D01*
X46458D01*
X45955Y62394D01*
Y62480D01*
X46595D01*
Y62399D01*
D02*
G37*
G36*
X59113Y78883D02*
X59135Y78879D01*
X59155Y78874D01*
X59172Y78867D01*
X59186Y78861D01*
X59192Y78858D01*
X59196Y78856D01*
X59200Y78854D01*
X59203Y78853D01*
X59204Y78851D01*
X59205D01*
X59223Y78837D01*
X59239Y78822D01*
X59252Y78806D01*
X59263Y78792D01*
X59271Y78779D01*
X59277Y78768D01*
X59278Y78764D01*
X59280Y78761D01*
X59281Y78759D01*
Y78758D01*
X59290Y78735D01*
X59296Y78711D01*
X59300Y78687D01*
X59303Y78664D01*
X59304Y78653D01*
X59305Y78644D01*
Y78635D01*
X59306Y78628D01*
Y78613D01*
X59305Y78588D01*
X59302Y78565D01*
X59298Y78544D01*
X59293Y78526D01*
X59290Y78511D01*
X59287Y78505D01*
X59285Y78499D01*
X59283Y78496D01*
X59282Y78493D01*
X59281Y78491D01*
Y78490D01*
X59271Y78471D01*
X59260Y78454D01*
X59248Y78439D01*
X59237Y78427D01*
X59228Y78418D01*
X59219Y78412D01*
X59214Y78407D01*
X59213Y78406D01*
X59212D01*
X59194Y78396D01*
X59178Y78389D01*
X59162Y78384D01*
X59147Y78380D01*
X59134Y78378D01*
X59124Y78376D01*
X59120D01*
X59118D01*
X59117D01*
X59116D01*
X59097Y78377D01*
X59080Y78380D01*
X59064Y78385D01*
X59051Y78389D01*
X59040Y78395D01*
X59032Y78399D01*
X59027Y78402D01*
X59025Y78403D01*
X59011Y78414D01*
X58998Y78427D01*
X58987Y78441D01*
X58977Y78455D01*
X58970Y78467D01*
X58964Y78477D01*
X58962Y78481D01*
X58960Y78484D01*
X58959Y78486D01*
Y78487D01*
X58956Y78494D01*
X58953Y78503D01*
X58949Y78513D01*
X58946Y78524D01*
X58939Y78548D01*
X58933Y78572D01*
X58930Y78583D01*
X58927Y78593D01*
X58924Y78603D01*
X58922Y78611D01*
X58921Y78618D01*
X58920Y78623D01*
X58919Y78627D01*
Y78628D01*
X58914Y78646D01*
X58910Y78663D01*
X58906Y78678D01*
X58902Y78691D01*
X58897Y78703D01*
X58894Y78713D01*
X58890Y78722D01*
X58887Y78731D01*
X58884Y78737D01*
X58881Y78743D01*
X58879Y78746D01*
X58876Y78750D01*
X58873Y78755D01*
X58873Y78756D01*
X58863Y78764D01*
X58854Y78769D01*
X58845Y78774D01*
X58836Y78777D01*
X58828Y78779D01*
X58822Y78780D01*
X58818D01*
X58816D01*
X58801Y78778D01*
X58788Y78774D01*
X58777Y78769D01*
X58767Y78762D01*
X58760Y78756D01*
X58753Y78751D01*
X58750Y78747D01*
X58749Y78745D01*
X58744Y78738D01*
X58739Y78731D01*
X58732Y78713D01*
X58727Y78695D01*
X58724Y78676D01*
X58722Y78659D01*
X58721Y78652D01*
X58720Y78646D01*
Y78634D01*
X58721Y78608D01*
X58725Y78585D01*
X58730Y78566D01*
X58736Y78550D01*
X58741Y78538D01*
X58747Y78529D01*
X58750Y78524D01*
X58751Y78523D01*
X58764Y78510D01*
X58778Y78499D01*
X58793Y78491D01*
X58808Y78486D01*
X58822Y78482D01*
X58832Y78479D01*
X58836Y78478D01*
X58839Y78477D01*
X58841D01*
X58842D01*
X58836Y78396D01*
X58815Y78398D01*
X58797Y78402D01*
X58779Y78407D01*
X58764Y78413D01*
X58752Y78419D01*
X58743Y78424D01*
X58740Y78425D01*
X58738Y78427D01*
X58737Y78428D01*
X58736D01*
X58720Y78440D01*
X58706Y78453D01*
X58694Y78467D01*
X58685Y78481D01*
X58677Y78493D01*
X58672Y78502D01*
X58670Y78506D01*
X58668Y78509D01*
X58667Y78511D01*
Y78511D01*
X58660Y78532D01*
X58654Y78554D01*
X58650Y78574D01*
X58647Y78594D01*
X58645Y78611D01*
Y78618D01*
X58644Y78624D01*
Y78636D01*
X58645Y78660D01*
X58648Y78682D01*
X58652Y78702D01*
X58655Y78719D01*
X58659Y78733D01*
X58661Y78740D01*
X58663Y78744D01*
X58665Y78748D01*
X58665Y78751D01*
X58666Y78753D01*
Y78754D01*
X58676Y78772D01*
X58686Y78789D01*
X58697Y78803D01*
X58707Y78814D01*
X58716Y78822D01*
X58724Y78829D01*
X58729Y78833D01*
X58730Y78834D01*
X58731D01*
X58747Y78843D01*
X58763Y78850D01*
X58778Y78854D01*
X58792Y78857D01*
X58804Y78859D01*
X58813Y78861D01*
X58817D01*
X58820D01*
X58821D01*
X58822D01*
X58837Y78860D01*
X58852Y78857D01*
X58866Y78854D01*
X58878Y78850D01*
X58887Y78846D01*
X58895Y78842D01*
X58899Y78840D01*
X58901Y78839D01*
X58914Y78830D01*
X58926Y78818D01*
X58936Y78807D01*
X58945Y78796D01*
X58952Y78787D01*
X58957Y78779D01*
X58960Y78773D01*
X58961Y78772D01*
Y78771D01*
X58965Y78764D01*
X58969Y78756D01*
X58975Y78737D01*
X58982Y78716D01*
X58988Y78695D01*
X58994Y78677D01*
X58996Y78669D01*
X58997Y78661D01*
X58999Y78656D01*
X59000Y78651D01*
X59001Y78648D01*
Y78647D01*
X59005Y78632D01*
X59008Y78617D01*
X59012Y78604D01*
X59015Y78593D01*
X59018Y78582D01*
X59020Y78572D01*
X59022Y78564D01*
X59025Y78558D01*
X59027Y78551D01*
X59028Y78547D01*
X59031Y78539D01*
X59032Y78535D01*
X59032Y78534D01*
X59038Y78520D01*
X59045Y78508D01*
X59051Y78498D01*
X59057Y78490D01*
X59062Y78484D01*
X59066Y78480D01*
X59069Y78477D01*
X59069Y78476D01*
X59078Y78470D01*
X59087Y78465D01*
X59096Y78462D01*
X59104Y78460D01*
X59111Y78459D01*
X59117Y78458D01*
X59121D01*
X59122D01*
X59133Y78459D01*
X59143Y78461D01*
X59153Y78463D01*
X59160Y78467D01*
X59167Y78471D01*
X59172Y78474D01*
X59176Y78475D01*
X59177Y78476D01*
X59186Y78484D01*
X59193Y78493D01*
X59200Y78502D01*
X59206Y78511D01*
X59210Y78519D01*
X59214Y78525D01*
X59216Y78530D01*
X59216Y78532D01*
X59221Y78546D01*
X59225Y78560D01*
X59227Y78575D01*
X59228Y78588D01*
X59229Y78599D01*
X59230Y78609D01*
Y78617D01*
X59229Y78637D01*
X59228Y78656D01*
X59225Y78672D01*
X59221Y78687D01*
X59217Y78699D01*
X59215Y78708D01*
X59214Y78711D01*
X59213Y78714D01*
X59212Y78715D01*
Y78716D01*
X59204Y78731D01*
X59196Y78744D01*
X59188Y78755D01*
X59179Y78764D01*
X59173Y78771D01*
X59167Y78776D01*
X59163Y78779D01*
X59162Y78780D01*
X59150Y78786D01*
X59137Y78793D01*
X59123Y78796D01*
X59111Y78800D01*
X59099Y78803D01*
X59091Y78805D01*
X59087D01*
X59084Y78805D01*
X59083D01*
X59082D01*
X59090Y78885D01*
X59113Y78883D01*
D02*
G37*
G36*
X59295Y78030D02*
X59294Y78009D01*
X59293Y77989D01*
X59291Y77972D01*
X59290Y77957D01*
X59288Y77944D01*
X59287Y77935D01*
X59286Y77932D01*
X59285Y77929D01*
Y77927D01*
X59280Y77911D01*
X59275Y77896D01*
X59270Y77883D01*
X59265Y77872D01*
X59260Y77862D01*
X59256Y77856D01*
X59253Y77852D01*
X59253Y77850D01*
X59244Y77838D01*
X59234Y77828D01*
X59225Y77818D01*
X59216Y77810D01*
X59207Y77802D01*
X59201Y77797D01*
X59196Y77793D01*
X59194Y77792D01*
X59179Y77783D01*
X59164Y77774D01*
X59149Y77766D01*
X59134Y77761D01*
X59121Y77755D01*
X59111Y77751D01*
X59107Y77751D01*
X59105Y77750D01*
X59103Y77749D01*
X59102D01*
X59080Y77743D01*
X59057Y77739D01*
X59036Y77736D01*
X59016Y77733D01*
X58998Y77732D01*
X58991D01*
X58984Y77731D01*
X58980D01*
X58975D01*
X58973D01*
X58972D01*
X58941Y77732D01*
X58912Y77735D01*
X58886Y77739D01*
X58874Y77741D01*
X58864Y77744D01*
X58854Y77747D01*
X58846Y77749D01*
X58838Y77751D01*
X58832Y77753D01*
X58826Y77754D01*
X58823Y77756D01*
X58821Y77757D01*
X58820D01*
X58796Y77767D01*
X58775Y77779D01*
X58756Y77792D01*
X58740Y77804D01*
X58727Y77815D01*
X58718Y77825D01*
X58715Y77828D01*
X58713Y77831D01*
X58712Y77832D01*
X58711Y77833D01*
X58699Y77848D01*
X58689Y77863D01*
X58681Y77879D01*
X58675Y77894D01*
X58670Y77907D01*
X58667Y77917D01*
X58665Y77921D01*
Y77923D01*
X58665Y77925D01*
Y77926D01*
X58662Y77942D01*
X58659Y77960D01*
X58657Y77979D01*
X58656Y77997D01*
X58655Y78014D01*
Y78260D01*
X59295D01*
Y78030D01*
D02*
G37*
G36*
Y77595D02*
X59101Y77526D01*
Y77258D01*
X59295Y77183D01*
Y77087D01*
X58655Y77348D01*
Y77441D01*
X59295Y77685D01*
Y77595D01*
D02*
G37*
G36*
X56573Y78883D02*
X56595Y78879D01*
X56615Y78874D01*
X56632Y78867D01*
X56646Y78861D01*
X56652Y78858D01*
X56656Y78856D01*
X56660Y78854D01*
X56663Y78853D01*
X56664Y78851D01*
X56665D01*
X56683Y78837D01*
X56699Y78822D01*
X56712Y78806D01*
X56723Y78792D01*
X56731Y78779D01*
X56737Y78768D01*
X56738Y78764D01*
X56740Y78761D01*
X56741Y78759D01*
Y78758D01*
X56750Y78735D01*
X56756Y78711D01*
X56760Y78687D01*
X56763Y78664D01*
X56764Y78653D01*
X56765Y78644D01*
Y78635D01*
X56766Y78628D01*
Y78613D01*
X56765Y78588D01*
X56762Y78565D01*
X56758Y78544D01*
X56753Y78526D01*
X56750Y78511D01*
X56747Y78505D01*
X56745Y78499D01*
X56743Y78496D01*
X56742Y78493D01*
X56741Y78491D01*
Y78490D01*
X56731Y78471D01*
X56720Y78454D01*
X56708Y78439D01*
X56697Y78427D01*
X56688Y78418D01*
X56679Y78412D01*
X56674Y78407D01*
X56673Y78406D01*
X56672D01*
X56654Y78396D01*
X56638Y78389D01*
X56622Y78384D01*
X56607Y78380D01*
X56594Y78378D01*
X56584Y78376D01*
X56580D01*
X56578D01*
X56577D01*
X56576D01*
X56557Y78377D01*
X56540Y78380D01*
X56524Y78385D01*
X56511Y78389D01*
X56500Y78395D01*
X56492Y78399D01*
X56487Y78402D01*
X56485Y78403D01*
X56471Y78414D01*
X56458Y78427D01*
X56447Y78441D01*
X56437Y78455D01*
X56430Y78467D01*
X56424Y78477D01*
X56422Y78481D01*
X56420Y78484D01*
X56419Y78486D01*
Y78487D01*
X56416Y78494D01*
X56413Y78503D01*
X56409Y78513D01*
X56406Y78524D01*
X56399Y78548D01*
X56393Y78572D01*
X56390Y78583D01*
X56387Y78593D01*
X56384Y78603D01*
X56382Y78611D01*
X56381Y78618D01*
X56380Y78623D01*
X56379Y78627D01*
Y78628D01*
X56374Y78646D01*
X56370Y78663D01*
X56366Y78678D01*
X56362Y78691D01*
X56357Y78703D01*
X56354Y78713D01*
X56350Y78722D01*
X56347Y78731D01*
X56344Y78737D01*
X56341Y78743D01*
X56339Y78746D01*
X56336Y78750D01*
X56333Y78755D01*
X56333Y78756D01*
X56323Y78764D01*
X56314Y78769D01*
X56305Y78774D01*
X56296Y78777D01*
X56288Y78779D01*
X56282Y78780D01*
X56278D01*
X56276D01*
X56261Y78778D01*
X56248Y78774D01*
X56237Y78769D01*
X56227Y78762D01*
X56220Y78756D01*
X56213Y78751D01*
X56210Y78747D01*
X56209Y78745D01*
X56204Y78738D01*
X56199Y78731D01*
X56192Y78713D01*
X56187Y78695D01*
X56184Y78676D01*
X56182Y78659D01*
X56181Y78652D01*
X56180Y78646D01*
Y78634D01*
X56181Y78608D01*
X56185Y78585D01*
X56190Y78566D01*
X56196Y78550D01*
X56201Y78538D01*
X56207Y78529D01*
X56210Y78524D01*
X56211Y78523D01*
X56224Y78510D01*
X56238Y78499D01*
X56253Y78491D01*
X56268Y78486D01*
X56282Y78482D01*
X56292Y78479D01*
X56296Y78478D01*
X56299Y78477D01*
X56301D01*
X56302D01*
X56296Y78396D01*
X56275Y78398D01*
X56257Y78402D01*
X56239Y78407D01*
X56224Y78413D01*
X56212Y78419D01*
X56203Y78424D01*
X56200Y78425D01*
X56198Y78427D01*
X56197Y78428D01*
X56196D01*
X56180Y78440D01*
X56166Y78453D01*
X56154Y78467D01*
X56145Y78481D01*
X56137Y78493D01*
X56132Y78502D01*
X56130Y78506D01*
X56128Y78509D01*
X56127Y78511D01*
Y78511D01*
X56120Y78532D01*
X56114Y78554D01*
X56110Y78574D01*
X56107Y78594D01*
X56105Y78611D01*
Y78618D01*
X56104Y78624D01*
Y78636D01*
X56105Y78660D01*
X56108Y78682D01*
X56112Y78702D01*
X56115Y78719D01*
X56119Y78733D01*
X56121Y78740D01*
X56123Y78744D01*
X56125Y78748D01*
X56125Y78751D01*
X56126Y78753D01*
Y78754D01*
X56136Y78772D01*
X56146Y78789D01*
X56157Y78803D01*
X56167Y78814D01*
X56176Y78822D01*
X56184Y78829D01*
X56189Y78833D01*
X56190Y78834D01*
X56191D01*
X56207Y78843D01*
X56223Y78850D01*
X56238Y78854D01*
X56252Y78857D01*
X56264Y78859D01*
X56273Y78861D01*
X56277D01*
X56280D01*
X56281D01*
X56282D01*
X56297Y78860D01*
X56312Y78857D01*
X56326Y78854D01*
X56338Y78850D01*
X56347Y78846D01*
X56355Y78842D01*
X56359Y78840D01*
X56361Y78839D01*
X56374Y78830D01*
X56386Y78818D01*
X56396Y78807D01*
X56405Y78796D01*
X56412Y78787D01*
X56417Y78779D01*
X56420Y78773D01*
X56421Y78772D01*
Y78771D01*
X56425Y78764D01*
X56429Y78756D01*
X56435Y78737D01*
X56442Y78716D01*
X56448Y78695D01*
X56454Y78677D01*
X56456Y78669D01*
X56457Y78661D01*
X56459Y78656D01*
X56460Y78651D01*
X56461Y78648D01*
Y78647D01*
X56465Y78632D01*
X56468Y78617D01*
X56472Y78604D01*
X56475Y78593D01*
X56478Y78582D01*
X56480Y78572D01*
X56482Y78564D01*
X56485Y78558D01*
X56487Y78551D01*
X56488Y78547D01*
X56491Y78539D01*
X56492Y78535D01*
X56492Y78534D01*
X56498Y78520D01*
X56505Y78508D01*
X56511Y78498D01*
X56517Y78490D01*
X56522Y78484D01*
X56526Y78480D01*
X56529Y78477D01*
X56529Y78476D01*
X56538Y78470D01*
X56547Y78465D01*
X56556Y78462D01*
X56564Y78460D01*
X56571Y78459D01*
X56577Y78458D01*
X56581D01*
X56582D01*
X56593Y78459D01*
X56603Y78461D01*
X56613Y78463D01*
X56620Y78467D01*
X56627Y78471D01*
X56632Y78474D01*
X56636Y78475D01*
X56637Y78476D01*
X56646Y78484D01*
X56653Y78493D01*
X56660Y78502D01*
X56666Y78511D01*
X56670Y78519D01*
X56674Y78525D01*
X56676Y78530D01*
X56676Y78532D01*
X56681Y78546D01*
X56685Y78560D01*
X56687Y78575D01*
X56688Y78588D01*
X56689Y78599D01*
X56690Y78609D01*
Y78617D01*
X56689Y78637D01*
X56688Y78656D01*
X56685Y78672D01*
X56681Y78687D01*
X56677Y78699D01*
X56675Y78708D01*
X56674Y78711D01*
X56673Y78714D01*
X56672Y78715D01*
Y78716D01*
X56664Y78731D01*
X56656Y78744D01*
X56648Y78755D01*
X56639Y78764D01*
X56633Y78771D01*
X56627Y78776D01*
X56623Y78779D01*
X56622Y78780D01*
X56610Y78786D01*
X56597Y78793D01*
X56583Y78796D01*
X56571Y78800D01*
X56559Y78803D01*
X56551Y78805D01*
X56547D01*
X56544Y78805D01*
X56543D01*
X56542D01*
X56550Y78885D01*
X56573Y78883D01*
D02*
G37*
G36*
X56464Y78283D02*
X56496Y78279D01*
X56525Y78275D01*
X56539Y78271D01*
X56551Y78268D01*
X56562Y78266D01*
X56572Y78262D01*
X56581Y78259D01*
X56589Y78257D01*
X56594Y78254D01*
X56599Y78254D01*
X56602Y78252D01*
X56603D01*
X56630Y78238D01*
X56655Y78222D01*
X56676Y78205D01*
X56685Y78197D01*
X56693Y78190D01*
X56701Y78182D01*
X56707Y78175D01*
X56713Y78168D01*
X56716Y78163D01*
X56720Y78159D01*
X56723Y78156D01*
X56724Y78154D01*
X56725Y78153D01*
X56732Y78140D01*
X56738Y78127D01*
X56749Y78099D01*
X56756Y78071D01*
X56761Y78045D01*
X56762Y78032D01*
X56764Y78021D01*
X56765Y78010D01*
Y78002D01*
X56766Y77995D01*
Y77984D01*
X56765Y77966D01*
X56763Y77948D01*
X56762Y77932D01*
X56758Y77916D01*
X56753Y77901D01*
X56749Y77887D01*
X56744Y77874D01*
X56738Y77862D01*
X56734Y77852D01*
X56729Y77842D01*
X56725Y77835D01*
X56720Y77827D01*
X56716Y77823D01*
X56714Y77818D01*
X56713Y77816D01*
X56712Y77815D01*
X56701Y77802D01*
X56689Y77791D01*
X56676Y77781D01*
X56664Y77771D01*
X56638Y77754D01*
X56612Y77741D01*
X56600Y77736D01*
X56589Y77731D01*
X56578Y77727D01*
X56570Y77725D01*
X56563Y77722D01*
X56557Y77720D01*
X56554Y77719D01*
X56553D01*
X56531Y77804D01*
X56546Y77808D01*
X56560Y77813D01*
X56573Y77817D01*
X56585Y77822D01*
X56596Y77827D01*
X56605Y77833D01*
X56615Y77839D01*
X56623Y77845D01*
X56630Y77849D01*
X56636Y77855D01*
X56641Y77860D01*
X56646Y77863D01*
X56649Y77867D01*
X56652Y77870D01*
X56652Y77871D01*
X56653Y77872D01*
X56661Y77881D01*
X56666Y77891D01*
X56676Y77911D01*
X56684Y77931D01*
X56688Y77950D01*
X56692Y77967D01*
X56693Y77973D01*
Y77980D01*
X56694Y77985D01*
Y77992D01*
X56693Y78013D01*
X56689Y78033D01*
X56685Y78052D01*
X56679Y78069D01*
X56674Y78082D01*
X56671Y78087D01*
X56669Y78092D01*
X56667Y78095D01*
X56665Y78098D01*
X56664Y78100D01*
Y78101D01*
X56652Y78119D01*
X56638Y78133D01*
X56622Y78146D01*
X56607Y78156D01*
X56594Y78165D01*
X56583Y78170D01*
X56578Y78172D01*
X56576Y78174D01*
X56574Y78175D01*
X56573D01*
X56549Y78182D01*
X56525Y78188D01*
X56501Y78192D01*
X56479Y78195D01*
X56468Y78196D01*
X56459Y78197D01*
X56451D01*
X56444Y78198D01*
X56439D01*
X56434D01*
X56431D01*
X56431D01*
X56407Y78197D01*
X56384Y78195D01*
X56364Y78192D01*
X56345Y78188D01*
X56330Y78185D01*
X56323Y78183D01*
X56318Y78181D01*
X56313Y78180D01*
X56310Y78180D01*
X56308Y78179D01*
X56308D01*
X56286Y78169D01*
X56267Y78159D01*
X56251Y78148D01*
X56237Y78136D01*
X56226Y78126D01*
X56219Y78118D01*
X56214Y78111D01*
X56212Y78110D01*
Y78109D01*
X56200Y78090D01*
X56191Y78069D01*
X56185Y78048D01*
X56181Y78029D01*
X56178Y78011D01*
X56177Y78004D01*
Y77997D01*
X56176Y77993D01*
Y77985D01*
X56177Y77962D01*
X56181Y77941D01*
X56186Y77923D01*
X56192Y77908D01*
X56198Y77896D01*
X56203Y77886D01*
X56207Y77881D01*
X56209Y77879D01*
X56223Y77864D01*
X56238Y77850D01*
X56255Y77839D01*
X56272Y77830D01*
X56286Y77823D01*
X56294Y77820D01*
X56299Y77818D01*
X56304Y77816D01*
X56308Y77814D01*
X56309Y77813D01*
X56310D01*
X56291Y77730D01*
X56274Y77736D01*
X56259Y77741D01*
X56246Y77749D01*
X56232Y77755D01*
X56220Y77763D01*
X56209Y77771D01*
X56198Y77778D01*
X56188Y77786D01*
X56181Y77793D01*
X56174Y77800D01*
X56167Y77806D01*
X56162Y77811D01*
X56158Y77815D01*
X56155Y77819D01*
X56154Y77821D01*
X56153Y77822D01*
X56145Y77835D01*
X56137Y77848D01*
X56130Y77861D01*
X56125Y77874D01*
X56116Y77902D01*
X56111Y77927D01*
X56108Y77939D01*
X56107Y77949D01*
X56106Y77960D01*
X56105Y77968D01*
X56104Y77974D01*
Y77984D01*
X56106Y78014D01*
X56111Y78044D01*
X56116Y78070D01*
X56120Y78082D01*
X56124Y78093D01*
X56127Y78103D01*
X56131Y78112D01*
X56134Y78119D01*
X56137Y78127D01*
X56139Y78131D01*
X56141Y78135D01*
X56142Y78138D01*
X56143Y78139D01*
X56159Y78164D01*
X56177Y78185D01*
X56196Y78204D01*
X56214Y78219D01*
X56231Y78231D01*
X56238Y78236D01*
X56245Y78240D01*
X56249Y78243D01*
X56253Y78245D01*
X56256Y78246D01*
X56257Y78247D01*
X56285Y78260D01*
X56315Y78269D01*
X56345Y78276D01*
X56371Y78280D01*
X56383Y78282D01*
X56395Y78283D01*
X56405Y78284D01*
X56414D01*
X56420Y78285D01*
X56426D01*
X56430D01*
X56431D01*
X56464Y78283D01*
D02*
G37*
G36*
X56755Y77218D02*
X56679D01*
Y77533D01*
X56115D01*
Y77618D01*
X56755D01*
Y77218D01*
D02*
G37*
G36*
X49135Y78800D02*
X48495D01*
Y78885D01*
X49135D01*
Y78800D01*
D02*
G37*
G36*
Y78570D02*
X48633D01*
X49135Y78235D01*
Y78147D01*
X48495D01*
Y78229D01*
X48998D01*
X48495Y78564D01*
Y78651D01*
X49135D01*
Y78570D01*
D02*
G37*
G36*
X48571Y77842D02*
X49135D01*
Y77757D01*
X48571D01*
Y77546D01*
X48495D01*
Y78053D01*
X48571D01*
Y77842D01*
D02*
G37*
G36*
X51675Y78800D02*
X51391D01*
Y78691D01*
X51392Y78681D01*
Y78673D01*
X51393Y78667D01*
X51394Y78662D01*
Y78658D01*
X51395Y78657D01*
Y78656D01*
X51400Y78641D01*
X51402Y78634D01*
X51405Y78629D01*
X51408Y78623D01*
X51410Y78620D01*
X51411Y78618D01*
X51412Y78617D01*
X51417Y78609D01*
X51424Y78602D01*
X51437Y78588D01*
X51444Y78582D01*
X51449Y78577D01*
X51453Y78574D01*
X51454Y78573D01*
X51467Y78564D01*
X51481Y78554D01*
X51496Y78544D01*
X51510Y78534D01*
X51523Y78525D01*
X51533Y78519D01*
X51536Y78516D01*
X51539Y78514D01*
X51541Y78512D01*
X51542D01*
X51675Y78428D01*
Y78323D01*
X51501Y78433D01*
X51483Y78446D01*
X51466Y78458D01*
X51452Y78470D01*
X51439Y78480D01*
X51430Y78489D01*
X51423Y78497D01*
X51418Y78501D01*
X51416Y78503D01*
X51411Y78511D01*
X51404Y78519D01*
X51394Y78536D01*
X51390Y78543D01*
X51387Y78548D01*
X51385Y78552D01*
X51384Y78554D01*
X51381Y78537D01*
X51378Y78522D01*
X51374Y78508D01*
X51370Y78494D01*
X51365Y78482D01*
X51360Y78471D01*
X51355Y78461D01*
X51351Y78451D01*
X51345Y78444D01*
X51340Y78437D01*
X51337Y78431D01*
X51333Y78426D01*
X51330Y78423D01*
X51327Y78420D01*
X51326Y78419D01*
X51326Y78418D01*
X51316Y78411D01*
X51307Y78403D01*
X51288Y78392D01*
X51268Y78385D01*
X51250Y78379D01*
X51234Y78376D01*
X51228Y78375D01*
X51221D01*
X51216Y78374D01*
X51213D01*
X51211D01*
X51210D01*
X51191Y78375D01*
X51173Y78377D01*
X51156Y78382D01*
X51143Y78387D01*
X51131Y78392D01*
X51121Y78396D01*
X51116Y78400D01*
X51115Y78401D01*
X51114D01*
X51099Y78412D01*
X51086Y78423D01*
X51075Y78435D01*
X51067Y78446D01*
X51060Y78456D01*
X51057Y78464D01*
X51054Y78470D01*
X51053Y78471D01*
Y78472D01*
X51050Y78480D01*
X51047Y78490D01*
X51043Y78511D01*
X51040Y78533D01*
X51037Y78553D01*
X51036Y78572D01*
Y78581D01*
X51035Y78588D01*
Y78885D01*
X51675D01*
Y78800D01*
D02*
G37*
G36*
Y78205D02*
X51453Y78043D01*
X51448Y78039D01*
X51441Y78034D01*
X51426Y78024D01*
X51419Y78020D01*
X51413Y78016D01*
X51410Y78013D01*
X51409Y78012D01*
X51423Y78003D01*
X51436Y77995D01*
X51440Y77991D01*
X51444Y77989D01*
X51447Y77987D01*
X51448Y77986D01*
X51675Y77825D01*
Y77720D01*
X51339Y77960D01*
X51035Y77738D01*
Y77830D01*
X51205Y77958D01*
X51219Y77969D01*
X51232Y77978D01*
X51245Y77987D01*
X51255Y77995D01*
X51265Y78001D01*
X51272Y78006D01*
X51276Y78009D01*
X51278Y78009D01*
X51266Y78016D01*
X51254Y78023D01*
X51241Y78032D01*
X51229Y78040D01*
X51217Y78048D01*
X51208Y78054D01*
X51204Y78057D01*
X51202Y78058D01*
X51201Y78060D01*
X51200D01*
X51035Y78177D01*
Y78278D01*
X51344Y78059D01*
X51675Y78306D01*
Y78205D01*
D02*
G37*
G36*
X53651Y78674D02*
X54215D01*
Y78589D01*
X53651D01*
Y78378D01*
X53575D01*
Y78885D01*
X53651D01*
Y78674D01*
D02*
G37*
G36*
X54215Y78254D02*
X53993Y78093D01*
X53988Y78089D01*
X53981Y78084D01*
X53966Y78074D01*
X53959Y78070D01*
X53953Y78066D01*
X53950Y78063D01*
X53949Y78062D01*
X53963Y78053D01*
X53976Y78045D01*
X53980Y78041D01*
X53984Y78039D01*
X53987Y78037D01*
X53988Y78036D01*
X54215Y77874D01*
Y77770D01*
X53879Y78009D01*
X53575Y77788D01*
Y77880D01*
X53745Y78008D01*
X53759Y78019D01*
X53772Y78028D01*
X53785Y78037D01*
X53795Y78045D01*
X53805Y78051D01*
X53812Y78056D01*
X53816Y78058D01*
X53818Y78059D01*
X53806Y78066D01*
X53794Y78073D01*
X53781Y78082D01*
X53769Y78090D01*
X53757Y78098D01*
X53748Y78104D01*
X53744Y78107D01*
X53742Y78108D01*
X53741Y78110D01*
X53740D01*
X53575Y78227D01*
Y78327D01*
X53884Y78109D01*
X54215Y78356D01*
Y78254D01*
D02*
G37*
G36*
X64093Y78883D02*
X64125Y78879D01*
X64140Y78876D01*
X64154Y78873D01*
X64168Y78869D01*
X64180Y78866D01*
X64191Y78862D01*
X64200Y78858D01*
X64210Y78855D01*
X64216Y78853D01*
X64223Y78850D01*
X64226Y78848D01*
X64229Y78846D01*
X64230D01*
X64257Y78830D01*
X64280Y78811D01*
X64300Y78792D01*
X64317Y78773D01*
X64330Y78756D01*
X64334Y78749D01*
X64339Y78743D01*
X64342Y78737D01*
X64345Y78733D01*
X64345Y78731D01*
X64346Y78730D01*
X64354Y78715D01*
X64359Y78700D01*
X64370Y78671D01*
X64376Y78642D01*
X64382Y78615D01*
X64382Y78603D01*
X64384Y78592D01*
X64385Y78582D01*
Y78573D01*
X64386Y78567D01*
Y78558D01*
X64385Y78532D01*
X64382Y78507D01*
X64378Y78484D01*
X64373Y78463D01*
X64371Y78455D01*
X64370Y78447D01*
X64367Y78439D01*
X64365Y78433D01*
X64363Y78428D01*
X64362Y78425D01*
X64361Y78423D01*
Y78422D01*
X64351Y78397D01*
X64339Y78374D01*
X64326Y78352D01*
X64314Y78332D01*
X64308Y78324D01*
X64303Y78315D01*
X64298Y78309D01*
X64295Y78303D01*
X64291Y78299D01*
X64288Y78295D01*
X64287Y78293D01*
X64286Y78292D01*
X64049D01*
Y78564D01*
X64125D01*
Y78376D01*
X64245D01*
X64254Y78387D01*
X64262Y78400D01*
X64270Y78413D01*
X64276Y78426D01*
X64282Y78438D01*
X64286Y78448D01*
X64288Y78451D01*
X64289Y78453D01*
X64290Y78455D01*
Y78456D01*
X64296Y78475D01*
X64302Y78495D01*
X64306Y78512D01*
X64308Y78529D01*
X64309Y78543D01*
Y78548D01*
X64310Y78554D01*
Y78563D01*
X64309Y78586D01*
X64306Y78609D01*
X64301Y78629D01*
X64296Y78647D01*
X64291Y78662D01*
X64289Y78669D01*
X64287Y78673D01*
X64285Y78678D01*
X64284Y78681D01*
X64283Y78683D01*
Y78683D01*
X64271Y78703D01*
X64258Y78720D01*
X64244Y78735D01*
X64230Y78747D01*
X64217Y78757D01*
X64207Y78764D01*
X64203Y78767D01*
X64200Y78768D01*
X64198Y78769D01*
X64198D01*
X64174Y78779D01*
X64150Y78786D01*
X64126Y78791D01*
X64103Y78794D01*
X64093Y78795D01*
X64084Y78796D01*
X64075Y78797D01*
X64067D01*
X64062Y78798D01*
X64057D01*
X64054D01*
X64053D01*
X64027Y78797D01*
X64004Y78794D01*
X63982Y78791D01*
X63963Y78786D01*
X63954Y78784D01*
X63947Y78781D01*
X63941Y78780D01*
X63935Y78778D01*
X63930Y78776D01*
X63928Y78775D01*
X63926Y78774D01*
X63925D01*
X63912Y78768D01*
X63900Y78761D01*
X63889Y78755D01*
X63880Y78748D01*
X63872Y78743D01*
X63866Y78738D01*
X63862Y78734D01*
X63861Y78733D01*
X63851Y78723D01*
X63842Y78712D01*
X63834Y78700D01*
X63827Y78689D01*
X63822Y78680D01*
X63818Y78672D01*
X63816Y78667D01*
X63815Y78665D01*
X63808Y78648D01*
X63804Y78632D01*
X63801Y78614D01*
X63798Y78598D01*
X63797Y78585D01*
Y78579D01*
X63796Y78574D01*
Y78564D01*
X63797Y78547D01*
X63799Y78530D01*
X63802Y78515D01*
X63805Y78502D01*
X63808Y78491D01*
X63811Y78483D01*
X63813Y78478D01*
X63814Y78476D01*
X63820Y78462D01*
X63828Y78450D01*
X63835Y78439D01*
X63843Y78431D01*
X63849Y78425D01*
X63854Y78419D01*
X63857Y78416D01*
X63858Y78415D01*
X63869Y78407D01*
X63882Y78401D01*
X63894Y78394D01*
X63907Y78389D01*
X63918Y78385D01*
X63927Y78382D01*
X63930Y78381D01*
X63933Y78380D01*
X63934Y78379D01*
X63935D01*
X63915Y78303D01*
X63892Y78309D01*
X63871Y78317D01*
X63853Y78326D01*
X63838Y78333D01*
X63826Y78340D01*
X63818Y78346D01*
X63812Y78350D01*
X63810Y78352D01*
X63795Y78364D01*
X63783Y78378D01*
X63772Y78393D01*
X63763Y78407D01*
X63757Y78420D01*
X63751Y78430D01*
X63749Y78434D01*
X63748Y78437D01*
X63747Y78438D01*
Y78439D01*
X63740Y78461D01*
X63734Y78483D01*
X63730Y78503D01*
X63727Y78523D01*
X63725Y78540D01*
Y78548D01*
X63724Y78553D01*
Y78583D01*
X63726Y78599D01*
X63731Y78632D01*
X63733Y78646D01*
X63737Y78660D01*
X63740Y78673D01*
X63744Y78685D01*
X63747Y78696D01*
X63751Y78706D01*
X63755Y78714D01*
X63757Y78721D01*
X63760Y78727D01*
X63762Y78731D01*
X63763Y78733D01*
X63764Y78734D01*
X63772Y78747D01*
X63781Y78760D01*
X63800Y78782D01*
X63819Y78802D01*
X63840Y78817D01*
X63857Y78830D01*
X63865Y78835D01*
X63872Y78839D01*
X63878Y78842D01*
X63881Y78844D01*
X63884Y78845D01*
X63885Y78846D01*
X63916Y78859D01*
X63946Y78868D01*
X63976Y78876D01*
X63990Y78878D01*
X64002Y78880D01*
X64014Y78881D01*
X64025Y78883D01*
X64035Y78884D01*
X64043D01*
X64050Y78885D01*
X64054D01*
X64058D01*
X64059D01*
X64093Y78883D01*
D02*
G37*
G36*
X64375Y78087D02*
X63873D01*
X64375Y77752D01*
Y77665D01*
X63735D01*
Y77746D01*
X64238D01*
X63735Y78082D01*
Y78168D01*
X64375D01*
Y78087D01*
D02*
G37*
G36*
Y77292D02*
X64374Y77271D01*
X64373Y77251D01*
X64371Y77234D01*
X64370Y77219D01*
X64368Y77206D01*
X64367Y77197D01*
X64366Y77194D01*
X64365Y77191D01*
Y77189D01*
X64360Y77173D01*
X64355Y77158D01*
X64350Y77145D01*
X64345Y77134D01*
X64340Y77125D01*
X64336Y77118D01*
X64333Y77114D01*
X64333Y77113D01*
X64324Y77101D01*
X64314Y77090D01*
X64305Y77080D01*
X64296Y77072D01*
X64287Y77065D01*
X64281Y77059D01*
X64276Y77055D01*
X64274Y77054D01*
X64259Y77045D01*
X64244Y77036D01*
X64229Y77028D01*
X64214Y77023D01*
X64201Y77017D01*
X64191Y77014D01*
X64187Y77013D01*
X64185Y77012D01*
X64183Y77011D01*
X64182D01*
X64160Y77005D01*
X64137Y77001D01*
X64116Y76998D01*
X64096Y76995D01*
X64078Y76994D01*
X64071D01*
X64064Y76993D01*
X64060D01*
X64055D01*
X64053D01*
X64052D01*
X64021Y76994D01*
X63992Y76997D01*
X63966Y77002D01*
X63954Y77004D01*
X63944Y77006D01*
X63934Y77009D01*
X63926Y77011D01*
X63918Y77013D01*
X63912Y77016D01*
X63906Y77016D01*
X63903Y77018D01*
X63901Y77019D01*
X63900D01*
X63876Y77029D01*
X63855Y77041D01*
X63836Y77054D01*
X63820Y77066D01*
X63807Y77077D01*
X63798Y77087D01*
X63795Y77090D01*
X63793Y77093D01*
X63792Y77094D01*
X63791Y77095D01*
X63779Y77110D01*
X63769Y77126D01*
X63761Y77141D01*
X63755Y77156D01*
X63750Y77169D01*
X63747Y77179D01*
X63745Y77183D01*
Y77186D01*
X63745Y77188D01*
Y77188D01*
X63742Y77204D01*
X63739Y77223D01*
X63737Y77241D01*
X63736Y77260D01*
X63735Y77276D01*
Y77522D01*
X64375D01*
Y77292D01*
D02*
G37*
G36*
X61556Y78711D02*
X61732D01*
Y78637D01*
X61556D01*
Y78463D01*
X61483D01*
Y78637D01*
X61309D01*
Y78711D01*
X61483D01*
Y78885D01*
X61556D01*
Y78711D01*
D02*
G37*
G36*
X61683Y78373D02*
X61696Y78370D01*
X61722Y78362D01*
X61744Y78352D01*
X61755Y78346D01*
X61763Y78340D01*
X61771Y78336D01*
X61779Y78330D01*
X61784Y78326D01*
X61789Y78321D01*
X61793Y78317D01*
X61796Y78315D01*
X61797Y78314D01*
X61798Y78313D01*
X61806Y78302D01*
X61814Y78290D01*
X61820Y78278D01*
X61826Y78266D01*
X61834Y78243D01*
X61840Y78220D01*
X61842Y78210D01*
X61843Y78200D01*
X61844Y78192D01*
X61845Y78184D01*
X61846Y78178D01*
Y78169D01*
X61845Y78150D01*
X61842Y78131D01*
X61839Y78114D01*
X61834Y78098D01*
X61828Y78083D01*
X61821Y78070D01*
X61815Y78057D01*
X61807Y78046D01*
X61800Y78035D01*
X61793Y78026D01*
X61786Y78019D01*
X61781Y78012D01*
X61776Y78008D01*
X61772Y78004D01*
X61769Y78002D01*
X61768Y78001D01*
X61756Y77992D01*
X61744Y77984D01*
X61732Y77977D01*
X61719Y77972D01*
X61694Y77962D01*
X61670Y77957D01*
X61659Y77955D01*
X61649Y77953D01*
X61641Y77952D01*
X61634Y77951D01*
X61627Y77950D01*
X61622D01*
X61620D01*
X61619D01*
X61602Y77951D01*
X61586Y77953D01*
X61571Y77956D01*
X61557Y77960D01*
X61544Y77964D01*
X61531Y77969D01*
X61520Y77974D01*
X61510Y77979D01*
X61500Y77984D01*
X61492Y77990D01*
X61486Y77995D01*
X61479Y77999D01*
X61474Y78003D01*
X61472Y78006D01*
X61470Y78008D01*
X61469Y78009D01*
X61459Y78020D01*
X61450Y78031D01*
X61442Y78043D01*
X61436Y78055D01*
X61429Y78067D01*
X61425Y78079D01*
X61418Y78101D01*
X61415Y78111D01*
X61413Y78120D01*
X61413Y78129D01*
X61412Y78136D01*
X61411Y78142D01*
Y78162D01*
X61413Y78173D01*
X61417Y78195D01*
X61424Y78216D01*
X61431Y78234D01*
X61438Y78249D01*
X61442Y78255D01*
X61445Y78261D01*
X61448Y78266D01*
X61450Y78268D01*
X61450Y78270D01*
X61451Y78271D01*
X61278Y78237D01*
Y77981D01*
X61204D01*
Y78299D01*
X61533Y78361D01*
X61543Y78287D01*
X61533Y78280D01*
X61524Y78272D01*
X61516Y78265D01*
X61510Y78257D01*
X61505Y78250D01*
X61500Y78244D01*
X61499Y78241D01*
X61498Y78240D01*
X61492Y78228D01*
X61487Y78216D01*
X61485Y78205D01*
X61482Y78193D01*
X61481Y78184D01*
X61480Y78177D01*
Y78159D01*
X61482Y78148D01*
X61486Y78129D01*
X61493Y78112D01*
X61499Y78097D01*
X61507Y78086D01*
X61513Y78078D01*
X61518Y78073D01*
X61519Y78071D01*
X61520D01*
X61536Y78058D01*
X61552Y78049D01*
X61570Y78043D01*
X61587Y78038D01*
X61602Y78035D01*
X61609Y78034D01*
X61614D01*
X61619Y78033D01*
X61622D01*
X61624D01*
X61625D01*
X61638D01*
X61650Y78035D01*
X61673Y78040D01*
X61693Y78046D01*
X61708Y78053D01*
X61721Y78060D01*
X61732Y78067D01*
X61734Y78070D01*
X61737Y78071D01*
X61738Y78072D01*
X61739Y78073D01*
X61746Y78081D01*
X61753Y78088D01*
X61764Y78105D01*
X61771Y78120D01*
X61776Y78136D01*
X61780Y78149D01*
X61781Y78160D01*
X61781Y78164D01*
Y78169D01*
X61781Y78187D01*
X61777Y78203D01*
X61772Y78217D01*
X61767Y78228D01*
X61761Y78238D01*
X61756Y78245D01*
X61753Y78249D01*
X61752Y78251D01*
X61739Y78262D01*
X61725Y78271D01*
X61709Y78278D01*
X61695Y78284D01*
X61682Y78288D01*
X61671Y78290D01*
X61667Y78291D01*
X61664Y78292D01*
X61662D01*
X61661D01*
X61668Y78375D01*
X61683Y78373D01*
D02*
G37*
G36*
X61835Y77664D02*
Y77575D01*
X61195Y77325D01*
Y77411D01*
X61660Y77585D01*
X61680Y77592D01*
X61698Y77599D01*
X61716Y77604D01*
X61732Y77609D01*
X61745Y77614D01*
X61756Y77617D01*
X61759Y77617D01*
X61762Y77618D01*
X61764Y77619D01*
X61765D01*
X61728Y77630D01*
X61710Y77636D01*
X61695Y77641D01*
X61681Y77646D01*
X61675Y77648D01*
X61670Y77649D01*
X61666Y77651D01*
X61663Y77652D01*
X61661Y77653D01*
X61660D01*
X61195Y77819D01*
Y77911D01*
X61835Y77664D01*
D02*
G37*
G36*
X46595Y78800D02*
X46335D01*
Y78636D01*
X46334Y78612D01*
X46332Y78589D01*
X46330Y78569D01*
X46326Y78550D01*
X46322Y78533D01*
X46318Y78518D01*
X46312Y78504D01*
X46307Y78492D01*
X46302Y78482D01*
X46296Y78473D01*
X46292Y78465D01*
X46287Y78460D01*
X46284Y78455D01*
X46282Y78452D01*
X46280Y78450D01*
X46279Y78450D01*
X46268Y78440D01*
X46257Y78432D01*
X46246Y78425D01*
X46234Y78419D01*
X46222Y78413D01*
X46210Y78410D01*
X46189Y78403D01*
X46179Y78401D01*
X46170Y78400D01*
X46161Y78399D01*
X46155Y78398D01*
X46148Y78397D01*
X46145D01*
X46142D01*
X46141D01*
X46124Y78398D01*
X46107Y78400D01*
X46092Y78403D01*
X46079Y78406D01*
X46068Y78410D01*
X46060Y78413D01*
X46055Y78415D01*
X46053Y78416D01*
X46039Y78424D01*
X46027Y78433D01*
X46016Y78441D01*
X46008Y78450D01*
X46001Y78457D01*
X45996Y78462D01*
X45993Y78466D01*
X45992Y78468D01*
X45985Y78480D01*
X45978Y78494D01*
X45973Y78507D01*
X45968Y78519D01*
X45965Y78530D01*
X45964Y78538D01*
X45962Y78545D01*
Y78547D01*
X45960Y78560D01*
X45958Y78576D01*
X45957Y78593D01*
X45956Y78609D01*
X45955Y78622D01*
Y78885D01*
X46595D01*
Y78800D01*
D02*
G37*
G36*
Y78180D02*
Y78092D01*
X46108Y77957D01*
X46096Y77953D01*
X46083Y77950D01*
X46070Y77947D01*
X46059Y77944D01*
X46049Y77941D01*
X46040Y77939D01*
X46035Y77938D01*
X46034Y77937D01*
X46033D01*
X46036Y77936D01*
X46040Y77935D01*
X46050Y77933D01*
X46063Y77929D01*
X46075Y77925D01*
X46087Y77923D01*
X46098Y77920D01*
X46102Y77919D01*
X46105Y77918D01*
X46107Y77917D01*
X46108D01*
X46595Y77783D01*
Y77700D01*
X45955Y77524D01*
Y77610D01*
X46367Y77710D01*
X46395Y77717D01*
X46421Y77723D01*
X46445Y77728D01*
X46466Y77733D01*
X46475Y77736D01*
X46483Y77737D01*
X46490Y77739D01*
X46495Y77739D01*
X46500Y77741D01*
X46504D01*
X46505Y77742D01*
X46506D01*
X46466Y77749D01*
X46426Y77757D01*
X46388Y77765D01*
X46370Y77769D01*
X46353Y77774D01*
X46337Y77777D01*
X46323Y77781D01*
X46311Y77785D01*
X46300Y77788D01*
X46292Y77789D01*
X46285Y77791D01*
X46281Y77793D01*
X46280D01*
X45955Y77884D01*
Y77986D01*
X46388Y78107D01*
X46392Y78108D01*
X46397Y78110D01*
X46405Y78112D01*
X46413Y78114D01*
X46422Y78117D01*
X46432Y78119D01*
X46453Y78124D01*
X46473Y78129D01*
X46482Y78131D01*
X46490Y78133D01*
X46497Y78134D01*
X46502Y78136D01*
X46505Y78137D01*
X46506D01*
X46482Y78142D01*
X46458Y78146D01*
X46436Y78151D01*
X46417Y78156D01*
X46407Y78157D01*
X46399Y78159D01*
X46393Y78161D01*
X46386Y78162D01*
X46381Y78163D01*
X46378Y78164D01*
X46376Y78165D01*
X46375D01*
X45955Y78260D01*
Y78348D01*
X46595Y78180D01*
D02*
G37*
G36*
Y77366D02*
X46050D01*
X46595Y77181D01*
Y77105D01*
X46060Y76918D01*
X46595D01*
Y76837D01*
X45955D01*
Y76951D01*
X46401Y77104D01*
X46425Y77113D01*
X46445Y77119D01*
X46463Y77126D01*
X46478Y77130D01*
X46489Y77134D01*
X46497Y77137D01*
X46502Y77138D01*
X46504Y77138D01*
X46491Y77142D01*
X46476Y77147D01*
X46460Y77152D01*
X46444Y77157D01*
X46430Y77162D01*
X46419Y77165D01*
X46415Y77167D01*
X46412Y77168D01*
X46410Y77169D01*
X46409D01*
X45955Y77321D01*
Y77447D01*
X46595D01*
Y77366D01*
D02*
G37*
G36*
X44436Y69197D02*
X44435Y69176D01*
X44433Y69158D01*
X44432Y69143D01*
X44431Y69131D01*
X44430Y69122D01*
X44429Y69116D01*
Y69114D01*
X44426Y69100D01*
X44422Y69087D01*
X44418Y69075D01*
X44414Y69065D01*
X44410Y69057D01*
X44407Y69052D01*
X44406Y69048D01*
X44405Y69047D01*
X44396Y69035D01*
X44386Y69024D01*
X44377Y69015D01*
X44368Y69007D01*
X44359Y69002D01*
X44353Y68998D01*
X44348Y68995D01*
X44346Y68994D01*
X44333Y68988D01*
X44318Y68983D01*
X44304Y68980D01*
X44291Y68978D01*
X44280Y68977D01*
X44271Y68976D01*
X44265D01*
X44264D01*
X44263D01*
X44244Y68977D01*
X44226Y68979D01*
X44211Y68983D01*
X44198Y68988D01*
X44188Y68992D01*
X44182Y68996D01*
X44177Y68999D01*
X44175Y69000D01*
X44163Y69010D01*
X44153Y69022D01*
X44144Y69036D01*
X44137Y69049D01*
X44131Y69061D01*
X44126Y69070D01*
X44124Y69074D01*
X44124Y69076D01*
X44123Y69078D01*
Y69079D01*
X44114Y69063D01*
X44104Y69048D01*
X44093Y69036D01*
X44082Y69025D01*
X44071Y69015D01*
X44059Y69008D01*
X44048Y69002D01*
X44036Y68997D01*
X44026Y68993D01*
X44015Y68990D01*
X44006Y68988D01*
X43998Y68987D01*
X43991Y68986D01*
X43987Y68985D01*
X43983D01*
X43982D01*
X43970D01*
X43960Y68987D01*
X43950Y68988D01*
X43940Y68990D01*
X43933Y68991D01*
X43928Y68993D01*
X43924Y68994D01*
X43923Y68995D01*
X43913Y69000D01*
X43904Y69004D01*
X43895Y69009D01*
X43888Y69014D01*
X43882Y69018D01*
X43878Y69022D01*
X43875Y69024D01*
X43874Y69025D01*
X43865Y69035D01*
X43857Y69043D01*
X43855Y69047D01*
X43853Y69050D01*
X43851Y69052D01*
Y69052D01*
X43844Y69064D01*
X43840Y69075D01*
X43838Y69079D01*
X43837Y69083D01*
X43836Y69086D01*
Y69087D01*
X43832Y69102D01*
X43830Y69117D01*
X43830Y69124D01*
X43829Y69128D01*
Y69133D01*
X43827Y69154D01*
Y69164D01*
X43826Y69174D01*
Y69487D01*
X44436D01*
Y69197D01*
D02*
G37*
G36*
X44221Y68881D02*
X44229D01*
X44236D01*
X44241Y68880D01*
X44245D01*
X44246D01*
X44262Y68879D01*
X44271Y68878D01*
X44277Y68877D01*
X44283Y68876D01*
X44286Y68875D01*
X44289Y68874D01*
X44290D01*
X44304Y68870D01*
X44315Y68867D01*
X44320Y68865D01*
X44323Y68864D01*
X44325Y68863D01*
X44326D01*
X44338Y68857D01*
X44347Y68851D01*
X44351Y68849D01*
X44354Y68847D01*
X44356Y68845D01*
X44357D01*
X44372Y68832D01*
X44386Y68819D01*
X44398Y68806D01*
X44407Y68793D01*
X44415Y68781D01*
X44420Y68771D01*
X44422Y68768D01*
X44423Y68765D01*
X44424Y68764D01*
Y68763D01*
X44431Y68743D01*
X44436Y68721D01*
X44440Y68700D01*
X44442Y68680D01*
X44443Y68662D01*
Y68655D01*
X44444Y68648D01*
Y68635D01*
X44443Y68609D01*
X44442Y68585D01*
X44438Y68562D01*
X44434Y68540D01*
X44430Y68521D01*
X44424Y68503D01*
X44418Y68487D01*
X44411Y68473D01*
X44406Y68460D01*
X44399Y68449D01*
X44394Y68439D01*
X44389Y68432D01*
X44385Y68426D01*
X44382Y68422D01*
X44380Y68419D01*
X44379Y68418D01*
X44367Y68407D01*
X44357Y68399D01*
X44353Y68395D01*
X44350Y68393D01*
X44348Y68391D01*
X44347D01*
X44334Y68384D01*
X44321Y68378D01*
X44317Y68377D01*
X44312Y68375D01*
X44309Y68374D01*
X44308D01*
X44291Y68370D01*
X44282Y68368D01*
X44273Y68367D01*
X44266Y68366D01*
X44260Y68366D01*
X44257D01*
X44256D01*
X44244Y68365D01*
X44231Y68364D01*
X44219D01*
X44207Y68363D01*
X44197D01*
X44188D01*
X44183D01*
X44182D01*
X44181D01*
X43826D01*
Y68461D01*
X44181D01*
X44191D01*
X44200D01*
X44209D01*
X44215D01*
X44221Y68462D01*
X44225D01*
X44228D01*
X44229D01*
X44243Y68463D01*
X44248Y68464D01*
X44254D01*
X44258Y68464D01*
X44260D01*
X44262Y68465D01*
X44263D01*
X44273Y68467D01*
X44281Y68469D01*
X44286Y68470D01*
X44287Y68471D01*
X44288D01*
X44296Y68474D01*
X44301Y68476D01*
X44305Y68478D01*
X44307Y68479D01*
X44318Y68487D01*
X44327Y68495D01*
X44334Y68504D01*
X44341Y68513D01*
X44346Y68522D01*
X44350Y68528D01*
X44352Y68533D01*
X44353Y68535D01*
X44357Y68549D01*
X44361Y68564D01*
X44364Y68579D01*
X44366Y68593D01*
X44367Y68605D01*
X44368Y68615D01*
Y68623D01*
X44367Y68640D01*
X44366Y68655D01*
X44363Y68670D01*
X44360Y68683D01*
X44357Y68695D01*
X44353Y68705D01*
X44348Y68715D01*
X44344Y68723D01*
X44340Y68731D01*
X44335Y68737D01*
X44332Y68743D01*
X44328Y68747D01*
X44325Y68750D01*
X44322Y68753D01*
X44321Y68754D01*
X44320Y68755D01*
X44313Y68760D01*
X44305Y68765D01*
X44289Y68772D01*
X44283Y68775D01*
X44277Y68776D01*
X44273Y68778D01*
X44272D01*
X44260Y68780D01*
X44247Y68782D01*
X44233Y68782D01*
X44219Y68783D01*
X44207Y68784D01*
X44198D01*
X44194D01*
X44191D01*
X44189D01*
X44188D01*
X43826D01*
Y68882D01*
X44188D01*
X44200D01*
X44210D01*
X44221Y68881D01*
D02*
G37*
G36*
X44026Y68271D02*
X44039Y68269D01*
X44052Y68268D01*
X44063Y68264D01*
X44073Y68261D01*
X44080Y68259D01*
X44084Y68257D01*
X44086Y68256D01*
X44097Y68250D01*
X44108Y68243D01*
X44116Y68234D01*
X44124Y68227D01*
X44130Y68220D01*
X44135Y68215D01*
X44137Y68211D01*
X44138Y68210D01*
X44144Y68201D01*
X44149Y68191D01*
X44153Y68181D01*
X44157Y68171D01*
X44159Y68163D01*
X44161Y68156D01*
X44162Y68152D01*
Y68150D01*
X44164Y68135D01*
X44166Y68120D01*
X44167Y68104D01*
X44168Y68088D01*
X44169Y68075D01*
Y67979D01*
X44170Y67970D01*
Y67955D01*
X44171Y67950D01*
Y67947D01*
X44172Y67933D01*
X44173Y67927D01*
X44173Y67923D01*
X44174Y67919D01*
Y67915D01*
X44175Y67914D01*
Y67913D01*
X44179Y67904D01*
X44184Y67896D01*
X44189Y67888D01*
X44194Y67883D01*
X44199Y67878D01*
X44203Y67875D01*
X44206Y67874D01*
X44207Y67873D01*
X44216Y67868D01*
X44225Y67864D01*
X44235Y67862D01*
X44244Y67860D01*
X44252Y67859D01*
X44259Y67858D01*
X44262D01*
X44264D01*
X44282Y67859D01*
X44297Y67863D01*
X44310Y67867D01*
X44320Y67873D01*
X44328Y67878D01*
X44333Y67883D01*
X44336Y67887D01*
X44337Y67888D01*
X44341Y67893D01*
X44345Y67900D01*
X44349Y67915D01*
X44353Y67932D01*
X44356Y67948D01*
X44357Y67963D01*
Y67970D01*
X44358Y67975D01*
Y68250D01*
X44436D01*
Y67943D01*
X44435Y67927D01*
Y67920D01*
X44434Y67914D01*
Y67909D01*
X44433Y67905D01*
Y67902D01*
X44431Y67889D01*
X44429Y67879D01*
X44428Y67875D01*
Y67873D01*
X44427Y67871D01*
Y67870D01*
X44423Y67860D01*
X44419Y67851D01*
X44417Y67846D01*
X44416Y67845D01*
Y67844D01*
X44407Y67828D01*
X44397Y67815D01*
X44387Y67804D01*
X44378Y67795D01*
X44369Y67788D01*
X44362Y67782D01*
X44357Y67779D01*
X44356Y67778D01*
X44340Y67771D01*
X44324Y67765D01*
X44308Y67761D01*
X44294Y67758D01*
X44281Y67756D01*
X44271Y67755D01*
X44267D01*
X44264D01*
X44262D01*
X44261D01*
X44245Y67756D01*
X44229Y67758D01*
X44215Y67760D01*
X44203Y67763D01*
X44193Y67766D01*
X44186Y67768D01*
X44181Y67770D01*
X44179Y67771D01*
X44165Y67777D01*
X44153Y67784D01*
X44143Y67791D01*
X44134Y67798D01*
X44126Y67804D01*
X44122Y67810D01*
X44118Y67814D01*
X44117Y67814D01*
X44111Y67825D01*
X44105Y67833D01*
X44103Y67837D01*
X44101Y67839D01*
X44100Y67841D01*
Y67842D01*
X44096Y67854D01*
X44092Y67866D01*
X44091Y67872D01*
X44090Y67875D01*
X44089Y67878D01*
Y67879D01*
X44087Y67896D01*
X44086Y67904D01*
X44085Y67912D01*
X44084Y67919D01*
X44083Y67924D01*
Y67929D01*
X44082Y67940D01*
Y67952D01*
X44081Y67963D01*
Y68047D01*
X44080Y68059D01*
X44079Y68071D01*
X44078Y68082D01*
X44076Y68091D01*
X44075Y68099D01*
X44072Y68114D01*
X44068Y68124D01*
X44065Y68133D01*
X44063Y68136D01*
X44063Y68138D01*
X44054Y68148D01*
X44044Y68156D01*
X44033Y68161D01*
X44022Y68165D01*
X44012Y68167D01*
X44003Y68168D01*
X43998Y68169D01*
X43997D01*
X43996D01*
X43979Y68167D01*
X43972Y68166D01*
X43965Y68164D01*
X43960Y68162D01*
X43956Y68161D01*
X43953Y68159D01*
X43953D01*
X43939Y68151D01*
X43934Y68146D01*
X43929Y68143D01*
X43926Y68139D01*
X43923Y68136D01*
X43922Y68134D01*
X43921Y68133D01*
X43916Y68121D01*
X43911Y68109D01*
X43910Y68105D01*
X43909Y68101D01*
X43908Y68098D01*
Y68097D01*
X43906Y68088D01*
X43905Y68078D01*
X43904Y68068D01*
Y68058D01*
X43904Y68048D01*
Y67784D01*
X43826D01*
Y68054D01*
X43827Y68071D01*
X43828Y68087D01*
X43829Y68100D01*
X43830Y68110D01*
X43831Y68118D01*
X43832Y68122D01*
Y68124D01*
X43835Y68136D01*
X43838Y68148D01*
X43841Y68158D01*
X43844Y68167D01*
X43847Y68174D01*
X43850Y68180D01*
X43851Y68183D01*
X43852Y68184D01*
X43861Y68199D01*
X43872Y68211D01*
X43883Y68222D01*
X43893Y68231D01*
X43903Y68239D01*
X43911Y68244D01*
X43916Y68248D01*
X43916Y68249D01*
X43917D01*
X43933Y68256D01*
X43949Y68262D01*
X43965Y68267D01*
X43978Y68269D01*
X43991Y68271D01*
X44002Y68272D01*
X44005D01*
X44007D01*
X44009D01*
X44010D01*
X44026Y68271D01*
D02*
G37*
G36*
X41642Y69398D02*
X41268D01*
Y69234D01*
X41642D01*
Y69145D01*
X41268D01*
Y69076D01*
X41269Y69057D01*
X41271Y69040D01*
X41275Y69027D01*
X41279Y69015D01*
X41282Y69008D01*
X41286Y69003D01*
X41289Y68999D01*
X41290Y68998D01*
X41299Y68991D01*
X41311Y68985D01*
X41324Y68981D01*
X41337Y68978D01*
X41348Y68977D01*
X41358Y68976D01*
X41362D01*
X41365D01*
X41367D01*
X41367D01*
X41642D01*
Y68887D01*
X41367D01*
X41357D01*
X41347D01*
X41339Y68888D01*
X41331D01*
X41326Y68889D01*
X41321D01*
X41318Y68890D01*
X41318D01*
X41302Y68892D01*
X41295Y68893D01*
X41290Y68894D01*
X41286Y68895D01*
X41282Y68896D01*
X41281Y68897D01*
X41280D01*
X41269Y68901D01*
X41260Y68905D01*
X41257Y68907D01*
X41254Y68908D01*
X41253Y68910D01*
X41252D01*
X41243Y68917D01*
X41235Y68923D01*
X41231Y68929D01*
X41229Y68929D01*
Y68930D01*
X41221Y68940D01*
X41216Y68948D01*
X41213Y68954D01*
X41212Y68954D01*
Y68955D01*
X41208Y68965D01*
X41205Y68974D01*
X41204Y68978D01*
X41203Y68981D01*
X41202Y68983D01*
Y68984D01*
X41199Y68998D01*
X41198Y69012D01*
X41197Y69017D01*
Y69037D01*
X41196Y69047D01*
Y69487D01*
X41642D01*
Y69398D01*
D02*
G37*
G36*
Y68678D02*
X41196D01*
Y68767D01*
X41642D01*
Y68678D01*
D02*
G37*
G36*
X41124D02*
X41032D01*
Y68767D01*
X41124D01*
Y68678D01*
D02*
G37*
G36*
X41642Y68463D02*
X41437D01*
Y68352D01*
X41438Y68347D01*
Y68341D01*
X41439Y68329D01*
X41440Y68321D01*
X41441Y68316D01*
Y68314D01*
X41442Y68305D01*
X41444Y68299D01*
X41445Y68295D01*
X41446Y68293D01*
X41449Y68288D01*
X41452Y68282D01*
X41453Y68279D01*
X41454Y68278D01*
X41463Y68268D01*
X41473Y68262D01*
X41477Y68260D01*
X41480Y68258D01*
X41482Y68257D01*
X41483D01*
X41490Y68255D01*
X41500Y68254D01*
X41518Y68253D01*
X41527Y68252D01*
X41534D01*
X41539D01*
X41540D01*
X41642D01*
Y68163D01*
X41522D01*
X41506D01*
X41491Y68164D01*
X41479Y68165D01*
X41470Y68167D01*
X41462Y68168D01*
X41456Y68170D01*
X41453Y68170D01*
X41452D01*
X41442Y68173D01*
X41434Y68177D01*
X41428Y68181D01*
X41421Y68185D01*
X41416Y68189D01*
X41412Y68192D01*
X41410Y68194D01*
X41409Y68194D01*
X41403Y68202D01*
X41396Y68209D01*
X41392Y68218D01*
X41388Y68225D01*
X41385Y68231D01*
X41383Y68237D01*
X41381Y68241D01*
Y68242D01*
X41379Y68253D01*
X41376Y68265D01*
X41374Y68277D01*
X41373Y68288D01*
X41372Y68298D01*
Y68357D01*
X41196Y68139D01*
Y68252D01*
X41372Y68463D01*
X41032D01*
Y68551D01*
X41642D01*
Y68463D01*
D02*
G37*
G36*
Y67969D02*
X41271D01*
Y67935D01*
X41272Y67918D01*
X41274Y67905D01*
X41277Y67894D01*
X41280Y67885D01*
X41283Y67878D01*
X41286Y67875D01*
X41288Y67872D01*
X41289Y67871D01*
X41296Y67865D01*
X41306Y67861D01*
X41317Y67858D01*
X41328Y67855D01*
X41338Y67854D01*
X41346Y67853D01*
X41353D01*
X41354D01*
X41355D01*
X41398D01*
Y67770D01*
X41355D01*
X41336D01*
X41320Y67771D01*
X41306Y67773D01*
X41295Y67774D01*
X41287Y67776D01*
X41281Y67777D01*
X41277Y67778D01*
X41276D01*
X41267Y67782D01*
X41257Y67786D01*
X41250Y67790D01*
X41244Y67795D01*
X41238Y67800D01*
X41234Y67802D01*
X41232Y67805D01*
X41231Y67806D01*
X41224Y67814D01*
X41219Y67823D01*
X41214Y67832D01*
X41210Y67840D01*
X41208Y67847D01*
X41206Y67852D01*
X41204Y67857D01*
Y67858D01*
X41201Y67870D01*
X41199Y67884D01*
X41198Y67898D01*
X41197Y67912D01*
X41196Y67924D01*
Y68058D01*
X41642D01*
Y67969D01*
D02*
G37*
G36*
X41447Y67720D02*
X41465Y67718D01*
X41482Y67716D01*
X41498Y67712D01*
X41513Y67707D01*
X41526Y67703D01*
X41538Y67697D01*
X41549Y67691D01*
X41559Y67687D01*
X41567Y67681D01*
X41574Y67677D01*
X41580Y67672D01*
X41585Y67668D01*
X41588Y67666D01*
X41589Y67664D01*
X41590Y67663D01*
X41600Y67651D01*
X41609Y67639D01*
X41616Y67625D01*
X41623Y67611D01*
X41627Y67597D01*
X41632Y67583D01*
X41638Y67556D01*
X41641Y67543D01*
X41643Y67531D01*
X41644Y67520D01*
X41645Y67511D01*
X41646Y67503D01*
Y67493D01*
X41645Y67473D01*
X41643Y67455D01*
X41640Y67437D01*
X41637Y67422D01*
X41632Y67407D01*
X41627Y67393D01*
X41622Y67381D01*
X41616Y67369D01*
X41612Y67360D01*
X41606Y67350D01*
X41601Y67343D01*
X41597Y67337D01*
X41593Y67333D01*
X41590Y67329D01*
X41588Y67327D01*
X41588Y67326D01*
X41576Y67316D01*
X41563Y67307D01*
X41551Y67299D01*
X41537Y67291D01*
X41524Y67286D01*
X41510Y67281D01*
X41483Y67274D01*
X41470Y67271D01*
X41459Y67269D01*
X41449Y67268D01*
X41440Y67267D01*
X41432Y67266D01*
X41427D01*
X41423D01*
X41422D01*
X41402Y67267D01*
X41383Y67269D01*
X41365Y67272D01*
X41349Y67275D01*
X41333Y67279D01*
X41319Y67285D01*
X41306Y67289D01*
X41295Y67295D01*
X41285Y67300D01*
X41277Y67305D01*
X41269Y67311D01*
X41263Y67314D01*
X41258Y67318D01*
X41255Y67321D01*
X41253Y67323D01*
X41252Y67324D01*
X41242Y67335D01*
X41232Y67347D01*
X41224Y67360D01*
X41217Y67373D01*
X41211Y67387D01*
X41207Y67401D01*
X41199Y67427D01*
X41196Y67440D01*
X41195Y67451D01*
X41194Y67461D01*
X41193Y67471D01*
X41192Y67478D01*
Y67488D01*
X41193Y67510D01*
X41195Y67530D01*
X41197Y67547D01*
X41200Y67563D01*
X41203Y67575D01*
X41206Y67584D01*
X41207Y67587D01*
X41208Y67590D01*
X41208Y67591D01*
Y67592D01*
X41215Y67606D01*
X41222Y67620D01*
X41231Y67633D01*
X41239Y67643D01*
X41246Y67652D01*
X41252Y67657D01*
X41256Y67662D01*
X41257Y67663D01*
X41269Y67673D01*
X41281Y67681D01*
X41293Y67689D01*
X41306Y67695D01*
X41316Y67700D01*
X41324Y67704D01*
X41330Y67705D01*
X41330Y67706D01*
X41331D01*
X41348Y67711D01*
X41365Y67715D01*
X41381Y67717D01*
X41396Y67719D01*
X41409Y67720D01*
X41418Y67721D01*
X41422D01*
X41425D01*
X41427D01*
X41428D01*
X41447Y67720D01*
D02*
G37*
%LPC*%
G36*
X48778Y64004D02*
X48566D01*
Y63803D01*
X48567Y63778D01*
X48571Y63756D01*
X48576Y63738D01*
X48581Y63724D01*
X48587Y63712D01*
X48591Y63705D01*
X48595Y63700D01*
X48596Y63698D01*
X48608Y63687D01*
X48620Y63679D01*
X48633Y63673D01*
X48644Y63669D01*
X48655Y63667D01*
X48664Y63666D01*
X48669Y63665D01*
X48670D01*
X48671D01*
X48682Y63666D01*
X48693Y63668D01*
X48702Y63670D01*
X48711Y63673D01*
X48718Y63677D01*
X48724Y63680D01*
X48727Y63682D01*
X48728Y63682D01*
X48737Y63689D01*
X48746Y63697D01*
X48752Y63706D01*
X48758Y63714D01*
X48762Y63721D01*
X48764Y63727D01*
X48766Y63731D01*
X48767Y63732D01*
X48771Y63745D01*
X48774Y63760D01*
X48775Y63775D01*
X48776Y63790D01*
X48777Y63803D01*
X48778Y63814D01*
Y64004D01*
D02*
G37*
G36*
X56456Y63289D02*
X56450D01*
X56446D01*
X56445D01*
X56419Y63289D01*
X56395Y63287D01*
X56372Y63284D01*
X56352Y63279D01*
X56333Y63275D01*
X56317Y63269D01*
X56301Y63263D01*
X56288Y63257D01*
X56276Y63251D01*
X56266Y63245D01*
X56258Y63240D01*
X56251Y63235D01*
X56246Y63230D01*
X56242Y63228D01*
X56240Y63226D01*
X56239Y63225D01*
X56228Y63213D01*
X56219Y63200D01*
X56210Y63187D01*
X56203Y63173D01*
X56198Y63160D01*
X56192Y63147D01*
X56185Y63123D01*
X56183Y63112D01*
X56181Y63102D01*
X56179Y63093D01*
X56178Y63085D01*
X56177Y63079D01*
Y63070D01*
X56178Y63047D01*
X56182Y63025D01*
X56187Y63006D01*
X56193Y62989D01*
X56199Y62975D01*
X56202Y62970D01*
X56204Y62965D01*
X56207Y62960D01*
X56208Y62958D01*
X56210Y62957D01*
Y62956D01*
X56222Y62938D01*
X56237Y62922D01*
X56252Y62909D01*
X56267Y62897D01*
X56280Y62889D01*
X56291Y62883D01*
X56295Y62881D01*
X56297Y62879D01*
X56299Y62878D01*
X56300D01*
X56322Y62869D01*
X56346Y62862D01*
X56369Y62858D01*
X56390Y62855D01*
X56400Y62853D01*
X56408Y62852D01*
X56417D01*
X56423Y62851D01*
X56429D01*
X56432D01*
X56435D01*
X56436D01*
X56458Y62852D01*
X56480Y62854D01*
X56500Y62857D01*
X56518Y62860D01*
X56535Y62866D01*
X56551Y62871D01*
X56565Y62876D01*
X56578Y62882D01*
X56590Y62888D01*
X56600Y62894D01*
X56608Y62898D01*
X56614Y62903D01*
X56620Y62908D01*
X56625Y62910D01*
X56627Y62912D01*
X56627Y62913D01*
X56639Y62925D01*
X56650Y62938D01*
X56658Y62951D01*
X56666Y62964D01*
X56673Y62977D01*
X56677Y62991D01*
X56682Y63003D01*
X56686Y63016D01*
X56688Y63027D01*
X56690Y63038D01*
X56692Y63047D01*
X56693Y63056D01*
Y63062D01*
X56694Y63067D01*
Y63071D01*
X56693Y63089D01*
X56691Y63105D01*
X56688Y63120D01*
X56684Y63135D01*
X56678Y63149D01*
X56673Y63162D01*
X56667Y63174D01*
X56661Y63185D01*
X56654Y63194D01*
X56649Y63203D01*
X56643Y63210D01*
X56638Y63216D01*
X56634Y63221D01*
X56630Y63225D01*
X56628Y63227D01*
X56627Y63228D01*
X56614Y63239D01*
X56601Y63248D01*
X56586Y63256D01*
X56571Y63264D01*
X56555Y63269D01*
X56541Y63275D01*
X56511Y63282D01*
X56498Y63284D01*
X56485Y63286D01*
X56474Y63288D01*
X56465Y63289D01*
X56456Y63289D01*
D02*
G37*
G36*
X58996Y64062D02*
X58990D01*
X58986D01*
X58985D01*
X58959Y64061D01*
X58935Y64059D01*
X58912Y64057D01*
X58892Y64052D01*
X58873Y64047D01*
X58857Y64042D01*
X58841Y64035D01*
X58828Y64030D01*
X58816Y64023D01*
X58806Y64018D01*
X58798Y64012D01*
X58791Y64008D01*
X58786Y64003D01*
X58782Y64000D01*
X58780Y63998D01*
X58779Y63997D01*
X58768Y63985D01*
X58759Y63972D01*
X58750Y63959D01*
X58743Y63946D01*
X58738Y63933D01*
X58732Y63920D01*
X58725Y63896D01*
X58723Y63885D01*
X58721Y63874D01*
X58719Y63866D01*
X58718Y63858D01*
X58717Y63851D01*
Y63843D01*
X58718Y63820D01*
X58722Y63798D01*
X58727Y63778D01*
X58733Y63762D01*
X58739Y63748D01*
X58742Y63742D01*
X58744Y63738D01*
X58747Y63733D01*
X58748Y63730D01*
X58750Y63729D01*
Y63728D01*
X58763Y63711D01*
X58777Y63695D01*
X58792Y63681D01*
X58807Y63670D01*
X58820Y63662D01*
X58831Y63655D01*
X58835Y63653D01*
X58837Y63652D01*
X58839Y63651D01*
X58840D01*
X58862Y63641D01*
X58886Y63635D01*
X58909Y63630D01*
X58930Y63628D01*
X58940Y63626D01*
X58948Y63625D01*
X58957D01*
X58963Y63624D01*
X58969D01*
X58972D01*
X58975D01*
X58976D01*
X58998Y63625D01*
X59020Y63627D01*
X59040Y63629D01*
X59058Y63633D01*
X59075Y63639D01*
X59091Y63643D01*
X59106Y63649D01*
X59118Y63654D01*
X59130Y63661D01*
X59140Y63666D01*
X59148Y63671D01*
X59155Y63676D01*
X59160Y63680D01*
X59165Y63683D01*
X59167Y63685D01*
X59167Y63686D01*
X59179Y63698D01*
X59190Y63711D01*
X59198Y63724D01*
X59206Y63737D01*
X59213Y63750D01*
X59217Y63763D01*
X59222Y63775D01*
X59226Y63788D01*
X59228Y63800D01*
X59230Y63811D01*
X59232Y63820D01*
X59233Y63828D01*
Y63835D01*
X59234Y63839D01*
Y63844D01*
X59233Y63861D01*
X59231Y63878D01*
X59228Y63893D01*
X59224Y63908D01*
X59218Y63922D01*
X59213Y63935D01*
X59207Y63947D01*
X59201Y63958D01*
X59194Y63967D01*
X59189Y63975D01*
X59183Y63983D01*
X59178Y63989D01*
X59174Y63994D01*
X59170Y63997D01*
X59168Y63999D01*
X59167Y64000D01*
X59155Y64011D01*
X59141Y64020D01*
X59126Y64029D01*
X59111Y64036D01*
X59095Y64042D01*
X59081Y64047D01*
X59051Y64055D01*
X59038Y64057D01*
X59025Y64058D01*
X59014Y64060D01*
X59005Y64061D01*
X58996Y64062D01*
D02*
G37*
G36*
X64299Y62959D02*
X63811D01*
Y62811D01*
X63812Y62799D01*
Y62787D01*
X63813Y62776D01*
X63816Y62758D01*
X63818Y62743D01*
X63820Y62731D01*
X63823Y62722D01*
X63824Y62718D01*
X63825Y62716D01*
X63833Y62699D01*
X63843Y62684D01*
X63855Y62670D01*
X63867Y62658D01*
X63879Y62648D01*
X63888Y62641D01*
X63892Y62639D01*
X63894Y62637D01*
X63896Y62636D01*
X63897D01*
X63907Y62630D01*
X63919Y62624D01*
X63943Y62616D01*
X63969Y62611D01*
X63994Y62606D01*
X64005Y62605D01*
X64016Y62604D01*
X64026Y62603D01*
X64034D01*
X64041Y62602D01*
X64046D01*
X64050D01*
X64051D01*
X64076Y62603D01*
X64100Y62605D01*
X64122Y62608D01*
X64140Y62611D01*
X64148Y62612D01*
X64154Y62614D01*
X64161Y62616D01*
X64165Y62617D01*
X64169Y62618D01*
X64172Y62619D01*
X64174Y62620D01*
X64174D01*
X64192Y62626D01*
X64208Y62634D01*
X64222Y62642D01*
X64234Y62649D01*
X64243Y62656D01*
X64249Y62661D01*
X64253Y62665D01*
X64255Y62666D01*
X64262Y62675D01*
X64269Y62685D01*
X64274Y62694D01*
X64280Y62703D01*
X64284Y62711D01*
X64286Y62718D01*
X64287Y62722D01*
X64288Y62724D01*
X64292Y62738D01*
X64295Y62755D01*
X64296Y62771D01*
X64297Y62787D01*
X64298Y62801D01*
X64299Y62808D01*
Y62959D01*
D02*
G37*
G36*
X46332Y62962D02*
X46145Y62893D01*
X46122Y62885D01*
X46099Y62878D01*
X46079Y62872D01*
X46061Y62867D01*
X46045Y62863D01*
X46038Y62861D01*
X46032Y62860D01*
X46028Y62859D01*
X46025D01*
X46023Y62858D01*
X46022D01*
X46043Y62851D01*
X46065Y62844D01*
X46087Y62836D01*
X46109Y62829D01*
X46118Y62825D01*
X46127Y62823D01*
X46136Y62820D01*
X46142Y62817D01*
X46148Y62815D01*
X46152Y62813D01*
X46155Y62812D01*
X46156D01*
X46332Y62746D01*
Y62962D01*
D02*
G37*
G36*
X59219Y78175D02*
X58731D01*
Y78027D01*
X58732Y78015D01*
Y78003D01*
X58733Y77992D01*
X58736Y77973D01*
X58738Y77959D01*
X58740Y77947D01*
X58743Y77938D01*
X58744Y77934D01*
X58745Y77932D01*
X58753Y77915D01*
X58763Y77899D01*
X58775Y77886D01*
X58787Y77874D01*
X58799Y77864D01*
X58808Y77857D01*
X58812Y77855D01*
X58814Y77853D01*
X58816Y77851D01*
X58817D01*
X58827Y77846D01*
X58839Y77840D01*
X58863Y77832D01*
X58889Y77826D01*
X58914Y77822D01*
X58925Y77821D01*
X58936Y77820D01*
X58946Y77819D01*
X58954D01*
X58961Y77818D01*
X58966D01*
X58970D01*
X58971D01*
X58996Y77819D01*
X59020Y77821D01*
X59042Y77824D01*
X59060Y77826D01*
X59068Y77828D01*
X59074Y77830D01*
X59081Y77832D01*
X59085Y77833D01*
X59089Y77834D01*
X59092Y77835D01*
X59094Y77836D01*
X59094D01*
X59112Y77842D01*
X59128Y77849D01*
X59142Y77858D01*
X59154Y77865D01*
X59163Y77872D01*
X59169Y77877D01*
X59173Y77881D01*
X59175Y77882D01*
X59182Y77891D01*
X59189Y77900D01*
X59194Y77910D01*
X59200Y77919D01*
X59204Y77927D01*
X59206Y77934D01*
X59207Y77938D01*
X59208Y77940D01*
X59212Y77954D01*
X59215Y77971D01*
X59216Y77987D01*
X59217Y78003D01*
X59218Y78017D01*
X59219Y78023D01*
Y78175D01*
D02*
G37*
G36*
X59032Y77501D02*
X58845Y77432D01*
X58822Y77423D01*
X58799Y77417D01*
X58779Y77410D01*
X58761Y77406D01*
X58745Y77402D01*
X58738Y77400D01*
X58732Y77399D01*
X58728Y77397D01*
X58725D01*
X58723Y77396D01*
X58722D01*
X58743Y77390D01*
X58765Y77383D01*
X58787Y77375D01*
X58809Y77368D01*
X58818Y77364D01*
X58827Y77361D01*
X58836Y77359D01*
X58842Y77356D01*
X58848Y77354D01*
X58852Y77352D01*
X58855Y77351D01*
X58856D01*
X59032Y77285D01*
Y77501D01*
D02*
G37*
G36*
X51318Y78800D02*
X51106D01*
Y78598D01*
X51107Y78573D01*
X51111Y78552D01*
X51116Y78534D01*
X51121Y78520D01*
X51127Y78508D01*
X51131Y78500D01*
X51135Y78496D01*
X51136Y78494D01*
X51148Y78483D01*
X51160Y78474D01*
X51173Y78469D01*
X51184Y78464D01*
X51195Y78462D01*
X51204Y78462D01*
X51209Y78461D01*
X51210D01*
X51211D01*
X51222Y78462D01*
X51233Y78463D01*
X51242Y78466D01*
X51251Y78469D01*
X51258Y78473D01*
X51264Y78475D01*
X51267Y78477D01*
X51268Y78478D01*
X51278Y78485D01*
X51286Y78493D01*
X51292Y78501D01*
X51298Y78510D01*
X51302Y78517D01*
X51304Y78523D01*
X51306Y78526D01*
X51307Y78528D01*
X51311Y78541D01*
X51314Y78556D01*
X51315Y78571D01*
X51316Y78585D01*
X51317Y78598D01*
X51318Y78609D01*
Y78800D01*
D02*
G37*
G36*
X64299Y77437D02*
X63811D01*
Y77289D01*
X63812Y77277D01*
Y77265D01*
X63813Y77254D01*
X63816Y77236D01*
X63818Y77221D01*
X63820Y77209D01*
X63823Y77200D01*
X63824Y77196D01*
X63825Y77194D01*
X63833Y77177D01*
X63843Y77162D01*
X63855Y77148D01*
X63867Y77136D01*
X63879Y77126D01*
X63888Y77119D01*
X63892Y77117D01*
X63894Y77115D01*
X63896Y77114D01*
X63897D01*
X63907Y77108D01*
X63919Y77102D01*
X63943Y77094D01*
X63969Y77089D01*
X63994Y77084D01*
X64005Y77083D01*
X64016Y77082D01*
X64026Y77081D01*
X64034D01*
X64041Y77080D01*
X64046D01*
X64050D01*
X64051D01*
X64076Y77081D01*
X64100Y77083D01*
X64122Y77086D01*
X64140Y77089D01*
X64148Y77090D01*
X64154Y77092D01*
X64161Y77094D01*
X64165Y77095D01*
X64169Y77096D01*
X64172Y77097D01*
X64174Y77098D01*
X64174D01*
X64192Y77104D01*
X64208Y77112D01*
X64222Y77120D01*
X64234Y77127D01*
X64243Y77134D01*
X64249Y77139D01*
X64253Y77143D01*
X64255Y77144D01*
X64262Y77153D01*
X64269Y77163D01*
X64274Y77172D01*
X64280Y77181D01*
X64284Y77189D01*
X64286Y77196D01*
X64287Y77200D01*
X64288Y77202D01*
X64292Y77216D01*
X64295Y77233D01*
X64296Y77249D01*
X64297Y77265D01*
X64298Y77279D01*
X64299Y77286D01*
Y77437D01*
D02*
G37*
G36*
X46259Y78800D02*
X46031D01*
Y78617D01*
X46032Y78600D01*
X46033Y78586D01*
X46034Y78575D01*
X46036Y78568D01*
X46037Y78562D01*
X46038Y78559D01*
Y78558D01*
X46042Y78546D01*
X46048Y78536D01*
X46053Y78526D01*
X46060Y78518D01*
X46066Y78512D01*
X46071Y78508D01*
X46075Y78505D01*
X46075Y78504D01*
X46087Y78498D01*
X46098Y78492D01*
X46110Y78488D01*
X46120Y78487D01*
X46129Y78485D01*
X46137Y78484D01*
X46142D01*
X46143D01*
X46144D01*
X46163Y78486D01*
X46180Y78489D01*
X46195Y78495D01*
X46207Y78501D01*
X46216Y78508D01*
X46223Y78513D01*
X46227Y78517D01*
X46229Y78519D01*
X46234Y78525D01*
X46239Y78534D01*
X46246Y78551D01*
X46252Y78571D01*
X46256Y78590D01*
X46258Y78608D01*
X46259Y78615D01*
Y78621D01*
X46259Y78628D01*
Y78800D01*
D02*
G37*
G36*
X44084Y69389D02*
X43904D01*
Y69182D01*
X43904Y69171D01*
X43905Y69162D01*
Y69154D01*
X43906Y69149D01*
X43907Y69145D01*
X43908Y69142D01*
Y69141D01*
X43913Y69129D01*
X43918Y69119D01*
X43921Y69115D01*
X43924Y69113D01*
X43925Y69112D01*
X43926Y69111D01*
X43935Y69102D01*
X43945Y69097D01*
X43949Y69095D01*
X43953Y69093D01*
X43954Y69092D01*
X43955D01*
X43968Y69089D01*
X43981Y69087D01*
X43986Y69086D01*
X43989D01*
X43992D01*
X43993D01*
X44010Y69087D01*
X44025Y69090D01*
X44038Y69096D01*
X44048Y69101D01*
X44056Y69107D01*
X44062Y69113D01*
X44065Y69116D01*
X44066Y69117D01*
X44073Y69127D01*
X44076Y69138D01*
X44078Y69142D01*
X44079Y69146D01*
X44080Y69148D01*
Y69149D01*
X44081Y69156D01*
X44082Y69163D01*
X44083Y69178D01*
X44084Y69185D01*
Y69389D01*
D02*
G37*
G36*
X44358D02*
X44161D01*
Y69195D01*
X44162Y69174D01*
X44165Y69155D01*
X44169Y69139D01*
X44173Y69127D01*
X44176Y69118D01*
X44180Y69112D01*
X44183Y69107D01*
X44184Y69106D01*
X44193Y69097D01*
X44204Y69090D01*
X44217Y69086D01*
X44228Y69083D01*
X44239Y69080D01*
X44248Y69079D01*
X44252D01*
X44255D01*
X44256D01*
X44257D01*
X44274Y69080D01*
X44290Y69085D01*
X44304Y69090D01*
X44316Y69099D01*
X44325Y69108D01*
X44333Y69118D01*
X44340Y69129D01*
X44345Y69141D01*
X44350Y69152D01*
X44353Y69164D01*
X44356Y69174D01*
X44357Y69184D01*
X44357Y69192D01*
X44358Y69198D01*
Y69389D01*
D02*
G37*
G36*
X41428Y67630D02*
X41424D01*
X41422D01*
X41395Y67628D01*
X41372Y67624D01*
X41352Y67618D01*
X41336Y67612D01*
X41323Y67606D01*
X41314Y67601D01*
X41308Y67597D01*
X41306Y67595D01*
X41299Y67588D01*
X41293Y67581D01*
X41283Y67565D01*
X41276Y67547D01*
X41270Y67532D01*
X41268Y67517D01*
X41267Y67510D01*
Y67505D01*
X41266Y67500D01*
Y67482D01*
X41268Y67471D01*
X41272Y67450D01*
X41279Y67433D01*
X41286Y67419D01*
X41293Y67408D01*
X41300Y67399D01*
X41305Y67395D01*
X41306Y67393D01*
X41306D01*
X41323Y67381D01*
X41342Y67373D01*
X41361Y67366D01*
X41380Y67362D01*
X41397Y67360D01*
X41404Y67359D01*
X41411D01*
X41416Y67358D01*
X41420D01*
X41423D01*
X41424D01*
X41450Y67360D01*
X41473Y67363D01*
X41493Y67371D01*
X41511Y67379D01*
X41525Y67390D01*
X41537Y67401D01*
X41547Y67414D01*
X41555Y67426D01*
X41561Y67439D01*
X41565Y67452D01*
X41569Y67463D01*
X41571Y67474D01*
X41573Y67483D01*
X41574Y67490D01*
Y67495D01*
X41572Y67519D01*
X41567Y67540D01*
X41560Y67557D01*
X41550Y67573D01*
X41539Y67586D01*
X41526Y67597D01*
X41512Y67606D01*
X41498Y67613D01*
X41484Y67618D01*
X41470Y67622D01*
X41457Y67626D01*
X41446Y67628D01*
X41436Y67629D01*
X41428Y67630D01*
D02*
G37*
%LPD*%
D42*
X65010Y82695D02*
X67550Y80155D01*
Y57295D02*
Y80155D01*
X65010Y57295D02*
X67550D01*
X44690Y82695D02*
X65010D01*
X44690D02*
X44690Y80155D01*
X65010D01*
Y82695D01*
X47230Y80155D02*
Y82695D01*
Y57295D02*
Y59835D01*
X65010Y57295D02*
Y59835D01*
X44690Y57295D02*
X65010D01*
X44690Y59835D02*
X44690Y57295D01*
X44690Y59835D02*
X65010D01*
D46*
X44565Y70786D02*
Y71027D01*
Y73431D02*
Y73672D01*
Y76082D02*
Y76323D01*
X44540Y70695D02*
Y71118D01*
Y73340D02*
Y73763D01*
Y75991D02*
Y76414D01*
X44514Y70635D02*
Y71178D01*
Y73280D02*
Y73823D01*
Y75931D02*
Y76474D01*
X44489Y70588D02*
Y71225D01*
Y73233D02*
Y73870D01*
Y75884D02*
Y76521D01*
X44464Y70549D02*
Y71264D01*
Y73194D02*
Y73909D01*
Y75845D02*
Y76560D01*
X44438Y70516D02*
Y71298D01*
Y73160D02*
Y73942D01*
Y75812D02*
Y76594D01*
X44413Y70486D02*
Y71327D01*
Y73131D02*
Y73972D01*
Y75782D02*
Y76623D01*
X44387Y70460D02*
Y71353D01*
Y73105D02*
Y73998D01*
Y75756D02*
Y76649D01*
X44362Y70437D02*
Y71376D01*
Y73082D02*
Y74021D01*
Y75733D02*
Y76673D01*
X44337Y70416D02*
Y71397D01*
Y73061D02*
Y74042D01*
Y75712D02*
Y76693D01*
X44311Y70397D02*
Y71416D01*
Y73042D02*
Y74061D01*
Y75693D02*
Y76712D01*
X44286Y70381D02*
Y71433D01*
Y73025D02*
Y74077D01*
Y75677D02*
Y76729D01*
X44260Y70366D02*
Y71448D01*
Y73010D02*
Y74092D01*
Y75661D02*
Y76744D01*
X44235Y70352D02*
Y71461D01*
Y72997D02*
Y74106D01*
Y75648D02*
Y76757D01*
X44210Y70340D02*
Y71473D01*
Y72984D02*
Y74118D01*
Y75636D02*
Y76769D01*
X44184Y70329D02*
Y71484D01*
Y72974D02*
Y74129D01*
Y75625D02*
Y76780D01*
X44159Y70320D02*
Y71493D01*
Y72964D02*
Y74138D01*
Y75616D02*
Y76790D01*
X44133Y70312D02*
Y71502D01*
Y72956D02*
Y74146D01*
Y75608D02*
Y76798D01*
X44108Y70305D02*
Y71509D01*
Y72949D02*
Y74153D01*
Y75601D02*
Y76805D01*
X44083Y70299D02*
Y71514D01*
Y72943D02*
Y74159D01*
Y75595D02*
Y76811D01*
X44057Y70294D02*
Y71519D01*
Y72939D02*
Y74164D01*
Y75590D02*
Y76815D01*
X44032Y70291D02*
Y71523D01*
Y72935D02*
Y74168D01*
Y75586D02*
Y76819D01*
X44006Y70288D02*
Y71525D01*
Y72933D02*
Y74170D01*
Y75584D02*
Y76822D01*
X43981Y70286D02*
Y71527D01*
Y72931D02*
Y74172D01*
Y75582D02*
Y76823D01*
X43956Y70286D02*
Y71527D01*
Y72930D02*
Y74172D01*
Y75582D02*
Y76823D01*
X43930Y70287D02*
Y71527D01*
Y72931D02*
Y74172D01*
Y75582D02*
Y76823D01*
X43905Y70288D02*
Y71525D01*
Y72933D02*
Y74170D01*
Y75584D02*
Y76821D01*
X43879Y70291D02*
Y71523D01*
Y72935D02*
Y74167D01*
Y75587D02*
Y76819D01*
X43854Y70294D02*
Y71519D01*
Y72939D02*
Y74164D01*
Y75590D02*
Y76815D01*
X43829Y70299D02*
Y71514D01*
Y72944D02*
Y74159D01*
Y75595D02*
Y76810D01*
X43803Y70305D02*
Y71508D01*
Y72949D02*
Y74153D01*
Y75601D02*
Y76804D01*
X43778Y70312D02*
Y71501D01*
Y72956D02*
Y74146D01*
Y75608D02*
Y76797D01*
X43752Y70320D02*
Y71493D01*
Y72965D02*
Y74138D01*
Y75616D02*
Y76789D01*
X43727Y70330D02*
Y71484D01*
Y72974D02*
Y74128D01*
Y75626D02*
Y76780D01*
X43702Y70340D02*
Y71473D01*
Y72985D02*
Y74118D01*
Y75636D02*
Y76769D01*
X43676Y70353D02*
Y71461D01*
Y72997D02*
Y74106D01*
Y75648D02*
Y76757D01*
X43651Y70366D02*
Y71447D01*
Y73011D02*
Y74092D01*
Y75662D02*
Y76743D01*
X43625Y70381D02*
Y71432D01*
Y73026D02*
Y74077D01*
Y75677D02*
Y76728D01*
X43600Y70398D02*
Y71415D01*
Y73043D02*
Y74060D01*
Y75694D02*
Y76711D01*
X43575Y70417D02*
Y71396D01*
Y73062D02*
Y74041D01*
Y75713D02*
Y76692D01*
X43549Y70438D02*
Y71375D01*
Y73083D02*
Y74020D01*
Y75734D02*
Y76671D01*
X43524Y70462D02*
Y71352D01*
Y73106D02*
Y73997D01*
Y75758D02*
Y76648D01*
X43498Y70488D02*
Y71326D01*
Y73133D02*
Y73970D01*
Y75784D02*
Y76622D01*
X43473Y70517D02*
Y71296D01*
Y73162D02*
Y73941D01*
Y75813D02*
Y76592D01*
X43448Y70551D02*
Y71262D01*
Y73196D02*
Y73907D01*
Y75847D02*
Y76558D01*
X43422Y70591D02*
Y71223D01*
Y73235D02*
Y73868D01*
Y75887D02*
Y76519D01*
X43397Y70638D02*
Y71175D01*
Y73283D02*
Y73820D01*
Y75934D02*
Y76471D01*
X43371Y70700D02*
Y71114D01*
Y73344D02*
Y73759D01*
Y75996D02*
Y76410D01*
X43346Y70795D02*
Y71019D01*
Y73440D02*
Y73664D01*
Y76091D02*
Y76316D01*
X43321Y70809D02*
Y71015D01*
Y73453D02*
Y73660D01*
Y76104D02*
Y76312D01*
X43295Y70809D02*
Y71015D01*
Y73453D02*
Y73660D01*
Y76104D02*
Y76312D01*
X43270Y70809D02*
Y71015D01*
Y73453D02*
Y73660D01*
Y76104D02*
Y76312D01*
X43244Y70809D02*
Y71015D01*
Y73453D02*
Y73660D01*
Y76104D02*
Y76312D01*
X43219Y70809D02*
Y71015D01*
Y73453D02*
Y73660D01*
Y76104D02*
Y76312D01*
X43194Y70809D02*
Y71015D01*
Y73453D02*
Y73660D01*
Y76104D02*
Y76312D01*
X43168Y70809D02*
Y71015D01*
Y73453D02*
Y73660D01*
Y76104D02*
Y76312D01*
X43143Y70809D02*
Y71015D01*
Y73453D02*
Y73660D01*
Y76104D02*
Y76312D01*
X43117Y70809D02*
Y71015D01*
Y73453D02*
Y73660D01*
Y76104D02*
Y76313D01*
X43092Y70809D02*
Y71015D01*
Y73453D02*
Y73660D01*
Y76104D02*
Y76313D01*
X43067Y70809D02*
Y71015D01*
Y73453D02*
Y73660D01*
Y76104D02*
Y76313D01*
X43041Y70809D02*
Y71015D01*
Y73453D02*
Y73660D01*
Y76104D02*
Y76313D01*
X43016Y70809D02*
Y71015D01*
Y73453D02*
Y73660D01*
Y76104D02*
Y76313D01*
X42990Y70809D02*
Y71015D01*
Y73453D02*
Y73660D01*
Y76104D02*
Y76313D01*
X42965Y70809D02*
Y71015D01*
Y73453D02*
Y73660D01*
Y76104D02*
Y76313D01*
X42940Y70809D02*
Y71015D01*
Y73453D02*
Y73660D01*
Y76104D02*
Y76313D01*
X42914Y70809D02*
Y71015D01*
Y73453D02*
Y73660D01*
Y76104D02*
Y76313D01*
X42889Y70809D02*
Y71015D01*
Y73453D02*
Y73660D01*
Y76104D02*
Y76313D01*
X42863Y70809D02*
Y71015D01*
Y73453D02*
Y73660D01*
Y76104D02*
Y76313D01*
X42838Y70809D02*
Y71015D01*
Y73453D02*
Y73660D01*
Y76104D02*
Y76313D01*
X42813Y70809D02*
Y71015D01*
Y73453D02*
Y73660D01*
Y76104D02*
Y76313D01*
X42787Y70809D02*
Y71015D01*
Y73453D02*
Y73660D01*
Y76104D02*
Y76313D01*
X42762Y70809D02*
Y71015D01*
Y73453D02*
Y73660D01*
Y76104D02*
Y76313D01*
X42736Y70809D02*
Y71015D01*
Y73453D02*
Y73660D01*
Y76104D02*
Y76313D01*
X42711Y70809D02*
Y71015D01*
Y73453D02*
Y73660D01*
Y76104D02*
Y76313D01*
X42686Y70809D02*
Y71015D01*
Y73453D02*
Y73660D01*
Y76104D02*
Y76313D01*
X42660Y70809D02*
Y71015D01*
Y73453D02*
Y73660D01*
Y76104D02*
Y76313D01*
X42635Y70809D02*
Y71015D01*
Y73453D02*
Y73660D01*
Y76104D02*
Y76313D01*
X42609Y70809D02*
Y71015D01*
Y73453D02*
Y73660D01*
Y76104D02*
Y76313D01*
X42584Y70809D02*
Y71015D01*
Y73453D02*
Y73660D01*
Y76104D02*
Y76313D01*
X42559Y70809D02*
Y71015D01*
Y73453D02*
Y73660D01*
Y76104D02*
Y76313D01*
X42533Y70809D02*
Y71015D01*
Y73453D02*
Y73660D01*
Y76104D02*
Y76313D01*
X42508Y70809D02*
Y71015D01*
Y73453D02*
Y73660D01*
Y76104D02*
Y76313D01*
X42482Y70809D02*
Y71015D01*
Y73453D02*
Y73660D01*
Y76104D02*
Y76313D01*
X42457Y70809D02*
Y71015D01*
Y73453D02*
Y73660D01*
Y76104D02*
Y76313D01*
X42432Y70809D02*
Y71015D01*
Y73453D02*
Y73660D01*
Y76104D02*
Y76312D01*
X42406Y70809D02*
Y71015D01*
Y73453D02*
Y73660D01*
Y76104D02*
Y76312D01*
X42381Y70809D02*
Y71015D01*
Y73453D02*
Y73660D01*
Y76104D02*
Y76312D01*
X42355Y70809D02*
Y71015D01*
Y73453D02*
Y73660D01*
Y76104D02*
Y76312D01*
X42330Y70809D02*
Y76312D01*
X42305Y70809D02*
Y76312D01*
X42279Y70809D02*
Y76312D01*
X42254Y70809D02*
Y76312D01*
X42228Y70809D02*
Y76312D01*
X42203Y70809D02*
Y76312D01*
X42178Y70809D02*
Y76312D01*
X42152Y70809D02*
Y76312D01*
X42127Y72134D02*
Y72341D01*
Y74779D02*
Y74986D01*
X42101Y72134D02*
Y72341D01*
Y74779D02*
Y74986D01*
X42076Y72134D02*
Y72341D01*
Y74779D02*
Y74986D01*
X42051Y72134D02*
Y72341D01*
Y74779D02*
Y74986D01*
X42025Y72134D02*
Y72341D01*
Y74779D02*
Y74986D01*
X42000Y72134D02*
Y72341D01*
Y74779D02*
Y74986D01*
X41974Y72134D02*
Y72341D01*
Y74779D02*
Y74986D01*
X41949Y72134D02*
Y72341D01*
Y74779D02*
Y74986D01*
X41924Y72134D02*
Y72341D01*
Y74779D02*
Y74986D01*
X41898Y72134D02*
Y72341D01*
Y74779D02*
Y74986D01*
X41873Y72134D02*
Y72341D01*
Y74779D02*
Y74986D01*
X41847Y72134D02*
Y72341D01*
Y74779D02*
Y74986D01*
X41822Y72134D02*
Y72341D01*
Y74779D02*
Y74986D01*
X41797Y72134D02*
Y72341D01*
Y74779D02*
Y74986D01*
X41771Y72134D02*
Y72341D01*
Y74779D02*
Y74986D01*
X41746Y72134D02*
Y72341D01*
Y74779D02*
Y74986D01*
X41720Y72134D02*
Y72341D01*
Y74779D02*
Y74986D01*
X41695Y72134D02*
Y72341D01*
Y74779D02*
Y74986D01*
X41670Y72134D02*
Y72341D01*
Y74779D02*
Y74986D01*
X41644Y72134D02*
Y72341D01*
Y74779D02*
Y74986D01*
X41619Y72134D02*
Y72341D01*
Y74779D02*
Y74986D01*
X41593Y72134D02*
Y72341D01*
Y74779D02*
Y74986D01*
X41568Y72134D02*
Y72341D01*
Y74779D02*
Y74986D01*
X41543Y72134D02*
Y72341D01*
Y74779D02*
Y74986D01*
X41517Y72134D02*
Y72341D01*
Y74779D02*
Y74986D01*
X41492Y72134D02*
Y72341D01*
Y74779D02*
Y74986D01*
X41466Y72134D02*
Y72341D01*
Y74779D02*
Y74986D01*
X41441Y72134D02*
Y72341D01*
Y74779D02*
Y74986D01*
X41416Y72134D02*
Y72341D01*
Y74779D02*
Y74986D01*
X41390Y72134D02*
Y72341D01*
Y74779D02*
Y74986D01*
X41365Y72134D02*
Y72341D01*
Y74779D02*
Y74986D01*
X41339Y72134D02*
Y72341D01*
Y74779D02*
Y74986D01*
X41314Y72134D02*
Y72341D01*
Y74779D02*
Y74986D01*
X41289Y72134D02*
Y72341D01*
Y74779D02*
Y74986D01*
X41263Y72134D02*
Y72341D01*
Y74779D02*
Y74986D01*
X41238Y72134D02*
Y72341D01*
Y74779D02*
Y74986D01*
X41212Y72134D02*
Y72341D01*
Y74779D02*
Y74986D01*
X41187Y72134D02*
Y72341D01*
Y74779D02*
Y74986D01*
X41162Y72134D02*
Y72341D01*
Y74779D02*
Y74986D01*
X41136Y72130D02*
Y72341D01*
Y74775D02*
Y74986D01*
X41111Y72030D02*
Y72435D01*
Y74675D02*
Y75080D01*
X41085Y71968D02*
Y72498D01*
Y74612D02*
Y75142D01*
X41060Y71919D02*
Y72546D01*
Y74564D02*
Y75190D01*
X41035Y71879D02*
Y72585D01*
Y74524D02*
Y75230D01*
X41009Y71845D02*
Y72620D01*
Y74490D02*
Y75264D01*
X40984Y71815D02*
Y72649D01*
Y74460D02*
Y75294D01*
X40958Y71789D02*
Y72676D01*
Y74434D02*
Y75321D01*
X40933Y71765D02*
Y72699D01*
Y74410D02*
Y75344D01*
X40908Y71744D02*
Y72720D01*
Y74389D02*
Y75365D01*
X40882Y71725D02*
Y72740D01*
Y74370D02*
Y75384D01*
X40857Y71708D02*
Y72756D01*
Y74353D02*
Y75401D01*
X40831Y71693D02*
Y72772D01*
Y74338D02*
Y75417D01*
X40806Y71679D02*
Y72785D01*
Y74324D02*
Y75430D01*
X40781Y71667D02*
Y72798D01*
Y74312D02*
Y75443D01*
X40755Y71656D02*
Y72809D01*
Y74301D02*
Y75454D01*
X40730Y71646D02*
Y72818D01*
Y74291D02*
Y75463D01*
X40704Y71638D02*
Y72826D01*
Y74283D02*
Y75471D01*
X40679Y71631D02*
Y72834D01*
Y74276D02*
Y75479D01*
X40654Y71625D02*
Y72839D01*
Y74270D02*
Y75484D01*
X40628Y71620D02*
Y72844D01*
Y74265D02*
Y75489D01*
X40603Y71616D02*
Y72848D01*
Y74261D02*
Y75493D01*
X40577Y71614D02*
Y72851D01*
Y74259D02*
Y75496D01*
X40552Y71612D02*
Y72852D01*
Y74257D02*
Y75497D01*
X40527Y71611D02*
Y72853D01*
Y74256D02*
Y75498D01*
X40501Y71612D02*
Y72853D01*
Y74257D02*
Y75497D01*
X40476Y71613D02*
Y72851D01*
Y74258D02*
Y75496D01*
X40450Y71616D02*
Y72849D01*
Y74261D02*
Y75493D01*
X40425Y71619D02*
Y72845D01*
Y74264D02*
Y75490D01*
X40400Y71624D02*
Y72841D01*
Y74269D02*
Y75485D01*
X40374Y71630D02*
Y72835D01*
Y74275D02*
Y75480D01*
X40349Y71637D02*
Y72828D01*
Y74282D02*
Y75473D01*
X40323Y71645D02*
Y72820D01*
Y74290D02*
Y75465D01*
X40298Y71654D02*
Y72810D01*
Y74299D02*
Y75455D01*
X40273Y71665D02*
Y72800D01*
Y74309D02*
Y75445D01*
X40247Y71677D02*
Y72788D01*
Y74321D02*
Y75433D01*
X40222Y71690D02*
Y72774D01*
Y74335D02*
Y75419D01*
X40196Y71705D02*
Y72759D01*
Y74350D02*
Y75404D01*
X40171Y71722D02*
Y72743D01*
Y74367D02*
Y75388D01*
X40146Y71740D02*
Y72724D01*
Y74385D02*
Y75369D01*
X40120Y71761D02*
Y72703D01*
Y74406D02*
Y75348D01*
X40095Y71784D02*
Y72680D01*
Y74429D02*
Y75325D01*
X40069Y71810D02*
Y72654D01*
Y74455D02*
Y75299D01*
X40044Y71839D02*
Y72625D01*
Y74484D02*
Y75270D01*
X40019Y71872D02*
Y72592D01*
Y74517D02*
Y75237D01*
X39993Y71911D02*
Y72553D01*
Y74556D02*
Y75198D01*
X39968Y71957D02*
Y72507D01*
Y74602D02*
Y75152D01*
X39942Y72016D02*
Y72448D01*
Y74661D02*
Y75093D01*
X39917Y72104D02*
Y72360D01*
Y74749D02*
Y75005D01*
X42137Y70809D02*
Y71015D01*
Y72134D01*
X41137D02*
X42137D01*
X41110Y72027D02*
X41137Y72134D01*
X41065Y71927D02*
X41110Y72027D01*
X41004Y71839D02*
X41065Y71927D01*
X40929Y71762D02*
X41004Y71839D01*
X40842Y71699D02*
X40929Y71762D01*
X40744Y71651D02*
X40842Y71699D01*
X40638Y71622D02*
X40744Y71651D01*
X40524Y71611D02*
X40638Y71622D01*
X40399Y71624D02*
X40524Y71611D01*
X40283Y71660D02*
X40399Y71624D01*
X40177Y71717D02*
X40283Y71660D01*
X40085Y71793D02*
X40177Y71717D01*
X40010Y71885D02*
X40085Y71793D01*
X39952Y71990D02*
X40010Y71885D01*
X39916Y72107D02*
X39952Y71990D01*
X39904Y72232D02*
X39916Y72107D01*
X39904Y72232D02*
X39916Y72357D01*
X39952Y72474D01*
X40010Y72579D01*
X40085Y72671D01*
X40177Y72747D01*
X40283Y72804D01*
X40399Y72840D01*
X40524Y72853D01*
X40636Y72843D01*
X40742Y72814D01*
X40838Y72768D01*
X40925Y72706D01*
X41000Y72631D01*
X41061Y72544D01*
X41107Y72447D01*
X41135Y72341D01*
X42137D01*
Y73453D01*
Y73660D01*
Y74779D01*
X41137D02*
X42137D01*
X41110Y74671D02*
X41137Y74779D01*
X41065Y74572D02*
X41110Y74671D01*
X41004Y74483D02*
X41065Y74572D01*
X40929Y74407D02*
X41004Y74483D01*
X40842Y74344D02*
X40929Y74407D01*
X40744Y74296D02*
X40842Y74344D01*
X40638Y74267D02*
X40744Y74296D01*
X40524Y74256D02*
X40638Y74267D01*
X40399Y74269D02*
X40524Y74256D01*
X40283Y74305D02*
X40399Y74269D01*
X40177Y74362D02*
X40283Y74305D01*
X40085Y74438D02*
X40177Y74362D01*
X40010Y74530D02*
X40085Y74438D01*
X39952Y74635D02*
X40010Y74530D01*
X39916Y74752D02*
X39952Y74635D01*
X39904Y74877D02*
X39916Y74752D01*
X39904Y74877D02*
X39916Y75002D01*
X39952Y75119D01*
X40010Y75224D01*
X40085Y75316D01*
X40177Y75392D01*
X40283Y75449D01*
X40399Y75485D01*
X40524Y75498D01*
X40636Y75488D01*
X40742Y75459D01*
X40838Y75413D01*
X40925Y75351D01*
X41000Y75276D01*
X41061Y75188D01*
X41107Y75091D01*
X41135Y74986D01*
X42137D01*
Y76312D01*
X42951Y76313D01*
X43345Y76311D01*
X43374Y76417D01*
X43419Y76514D01*
X43480Y76601D01*
X43555Y76677D01*
X43642Y76738D01*
X43739Y76784D01*
X43844Y76813D01*
X43956Y76823D01*
X44081Y76811D01*
X44198Y76775D01*
X44303Y76718D01*
X44395Y76642D01*
X44471Y76550D01*
X44528Y76444D01*
X44564Y76328D01*
X44577Y76203D01*
X44564Y76078D02*
X44577Y76203D01*
X44528Y75961D02*
X44564Y76078D01*
X44471Y75856D02*
X44528Y75961D01*
X44395Y75764D02*
X44471Y75856D01*
X44303Y75688D02*
X44395Y75764D01*
X44198Y75631D02*
X44303Y75688D01*
X44081Y75594D02*
X44198Y75631D01*
X43956Y75582D02*
X44081Y75594D01*
X43843Y75592D02*
X43956Y75582D01*
X43736Y75622D02*
X43843Y75592D01*
X43639Y75669D02*
X43736Y75622D01*
X43551Y75732D02*
X43639Y75669D01*
X43477Y75809D02*
X43551Y75732D01*
X43416Y75898D02*
X43477Y75809D01*
X43371Y75997D02*
X43416Y75898D01*
X43344Y76104D02*
X43371Y75997D01*
X42344Y76104D02*
X43344D01*
X42344Y74986D02*
Y76104D01*
Y74779D02*
Y74986D01*
Y73660D02*
Y74779D01*
Y73660D02*
X43345D01*
X43374Y73766D01*
X43419Y73863D01*
X43480Y73950D01*
X43555Y74025D01*
X43642Y74087D01*
X43739Y74133D01*
X43844Y74162D01*
X43956Y74172D01*
X44081Y74159D01*
X44198Y74123D01*
X44303Y74066D01*
X44395Y73990D01*
X44471Y73898D01*
X44528Y73793D01*
X44564Y73676D01*
X44577Y73551D01*
X44564Y73426D02*
X44577Y73551D01*
X44528Y73310D02*
X44564Y73426D01*
X44471Y73204D02*
X44528Y73310D01*
X44395Y73112D02*
X44471Y73204D01*
X44303Y73036D02*
X44395Y73112D01*
X44198Y72979D02*
X44303Y73036D01*
X44081Y72943D02*
X44198Y72979D01*
X43956Y72930D02*
X44081Y72943D01*
X43843Y72941D02*
X43956Y72930D01*
X43736Y72970D02*
X43843Y72941D01*
X43639Y73018D02*
X43736Y72970D01*
X43551Y73081D02*
X43639Y73018D01*
X43477Y73158D02*
X43551Y73081D01*
X43416Y73247D02*
X43477Y73158D01*
X43371Y73346D02*
X43416Y73247D01*
X43344Y73453D02*
X43371Y73346D01*
X42344Y73453D02*
X43344D01*
X42344Y72341D02*
Y73453D01*
Y72134D02*
Y72341D01*
Y71015D02*
Y72134D01*
Y71015D02*
X43345D01*
X43374Y71121D01*
X43419Y71218D01*
X43480Y71305D01*
X43555Y71380D01*
X43642Y71442D01*
X43739Y71488D01*
X43844Y71517D01*
X43956Y71527D01*
X44081Y71515D01*
X44198Y71479D01*
X44303Y71421D01*
X44395Y71346D01*
X44471Y71254D01*
X44528Y71148D01*
X44564Y71032D01*
X44577Y70906D01*
X44564Y70781D02*
X44577Y70906D01*
X44528Y70665D02*
X44564Y70781D01*
X44471Y70559D02*
X44528Y70665D01*
X44395Y70468D02*
X44471Y70559D01*
X44303Y70392D02*
X44395Y70468D01*
X44198Y70335D02*
X44303Y70392D01*
X44081Y70299D02*
X44198Y70335D01*
X43956Y70286D02*
X44081Y70299D01*
X43843Y70296D02*
X43956Y70286D01*
X43736Y70326D02*
X43843Y70296D01*
X43639Y70373D02*
X43736Y70326D01*
X43551Y70436D02*
X43639Y70373D01*
X43477Y70513D02*
X43551Y70436D01*
X43416Y70602D02*
X43477Y70513D01*
X43371Y70701D02*
X43416Y70602D01*
X43344Y70809D02*
X43371Y70701D01*
X42344Y70809D02*
X43344D01*
X42137D02*
X42344D01*
%TF.MD5,ef855ed7bbaffcffb1d17d58911b029d*%
M02*
