%TF.GenerationSoftware,Altium Limited,Altium Designer,19.1.6 (110)*%
G04 Layer_Color=65535*
%FSLAX43Y43*%
%MOMM*%
%TF.FileFunction,Legend,Top*%
%TF.Part,Single*%
G01*
G75*
%TA.AperFunction,NonConductor*%
%ADD37C,0.254*%
%ADD38C,0.100*%
%ADD39C,0.127*%
%ADD40C,0.600*%
%ADD41C,0.250*%
%ADD42C,0.305*%
%ADD43C,0.200*%
%ADD44C,0.022*%
%ADD45C,0.152*%
G36*
X23573Y77146D02*
X21152D01*
X21155Y77196D01*
X21158Y77240D01*
X21166Y77285D01*
X21177Y77324D01*
X21191Y77363D01*
X21208Y77396D01*
X21244Y77460D01*
X21288Y77510D01*
X21338Y77554D01*
X21391Y77590D01*
X21446Y77618D01*
X21502Y77640D01*
X21555Y77657D01*
X21605Y77668D01*
X21649Y77676D01*
X21685Y77682D01*
X21716Y77685D01*
X23573D01*
Y77146D01*
D02*
G37*
G36*
X20697Y76124D02*
X19212D01*
X19195Y76127D01*
X19170Y76133D01*
X19145Y76144D01*
X19117Y76160D01*
X19092Y76185D01*
X19084Y76202D01*
X19076Y76224D01*
X19073Y76247D01*
X19070Y76272D01*
Y76716D01*
X20697D01*
Y76124D01*
D02*
G37*
G36*
X10977D02*
X10386D01*
Y77160D01*
X8906D01*
Y76124D01*
X8315D01*
Y77751D01*
X10977D01*
Y76124D01*
D02*
G37*
G36*
X7862D02*
X6377D01*
X6360Y76127D01*
X6335Y76133D01*
X6310Y76144D01*
X6283Y76160D01*
X6258Y76185D01*
X6249Y76202D01*
X6241Y76224D01*
X6238Y76247D01*
X6236Y76272D01*
Y76716D01*
X7862D01*
Y76124D01*
D02*
G37*
G36*
X17651Y76055D02*
X16419D01*
Y76705D01*
X17651D01*
Y76055D01*
D02*
G37*
G36*
X20697Y77160D02*
X18626D01*
Y77157D01*
Y77154D01*
Y77146D01*
Y77132D01*
Y77113D01*
Y77085D01*
Y77049D01*
Y77027D01*
Y77002D01*
Y76974D01*
Y76941D01*
Y76907D01*
Y76871D01*
Y76830D01*
Y76785D01*
Y76735D01*
Y76682D01*
Y76624D01*
Y76563D01*
Y76499D01*
Y76427D01*
Y76352D01*
Y76272D01*
Y76269D01*
Y76266D01*
Y76258D01*
Y76247D01*
X18629Y76216D01*
X18634Y76180D01*
X18645Y76133D01*
X18656Y76083D01*
X18676Y76030D01*
X18701Y75975D01*
X18731Y75919D01*
X18770Y75866D01*
X18817Y75816D01*
X18876Y75772D01*
X18909Y75752D01*
X18942Y75733D01*
X18981Y75719D01*
X19023Y75705D01*
X19067Y75694D01*
X19114Y75686D01*
X19164Y75683D01*
X19217Y75680D01*
X20697D01*
Y75089D01*
X19189D01*
X19167Y75092D01*
X19139Y75094D01*
X19109Y75097D01*
X19073Y75100D01*
X19031Y75108D01*
X18989Y75117D01*
X18942Y75125D01*
X18842Y75150D01*
X18790Y75169D01*
X18737Y75189D01*
X18681Y75211D01*
X18626Y75236D01*
X18570Y75267D01*
X18515Y75300D01*
X18462Y75336D01*
X18409Y75378D01*
X18357Y75422D01*
X18309Y75472D01*
X18262Y75528D01*
X18220Y75589D01*
X18179Y75652D01*
X18143Y75725D01*
X18112Y75800D01*
X18084Y75880D01*
X18065Y75969D01*
X18048Y76063D01*
X18037Y76163D01*
X18034Y76272D01*
Y77751D01*
X20697D01*
Y77160D01*
D02*
G37*
G36*
X14845Y76197D02*
Y76194D01*
Y76191D01*
Y76174D01*
X14847Y76149D01*
X14853Y76116D01*
X14858Y76074D01*
X14870Y76030D01*
X14886Y75983D01*
X14906Y75936D01*
X14933Y75886D01*
X14967Y75841D01*
X15008Y75797D01*
X15058Y75758D01*
X15119Y75725D01*
X15189Y75700D01*
X15228Y75691D01*
X15269Y75686D01*
X15314Y75680D01*
X16324D01*
Y75089D01*
X15064D01*
X15047Y75092D01*
X15028D01*
X15006Y75094D01*
X14981Y75097D01*
X14953Y75103D01*
X14892Y75114D01*
X14820Y75133D01*
X14745Y75158D01*
X14670Y75192D01*
X14592Y75236D01*
X14553Y75261D01*
X14517Y75292D01*
X14481Y75322D01*
X14445Y75358D01*
X14414Y75394D01*
X14384Y75436D01*
X14356Y75483D01*
X14331Y75530D01*
X14309Y75583D01*
X14289Y75641D01*
X14273Y75702D01*
X14262Y75769D01*
X14256Y75838D01*
X14253Y75913D01*
Y77751D01*
X14845D01*
Y76197D01*
D02*
G37*
G36*
X13065Y77748D02*
X13159Y77740D01*
X13248Y77724D01*
X13329Y77704D01*
X13407Y77679D01*
X13476Y77649D01*
X13543Y77615D01*
X13604Y77579D01*
X13659Y77538D01*
X13709Y77496D01*
X13756Y77451D01*
X13798Y77401D01*
X13837Y77354D01*
X13870Y77304D01*
X13903Y77252D01*
X13928Y77202D01*
X13953Y77149D01*
X13976Y77099D01*
X13992Y77046D01*
X14009Y76999D01*
X14034Y76905D01*
X14042Y76863D01*
X14051Y76821D01*
X14056Y76785D01*
X14059Y76752D01*
X14064Y76721D01*
Y76696D01*
X14067Y76677D01*
Y76660D01*
Y76652D01*
Y76649D01*
Y75089D01*
X13476D01*
Y76649D01*
Y76696D01*
X13470Y76738D01*
X13462Y76780D01*
X13454Y76818D01*
X13429Y76885D01*
X13395Y76943D01*
X13357Y76993D01*
X13315Y77035D01*
X13268Y77068D01*
X13220Y77096D01*
X13173Y77118D01*
X13126Y77132D01*
X13084Y77143D01*
X13046Y77152D01*
X13012Y77157D01*
X12987Y77160D01*
X11996D01*
Y75089D01*
X11405D01*
Y77751D01*
X12965D01*
X13065Y77748D01*
D02*
G37*
G36*
X12749Y76713D02*
X12768Y76710D01*
X12790Y76702D01*
X12818Y76694D01*
X12846Y76680D01*
X12876Y76663D01*
X12904Y76644D01*
X12935Y76616D01*
X12960Y76582D01*
X12985Y76544D01*
X13004Y76496D01*
X13018Y76444D01*
X13029Y76383D01*
X13032Y76310D01*
Y75089D01*
X12440D01*
Y76716D01*
X12732D01*
X12749Y76713D01*
D02*
G37*
G36*
X9942Y75089D02*
X9350D01*
Y76716D01*
X9942D01*
Y75089D01*
D02*
G37*
G36*
X7862Y77160D02*
X5791D01*
Y77157D01*
Y77154D01*
Y77146D01*
Y77132D01*
Y77113D01*
Y77085D01*
Y77049D01*
Y77027D01*
Y77002D01*
Y76974D01*
Y76941D01*
Y76907D01*
Y76871D01*
Y76830D01*
Y76785D01*
Y76735D01*
Y76682D01*
Y76624D01*
Y76563D01*
Y76499D01*
Y76427D01*
Y76352D01*
Y76272D01*
Y76269D01*
Y76266D01*
Y76258D01*
Y76247D01*
X5794Y76216D01*
X5800Y76180D01*
X5811Y76133D01*
X5822Y76083D01*
X5841Y76030D01*
X5866Y75975D01*
X5897Y75919D01*
X5936Y75866D01*
X5983Y75816D01*
X6041Y75772D01*
X6075Y75752D01*
X6108Y75733D01*
X6147Y75719D01*
X6188Y75705D01*
X6233Y75694D01*
X6280Y75686D01*
X6330Y75683D01*
X6383Y75680D01*
X7862D01*
Y75089D01*
X6355D01*
X6333Y75092D01*
X6305Y75094D01*
X6274Y75097D01*
X6238Y75100D01*
X6197Y75108D01*
X6155Y75117D01*
X6108Y75125D01*
X6008Y75150D01*
X5955Y75169D01*
X5902Y75189D01*
X5847Y75211D01*
X5791Y75236D01*
X5736Y75267D01*
X5680Y75300D01*
X5628Y75336D01*
X5575Y75378D01*
X5522Y75422D01*
X5475Y75472D01*
X5428Y75528D01*
X5386Y75589D01*
X5344Y75652D01*
X5308Y75725D01*
X5278Y75800D01*
X5250Y75880D01*
X5231Y75969D01*
X5214Y76063D01*
X5203Y76163D01*
X5200Y76272D01*
Y77751D01*
X7862D01*
Y77160D01*
D02*
G37*
G36*
X23565Y75750D02*
X23562Y75689D01*
X23556Y75630D01*
X23548Y75577D01*
X23534Y75528D01*
X23517Y75480D01*
X23498Y75439D01*
X23476Y75397D01*
X23454Y75361D01*
X23429Y75328D01*
X23401Y75294D01*
X23340Y75242D01*
X23276Y75197D01*
X23212Y75161D01*
X23145Y75133D01*
X23082Y75111D01*
X23023Y75097D01*
X22971Y75086D01*
X22923Y75081D01*
X22907Y75078D01*
X22890D01*
X22876Y75075D01*
X21155D01*
Y75669D01*
X22776Y75672D01*
X22798Y75675D01*
X22818Y75680D01*
X22854Y75697D01*
X22887Y75722D01*
X22912Y75752D01*
X22932Y75791D01*
X22948Y75833D01*
X22962Y75877D01*
X22971Y75925D01*
X22976Y75972D01*
X22982Y76016D01*
X22984Y76058D01*
Y76094D01*
Y76127D01*
X22982Y76149D01*
Y76166D01*
Y76172D01*
X21149D01*
Y76735D01*
X23565D01*
Y75750D01*
D02*
G37*
G36*
X65010Y69009D02*
X64510D01*
X64511Y69008D01*
X64515Y69004D01*
X64520Y68998D01*
X64527Y68989D01*
X64535Y68979D01*
X64544Y68966D01*
X64554Y68951D01*
X64564Y68934D01*
Y68933D01*
X64565Y68932D01*
X64569Y68927D01*
X64574Y68918D01*
X64579Y68907D01*
X64586Y68894D01*
X64592Y68880D01*
X64599Y68866D01*
X64604Y68852D01*
X64528D01*
Y68853D01*
X64527Y68855D01*
X64526Y68858D01*
X64523Y68863D01*
X64520Y68869D01*
X64516Y68875D01*
X64507Y68891D01*
X64497Y68909D01*
X64484Y68928D01*
X64469Y68947D01*
X64453Y68967D01*
X64453Y68968D01*
X64452Y68968D01*
X64449Y68971D01*
X64446Y68975D01*
X64437Y68983D01*
X64426Y68994D01*
X64413Y69005D01*
X64398Y69017D01*
X64383Y69028D01*
X64367Y69037D01*
Y69088D01*
X65010D01*
Y69009D01*
D02*
G37*
G36*
X44319Y72158D02*
X44331Y72156D01*
X44346Y72153D01*
X44362Y72148D01*
X44378Y72143D01*
X44393Y72135D01*
X44395Y72134D01*
X44400Y72132D01*
X44406Y72126D01*
X44416Y72119D01*
X44425Y72109D01*
X44435Y72098D01*
X44445Y72085D01*
X44454Y72070D01*
Y72069D01*
X44454Y72068D01*
X44457Y72062D01*
X44461Y72054D01*
X44465Y72044D01*
Y72043D01*
X44466Y72041D01*
Y72038D01*
X44466Y72035D01*
X44469Y72024D01*
X44471Y72011D01*
Y72009D01*
X44472Y72005D01*
Y71999D01*
X44473Y71994D01*
Y71987D01*
X44474Y71971D01*
Y71664D01*
X44396D01*
Y71938D01*
X44395Y71944D01*
Y71950D01*
X44393Y71966D01*
X44391Y71982D01*
X44387Y71999D01*
X44382Y72013D01*
X44379Y72021D01*
X44375Y72026D01*
X44374Y72027D01*
X44370Y72031D01*
X44366Y72036D01*
X44357Y72041D01*
X44348Y72047D01*
X44335Y72051D01*
X44319Y72055D01*
X44302Y72056D01*
X44300D01*
X44296D01*
X44290Y72055D01*
X44282Y72054D01*
X44273Y72052D01*
X44263Y72049D01*
X44254Y72046D01*
X44245Y72041D01*
X44244Y72040D01*
X44241Y72038D01*
X44237Y72036D01*
X44232Y72031D01*
X44227Y72025D01*
X44221Y72018D01*
X44217Y72010D01*
X44213Y72000D01*
Y71999D01*
X44212Y71999D01*
Y71995D01*
X44211Y71991D01*
X44210Y71987D01*
X44209Y71981D01*
X44209Y71967D01*
Y71963D01*
X44208Y71959D01*
Y71944D01*
X44207Y71935D01*
Y71839D01*
X44206Y71826D01*
X44205Y71810D01*
X44204Y71794D01*
X44202Y71779D01*
X44200Y71764D01*
Y71762D01*
X44198Y71758D01*
X44196Y71751D01*
X44195Y71742D01*
X44191Y71733D01*
X44187Y71723D01*
X44182Y71713D01*
X44176Y71704D01*
X44175Y71703D01*
X44172Y71699D01*
X44168Y71693D01*
X44162Y71687D01*
X44154Y71680D01*
X44146Y71671D01*
X44135Y71664D01*
X44123Y71657D01*
X44122Y71656D01*
X44118Y71655D01*
X44111Y71653D01*
X44101Y71650D01*
X44090Y71646D01*
X44077Y71644D01*
X44063Y71643D01*
X44048Y71642D01*
X44047D01*
X44045D01*
X44043D01*
X44039D01*
X44029Y71643D01*
X44016Y71644D01*
X44002Y71647D01*
X43987Y71652D01*
X43971Y71657D01*
X43955Y71665D01*
X43954D01*
X43953Y71666D01*
X43949Y71669D01*
X43940Y71675D01*
X43931Y71682D01*
X43921Y71692D01*
X43910Y71703D01*
X43899Y71715D01*
X43890Y71729D01*
X43889Y71730D01*
X43888Y71734D01*
X43885Y71740D01*
X43882Y71747D01*
X43878Y71755D01*
X43876Y71766D01*
X43873Y71778D01*
X43870Y71790D01*
Y71791D01*
X43869Y71796D01*
X43868Y71803D01*
X43866Y71814D01*
X43866Y71827D01*
X43865Y71842D01*
X43864Y71860D01*
Y72130D01*
X43941D01*
Y71865D01*
X43942Y71856D01*
Y71846D01*
X43943Y71836D01*
X43944Y71826D01*
X43946Y71816D01*
Y71815D01*
X43947Y71813D01*
X43948Y71809D01*
X43949Y71804D01*
X43953Y71792D01*
X43959Y71780D01*
X43960Y71779D01*
X43961Y71778D01*
X43964Y71775D01*
X43967Y71771D01*
X43972Y71767D01*
X43976Y71763D01*
X43990Y71754D01*
X43991D01*
X43994Y71753D01*
X43998Y71752D01*
X44003Y71750D01*
X44010Y71748D01*
X44017Y71747D01*
X44034Y71745D01*
X44035D01*
X44036D01*
X44041Y71746D01*
X44049Y71747D01*
X44060Y71749D01*
X44071Y71753D01*
X44082Y71758D01*
X44092Y71766D01*
X44100Y71776D01*
X44101Y71778D01*
X44103Y71781D01*
X44106Y71790D01*
X44110Y71800D01*
X44113Y71815D01*
X44114Y71823D01*
X44116Y71832D01*
X44117Y71842D01*
X44118Y71854D01*
X44119Y71866D01*
Y71950D01*
X44120Y71962D01*
Y71974D01*
X44121Y71985D01*
Y71989D01*
X44122Y71995D01*
X44123Y72001D01*
X44123Y72010D01*
X44124Y72018D01*
X44127Y72035D01*
Y72036D01*
X44128Y72038D01*
X44129Y72042D01*
X44130Y72048D01*
X44134Y72060D01*
X44138Y72072D01*
Y72073D01*
X44139Y72074D01*
X44141Y72077D01*
X44143Y72081D01*
X44148Y72089D01*
X44155Y72099D01*
X44156Y72100D01*
X44160Y72104D01*
X44164Y72109D01*
X44172Y72116D01*
X44181Y72122D01*
X44191Y72130D01*
X44203Y72136D01*
X44217Y72143D01*
X44219Y72144D01*
X44223Y72146D01*
X44231Y72147D01*
X44241Y72151D01*
X44253Y72154D01*
X44267Y72156D01*
X44282Y72158D01*
X44299Y72159D01*
X44300D01*
X44302D01*
X44305D01*
X44308D01*
X44319Y72158D01*
D02*
G37*
G36*
X44257Y71550D02*
X44269D01*
X44282Y71549D01*
X44294Y71548D01*
X44295D01*
X44298D01*
X44304Y71547D01*
X44311Y71546D01*
X44319Y71546D01*
X44329Y71544D01*
X44346Y71540D01*
X44347D01*
X44350Y71539D01*
X44355Y71537D01*
X44359Y71535D01*
X44372Y71530D01*
X44385Y71522D01*
X44386D01*
X44388Y71521D01*
X44391Y71519D01*
X44395Y71515D01*
X44405Y71507D01*
X44417Y71496D01*
X44417Y71495D01*
X44419Y71492D01*
X44423Y71488D01*
X44427Y71482D01*
X44431Y71474D01*
X44437Y71465D01*
X44443Y71454D01*
X44449Y71441D01*
X44455Y71427D01*
X44462Y71411D01*
X44467Y71393D01*
X44472Y71374D01*
X44476Y71352D01*
X44479Y71329D01*
X44481Y71305D01*
X44482Y71278D01*
Y71265D01*
X44481Y71259D01*
Y71252D01*
X44479Y71234D01*
X44478Y71214D01*
X44474Y71192D01*
X44468Y71171D01*
X44462Y71151D01*
Y71150D01*
X44461Y71149D01*
X44460Y71146D01*
X44458Y71142D01*
X44453Y71133D01*
X44445Y71121D01*
X44436Y71108D01*
X44424Y71094D01*
X44410Y71081D01*
X44394Y71068D01*
X44393D01*
X44392Y71067D01*
X44389Y71065D01*
X44385Y71063D01*
X44376Y71056D01*
X44364Y71051D01*
X44363D01*
X44361Y71050D01*
X44357Y71049D01*
X44353Y71047D01*
X44342Y71043D01*
X44328Y71040D01*
X44327D01*
X44324Y71039D01*
X44320Y71038D01*
X44315Y71037D01*
X44308Y71036D01*
X44300Y71035D01*
X44283Y71033D01*
X44282D01*
X44279D01*
X44274Y71032D01*
X44267D01*
X44258D01*
X44248Y71031D01*
X44238D01*
X44226D01*
X43864D01*
Y71129D01*
X44226D01*
X44227D01*
X44229D01*
X44232D01*
X44235D01*
X44245D01*
X44257Y71130D01*
X44270Y71131D01*
X44284Y71132D01*
X44298Y71134D01*
X44310Y71136D01*
X44311D01*
X44315Y71138D01*
X44320Y71139D01*
X44327Y71141D01*
X44343Y71149D01*
X44351Y71154D01*
X44358Y71159D01*
X44359Y71160D01*
X44360Y71161D01*
X44363Y71164D01*
X44366Y71166D01*
X44369Y71171D01*
X44373Y71177D01*
X44378Y71183D01*
X44381Y71190D01*
X44386Y71199D01*
X44391Y71209D01*
X44394Y71219D01*
X44398Y71231D01*
X44401Y71244D01*
X44404Y71259D01*
X44405Y71274D01*
X44405Y71290D01*
Y71299D01*
X44405Y71309D01*
X44404Y71321D01*
X44402Y71335D01*
X44399Y71350D01*
X44395Y71364D01*
X44391Y71379D01*
X44390Y71381D01*
X44388Y71386D01*
X44384Y71392D01*
X44379Y71400D01*
X44372Y71410D01*
X44365Y71419D01*
X44356Y71427D01*
X44344Y71435D01*
X44343Y71435D01*
X44339Y71437D01*
X44333Y71440D01*
X44326Y71443D01*
X44325D01*
X44324Y71444D01*
X44319Y71445D01*
X44311Y71447D01*
X44301Y71448D01*
X44300D01*
X44298Y71449D01*
X44295D01*
X44292Y71450D01*
X44286D01*
X44281Y71451D01*
X44267Y71452D01*
X44266D01*
X44263D01*
X44258D01*
X44253Y71453D01*
X44246D01*
X44238D01*
X44229D01*
X44219D01*
X43864D01*
Y71551D01*
X44219D01*
X44220D01*
X44221D01*
X44226D01*
X44234D01*
X44245D01*
X44257Y71550D01*
D02*
G37*
G36*
X44318Y70937D02*
X44329Y70936D01*
X44342Y70933D01*
X44356Y70931D01*
X44370Y70926D01*
X44384Y70920D01*
X44386Y70919D01*
X44391Y70916D01*
X44397Y70912D01*
X44405Y70907D01*
X44415Y70899D01*
X44424Y70890D01*
X44434Y70879D01*
X44442Y70867D01*
X44443Y70866D01*
X44445Y70862D01*
X44448Y70857D01*
X44452Y70848D01*
X44455Y70839D01*
X44460Y70827D01*
X44464Y70814D01*
X44466Y70799D01*
Y70798D01*
X44467Y70792D01*
X44468Y70783D01*
X44470Y70771D01*
X44471Y70756D01*
X44473Y70737D01*
X44474Y70717D01*
Y70427D01*
X43864D01*
Y70740D01*
X43865Y70749D01*
Y70760D01*
X43866Y70781D01*
Y70786D01*
X43867Y70790D01*
X43868Y70797D01*
X43870Y70811D01*
X43874Y70827D01*
Y70828D01*
X43875Y70831D01*
X43876Y70835D01*
X43878Y70839D01*
X43882Y70850D01*
X43889Y70861D01*
Y70862D01*
X43890Y70864D01*
X43892Y70867D01*
X43895Y70871D01*
X43902Y70879D01*
X43912Y70889D01*
X43913Y70890D01*
X43915Y70892D01*
X43920Y70896D01*
X43926Y70900D01*
X43933Y70905D01*
X43941Y70909D01*
X43951Y70914D01*
X43961Y70919D01*
X43962Y70920D01*
X43965Y70921D01*
X43971Y70922D01*
X43978Y70924D01*
X43988Y70926D01*
X43998Y70927D01*
X44008Y70929D01*
X44020D01*
X44021D01*
X44025D01*
X44029Y70928D01*
X44036Y70927D01*
X44044Y70926D01*
X44053Y70924D01*
X44063Y70921D01*
X44074Y70917D01*
X44086Y70912D01*
X44097Y70906D01*
X44109Y70898D01*
X44120Y70889D01*
X44131Y70878D01*
X44142Y70866D01*
X44152Y70851D01*
X44160Y70835D01*
Y70835D01*
X44161Y70837D01*
X44162Y70840D01*
X44164Y70844D01*
X44169Y70853D01*
X44174Y70865D01*
X44182Y70878D01*
X44191Y70892D01*
X44201Y70904D01*
X44213Y70914D01*
X44215Y70915D01*
X44220Y70918D01*
X44226Y70921D01*
X44236Y70926D01*
X44249Y70931D01*
X44264Y70934D01*
X44282Y70937D01*
X44301Y70938D01*
X44302D01*
X44303D01*
X44308D01*
X44318Y70937D01*
D02*
G37*
G36*
X41934Y72647D02*
X41943Y72646D01*
X41953Y72645D01*
X41964Y72643D01*
X41977Y72640D01*
X42004Y72633D01*
X42018Y72628D01*
X42031Y72623D01*
X42045Y72615D01*
X42058Y72607D01*
X42071Y72598D01*
X42082Y72587D01*
X42083Y72587D01*
X42084Y72585D01*
X42087Y72581D01*
X42091Y72576D01*
X42096Y72571D01*
X42100Y72563D01*
X42106Y72554D01*
X42110Y72545D01*
X42116Y72533D01*
X42121Y72521D01*
X42126Y72507D01*
X42131Y72492D01*
X42134Y72477D01*
X42137Y72459D01*
X42139Y72440D01*
X42140Y72421D01*
Y72411D01*
X42139Y72403D01*
X42138Y72393D01*
X42137Y72383D01*
X42135Y72371D01*
X42133Y72358D01*
X42126Y72330D01*
X42121Y72317D01*
X42117Y72303D01*
X42110Y72289D01*
X42103Y72275D01*
X42095Y72263D01*
X42084Y72251D01*
X42084Y72250D01*
X42082Y72248D01*
X42079Y72245D01*
X42074Y72242D01*
X42068Y72237D01*
X42061Y72232D01*
X42053Y72227D01*
X42043Y72222D01*
X42032Y72217D01*
X42020Y72211D01*
X42007Y72207D01*
X41992Y72202D01*
X41976Y72198D01*
X41960Y72195D01*
X41941Y72194D01*
X41922Y72193D01*
X41921D01*
X41919D01*
X41916D01*
X41912D01*
X41903Y72194D01*
X41890Y72195D01*
X41875Y72196D01*
X41859Y72199D01*
X41842Y72203D01*
X41826Y72207D01*
X41825D01*
X41824Y72208D01*
X41818Y72210D01*
X41810Y72214D01*
X41800Y72219D01*
X41788Y72225D01*
X41776Y72232D01*
X41764Y72241D01*
X41752Y72251D01*
X41750Y72252D01*
X41746Y72257D01*
X41741Y72262D01*
X41733Y72270D01*
X41725Y72281D01*
X41716Y72293D01*
X41709Y72307D01*
X41703Y72322D01*
Y72323D01*
X41702Y72324D01*
X41701Y72327D01*
X41700Y72330D01*
X41697Y72339D01*
X41694Y72351D01*
X41692Y72367D01*
X41689Y72384D01*
X41687Y72404D01*
X41686Y72426D01*
Y72436D01*
X41687Y72443D01*
X41688Y72453D01*
X41689Y72463D01*
X41691Y72474D01*
X41693Y72487D01*
X41701Y72513D01*
X41705Y72526D01*
X41711Y72540D01*
X41718Y72554D01*
X41727Y72567D01*
X41736Y72579D01*
X41746Y72590D01*
X41747Y72591D01*
X41749Y72593D01*
X41753Y72596D01*
X41757Y72600D01*
X41763Y72603D01*
X41771Y72609D01*
X41779Y72613D01*
X41790Y72619D01*
X41801Y72624D01*
X41814Y72629D01*
X41827Y72635D01*
X41843Y72638D01*
X41859Y72642D01*
X41877Y72645D01*
X41896Y72647D01*
X41916Y72648D01*
X41917D01*
X41921D01*
X41926D01*
X41934Y72647D01*
D02*
G37*
G36*
X41892Y72060D02*
X41849D01*
X41848D01*
X41847D01*
X41840D01*
X41832Y72060D01*
X41822Y72059D01*
X41811Y72056D01*
X41801Y72053D01*
X41790Y72048D01*
X41783Y72043D01*
X41782Y72042D01*
X41780Y72039D01*
X41777Y72036D01*
X41774Y72029D01*
X41771Y72020D01*
X41768Y72009D01*
X41766Y71996D01*
X41765Y71979D01*
Y71945D01*
X42136D01*
Y71856D01*
X41691D01*
Y71990D01*
X41692Y72002D01*
X41692Y72016D01*
X41693Y72030D01*
X41695Y72044D01*
X41698Y72056D01*
Y72057D01*
X41700Y72061D01*
X41702Y72067D01*
X41704Y72073D01*
X41708Y72082D01*
X41713Y72091D01*
X41718Y72099D01*
X41725Y72108D01*
X41726Y72109D01*
X41728Y72111D01*
X41732Y72114D01*
X41738Y72119D01*
X41744Y72123D01*
X41752Y72128D01*
X41761Y72132D01*
X41770Y72135D01*
X41771D01*
X41775Y72136D01*
X41781Y72138D01*
X41790Y72140D01*
X41801Y72141D01*
X41814Y72143D01*
X41830Y72144D01*
X41849D01*
X41892D01*
Y72060D01*
D02*
G37*
G36*
X41866Y71557D02*
Y71616D01*
X41867Y71626D01*
X41868Y71637D01*
X41870Y71649D01*
X41873Y71661D01*
X41875Y71672D01*
Y71673D01*
X41877Y71677D01*
X41879Y71682D01*
X41882Y71689D01*
X41886Y71696D01*
X41890Y71705D01*
X41897Y71712D01*
X41903Y71719D01*
X41904Y71720D01*
X41906Y71722D01*
X41910Y71725D01*
X41915Y71729D01*
X41922Y71733D01*
X41928Y71737D01*
X41937Y71741D01*
X41946Y71743D01*
X41947D01*
X41950Y71744D01*
X41956Y71746D01*
X41964Y71747D01*
X41973Y71749D01*
X41986Y71750D01*
X42000Y71751D01*
X42016D01*
X42136D01*
Y71662D01*
X42035D01*
X42033D01*
X42028D01*
X42022D01*
X42012Y71661D01*
X41994Y71660D01*
X41985Y71658D01*
X41977Y71656D01*
X41976D01*
X41974Y71656D01*
X41971Y71654D01*
X41967Y71652D01*
X41957Y71645D01*
X41949Y71636D01*
X41948Y71635D01*
X41946Y71632D01*
X41943Y71626D01*
X41940Y71620D01*
X41939Y71619D01*
X41938Y71615D01*
X41937Y71608D01*
X41935Y71600D01*
Y71598D01*
X41934Y71593D01*
X41933Y71584D01*
X41932Y71573D01*
Y71567D01*
X41931Y71562D01*
Y71451D01*
X42136D01*
Y71362D01*
X41526D01*
Y71451D01*
X41866D01*
X41691Y71662D01*
Y71775D01*
X41866Y71557D01*
D02*
G37*
G36*
X42136Y71147D02*
X41691D01*
Y71236D01*
X42136D01*
Y71147D01*
D02*
G37*
G36*
X41618D02*
X41526D01*
Y71236D01*
X41618D01*
Y71147D01*
D02*
G37*
G36*
X42136Y70938D02*
X41862D01*
X41861D01*
X41859D01*
X41856D01*
X41852D01*
X41842Y70937D01*
X41831Y70935D01*
X41818Y70933D01*
X41805Y70929D01*
X41793Y70923D01*
X41784Y70916D01*
X41783Y70915D01*
X41780Y70911D01*
X41777Y70906D01*
X41773Y70898D01*
X41769Y70887D01*
X41765Y70873D01*
X41763Y70857D01*
X41762Y70837D01*
Y70769D01*
X42136D01*
Y70680D01*
X41762D01*
Y70516D01*
X42136D01*
Y70427D01*
X41691D01*
Y70867D01*
X41692Y70877D01*
Y70896D01*
X41692Y70902D01*
X41693Y70916D01*
X41696Y70930D01*
Y70931D01*
X41697Y70933D01*
X41698Y70936D01*
X41699Y70940D01*
X41702Y70949D01*
X41706Y70958D01*
Y70959D01*
X41707Y70960D01*
X41710Y70966D01*
X41716Y70974D01*
X41723Y70983D01*
Y70984D01*
X41725Y70985D01*
X41729Y70991D01*
X41737Y70997D01*
X41746Y71004D01*
X41747D01*
X41748Y71006D01*
X41751Y71007D01*
X41754Y71008D01*
X41763Y71013D01*
X41774Y71017D01*
X41775D01*
X41777Y71018D01*
X41780Y71019D01*
X41784Y71019D01*
X41790Y71021D01*
X41796Y71022D01*
X41812Y71024D01*
X41813D01*
X41815Y71025D01*
X41820D01*
X41826Y71026D01*
X41833D01*
X41841Y71027D01*
X41851D01*
X41862D01*
X42136D01*
Y70938D01*
D02*
G37*
G36*
X46595Y77214D02*
X46060D01*
X46595Y77027D01*
Y76951D01*
X46050Y76766D01*
X46595D01*
Y76685D01*
X45955D01*
Y76812D01*
X46409Y76963D01*
X46410D01*
X46412Y76964D01*
X46415Y76965D01*
X46419Y76967D01*
X46430Y76971D01*
X46444Y76975D01*
X46460Y76980D01*
X46476Y76986D01*
X46491Y76990D01*
X46504Y76994D01*
X46502Y76995D01*
X46497Y76996D01*
X46489Y76998D01*
X46478Y77002D01*
X46463Y77007D01*
X46445Y77013D01*
X46425Y77020D01*
X46401Y77028D01*
X45955Y77182D01*
Y77295D01*
X46595D01*
Y77214D01*
D02*
G37*
G36*
Y76433D02*
Y76349D01*
X46108Y76215D01*
X46107D01*
X46105Y76214D01*
X46102Y76214D01*
X46098Y76213D01*
X46087Y76210D01*
X46075Y76207D01*
X46063Y76203D01*
X46050Y76200D01*
X46040Y76197D01*
X46036Y76196D01*
X46033Y76195D01*
X46034D01*
X46035Y76194D01*
X46040Y76193D01*
X46049Y76191D01*
X46059Y76189D01*
X46070Y76186D01*
X46083Y76182D01*
X46096Y76179D01*
X46108Y76176D01*
X46595Y76041D01*
Y75952D01*
X45955Y75785D01*
Y75872D01*
X46375Y75968D01*
X46376D01*
X46378Y75969D01*
X46381Y75969D01*
X46386Y75970D01*
X46393Y75971D01*
X46399Y75973D01*
X46407Y75975D01*
X46417Y75977D01*
X46436Y75981D01*
X46458Y75986D01*
X46482Y75991D01*
X46506Y75995D01*
X46505D01*
X46502Y75996D01*
X46497Y75998D01*
X46490Y75999D01*
X46482Y76001D01*
X46473Y76004D01*
X46453Y76008D01*
X46432Y76014D01*
X46422Y76016D01*
X46413Y76018D01*
X46405Y76020D01*
X46397Y76022D01*
X46392Y76024D01*
X46388Y76025D01*
X45955Y76146D01*
Y76249D01*
X46280Y76339D01*
X46281D01*
X46285Y76341D01*
X46292Y76343D01*
X46300Y76345D01*
X46311Y76348D01*
X46323Y76351D01*
X46337Y76355D01*
X46353Y76359D01*
X46370Y76363D01*
X46388Y76367D01*
X46426Y76375D01*
X46466Y76384D01*
X46506Y76390D01*
X46505D01*
X46504Y76391D01*
X46500D01*
X46495Y76393D01*
X46490Y76394D01*
X46483Y76396D01*
X46475Y76397D01*
X46466Y76399D01*
X46445Y76404D01*
X46421Y76410D01*
X46395Y76415D01*
X46367Y76422D01*
X45955Y76522D01*
Y76608D01*
X46595Y76433D01*
D02*
G37*
G36*
X46155Y75735D02*
X46161Y75734D01*
X46170Y75733D01*
X46179Y75731D01*
X46189Y75729D01*
X46210Y75723D01*
X46222Y75719D01*
X46234Y75713D01*
X46246Y75707D01*
X46257Y75700D01*
X46268Y75692D01*
X46279Y75683D01*
X46280Y75682D01*
X46282Y75680D01*
X46284Y75677D01*
X46287Y75673D01*
X46292Y75667D01*
X46296Y75660D01*
X46302Y75650D01*
X46307Y75640D01*
X46312Y75628D01*
X46318Y75614D01*
X46322Y75600D01*
X46326Y75582D01*
X46330Y75564D01*
X46332Y75543D01*
X46334Y75520D01*
X46335Y75496D01*
Y75332D01*
X46595D01*
Y75247D01*
X45955D01*
Y75510D01*
X45956Y75524D01*
X45957Y75540D01*
X45958Y75556D01*
X45960Y75572D01*
X45962Y75586D01*
Y75588D01*
X45964Y75594D01*
X45965Y75602D01*
X45968Y75613D01*
X45973Y75626D01*
X45978Y75638D01*
X45985Y75652D01*
X45992Y75664D01*
X45993Y75666D01*
X45996Y75670D01*
X46001Y75675D01*
X46008Y75683D01*
X46016Y75691D01*
X46027Y75699D01*
X46039Y75709D01*
X46053Y75716D01*
X46055Y75717D01*
X46060Y75719D01*
X46068Y75723D01*
X46079Y75726D01*
X46092Y75729D01*
X46107Y75733D01*
X46124Y75735D01*
X46141Y75736D01*
X46142D01*
X46145D01*
X46148D01*
X46155Y75735D01*
D02*
G37*
G36*
X46595Y62187D02*
X46093Y61852D01*
X46595D01*
Y61771D01*
X45955D01*
Y61858D01*
X46458Y62193D01*
X45955D01*
Y62275D01*
X46595D01*
Y62187D01*
D02*
G37*
G36*
Y61607D02*
X46401Y61532D01*
Y61264D01*
X46595Y61195D01*
Y61105D01*
X45955Y61349D01*
Y61442D01*
X46595Y61703D01*
Y61607D01*
D02*
G37*
G36*
X61835Y77426D02*
Y77338D01*
X61195Y77090D01*
Y77182D01*
X61660Y77349D01*
X61661D01*
X61663Y77350D01*
X61666Y77351D01*
X61670Y77353D01*
X61675Y77353D01*
X61681Y77355D01*
X61695Y77360D01*
X61710Y77365D01*
X61728Y77371D01*
X61765Y77382D01*
X61764D01*
X61762Y77383D01*
X61759Y77384D01*
X61756Y77385D01*
X61745Y77388D01*
X61732Y77392D01*
X61716Y77397D01*
X61698Y77402D01*
X61680Y77409D01*
X61660Y77416D01*
X61195Y77590D01*
Y77676D01*
X61835Y77426D01*
D02*
G37*
G36*
X61634Y77050D02*
X61641Y77049D01*
X61649Y77048D01*
X61659Y77047D01*
X61670Y77045D01*
X61694Y77039D01*
X61719Y77030D01*
X61732Y77024D01*
X61744Y77017D01*
X61756Y77010D01*
X61768Y77000D01*
X61769Y76999D01*
X61772Y76997D01*
X61776Y76994D01*
X61781Y76989D01*
X61786Y76983D01*
X61793Y76975D01*
X61800Y76966D01*
X61807Y76956D01*
X61815Y76945D01*
X61821Y76932D01*
X61828Y76918D01*
X61834Y76903D01*
X61839Y76887D01*
X61842Y76870D01*
X61845Y76851D01*
X61846Y76832D01*
Y76824D01*
X61845Y76817D01*
X61844Y76810D01*
X61843Y76801D01*
X61842Y76791D01*
X61840Y76781D01*
X61834Y76758D01*
X61826Y76735D01*
X61820Y76723D01*
X61814Y76711D01*
X61806Y76700D01*
X61798Y76689D01*
X61797Y76688D01*
X61796Y76686D01*
X61793Y76684D01*
X61789Y76680D01*
X61784Y76676D01*
X61779Y76671D01*
X61771Y76666D01*
X61763Y76661D01*
X61755Y76655D01*
X61744Y76650D01*
X61722Y76640D01*
X61696Y76631D01*
X61683Y76629D01*
X61668Y76627D01*
X61661Y76709D01*
X61662D01*
X61664D01*
X61667Y76710D01*
X61671Y76711D01*
X61682Y76714D01*
X61695Y76717D01*
X61709Y76723D01*
X61725Y76730D01*
X61739Y76740D01*
X61752Y76751D01*
X61753Y76752D01*
X61756Y76756D01*
X61761Y76764D01*
X61767Y76774D01*
X61772Y76785D01*
X61777Y76799D01*
X61781Y76814D01*
X61781Y76832D01*
Y76838D01*
X61781Y76841D01*
X61780Y76852D01*
X61776Y76865D01*
X61771Y76881D01*
X61764Y76897D01*
X61753Y76913D01*
X61746Y76921D01*
X61739Y76928D01*
X61738Y76929D01*
X61737Y76930D01*
X61734Y76932D01*
X61732Y76935D01*
X61721Y76941D01*
X61708Y76949D01*
X61693Y76955D01*
X61673Y76961D01*
X61650Y76966D01*
X61638Y76968D01*
X61625D01*
X61624D01*
X61622D01*
X61619D01*
X61614Y76967D01*
X61609D01*
X61602Y76966D01*
X61587Y76963D01*
X61570Y76959D01*
X61552Y76952D01*
X61536Y76943D01*
X61520Y76930D01*
X61519D01*
X61518Y76928D01*
X61513Y76924D01*
X61507Y76915D01*
X61499Y76904D01*
X61493Y76889D01*
X61486Y76873D01*
X61482Y76853D01*
X61480Y76842D01*
Y76825D01*
X61481Y76817D01*
X61482Y76808D01*
X61485Y76797D01*
X61487Y76786D01*
X61492Y76774D01*
X61498Y76762D01*
X61499Y76761D01*
X61500Y76757D01*
X61505Y76752D01*
X61510Y76744D01*
X61516Y76737D01*
X61524Y76729D01*
X61533Y76721D01*
X61543Y76715D01*
X61533Y76641D01*
X61204Y76703D01*
Y77021D01*
X61278D01*
Y76765D01*
X61451Y76730D01*
X61450Y76731D01*
X61450Y76733D01*
X61448Y76736D01*
X61445Y76740D01*
X61442Y76746D01*
X61438Y76752D01*
X61431Y76767D01*
X61424Y76786D01*
X61417Y76806D01*
X61413Y76828D01*
X61411Y76839D01*
Y76860D01*
X61412Y76865D01*
X61413Y76873D01*
X61413Y76881D01*
X61415Y76890D01*
X61418Y76900D01*
X61425Y76923D01*
X61429Y76935D01*
X61436Y76947D01*
X61442Y76959D01*
X61450Y76971D01*
X61459Y76982D01*
X61469Y76993D01*
X61470Y76994D01*
X61472Y76996D01*
X61474Y76998D01*
X61479Y77002D01*
X61486Y77007D01*
X61492Y77011D01*
X61500Y77017D01*
X61510Y77022D01*
X61520Y77027D01*
X61531Y77033D01*
X61544Y77037D01*
X61557Y77042D01*
X61571Y77046D01*
X61586Y77048D01*
X61602Y77050D01*
X61619Y77051D01*
X61620D01*
X61622D01*
X61627D01*
X61634Y77050D01*
D02*
G37*
G36*
X61556Y76364D02*
X61732D01*
Y76290D01*
X61556D01*
Y76116D01*
X61483D01*
Y76290D01*
X61309D01*
Y76364D01*
X61483D01*
Y76538D01*
X61556D01*
Y76364D01*
D02*
G37*
G36*
X64071Y77423D02*
X64078D01*
X64096Y77422D01*
X64116Y77419D01*
X64137Y77416D01*
X64160Y77412D01*
X64182Y77406D01*
X64183D01*
X64185Y77405D01*
X64187Y77404D01*
X64191Y77404D01*
X64201Y77400D01*
X64214Y77394D01*
X64229Y77389D01*
X64244Y77381D01*
X64259Y77372D01*
X64274Y77363D01*
X64276Y77362D01*
X64281Y77358D01*
X64287Y77353D01*
X64296Y77345D01*
X64305Y77337D01*
X64314Y77327D01*
X64324Y77317D01*
X64333Y77305D01*
X64333Y77303D01*
X64336Y77299D01*
X64340Y77293D01*
X64345Y77283D01*
X64350Y77272D01*
X64355Y77259D01*
X64360Y77244D01*
X64365Y77228D01*
Y77226D01*
X64366Y77223D01*
X64367Y77220D01*
X64368Y77211D01*
X64370Y77198D01*
X64371Y77183D01*
X64373Y77166D01*
X64374Y77146D01*
X64375Y77125D01*
Y76895D01*
X63735D01*
Y77141D01*
X63736Y77158D01*
X63737Y77176D01*
X63739Y77195D01*
X63742Y77213D01*
X63745Y77229D01*
Y77230D01*
X63745Y77232D01*
Y77234D01*
X63747Y77238D01*
X63750Y77248D01*
X63755Y77261D01*
X63761Y77276D01*
X63769Y77292D01*
X63779Y77307D01*
X63791Y77322D01*
X63792Y77323D01*
X63793Y77324D01*
X63795Y77327D01*
X63798Y77330D01*
X63807Y77340D01*
X63820Y77351D01*
X63836Y77363D01*
X63855Y77376D01*
X63876Y77388D01*
X63900Y77398D01*
X63901D01*
X63903Y77399D01*
X63906Y77401D01*
X63912Y77402D01*
X63918Y77404D01*
X63926Y77406D01*
X63934Y77408D01*
X63944Y77411D01*
X63954Y77414D01*
X63966Y77416D01*
X63992Y77420D01*
X64021Y77423D01*
X64052Y77424D01*
X64053D01*
X64055D01*
X64060D01*
X64064D01*
X64071Y77423D01*
D02*
G37*
G36*
X64375Y76665D02*
X63873Y76330D01*
X64375D01*
Y76249D01*
X63735D01*
Y76336D01*
X64238Y76671D01*
X63735D01*
Y76753D01*
X64375D01*
Y76665D01*
D02*
G37*
G36*
X64287Y76124D02*
X64288Y76122D01*
X64291Y76118D01*
X64295Y76114D01*
X64298Y76108D01*
X64303Y76102D01*
X64308Y76093D01*
X64314Y76085D01*
X64326Y76066D01*
X64339Y76043D01*
X64351Y76020D01*
X64361Y75995D01*
Y75994D01*
X64362Y75993D01*
X64363Y75989D01*
X64365Y75984D01*
X64367Y75978D01*
X64370Y75970D01*
X64371Y75962D01*
X64373Y75954D01*
X64378Y75933D01*
X64382Y75910D01*
X64385Y75885D01*
X64386Y75859D01*
Y75850D01*
X64385Y75844D01*
Y75835D01*
X64384Y75825D01*
X64382Y75814D01*
X64382Y75802D01*
X64376Y75775D01*
X64370Y75747D01*
X64359Y75717D01*
X64354Y75702D01*
X64346Y75688D01*
X64345Y75687D01*
X64345Y75684D01*
X64342Y75680D01*
X64339Y75675D01*
X64334Y75668D01*
X64330Y75662D01*
X64317Y75644D01*
X64300Y75626D01*
X64280Y75606D01*
X64257Y75588D01*
X64230Y75571D01*
X64229D01*
X64226Y75569D01*
X64223Y75567D01*
X64216Y75565D01*
X64210Y75562D01*
X64200Y75559D01*
X64191Y75555D01*
X64180Y75552D01*
X64168Y75548D01*
X64154Y75544D01*
X64140Y75541D01*
X64125Y75539D01*
X64093Y75534D01*
X64059Y75532D01*
X64058D01*
X64054D01*
X64050D01*
X64043Y75533D01*
X64035D01*
X64025Y75534D01*
X64014Y75536D01*
X64002Y75537D01*
X63990Y75540D01*
X63976Y75541D01*
X63946Y75549D01*
X63916Y75558D01*
X63885Y75571D01*
X63884Y75572D01*
X63881Y75573D01*
X63878Y75575D01*
X63872Y75578D01*
X63865Y75582D01*
X63857Y75587D01*
X63840Y75600D01*
X63819Y75615D01*
X63800Y75635D01*
X63781Y75657D01*
X63772Y75670D01*
X63764Y75683D01*
X63763Y75684D01*
X63762Y75687D01*
X63760Y75690D01*
X63757Y75696D01*
X63755Y75703D01*
X63751Y75712D01*
X63747Y75721D01*
X63744Y75732D01*
X63740Y75744D01*
X63737Y75757D01*
X63733Y75771D01*
X63731Y75786D01*
X63726Y75818D01*
X63724Y75835D01*
Y75864D01*
X63725Y75870D01*
Y75877D01*
X63727Y75895D01*
X63730Y75914D01*
X63734Y75934D01*
X63740Y75957D01*
X63747Y75978D01*
Y75979D01*
X63748Y75981D01*
X63749Y75983D01*
X63751Y75987D01*
X63757Y75997D01*
X63763Y76010D01*
X63772Y76024D01*
X63783Y76039D01*
X63795Y76053D01*
X63810Y76066D01*
X63812Y76068D01*
X63818Y76071D01*
X63826Y76077D01*
X63838Y76084D01*
X63853Y76092D01*
X63871Y76100D01*
X63892Y76108D01*
X63915Y76115D01*
X63935Y76038D01*
X63934D01*
X63933Y76037D01*
X63930Y76036D01*
X63927Y76035D01*
X63918Y76032D01*
X63907Y76029D01*
X63894Y76023D01*
X63882Y76017D01*
X63869Y76010D01*
X63858Y76002D01*
X63857Y76001D01*
X63854Y75998D01*
X63849Y75993D01*
X63843Y75986D01*
X63835Y75978D01*
X63828Y75967D01*
X63820Y75955D01*
X63814Y75941D01*
X63813Y75939D01*
X63811Y75934D01*
X63808Y75926D01*
X63805Y75915D01*
X63802Y75902D01*
X63799Y75887D01*
X63797Y75871D01*
X63796Y75853D01*
Y75843D01*
X63797Y75838D01*
Y75833D01*
X63798Y75819D01*
X63801Y75803D01*
X63804Y75786D01*
X63808Y75769D01*
X63815Y75752D01*
X63816Y75750D01*
X63818Y75745D01*
X63822Y75737D01*
X63827Y75728D01*
X63834Y75717D01*
X63842Y75705D01*
X63851Y75694D01*
X63861Y75684D01*
X63862Y75683D01*
X63866Y75679D01*
X63872Y75675D01*
X63880Y75669D01*
X63889Y75663D01*
X63900Y75656D01*
X63912Y75650D01*
X63925Y75643D01*
X63926D01*
X63928Y75642D01*
X63930Y75641D01*
X63935Y75639D01*
X63941Y75638D01*
X63947Y75636D01*
X63954Y75633D01*
X63963Y75631D01*
X63982Y75627D01*
X64004Y75623D01*
X64027Y75620D01*
X64053Y75619D01*
X64054D01*
X64057D01*
X64062D01*
X64067Y75620D01*
X64075D01*
X64084Y75621D01*
X64093Y75622D01*
X64103Y75623D01*
X64126Y75627D01*
X64150Y75631D01*
X64174Y75639D01*
X64198Y75648D01*
X64198D01*
X64200Y75650D01*
X64203Y75651D01*
X64207Y75653D01*
X64217Y75660D01*
X64230Y75670D01*
X64244Y75682D01*
X64258Y75697D01*
X64271Y75714D01*
X64283Y75734D01*
Y75735D01*
X64284Y75737D01*
X64285Y75739D01*
X64287Y75744D01*
X64289Y75749D01*
X64291Y75755D01*
X64296Y75770D01*
X64301Y75788D01*
X64306Y75809D01*
X64309Y75831D01*
X64310Y75854D01*
Y75863D01*
X64309Y75869D01*
Y75874D01*
X64308Y75888D01*
X64306Y75905D01*
X64302Y75922D01*
X64296Y75942D01*
X64290Y75961D01*
Y75962D01*
X64289Y75964D01*
X64288Y75966D01*
X64286Y75970D01*
X64282Y75980D01*
X64276Y75991D01*
X64270Y76004D01*
X64262Y76018D01*
X64254Y76031D01*
X64245Y76042D01*
X64125D01*
Y75853D01*
X64049D01*
Y76125D01*
X64286D01*
X64287Y76124D01*
D02*
G37*
G36*
X54215Y77919D02*
X53988Y77757D01*
X53987Y77756D01*
X53984Y77754D01*
X53980Y77752D01*
X53976Y77749D01*
X53963Y77740D01*
X53949Y77731D01*
X53950Y77730D01*
X53953Y77727D01*
X53959Y77724D01*
X53966Y77719D01*
X53981Y77709D01*
X53988Y77704D01*
X53993Y77700D01*
X54215Y77539D01*
Y77437D01*
X53884Y77684D01*
X53575Y77466D01*
Y77566D01*
X53740Y77683D01*
X53741D01*
X53742Y77685D01*
X53744Y77687D01*
X53748Y77689D01*
X53757Y77695D01*
X53769Y77703D01*
X53781Y77712D01*
X53794Y77720D01*
X53806Y77727D01*
X53818Y77734D01*
X53816Y77735D01*
X53812Y77737D01*
X53805Y77742D01*
X53795Y77749D01*
X53785Y77756D01*
X53772Y77765D01*
X53759Y77774D01*
X53745Y77785D01*
X53575Y77913D01*
Y78006D01*
X53879Y77784D01*
X54215Y78023D01*
Y77919D01*
D02*
G37*
G36*
X53651Y77204D02*
X54215D01*
Y77119D01*
X53651D01*
Y76908D01*
X53575D01*
Y77415D01*
X53651D01*
Y77204D01*
D02*
G37*
G36*
X51675Y77880D02*
X51448Y77718D01*
X51447Y77717D01*
X51444Y77715D01*
X51440Y77713D01*
X51436Y77710D01*
X51423Y77701D01*
X51409Y77692D01*
X51410Y77691D01*
X51413Y77688D01*
X51419Y77685D01*
X51426Y77680D01*
X51441Y77670D01*
X51448Y77665D01*
X51453Y77661D01*
X51675Y77500D01*
Y77398D01*
X51344Y77645D01*
X51035Y77427D01*
Y77527D01*
X51200Y77644D01*
X51201D01*
X51202Y77646D01*
X51204Y77648D01*
X51208Y77650D01*
X51217Y77656D01*
X51229Y77664D01*
X51241Y77673D01*
X51254Y77681D01*
X51266Y77688D01*
X51278Y77695D01*
X51276Y77696D01*
X51272Y77698D01*
X51265Y77703D01*
X51255Y77710D01*
X51245Y77717D01*
X51232Y77726D01*
X51219Y77735D01*
X51205Y77747D01*
X51035Y77874D01*
Y77967D01*
X51339Y77745D01*
X51675Y77984D01*
Y77880D01*
D02*
G37*
G36*
Y77276D02*
X51542Y77192D01*
X51541D01*
X51539Y77190D01*
X51536Y77188D01*
X51533Y77185D01*
X51523Y77179D01*
X51510Y77171D01*
X51496Y77160D01*
X51481Y77150D01*
X51467Y77140D01*
X51454Y77131D01*
X51453Y77130D01*
X51449Y77127D01*
X51444Y77122D01*
X51437Y77116D01*
X51424Y77102D01*
X51417Y77095D01*
X51412Y77087D01*
X51411Y77086D01*
X51410Y77085D01*
X51408Y77081D01*
X51405Y77075D01*
X51402Y77070D01*
X51400Y77063D01*
X51395Y77048D01*
Y77048D01*
X51394Y77046D01*
Y77042D01*
X51393Y77037D01*
X51392Y77031D01*
Y77024D01*
X51391Y77013D01*
Y76904D01*
X51675D01*
Y76819D01*
X51035D01*
Y77116D01*
X51036Y77123D01*
Y77132D01*
X51037Y77151D01*
X51040Y77171D01*
X51043Y77194D01*
X51047Y77214D01*
X51050Y77224D01*
X51053Y77232D01*
Y77233D01*
X51054Y77234D01*
X51057Y77240D01*
X51060Y77248D01*
X51067Y77258D01*
X51075Y77269D01*
X51086Y77281D01*
X51099Y77293D01*
X51114Y77304D01*
X51115D01*
X51116Y77305D01*
X51121Y77308D01*
X51131Y77312D01*
X51143Y77318D01*
X51156Y77322D01*
X51173Y77327D01*
X51191Y77330D01*
X51210Y77330D01*
X51211D01*
X51213D01*
X51216D01*
X51221Y77330D01*
X51228D01*
X51234Y77329D01*
X51250Y77325D01*
X51268Y77319D01*
X51288Y77312D01*
X51307Y77301D01*
X51316Y77294D01*
X51326Y77286D01*
X51326Y77285D01*
X51327Y77284D01*
X51330Y77281D01*
X51333Y77278D01*
X51337Y77273D01*
X51340Y77268D01*
X51345Y77260D01*
X51351Y77253D01*
X51355Y77244D01*
X51360Y77233D01*
X51365Y77222D01*
X51370Y77210D01*
X51374Y77196D01*
X51378Y77183D01*
X51381Y77167D01*
X51384Y77150D01*
X51385Y77152D01*
X51387Y77156D01*
X51390Y77161D01*
X51394Y77169D01*
X51404Y77185D01*
X51411Y77194D01*
X51416Y77201D01*
X51418Y77203D01*
X51423Y77208D01*
X51430Y77215D01*
X51439Y77224D01*
X51452Y77234D01*
X51466Y77246D01*
X51483Y77258D01*
X51501Y77271D01*
X51675Y77381D01*
Y77276D01*
D02*
G37*
G36*
X48571Y77638D02*
X49135D01*
Y77553D01*
X48571D01*
Y77342D01*
X48495D01*
Y77849D01*
X48571D01*
Y77638D01*
D02*
G37*
G36*
X49135Y77160D02*
X48633Y76825D01*
X49135D01*
Y76744D01*
X48495D01*
Y76831D01*
X48998Y77166D01*
X48495D01*
Y77248D01*
X49135D01*
Y77160D01*
D02*
G37*
G36*
Y76510D02*
X48495D01*
Y76595D01*
X49135D01*
Y76510D01*
D02*
G37*
G36*
X56755Y77192D02*
X56115D01*
Y77277D01*
X56679D01*
Y77592D01*
X56755D01*
Y77192D01*
D02*
G37*
G36*
X56557Y77090D02*
X56563Y77089D01*
X56570Y77086D01*
X56578Y77083D01*
X56589Y77079D01*
X56600Y77075D01*
X56612Y77069D01*
X56638Y77056D01*
X56664Y77040D01*
X56676Y77029D01*
X56689Y77019D01*
X56701Y77008D01*
X56712Y76995D01*
X56713Y76994D01*
X56714Y76992D01*
X56716Y76988D01*
X56720Y76983D01*
X56725Y76976D01*
X56729Y76968D01*
X56734Y76958D01*
X56738Y76948D01*
X56744Y76936D01*
X56749Y76923D01*
X56753Y76909D01*
X56758Y76894D01*
X56762Y76879D01*
X56763Y76862D01*
X56765Y76844D01*
X56766Y76826D01*
Y76816D01*
X56765Y76808D01*
Y76800D01*
X56764Y76790D01*
X56762Y76779D01*
X56761Y76766D01*
X56756Y76739D01*
X56749Y76711D01*
X56738Y76684D01*
X56732Y76671D01*
X56725Y76658D01*
X56724Y76657D01*
X56723Y76655D01*
X56720Y76651D01*
X56716Y76648D01*
X56713Y76642D01*
X56707Y76636D01*
X56701Y76628D01*
X56693Y76621D01*
X56685Y76613D01*
X56676Y76605D01*
X56655Y76588D01*
X56630Y76573D01*
X56603Y76559D01*
X56602D01*
X56599Y76557D01*
X56594Y76556D01*
X56589Y76553D01*
X56581Y76551D01*
X56572Y76549D01*
X56562Y76545D01*
X56551Y76542D01*
X56539Y76539D01*
X56525Y76536D01*
X56496Y76531D01*
X56464Y76527D01*
X56431Y76526D01*
X56430D01*
X56426D01*
X56420D01*
X56414Y76526D01*
X56405D01*
X56395Y76527D01*
X56383Y76528D01*
X56371Y76530D01*
X56345Y76535D01*
X56315Y76541D01*
X56285Y76550D01*
X56257Y76563D01*
X56256Y76564D01*
X56253Y76565D01*
X56249Y76567D01*
X56245Y76571D01*
X56238Y76575D01*
X56231Y76579D01*
X56214Y76591D01*
X56196Y76607D01*
X56177Y76625D01*
X56159Y76647D01*
X56143Y76672D01*
X56142Y76673D01*
X56141Y76675D01*
X56139Y76679D01*
X56137Y76684D01*
X56134Y76691D01*
X56131Y76698D01*
X56127Y76708D01*
X56124Y76718D01*
X56120Y76729D01*
X56116Y76741D01*
X56111Y76767D01*
X56106Y76796D01*
X56104Y76827D01*
Y76836D01*
X56105Y76843D01*
X56106Y76851D01*
X56107Y76861D01*
X56108Y76871D01*
X56111Y76883D01*
X56116Y76908D01*
X56125Y76936D01*
X56130Y76950D01*
X56137Y76963D01*
X56145Y76976D01*
X56153Y76989D01*
X56154Y76990D01*
X56155Y76991D01*
X56158Y76995D01*
X56162Y77000D01*
X56167Y77004D01*
X56174Y77011D01*
X56181Y77017D01*
X56188Y77025D01*
X56198Y77032D01*
X56209Y77040D01*
X56220Y77048D01*
X56232Y77055D01*
X56246Y77062D01*
X56259Y77069D01*
X56274Y77075D01*
X56291Y77080D01*
X56310Y76997D01*
X56309D01*
X56308Y76996D01*
X56304Y76994D01*
X56299Y76992D01*
X56294Y76991D01*
X56286Y76988D01*
X56272Y76980D01*
X56255Y76971D01*
X56238Y76960D01*
X56223Y76946D01*
X56209Y76931D01*
X56207Y76930D01*
X56203Y76924D01*
X56198Y76915D01*
X56192Y76903D01*
X56186Y76887D01*
X56181Y76869D01*
X56177Y76848D01*
X56176Y76825D01*
Y76818D01*
X56177Y76813D01*
Y76807D01*
X56178Y76799D01*
X56181Y76782D01*
X56185Y76762D01*
X56191Y76742D01*
X56200Y76721D01*
X56212Y76701D01*
Y76700D01*
X56214Y76699D01*
X56219Y76693D01*
X56226Y76685D01*
X56237Y76674D01*
X56251Y76662D01*
X56267Y76651D01*
X56286Y76641D01*
X56308Y76632D01*
X56308D01*
X56310Y76631D01*
X56313Y76630D01*
X56318Y76629D01*
X56323Y76627D01*
X56330Y76625D01*
X56345Y76623D01*
X56364Y76619D01*
X56384Y76615D01*
X56407Y76613D01*
X56431Y76612D01*
X56431D01*
X56434D01*
X56439D01*
X56444D01*
X56451Y76613D01*
X56459D01*
X56468Y76614D01*
X56479Y76615D01*
X56501Y76618D01*
X56525Y76623D01*
X56549Y76628D01*
X56573Y76636D01*
X56574D01*
X56576Y76636D01*
X56578Y76638D01*
X56583Y76640D01*
X56594Y76646D01*
X56607Y76654D01*
X56622Y76664D01*
X56638Y76677D01*
X56652Y76692D01*
X56664Y76710D01*
Y76710D01*
X56665Y76712D01*
X56667Y76715D01*
X56669Y76719D01*
X56671Y76723D01*
X56674Y76729D01*
X56679Y76742D01*
X56685Y76758D01*
X56689Y76777D01*
X56693Y76797D01*
X56694Y76819D01*
Y76825D01*
X56693Y76831D01*
Y76837D01*
X56692Y76844D01*
X56688Y76860D01*
X56684Y76880D01*
X56676Y76899D01*
X56666Y76919D01*
X56661Y76930D01*
X56653Y76939D01*
X56652Y76940D01*
X56652Y76941D01*
X56649Y76943D01*
X56646Y76947D01*
X56641Y76951D01*
X56636Y76955D01*
X56630Y76961D01*
X56623Y76966D01*
X56615Y76971D01*
X56605Y76978D01*
X56596Y76983D01*
X56585Y76989D01*
X56573Y76993D01*
X56560Y76998D01*
X56546Y77003D01*
X56531Y77006D01*
X56553Y77091D01*
X56554D01*
X56557Y77090D01*
D02*
G37*
G36*
X56594Y76432D02*
X56607Y76430D01*
X56622Y76427D01*
X56638Y76422D01*
X56654Y76415D01*
X56672Y76404D01*
X56673D01*
X56674Y76403D01*
X56679Y76399D01*
X56688Y76392D01*
X56697Y76383D01*
X56708Y76371D01*
X56720Y76356D01*
X56731Y76340D01*
X56741Y76320D01*
Y76319D01*
X56742Y76317D01*
X56743Y76315D01*
X56745Y76311D01*
X56747Y76305D01*
X56750Y76299D01*
X56753Y76284D01*
X56758Y76267D01*
X56762Y76245D01*
X56765Y76222D01*
X56766Y76197D01*
Y76183D01*
X56765Y76175D01*
Y76167D01*
X56764Y76158D01*
X56763Y76146D01*
X56760Y76123D01*
X56756Y76099D01*
X56750Y76075D01*
X56741Y76052D01*
Y76051D01*
X56740Y76049D01*
X56738Y76047D01*
X56737Y76043D01*
X56731Y76032D01*
X56723Y76019D01*
X56712Y76004D01*
X56699Y75988D01*
X56683Y75974D01*
X56665Y75960D01*
X56664D01*
X56663Y75958D01*
X56660Y75957D01*
X56656Y75954D01*
X56652Y75952D01*
X56646Y75950D01*
X56632Y75943D01*
X56615Y75937D01*
X56595Y75931D01*
X56573Y75927D01*
X56550Y75925D01*
X56542Y76005D01*
X56543D01*
X56544D01*
X56547Y76006D01*
X56551D01*
X56559Y76008D01*
X56571Y76011D01*
X56583Y76014D01*
X56597Y76018D01*
X56610Y76024D01*
X56622Y76031D01*
X56623Y76032D01*
X56627Y76035D01*
X56633Y76039D01*
X56639Y76047D01*
X56648Y76056D01*
X56656Y76066D01*
X56664Y76080D01*
X56672Y76095D01*
Y76096D01*
X56673Y76097D01*
X56674Y76099D01*
X56675Y76102D01*
X56677Y76111D01*
X56681Y76123D01*
X56685Y76138D01*
X56688Y76155D01*
X56689Y76173D01*
X56690Y76194D01*
Y76202D01*
X56689Y76211D01*
X56688Y76222D01*
X56687Y76235D01*
X56685Y76250D01*
X56681Y76265D01*
X56676Y76279D01*
X56676Y76281D01*
X56674Y76285D01*
X56670Y76292D01*
X56666Y76300D01*
X56660Y76308D01*
X56653Y76317D01*
X56646Y76327D01*
X56637Y76334D01*
X56636Y76335D01*
X56632Y76337D01*
X56627Y76340D01*
X56620Y76343D01*
X56613Y76347D01*
X56603Y76350D01*
X56593Y76352D01*
X56582Y76353D01*
X56581D01*
X56577D01*
X56571Y76352D01*
X56564Y76351D01*
X56556Y76348D01*
X56547Y76345D01*
X56538Y76341D01*
X56529Y76334D01*
X56529Y76333D01*
X56526Y76330D01*
X56522Y76327D01*
X56517Y76320D01*
X56511Y76313D01*
X56505Y76303D01*
X56498Y76291D01*
X56492Y76277D01*
X56492Y76276D01*
X56491Y76271D01*
X56488Y76264D01*
X56487Y76259D01*
X56485Y76253D01*
X56482Y76246D01*
X56480Y76238D01*
X56478Y76229D01*
X56475Y76218D01*
X56472Y76207D01*
X56468Y76194D01*
X56465Y76179D01*
X56461Y76163D01*
Y76162D01*
X56460Y76159D01*
X56459Y76155D01*
X56457Y76149D01*
X56456Y76142D01*
X56454Y76133D01*
X56448Y76115D01*
X56442Y76095D01*
X56435Y76073D01*
X56429Y76055D01*
X56425Y76047D01*
X56421Y76039D01*
Y76038D01*
X56420Y76037D01*
X56417Y76032D01*
X56412Y76023D01*
X56405Y76014D01*
X56396Y76003D01*
X56386Y75992D01*
X56374Y75981D01*
X56361Y75972D01*
X56359Y75971D01*
X56355Y75968D01*
X56347Y75964D01*
X56338Y75961D01*
X56326Y75957D01*
X56312Y75953D01*
X56297Y75950D01*
X56282Y75950D01*
X56281D01*
X56280D01*
X56277D01*
X56273D01*
X56264Y75951D01*
X56252Y75953D01*
X56238Y75956D01*
X56223Y75961D01*
X56207Y75967D01*
X56191Y75976D01*
X56190D01*
X56189Y75977D01*
X56184Y75982D01*
X56176Y75988D01*
X56167Y75997D01*
X56157Y76008D01*
X56146Y76022D01*
X56136Y76038D01*
X56126Y76057D01*
Y76058D01*
X56125Y76060D01*
X56125Y76062D01*
X56123Y76066D01*
X56121Y76071D01*
X56119Y76077D01*
X56115Y76091D01*
X56112Y76109D01*
X56108Y76129D01*
X56105Y76150D01*
X56104Y76174D01*
Y76186D01*
X56105Y76193D01*
Y76199D01*
X56107Y76217D01*
X56110Y76236D01*
X56114Y76256D01*
X56120Y76279D01*
X56127Y76299D01*
Y76300D01*
X56128Y76302D01*
X56130Y76305D01*
X56132Y76308D01*
X56137Y76317D01*
X56145Y76329D01*
X56154Y76343D01*
X56166Y76357D01*
X56180Y76370D01*
X56196Y76382D01*
X56197D01*
X56198Y76383D01*
X56200Y76385D01*
X56203Y76387D01*
X56212Y76391D01*
X56224Y76397D01*
X56239Y76403D01*
X56257Y76408D01*
X56275Y76413D01*
X56296Y76415D01*
X56302Y76333D01*
X56301D01*
X56299D01*
X56296Y76332D01*
X56292Y76331D01*
X56282Y76329D01*
X56268Y76325D01*
X56253Y76319D01*
X56238Y76311D01*
X56224Y76301D01*
X56211Y76288D01*
X56210Y76286D01*
X56207Y76281D01*
X56201Y76272D01*
X56196Y76260D01*
X56190Y76244D01*
X56185Y76226D01*
X56181Y76203D01*
X56180Y76177D01*
Y76164D01*
X56181Y76158D01*
X56182Y76151D01*
X56184Y76134D01*
X56187Y76116D01*
X56192Y76097D01*
X56199Y76080D01*
X56204Y76072D01*
X56209Y76065D01*
X56210Y76063D01*
X56213Y76060D01*
X56220Y76054D01*
X56227Y76048D01*
X56237Y76042D01*
X56248Y76036D01*
X56261Y76033D01*
X56276Y76031D01*
X56278D01*
X56282D01*
X56288Y76032D01*
X56296Y76034D01*
X56305Y76036D01*
X56314Y76041D01*
X56323Y76047D01*
X56333Y76055D01*
X56333Y76056D01*
X56336Y76060D01*
X56339Y76064D01*
X56341Y76068D01*
X56344Y76073D01*
X56347Y76080D01*
X56350Y76088D01*
X56354Y76097D01*
X56357Y76108D01*
X56362Y76120D01*
X56366Y76133D01*
X56370Y76147D01*
X56374Y76164D01*
X56379Y76183D01*
Y76183D01*
X56380Y76187D01*
X56381Y76193D01*
X56382Y76199D01*
X56384Y76207D01*
X56387Y76218D01*
X56390Y76228D01*
X56393Y76239D01*
X56399Y76263D01*
X56406Y76286D01*
X56409Y76297D01*
X56413Y76307D01*
X56416Y76317D01*
X56419Y76324D01*
Y76325D01*
X56420Y76327D01*
X56422Y76329D01*
X56424Y76333D01*
X56430Y76343D01*
X56437Y76355D01*
X56447Y76369D01*
X56458Y76383D01*
X56471Y76396D01*
X56485Y76407D01*
X56487Y76408D01*
X56492Y76412D01*
X56500Y76415D01*
X56511Y76421D01*
X56524Y76426D01*
X56540Y76430D01*
X56557Y76433D01*
X56576Y76434D01*
X56577D01*
X56578D01*
X56580D01*
X56584D01*
X56594Y76432D01*
D02*
G37*
G36*
X64071Y62996D02*
X64078D01*
X64096Y62995D01*
X64116Y62992D01*
X64137Y62989D01*
X64160Y62985D01*
X64182Y62979D01*
X64183D01*
X64185Y62978D01*
X64187Y62977D01*
X64191Y62976D01*
X64201Y62973D01*
X64214Y62967D01*
X64229Y62962D01*
X64244Y62954D01*
X64259Y62945D01*
X64274Y62936D01*
X64276Y62935D01*
X64281Y62931D01*
X64287Y62925D01*
X64296Y62918D01*
X64305Y62910D01*
X64314Y62900D01*
X64324Y62889D01*
X64333Y62877D01*
X64333Y62876D01*
X64336Y62872D01*
X64340Y62865D01*
X64345Y62856D01*
X64350Y62845D01*
X64355Y62832D01*
X64360Y62817D01*
X64365Y62801D01*
Y62799D01*
X64366Y62796D01*
X64367Y62793D01*
X64368Y62784D01*
X64369Y62771D01*
X64371Y62756D01*
X64373Y62739D01*
X64374Y62719D01*
X64375Y62698D01*
Y62468D01*
X63735D01*
Y62714D01*
X63736Y62730D01*
X63737Y62749D01*
X63739Y62767D01*
X63742Y62786D01*
X63744Y62802D01*
Y62802D01*
X63745Y62804D01*
Y62807D01*
X63747Y62811D01*
X63750Y62821D01*
X63755Y62834D01*
X63761Y62849D01*
X63769Y62864D01*
X63779Y62880D01*
X63791Y62895D01*
X63792Y62896D01*
X63793Y62897D01*
X63795Y62900D01*
X63798Y62903D01*
X63807Y62913D01*
X63820Y62924D01*
X63836Y62936D01*
X63855Y62949D01*
X63876Y62961D01*
X63900Y62971D01*
X63901D01*
X63903Y62972D01*
X63906Y62974D01*
X63912Y62974D01*
X63918Y62977D01*
X63926Y62979D01*
X63934Y62981D01*
X63944Y62984D01*
X63954Y62986D01*
X63966Y62988D01*
X63992Y62993D01*
X64021Y62996D01*
X64052Y62997D01*
X64053D01*
X64055D01*
X64060D01*
X64064D01*
X64071Y62996D01*
D02*
G37*
G36*
X64375Y62238D02*
X63873Y61903D01*
X64375D01*
Y61822D01*
X63735D01*
Y61908D01*
X64238Y62244D01*
X63735D01*
Y62325D01*
X64375D01*
Y62238D01*
D02*
G37*
G36*
X64287Y61697D02*
X64288Y61695D01*
X64291Y61691D01*
X64295Y61687D01*
X64298Y61681D01*
X64303Y61675D01*
X64308Y61666D01*
X64314Y61658D01*
X64326Y61638D01*
X64339Y61616D01*
X64351Y61593D01*
X64361Y61568D01*
Y61567D01*
X64362Y61565D01*
X64363Y61562D01*
X64365Y61557D01*
X64367Y61551D01*
X64369Y61543D01*
X64371Y61535D01*
X64373Y61527D01*
X64378Y61506D01*
X64382Y61483D01*
X64385Y61458D01*
X64386Y61432D01*
Y61423D01*
X64385Y61417D01*
Y61408D01*
X64384Y61398D01*
X64382Y61387D01*
X64382Y61375D01*
X64376Y61348D01*
X64369Y61319D01*
X64359Y61290D01*
X64354Y61275D01*
X64346Y61260D01*
X64345Y61259D01*
X64345Y61257D01*
X64342Y61253D01*
X64339Y61247D01*
X64334Y61241D01*
X64330Y61234D01*
X64317Y61217D01*
X64300Y61198D01*
X64280Y61179D01*
X64257Y61160D01*
X64230Y61144D01*
X64229D01*
X64226Y61142D01*
X64222Y61140D01*
X64216Y61137D01*
X64210Y61135D01*
X64200Y61132D01*
X64191Y61128D01*
X64180Y61124D01*
X64168Y61121D01*
X64154Y61117D01*
X64140Y61114D01*
X64125Y61111D01*
X64093Y61107D01*
X64059Y61105D01*
X64058D01*
X64054D01*
X64050D01*
X64043Y61106D01*
X64035D01*
X64025Y61107D01*
X64014Y61109D01*
X64002Y61110D01*
X63989Y61112D01*
X63976Y61114D01*
X63946Y61122D01*
X63916Y61131D01*
X63885Y61144D01*
X63884Y61145D01*
X63881Y61146D01*
X63878Y61148D01*
X63872Y61151D01*
X63865Y61155D01*
X63857Y61160D01*
X63840Y61172D01*
X63819Y61188D01*
X63800Y61208D01*
X63781Y61230D01*
X63772Y61243D01*
X63764Y61256D01*
X63763Y61257D01*
X63762Y61259D01*
X63760Y61263D01*
X63757Y61269D01*
X63755Y61276D01*
X63751Y61284D01*
X63747Y61294D01*
X63744Y61305D01*
X63740Y61317D01*
X63737Y61330D01*
X63733Y61344D01*
X63731Y61358D01*
X63726Y61391D01*
X63724Y61407D01*
Y61437D01*
X63725Y61442D01*
Y61450D01*
X63727Y61467D01*
X63730Y61487D01*
X63734Y61507D01*
X63740Y61529D01*
X63747Y61551D01*
Y61552D01*
X63748Y61553D01*
X63749Y61556D01*
X63751Y61560D01*
X63757Y61570D01*
X63763Y61583D01*
X63772Y61597D01*
X63783Y61612D01*
X63795Y61626D01*
X63810Y61638D01*
X63812Y61640D01*
X63818Y61644D01*
X63826Y61650D01*
X63838Y61657D01*
X63853Y61664D01*
X63871Y61673D01*
X63891Y61681D01*
X63915Y61687D01*
X63935Y61611D01*
X63934D01*
X63933Y61610D01*
X63930Y61609D01*
X63927Y61608D01*
X63918Y61605D01*
X63907Y61601D01*
X63894Y61596D01*
X63882Y61589D01*
X63869Y61583D01*
X63858Y61575D01*
X63857Y61574D01*
X63854Y61571D01*
X63849Y61565D01*
X63842Y61559D01*
X63835Y61551D01*
X63828Y61540D01*
X63820Y61528D01*
X63814Y61514D01*
X63813Y61512D01*
X63811Y61507D01*
X63808Y61499D01*
X63805Y61488D01*
X63802Y61475D01*
X63799Y61460D01*
X63797Y61443D01*
X63796Y61426D01*
Y61416D01*
X63797Y61411D01*
Y61405D01*
X63798Y61392D01*
X63801Y61376D01*
X63804Y61358D01*
X63808Y61342D01*
X63815Y61325D01*
X63816Y61323D01*
X63818Y61318D01*
X63822Y61310D01*
X63827Y61301D01*
X63834Y61290D01*
X63842Y61278D01*
X63851Y61267D01*
X63861Y61257D01*
X63862Y61256D01*
X63866Y61252D01*
X63872Y61247D01*
X63879Y61242D01*
X63889Y61235D01*
X63900Y61229D01*
X63912Y61222D01*
X63925Y61216D01*
X63926D01*
X63928Y61215D01*
X63930Y61214D01*
X63935Y61212D01*
X63940Y61210D01*
X63947Y61209D01*
X63954Y61206D01*
X63963Y61204D01*
X63982Y61199D01*
X64004Y61196D01*
X64027Y61193D01*
X64053Y61192D01*
X64054D01*
X64057D01*
X64062D01*
X64067Y61193D01*
X64075D01*
X64084Y61194D01*
X64093Y61195D01*
X64103Y61196D01*
X64126Y61199D01*
X64150Y61204D01*
X64174Y61211D01*
X64198Y61221D01*
X64198D01*
X64200Y61222D01*
X64203Y61223D01*
X64207Y61226D01*
X64217Y61233D01*
X64230Y61243D01*
X64244Y61255D01*
X64258Y61270D01*
X64271Y61287D01*
X64283Y61307D01*
Y61307D01*
X64284Y61309D01*
X64285Y61312D01*
X64287Y61317D01*
X64289Y61321D01*
X64291Y61328D01*
X64296Y61343D01*
X64301Y61361D01*
X64306Y61381D01*
X64309Y61404D01*
X64310Y61427D01*
Y61436D01*
X64309Y61442D01*
Y61447D01*
X64308Y61461D01*
X64306Y61478D01*
X64302Y61495D01*
X64296Y61515D01*
X64290Y61534D01*
Y61535D01*
X64289Y61537D01*
X64288Y61539D01*
X64286Y61542D01*
X64282Y61552D01*
X64276Y61564D01*
X64270Y61577D01*
X64262Y61590D01*
X64254Y61603D01*
X64245Y61614D01*
X64124D01*
Y61426D01*
X64049D01*
Y61698D01*
X64286D01*
X64287Y61697D01*
D02*
G37*
G36*
X61835Y63161D02*
Y63072D01*
X61195Y62825D01*
Y62917D01*
X61660Y63084D01*
X61661D01*
X61663Y63084D01*
X61666Y63085D01*
X61670Y63087D01*
X61675Y63088D01*
X61681Y63090D01*
X61694Y63095D01*
X61710Y63100D01*
X61728Y63106D01*
X61765Y63117D01*
X61764D01*
X61762Y63118D01*
X61759Y63119D01*
X61756Y63120D01*
X61745Y63122D01*
X61731Y63127D01*
X61716Y63132D01*
X61698Y63137D01*
X61680Y63144D01*
X61660Y63151D01*
X61195Y63325D01*
Y63411D01*
X61835Y63161D01*
D02*
G37*
G36*
X61660Y62780D02*
X61668Y62779D01*
X61676Y62778D01*
X61685Y62776D01*
X61695Y62774D01*
X61718Y62766D01*
X61730Y62761D01*
X61741Y62755D01*
X61753Y62748D01*
X61765Y62740D01*
X61777Y62730D01*
X61788Y62719D01*
X61789Y62718D01*
X61791Y62716D01*
X61793Y62713D01*
X61797Y62708D01*
X61802Y62703D01*
X61806Y62695D01*
X61812Y62687D01*
X61817Y62677D01*
X61822Y62667D01*
X61828Y62655D01*
X61832Y62643D01*
X61837Y62629D01*
X61841Y62614D01*
X61843Y62598D01*
X61845Y62582D01*
X61846Y62565D01*
Y62557D01*
X61845Y62551D01*
X61844Y62544D01*
X61843Y62535D01*
X61842Y62526D01*
X61840Y62516D01*
X61834Y62494D01*
X61825Y62471D01*
X61819Y62459D01*
X61813Y62447D01*
X61805Y62436D01*
X61796Y62425D01*
X61795Y62424D01*
X61793Y62422D01*
X61791Y62420D01*
X61787Y62417D01*
X61782Y62412D01*
X61776Y62408D01*
X61769Y62402D01*
X61761Y62397D01*
X61752Y62391D01*
X61743Y62386D01*
X61720Y62375D01*
X61694Y62367D01*
X61681Y62364D01*
X61666Y62362D01*
X61656Y62441D01*
X61657D01*
X61658Y62442D01*
X61662Y62443D01*
X61667Y62444D01*
X61672Y62445D01*
X61679Y62447D01*
X61693Y62451D01*
X61709Y62458D01*
X61725Y62466D01*
X61740Y62475D01*
X61753Y62486D01*
X61754Y62488D01*
X61757Y62492D01*
X61762Y62499D01*
X61767Y62508D01*
X61772Y62520D01*
X61777Y62533D01*
X61780Y62549D01*
X61781Y62566D01*
Y62571D01*
X61780Y62575D01*
X61780Y62585D01*
X61777Y62598D01*
X61772Y62613D01*
X61766Y62629D01*
X61756Y62644D01*
X61743Y62659D01*
X61742Y62661D01*
X61736Y62666D01*
X61728Y62671D01*
X61717Y62679D01*
X61703Y62686D01*
X61687Y62692D01*
X61669Y62696D01*
X61648Y62698D01*
X61647D01*
X61646D01*
X61643D01*
X61639Y62697D01*
X61629Y62696D01*
X61617Y62693D01*
X61602Y62690D01*
X61587Y62683D01*
X61572Y62674D01*
X61559Y62662D01*
X61557Y62660D01*
X61553Y62655D01*
X61548Y62648D01*
X61541Y62638D01*
X61535Y62625D01*
X61529Y62609D01*
X61525Y62592D01*
X61523Y62572D01*
Y62564D01*
X61524Y62557D01*
X61525Y62549D01*
X61527Y62540D01*
X61529Y62529D01*
X61532Y62517D01*
X61462Y62526D01*
Y62531D01*
X61463Y62534D01*
Y62546D01*
X61462Y62557D01*
X61460Y62569D01*
X61457Y62582D01*
X61452Y62598D01*
X61446Y62613D01*
X61437Y62629D01*
Y62630D01*
X61437Y62631D01*
X61433Y62635D01*
X61426Y62642D01*
X61418Y62649D01*
X61406Y62656D01*
X61392Y62663D01*
X61376Y62667D01*
X61367Y62669D01*
X61357D01*
X61356D01*
X61355D01*
X61350D01*
X61342Y62667D01*
X61332Y62666D01*
X61321Y62662D01*
X61309Y62657D01*
X61297Y62650D01*
X61286Y62640D01*
X61285Y62639D01*
X61281Y62634D01*
X61277Y62628D01*
X61271Y62619D01*
X61266Y62608D01*
X61262Y62595D01*
X61258Y62581D01*
X61257Y62564D01*
Y62557D01*
X61259Y62548D01*
X61261Y62537D01*
X61265Y62525D01*
X61269Y62513D01*
X61277Y62500D01*
X61286Y62488D01*
X61287Y62487D01*
X61291Y62484D01*
X61298Y62478D01*
X61307Y62471D01*
X61319Y62465D01*
X61334Y62459D01*
X61351Y62453D01*
X61372Y62449D01*
X61358Y62371D01*
X61357D01*
X61354Y62372D01*
X61351Y62373D01*
X61345Y62373D01*
X61339Y62375D01*
X61331Y62378D01*
X61314Y62384D01*
X61293Y62393D01*
X61273Y62404D01*
X61253Y62418D01*
X61236Y62435D01*
X61235Y62436D01*
X61234Y62438D01*
X61232Y62441D01*
X61229Y62445D01*
X61226Y62449D01*
X61222Y62456D01*
X61218Y62462D01*
X61214Y62471D01*
X61206Y62489D01*
X61199Y62510D01*
X61194Y62535D01*
X61192Y62548D01*
Y62571D01*
X61193Y62582D01*
X61195Y62594D01*
X61198Y62608D01*
X61203Y62625D01*
X61208Y62642D01*
X61216Y62658D01*
Y62659D01*
X61216Y62660D01*
X61219Y62666D01*
X61225Y62674D01*
X61231Y62683D01*
X61241Y62694D01*
X61251Y62705D01*
X61263Y62716D01*
X61277Y62726D01*
X61278Y62727D01*
X61283Y62729D01*
X61291Y62733D01*
X61302Y62738D01*
X61314Y62742D01*
X61327Y62746D01*
X61343Y62749D01*
X61359Y62750D01*
X61361D01*
X61366D01*
X61374Y62749D01*
X61384Y62747D01*
X61396Y62744D01*
X61409Y62740D01*
X61422Y62734D01*
X61435Y62727D01*
X61437Y62726D01*
X61440Y62723D01*
X61447Y62717D01*
X61454Y62710D01*
X61462Y62701D01*
X61472Y62690D01*
X61480Y62677D01*
X61488Y62661D01*
Y62662D01*
X61489Y62664D01*
X61490Y62667D01*
X61491Y62670D01*
X61495Y62680D01*
X61500Y62693D01*
X61508Y62708D01*
X61517Y62723D01*
X61529Y62737D01*
X61543Y62750D01*
X61545Y62751D01*
X61550Y62754D01*
X61560Y62760D01*
X61572Y62765D01*
X61586Y62771D01*
X61604Y62777D01*
X61624Y62780D01*
X61646Y62781D01*
X61647D01*
X61650D01*
X61655D01*
X61660Y62780D01*
D02*
G37*
G36*
X61835Y62157D02*
X61745D01*
Y62247D01*
X61835D01*
Y62157D01*
D02*
G37*
G36*
X61660Y62034D02*
X61668Y62033D01*
X61676Y62031D01*
X61685Y62030D01*
X61695Y62028D01*
X61718Y62020D01*
X61730Y62015D01*
X61741Y62009D01*
X61753Y62002D01*
X61765Y61993D01*
X61777Y61984D01*
X61788Y61973D01*
X61789Y61972D01*
X61791Y61970D01*
X61793Y61967D01*
X61797Y61962D01*
X61802Y61957D01*
X61806Y61949D01*
X61812Y61941D01*
X61817Y61931D01*
X61822Y61920D01*
X61828Y61908D01*
X61832Y61896D01*
X61837Y61883D01*
X61841Y61868D01*
X61843Y61852D01*
X61845Y61836D01*
X61846Y61819D01*
Y61810D01*
X61845Y61805D01*
X61844Y61797D01*
X61843Y61789D01*
X61842Y61780D01*
X61840Y61770D01*
X61834Y61748D01*
X61825Y61724D01*
X61819Y61712D01*
X61813Y61701D01*
X61805Y61690D01*
X61796Y61679D01*
X61795Y61678D01*
X61793Y61676D01*
X61791Y61674D01*
X61787Y61671D01*
X61782Y61666D01*
X61776Y61662D01*
X61769Y61656D01*
X61761Y61650D01*
X61752Y61645D01*
X61743Y61639D01*
X61720Y61629D01*
X61694Y61621D01*
X61681Y61618D01*
X61666Y61616D01*
X61656Y61695D01*
X61657D01*
X61658Y61696D01*
X61662Y61697D01*
X61667Y61698D01*
X61672Y61699D01*
X61679Y61700D01*
X61693Y61705D01*
X61709Y61711D01*
X61725Y61720D01*
X61740Y61729D01*
X61753Y61740D01*
X61754Y61742D01*
X61757Y61746D01*
X61762Y61753D01*
X61767Y61762D01*
X61772Y61773D01*
X61777Y61787D01*
X61780Y61803D01*
X61781Y61820D01*
Y61825D01*
X61780Y61829D01*
X61780Y61839D01*
X61777Y61852D01*
X61772Y61867D01*
X61766Y61883D01*
X61756Y61898D01*
X61743Y61913D01*
X61742Y61915D01*
X61736Y61920D01*
X61728Y61925D01*
X61717Y61932D01*
X61703Y61940D01*
X61687Y61945D01*
X61669Y61950D01*
X61648Y61952D01*
X61647D01*
X61646D01*
X61643D01*
X61639Y61951D01*
X61629Y61950D01*
X61617Y61947D01*
X61602Y61944D01*
X61587Y61937D01*
X61572Y61928D01*
X61559Y61916D01*
X61557Y61914D01*
X61553Y61909D01*
X61548Y61902D01*
X61541Y61892D01*
X61535Y61879D01*
X61529Y61863D01*
X61525Y61846D01*
X61523Y61826D01*
Y61818D01*
X61524Y61811D01*
X61525Y61803D01*
X61527Y61794D01*
X61529Y61783D01*
X61532Y61771D01*
X61462Y61780D01*
Y61785D01*
X61463Y61788D01*
Y61800D01*
X61462Y61810D01*
X61460Y61822D01*
X61457Y61836D01*
X61452Y61852D01*
X61446Y61867D01*
X61437Y61883D01*
Y61883D01*
X61437Y61884D01*
X61433Y61889D01*
X61426Y61895D01*
X61418Y61903D01*
X61406Y61910D01*
X61392Y61917D01*
X61376Y61921D01*
X61367Y61923D01*
X61357D01*
X61356D01*
X61355D01*
X61350D01*
X61342Y61921D01*
X61332Y61920D01*
X61321Y61916D01*
X61309Y61911D01*
X61297Y61904D01*
X61286Y61894D01*
X61285Y61893D01*
X61281Y61888D01*
X61277Y61882D01*
X61271Y61873D01*
X61266Y61862D01*
X61262Y61849D01*
X61258Y61834D01*
X61257Y61818D01*
Y61810D01*
X61259Y61802D01*
X61261Y61791D01*
X61265Y61779D01*
X61269Y61767D01*
X61277Y61754D01*
X61286Y61742D01*
X61287Y61741D01*
X61291Y61737D01*
X61298Y61732D01*
X61307Y61725D01*
X61319Y61719D01*
X61334Y61712D01*
X61351Y61707D01*
X61372Y61703D01*
X61358Y61625D01*
X61357D01*
X61354Y61626D01*
X61351Y61626D01*
X61345Y61627D01*
X61339Y61629D01*
X61331Y61632D01*
X61314Y61638D01*
X61293Y61647D01*
X61273Y61658D01*
X61253Y61672D01*
X61236Y61689D01*
X61235Y61690D01*
X61234Y61692D01*
X61232Y61695D01*
X61229Y61699D01*
X61226Y61703D01*
X61222Y61710D01*
X61218Y61716D01*
X61214Y61724D01*
X61206Y61743D01*
X61199Y61764D01*
X61194Y61789D01*
X61192Y61802D01*
Y61825D01*
X61193Y61835D01*
X61195Y61847D01*
X61198Y61862D01*
X61203Y61879D01*
X61208Y61895D01*
X61216Y61912D01*
Y61913D01*
X61216Y61914D01*
X61219Y61920D01*
X61225Y61928D01*
X61231Y61937D01*
X61241Y61948D01*
X61251Y61959D01*
X61263Y61970D01*
X61277Y61980D01*
X61278Y61981D01*
X61283Y61983D01*
X61291Y61987D01*
X61302Y61992D01*
X61314Y61996D01*
X61327Y62000D01*
X61343Y62003D01*
X61359Y62004D01*
X61361D01*
X61366D01*
X61374Y62003D01*
X61384Y62001D01*
X61396Y61998D01*
X61409Y61993D01*
X61422Y61988D01*
X61435Y61981D01*
X61437Y61980D01*
X61440Y61977D01*
X61447Y61971D01*
X61454Y61964D01*
X61462Y61955D01*
X61472Y61944D01*
X61480Y61931D01*
X61488Y61915D01*
Y61916D01*
X61489Y61918D01*
X61490Y61920D01*
X61491Y61924D01*
X61495Y61934D01*
X61500Y61947D01*
X61508Y61962D01*
X61517Y61977D01*
X61529Y61991D01*
X61543Y62004D01*
X61545Y62005D01*
X61550Y62008D01*
X61560Y62014D01*
X61572Y62019D01*
X61586Y62025D01*
X61604Y62030D01*
X61624Y62034D01*
X61646Y62035D01*
X61647D01*
X61650D01*
X61655D01*
X61660Y62034D01*
D02*
G37*
G36*
X61556Y61353D02*
X61731D01*
Y61279D01*
X61556D01*
Y61105D01*
X61483D01*
Y61279D01*
X61309D01*
Y61353D01*
X61483D01*
Y61527D01*
X61556D01*
Y61353D01*
D02*
G37*
G36*
X59295Y63158D02*
X58655D01*
Y63243D01*
X59295D01*
Y63158D01*
D02*
G37*
G36*
X59134Y63026D02*
X59147Y63024D01*
X59162Y63021D01*
X59178Y63016D01*
X59194Y63009D01*
X59212Y62998D01*
X59213D01*
X59214Y62998D01*
X59219Y62993D01*
X59228Y62986D01*
X59237Y62977D01*
X59248Y62965D01*
X59260Y62950D01*
X59271Y62934D01*
X59281Y62914D01*
Y62913D01*
X59282Y62912D01*
X59283Y62909D01*
X59285Y62905D01*
X59287Y62900D01*
X59289Y62893D01*
X59293Y62878D01*
X59298Y62861D01*
X59302Y62839D01*
X59305Y62816D01*
X59306Y62791D01*
Y62777D01*
X59305Y62769D01*
Y62761D01*
X59304Y62752D01*
X59303Y62741D01*
X59300Y62717D01*
X59296Y62693D01*
X59289Y62669D01*
X59281Y62646D01*
Y62645D01*
X59280Y62643D01*
X59278Y62641D01*
X59277Y62637D01*
X59271Y62626D01*
X59263Y62613D01*
X59252Y62598D01*
X59239Y62582D01*
X59223Y62568D01*
X59205Y62554D01*
X59204D01*
X59203Y62552D01*
X59200Y62551D01*
X59196Y62548D01*
X59191Y62546D01*
X59186Y62544D01*
X59172Y62537D01*
X59154Y62531D01*
X59135Y62525D01*
X59113Y62521D01*
X59090Y62520D01*
X59082Y62599D01*
X59083D01*
X59084D01*
X59087Y62600D01*
X59091D01*
X59099Y62602D01*
X59111Y62605D01*
X59123Y62608D01*
X59137Y62612D01*
X59150Y62618D01*
X59162Y62625D01*
X59163Y62626D01*
X59167Y62629D01*
X59173Y62633D01*
X59179Y62641D01*
X59188Y62650D01*
X59196Y62660D01*
X59204Y62674D01*
X59212Y62689D01*
Y62690D01*
X59213Y62691D01*
X59214Y62693D01*
X59215Y62696D01*
X59217Y62705D01*
X59221Y62717D01*
X59225Y62732D01*
X59228Y62749D01*
X59229Y62767D01*
X59230Y62788D01*
Y62796D01*
X59229Y62805D01*
X59228Y62816D01*
X59227Y62829D01*
X59225Y62844D01*
X59221Y62859D01*
X59216Y62873D01*
X59216Y62875D01*
X59214Y62879D01*
X59210Y62886D01*
X59206Y62894D01*
X59200Y62902D01*
X59193Y62912D01*
X59186Y62921D01*
X59177Y62928D01*
X59176Y62929D01*
X59172Y62931D01*
X59167Y62934D01*
X59160Y62937D01*
X59153Y62941D01*
X59143Y62944D01*
X59133Y62946D01*
X59122Y62947D01*
X59121D01*
X59117D01*
X59111Y62946D01*
X59104Y62945D01*
X59096Y62942D01*
X59087Y62939D01*
X59078Y62935D01*
X59069Y62928D01*
X59069Y62927D01*
X59066Y62925D01*
X59062Y62921D01*
X59056Y62914D01*
X59051Y62907D01*
X59044Y62897D01*
X59038Y62885D01*
X59032Y62871D01*
X59032Y62870D01*
X59031Y62865D01*
X59028Y62858D01*
X59027Y62853D01*
X59025Y62847D01*
X59022Y62840D01*
X59020Y62832D01*
X59018Y62823D01*
X59015Y62812D01*
X59012Y62801D01*
X59008Y62788D01*
X59005Y62773D01*
X59001Y62757D01*
Y62756D01*
X59000Y62753D01*
X58999Y62749D01*
X58997Y62743D01*
X58995Y62736D01*
X58994Y62728D01*
X58988Y62709D01*
X58982Y62689D01*
X58975Y62667D01*
X58969Y62649D01*
X58965Y62641D01*
X58961Y62633D01*
Y62632D01*
X58960Y62631D01*
X58957Y62626D01*
X58952Y62618D01*
X58945Y62608D01*
X58936Y62597D01*
X58926Y62586D01*
X58914Y62575D01*
X58901Y62566D01*
X58899Y62565D01*
X58895Y62562D01*
X58887Y62558D01*
X58878Y62555D01*
X58866Y62551D01*
X58852Y62547D01*
X58837Y62545D01*
X58822Y62544D01*
X58821D01*
X58820D01*
X58817D01*
X58813D01*
X58804Y62545D01*
X58792Y62547D01*
X58778Y62550D01*
X58762Y62555D01*
X58747Y62561D01*
X58731Y62570D01*
X58730D01*
X58729Y62571D01*
X58724Y62576D01*
X58716Y62582D01*
X58707Y62591D01*
X58697Y62602D01*
X58686Y62616D01*
X58676Y62632D01*
X58666Y62651D01*
Y62652D01*
X58665Y62654D01*
X58664Y62656D01*
X58663Y62660D01*
X58661Y62665D01*
X58659Y62671D01*
X58655Y62685D01*
X58652Y62703D01*
X58648Y62723D01*
X58645Y62744D01*
X58644Y62768D01*
Y62780D01*
X58645Y62787D01*
Y62793D01*
X58647Y62811D01*
X58650Y62830D01*
X58654Y62851D01*
X58660Y62873D01*
X58667Y62893D01*
Y62894D01*
X58668Y62896D01*
X58670Y62899D01*
X58672Y62902D01*
X58676Y62912D01*
X58685Y62924D01*
X58694Y62937D01*
X58706Y62951D01*
X58720Y62964D01*
X58736Y62976D01*
X58737D01*
X58738Y62977D01*
X58740Y62979D01*
X58743Y62981D01*
X58752Y62986D01*
X58764Y62991D01*
X58779Y62998D01*
X58797Y63002D01*
X58815Y63007D01*
X58836Y63009D01*
X58842Y62927D01*
X58841D01*
X58839D01*
X58836Y62926D01*
X58832Y62925D01*
X58822Y62923D01*
X58808Y62919D01*
X58793Y62913D01*
X58778Y62905D01*
X58764Y62895D01*
X58751Y62882D01*
X58750Y62880D01*
X58747Y62876D01*
X58741Y62866D01*
X58736Y62854D01*
X58730Y62839D01*
X58725Y62820D01*
X58721Y62797D01*
X58720Y62771D01*
Y62758D01*
X58721Y62753D01*
X58722Y62745D01*
X58724Y62729D01*
X58727Y62710D01*
X58732Y62692D01*
X58739Y62674D01*
X58744Y62667D01*
X58749Y62659D01*
X58750Y62657D01*
X58753Y62654D01*
X58760Y62648D01*
X58767Y62643D01*
X58777Y62636D01*
X58788Y62631D01*
X58801Y62627D01*
X58816Y62625D01*
X58818D01*
X58822D01*
X58828Y62626D01*
X58836Y62628D01*
X58845Y62631D01*
X58854Y62635D01*
X58863Y62641D01*
X58873Y62649D01*
X58873Y62650D01*
X58876Y62655D01*
X58879Y62658D01*
X58881Y62662D01*
X58884Y62667D01*
X58887Y62674D01*
X58890Y62682D01*
X58894Y62692D01*
X58897Y62702D01*
X58902Y62714D01*
X58906Y62727D01*
X58910Y62741D01*
X58914Y62758D01*
X58919Y62777D01*
Y62778D01*
X58920Y62781D01*
X58921Y62787D01*
X58922Y62793D01*
X58924Y62802D01*
X58927Y62812D01*
X58930Y62822D01*
X58933Y62833D01*
X58939Y62857D01*
X58946Y62880D01*
X58949Y62891D01*
X58953Y62901D01*
X58956Y62911D01*
X58959Y62918D01*
Y62919D01*
X58960Y62921D01*
X58962Y62924D01*
X58964Y62927D01*
X58970Y62937D01*
X58977Y62949D01*
X58987Y62963D01*
X58998Y62977D01*
X59011Y62990D01*
X59025Y63001D01*
X59027Y63002D01*
X59032Y63006D01*
X59040Y63010D01*
X59051Y63015D01*
X59064Y63020D01*
X59080Y63024D01*
X59097Y63027D01*
X59116Y63028D01*
X59117D01*
X59118D01*
X59120D01*
X59124D01*
X59134Y63026D01*
D02*
G37*
G36*
X58994Y62438D02*
X59002D01*
X59012Y62437D01*
X59023Y62435D01*
X59035Y62435D01*
X59062Y62430D01*
X59092Y62422D01*
X59121Y62412D01*
X59136Y62407D01*
X59151Y62399D01*
X59152D01*
X59154Y62398D01*
X59158Y62396D01*
X59164Y62392D01*
X59170Y62388D01*
X59177Y62384D01*
X59194Y62371D01*
X59213Y62355D01*
X59232Y62336D01*
X59251Y62314D01*
X59267Y62288D01*
Y62287D01*
X59269Y62286D01*
X59271Y62281D01*
X59274Y62275D01*
X59277Y62269D01*
X59279Y62262D01*
X59283Y62252D01*
X59287Y62242D01*
X59290Y62231D01*
X59294Y62219D01*
X59300Y62192D01*
X59304Y62164D01*
X59306Y62133D01*
Y62124D01*
X59305Y62118D01*
Y62110D01*
X59303Y62101D01*
X59302Y62091D01*
X59301Y62079D01*
X59295Y62054D01*
X59288Y62027D01*
X59277Y61999D01*
X59270Y61985D01*
X59263Y61971D01*
X59262Y61970D01*
X59261Y61969D01*
X59258Y61965D01*
X59254Y61959D01*
X59251Y61954D01*
X59245Y61947D01*
X59231Y61932D01*
X59215Y61914D01*
X59194Y61895D01*
X59171Y61879D01*
X59144Y61863D01*
X59143D01*
X59141Y61861D01*
X59137Y61859D01*
X59131Y61858D01*
X59124Y61855D01*
X59116Y61852D01*
X59106Y61848D01*
X59096Y61846D01*
X59084Y61842D01*
X59072Y61838D01*
X59044Y61833D01*
X59016Y61829D01*
X58984Y61827D01*
X58983D01*
X58983D01*
X58977D01*
X58969Y61828D01*
X58958D01*
X58945Y61830D01*
X58929Y61832D01*
X58911Y61834D01*
X58893Y61838D01*
X58873Y61842D01*
X58853Y61847D01*
X58833Y61855D01*
X58811Y61863D01*
X58791Y61872D01*
X58771Y61884D01*
X58752Y61897D01*
X58735Y61912D01*
X58734Y61913D01*
X58731Y61916D01*
X58726Y61921D01*
X58721Y61928D01*
X58713Y61936D01*
X58706Y61946D01*
X58698Y61958D01*
X58689Y61972D01*
X58681Y61987D01*
X58673Y62004D01*
X58665Y62022D01*
X58658Y62042D01*
X58652Y62063D01*
X58648Y62085D01*
X58645Y62108D01*
X58644Y62133D01*
Y62141D01*
X58645Y62148D01*
Y62156D01*
X58646Y62165D01*
X58648Y62176D01*
X58650Y62187D01*
X58654Y62211D01*
X58662Y62238D01*
X58673Y62265D01*
X58679Y62279D01*
X58687Y62293D01*
X58688Y62294D01*
X58689Y62296D01*
X58691Y62300D01*
X58694Y62305D01*
X58699Y62311D01*
X58704Y62318D01*
X58717Y62334D01*
X58734Y62350D01*
X58754Y62369D01*
X58778Y62386D01*
X58805Y62401D01*
X58806D01*
X58809Y62403D01*
X58812Y62405D01*
X58818Y62407D01*
X58825Y62410D01*
X58834Y62413D01*
X58844Y62417D01*
X58855Y62421D01*
X58867Y62423D01*
X58880Y62427D01*
X58895Y62431D01*
X58909Y62434D01*
X58942Y62437D01*
X58977Y62439D01*
X58978D01*
X58982D01*
X58986D01*
X58994Y62438D01*
D02*
G37*
G36*
X59295Y61634D02*
X58760D01*
X59295Y61447D01*
Y61371D01*
X58750Y61186D01*
X59295D01*
Y61105D01*
X58655D01*
Y61232D01*
X59109Y61383D01*
X59110D01*
X59112Y61384D01*
X59115Y61385D01*
X59119Y61387D01*
X59130Y61391D01*
X59144Y61395D01*
X59160Y61400D01*
X59176Y61405D01*
X59191Y61410D01*
X59203Y61414D01*
X59202Y61415D01*
X59197Y61416D01*
X59189Y61418D01*
X59178Y61422D01*
X59163Y61427D01*
X59145Y61433D01*
X59125Y61440D01*
X59101Y61448D01*
X58655Y61601D01*
Y61715D01*
X59295D01*
Y61634D01*
D02*
G37*
G36*
X54215Y62789D02*
X53892Y62561D01*
X53993Y62457D01*
X54215D01*
Y62372D01*
X53575D01*
Y62457D01*
X53893D01*
X53575Y62773D01*
Y62888D01*
X53835Y62620D01*
X54215Y62900D01*
Y62789D01*
D02*
G37*
G36*
X54017Y62270D02*
X54023Y62268D01*
X54030Y62265D01*
X54038Y62263D01*
X54049Y62259D01*
X54060Y62254D01*
X54072Y62249D01*
X54098Y62236D01*
X54124Y62219D01*
X54136Y62209D01*
X54149Y62199D01*
X54161Y62188D01*
X54172Y62175D01*
X54173Y62174D01*
X54174Y62172D01*
X54176Y62167D01*
X54180Y62163D01*
X54185Y62155D01*
X54189Y62148D01*
X54194Y62138D01*
X54198Y62128D01*
X54204Y62116D01*
X54209Y62103D01*
X54213Y62089D01*
X54218Y62074D01*
X54222Y62058D01*
X54223Y62042D01*
X54225Y62024D01*
X54226Y62006D01*
Y61995D01*
X54225Y61988D01*
Y61980D01*
X54224Y61969D01*
X54222Y61958D01*
X54221Y61945D01*
X54216Y61919D01*
X54209Y61891D01*
X54198Y61863D01*
X54192Y61850D01*
X54185Y61837D01*
X54184Y61836D01*
X54183Y61834D01*
X54180Y61831D01*
X54176Y61827D01*
X54173Y61822D01*
X54167Y61815D01*
X54161Y61808D01*
X54153Y61800D01*
X54145Y61793D01*
X54136Y61785D01*
X54115Y61768D01*
X54090Y61752D01*
X54063Y61738D01*
X54062D01*
X54059Y61736D01*
X54054Y61736D01*
X54049Y61733D01*
X54041Y61731D01*
X54032Y61728D01*
X54022Y61724D01*
X54011Y61722D01*
X53999Y61719D01*
X53985Y61715D01*
X53956Y61711D01*
X53924Y61707D01*
X53891Y61705D01*
X53890D01*
X53886D01*
X53880D01*
X53874Y61706D01*
X53865D01*
X53855Y61707D01*
X53843Y61708D01*
X53831Y61710D01*
X53805Y61714D01*
X53775Y61721D01*
X53745Y61730D01*
X53717Y61743D01*
X53716Y61744D01*
X53713Y61745D01*
X53709Y61747D01*
X53705Y61750D01*
X53698Y61754D01*
X53691Y61759D01*
X53674Y61771D01*
X53656Y61786D01*
X53637Y61805D01*
X53619Y61826D01*
X53603Y61851D01*
X53602Y61852D01*
X53601Y61855D01*
X53599Y61859D01*
X53597Y61863D01*
X53594Y61871D01*
X53591Y61878D01*
X53587Y61887D01*
X53584Y61897D01*
X53580Y61908D01*
X53576Y61920D01*
X53571Y61946D01*
X53566Y61976D01*
X53564Y62006D01*
Y62016D01*
X53565Y62022D01*
X53566Y62030D01*
X53567Y62041D01*
X53568Y62051D01*
X53571Y62063D01*
X53576Y62088D01*
X53585Y62116D01*
X53590Y62129D01*
X53597Y62142D01*
X53605Y62155D01*
X53613Y62168D01*
X53614Y62169D01*
X53615Y62171D01*
X53618Y62175D01*
X53622Y62179D01*
X53627Y62184D01*
X53634Y62190D01*
X53641Y62197D01*
X53648Y62204D01*
X53658Y62212D01*
X53669Y62219D01*
X53680Y62227D01*
X53692Y62235D01*
X53706Y62241D01*
X53720Y62249D01*
X53734Y62254D01*
X53751Y62260D01*
X53770Y62177D01*
X53769D01*
X53768Y62176D01*
X53764Y62174D01*
X53759Y62172D01*
X53754Y62170D01*
X53746Y62167D01*
X53732Y62160D01*
X53715Y62151D01*
X53698Y62140D01*
X53683Y62126D01*
X53669Y62111D01*
X53667Y62109D01*
X53663Y62104D01*
X53658Y62094D01*
X53652Y62082D01*
X53646Y62067D01*
X53641Y62049D01*
X53637Y62028D01*
X53636Y62005D01*
Y61997D01*
X53637Y61993D01*
Y61986D01*
X53638Y61979D01*
X53641Y61961D01*
X53645Y61942D01*
X53651Y61921D01*
X53660Y61900D01*
X53672Y61881D01*
Y61880D01*
X53674Y61879D01*
X53679Y61872D01*
X53686Y61864D01*
X53697Y61854D01*
X53711Y61842D01*
X53727Y61831D01*
X53746Y61821D01*
X53768Y61811D01*
X53769D01*
X53770Y61810D01*
X53773Y61810D01*
X53778Y61809D01*
X53783Y61807D01*
X53790Y61805D01*
X53805Y61802D01*
X53824Y61798D01*
X53844Y61795D01*
X53867Y61793D01*
X53891Y61792D01*
X53891D01*
X53894D01*
X53899D01*
X53904D01*
X53911Y61793D01*
X53919D01*
X53928Y61794D01*
X53939Y61795D01*
X53961Y61797D01*
X53985Y61802D01*
X54009Y61808D01*
X54033Y61815D01*
X54034D01*
X54036Y61816D01*
X54038Y61818D01*
X54043Y61820D01*
X54054Y61825D01*
X54067Y61834D01*
X54082Y61844D01*
X54098Y61857D01*
X54112Y61871D01*
X54124Y61889D01*
Y61890D01*
X54125Y61892D01*
X54127Y61895D01*
X54129Y61898D01*
X54131Y61903D01*
X54134Y61908D01*
X54139Y61921D01*
X54145Y61938D01*
X54149Y61957D01*
X54153Y61977D01*
X54154Y61998D01*
Y62005D01*
X54153Y62010D01*
Y62017D01*
X54152Y62023D01*
X54148Y62040D01*
X54144Y62059D01*
X54136Y62079D01*
X54126Y62099D01*
X54121Y62109D01*
X54113Y62118D01*
X54112Y62119D01*
X54112Y62120D01*
X54109Y62123D01*
X54106Y62127D01*
X54101Y62130D01*
X54096Y62135D01*
X54090Y62140D01*
X54083Y62145D01*
X54075Y62151D01*
X54065Y62157D01*
X54056Y62163D01*
X54045Y62168D01*
X54033Y62173D01*
X54020Y62177D01*
X54006Y62182D01*
X53991Y62186D01*
X54013Y62271D01*
X54014D01*
X54017Y62270D01*
D02*
G37*
G36*
X54054Y61612D02*
X54067Y61610D01*
X54082Y61606D01*
X54098Y61601D01*
X54114Y61594D01*
X54132Y61584D01*
X54133D01*
X54134Y61583D01*
X54139Y61578D01*
X54148Y61572D01*
X54157Y61563D01*
X54168Y61551D01*
X54180Y61536D01*
X54191Y61519D01*
X54201Y61500D01*
Y61499D01*
X54202Y61497D01*
X54203Y61494D01*
X54205Y61491D01*
X54207Y61485D01*
X54210Y61479D01*
X54213Y61464D01*
X54218Y61446D01*
X54222Y61425D01*
X54225Y61402D01*
X54226Y61377D01*
Y61362D01*
X54225Y61355D01*
Y61346D01*
X54224Y61337D01*
X54223Y61326D01*
X54220Y61303D01*
X54216Y61279D01*
X54210Y61255D01*
X54201Y61232D01*
Y61231D01*
X54200Y61229D01*
X54198Y61226D01*
X54197Y61222D01*
X54191Y61211D01*
X54183Y61198D01*
X54172Y61184D01*
X54159Y61168D01*
X54143Y61153D01*
X54125Y61139D01*
X54124D01*
X54123Y61137D01*
X54120Y61136D01*
X54116Y61134D01*
X54112Y61132D01*
X54106Y61129D01*
X54092Y61123D01*
X54075Y61116D01*
X54055Y61111D01*
X54033Y61107D01*
X54010Y61105D01*
X54002Y61185D01*
X54003D01*
X54004D01*
X54007Y61185D01*
X54011D01*
X54019Y61187D01*
X54031Y61190D01*
X54043Y61194D01*
X54057Y61197D01*
X54070Y61204D01*
X54082Y61210D01*
X54083Y61211D01*
X54087Y61214D01*
X54093Y61219D01*
X54099Y61226D01*
X54108Y61235D01*
X54116Y61246D01*
X54124Y61259D01*
X54132Y61274D01*
Y61275D01*
X54133Y61276D01*
X54134Y61279D01*
X54135Y61282D01*
X54137Y61291D01*
X54141Y61303D01*
X54145Y61318D01*
X54148Y61334D01*
X54149Y61353D01*
X54150Y61373D01*
Y61381D01*
X54149Y61391D01*
X54148Y61402D01*
X54147Y61415D01*
X54145Y61430D01*
X54141Y61444D01*
X54136Y61458D01*
X54136Y61460D01*
X54134Y61465D01*
X54130Y61471D01*
X54126Y61479D01*
X54120Y61488D01*
X54113Y61497D01*
X54106Y61506D01*
X54097Y61514D01*
X54096Y61515D01*
X54092Y61516D01*
X54087Y61519D01*
X54080Y61523D01*
X54073Y61527D01*
X54063Y61529D01*
X54053Y61531D01*
X54042Y61532D01*
X54041D01*
X54037D01*
X54031Y61531D01*
X54024Y61530D01*
X54016Y61528D01*
X54007Y61525D01*
X53998Y61520D01*
X53989Y61514D01*
X53989Y61513D01*
X53986Y61510D01*
X53982Y61506D01*
X53977Y61500D01*
X53971Y61492D01*
X53965Y61482D01*
X53958Y61470D01*
X53952Y61456D01*
X53952Y61455D01*
X53951Y61451D01*
X53948Y61443D01*
X53947Y61439D01*
X53945Y61432D01*
X53942Y61426D01*
X53940Y61417D01*
X53938Y61408D01*
X53935Y61397D01*
X53932Y61386D01*
X53928Y61373D01*
X53925Y61358D01*
X53921Y61343D01*
Y61342D01*
X53920Y61339D01*
X53919Y61334D01*
X53917Y61329D01*
X53916Y61321D01*
X53914Y61313D01*
X53908Y61295D01*
X53902Y61274D01*
X53895Y61253D01*
X53889Y61234D01*
X53885Y61226D01*
X53881Y61219D01*
Y61218D01*
X53880Y61217D01*
X53877Y61211D01*
X53872Y61203D01*
X53865Y61194D01*
X53856Y61183D01*
X53846Y61172D01*
X53834Y61160D01*
X53821Y61151D01*
X53819Y61150D01*
X53815Y61148D01*
X53807Y61144D01*
X53798Y61140D01*
X53786Y61136D01*
X53772Y61133D01*
X53757Y61130D01*
X53742Y61129D01*
X53741D01*
X53740D01*
X53737D01*
X53733D01*
X53724Y61131D01*
X53712Y61133D01*
X53698Y61136D01*
X53683Y61140D01*
X53667Y61147D01*
X53651Y61156D01*
X53650D01*
X53649Y61157D01*
X53644Y61161D01*
X53636Y61168D01*
X53627Y61176D01*
X53617Y61187D01*
X53606Y61201D01*
X53596Y61218D01*
X53586Y61236D01*
Y61237D01*
X53585Y61239D01*
X53585Y61242D01*
X53583Y61246D01*
X53581Y61250D01*
X53579Y61257D01*
X53575Y61270D01*
X53572Y61288D01*
X53568Y61308D01*
X53565Y61330D01*
X53564Y61354D01*
Y61366D01*
X53565Y61372D01*
Y61379D01*
X53567Y61396D01*
X53570Y61416D01*
X53574Y61436D01*
X53580Y61458D01*
X53587Y61479D01*
Y61479D01*
X53588Y61481D01*
X53590Y61484D01*
X53592Y61488D01*
X53597Y61497D01*
X53605Y61509D01*
X53614Y61523D01*
X53626Y61537D01*
X53640Y61550D01*
X53656Y61562D01*
X53657D01*
X53658Y61563D01*
X53660Y61564D01*
X53663Y61566D01*
X53672Y61571D01*
X53684Y61577D01*
X53699Y61583D01*
X53717Y61588D01*
X53735Y61592D01*
X53756Y61594D01*
X53762Y61513D01*
X53761D01*
X53759D01*
X53756Y61512D01*
X53752Y61511D01*
X53742Y61508D01*
X53728Y61504D01*
X53713Y61499D01*
X53698Y61491D01*
X53684Y61480D01*
X53671Y61467D01*
X53671Y61466D01*
X53667Y61461D01*
X53661Y61452D01*
X53656Y61440D01*
X53650Y61424D01*
X53645Y61405D01*
X53641Y61382D01*
X53640Y61356D01*
Y61344D01*
X53641Y61338D01*
X53642Y61331D01*
X53644Y61314D01*
X53647Y61295D01*
X53652Y61277D01*
X53659Y61259D01*
X53664Y61252D01*
X53669Y61245D01*
X53670Y61243D01*
X53673Y61239D01*
X53680Y61234D01*
X53687Y61228D01*
X53697Y61221D01*
X53708Y61216D01*
X53721Y61212D01*
X53736Y61210D01*
X53738D01*
X53742D01*
X53748Y61211D01*
X53756Y61213D01*
X53765Y61216D01*
X53774Y61221D01*
X53783Y61226D01*
X53793Y61234D01*
X53793Y61235D01*
X53796Y61240D01*
X53799Y61244D01*
X53801Y61247D01*
X53804Y61253D01*
X53807Y61259D01*
X53810Y61268D01*
X53814Y61277D01*
X53818Y61287D01*
X53822Y61299D01*
X53826Y61312D01*
X53830Y61327D01*
X53834Y61344D01*
X53839Y61362D01*
Y61363D01*
X53840Y61367D01*
X53841Y61372D01*
X53842Y61379D01*
X53844Y61387D01*
X53847Y61397D01*
X53850Y61407D01*
X53853Y61418D01*
X53859Y61442D01*
X53866Y61466D01*
X53869Y61477D01*
X53873Y61487D01*
X53876Y61496D01*
X53879Y61503D01*
Y61504D01*
X53880Y61506D01*
X53882Y61509D01*
X53884Y61513D01*
X53890Y61523D01*
X53897Y61535D01*
X53907Y61549D01*
X53918Y61563D01*
X53931Y61576D01*
X53945Y61587D01*
X53947Y61588D01*
X53952Y61591D01*
X53960Y61595D01*
X53971Y61601D01*
X53984Y61605D01*
X54000Y61610D01*
X54017Y61613D01*
X54036Y61613D01*
X54037D01*
X54038D01*
X54040D01*
X54044D01*
X54054Y61612D01*
D02*
G37*
G36*
X56454Y63283D02*
X56462D01*
X56472Y63282D01*
X56483Y63280D01*
X56495Y63280D01*
X56522Y63275D01*
X56552Y63268D01*
X56581Y63257D01*
X56596Y63252D01*
X56611Y63244D01*
X56612D01*
X56614Y63243D01*
X56618Y63241D01*
X56624Y63237D01*
X56630Y63233D01*
X56637Y63229D01*
X56654Y63216D01*
X56673Y63200D01*
X56692Y63182D01*
X56711Y63159D01*
X56727Y63133D01*
Y63133D01*
X56729Y63131D01*
X56731Y63126D01*
X56734Y63121D01*
X56737Y63114D01*
X56739Y63107D01*
X56743Y63097D01*
X56747Y63087D01*
X56750Y63076D01*
X56754Y63064D01*
X56760Y63037D01*
X56764Y63009D01*
X56766Y62978D01*
Y62969D01*
X56765Y62963D01*
Y62955D01*
X56763Y62946D01*
X56762Y62936D01*
X56761Y62924D01*
X56755Y62899D01*
X56748Y62872D01*
X56737Y62844D01*
X56730Y62830D01*
X56723Y62816D01*
X56722Y62815D01*
X56721Y62814D01*
X56718Y62810D01*
X56714Y62804D01*
X56711Y62799D01*
X56705Y62792D01*
X56691Y62777D01*
X56675Y62759D01*
X56654Y62741D01*
X56631Y62724D01*
X56604Y62708D01*
X56603D01*
X56601Y62706D01*
X56597Y62704D01*
X56591Y62703D01*
X56584Y62700D01*
X56576Y62697D01*
X56566Y62693D01*
X56556Y62691D01*
X56544Y62687D01*
X56532Y62683D01*
X56504Y62678D01*
X56476Y62674D01*
X56444Y62672D01*
X56443D01*
X56443D01*
X56437D01*
X56429Y62673D01*
X56418D01*
X56405Y62675D01*
X56389Y62677D01*
X56371Y62680D01*
X56353Y62683D01*
X56333Y62687D01*
X56313Y62692D01*
X56293Y62700D01*
X56271Y62708D01*
X56251Y62717D01*
X56231Y62729D01*
X56212Y62742D01*
X56195Y62757D01*
X56194Y62758D01*
X56191Y62761D01*
X56186Y62766D01*
X56181Y62773D01*
X56173Y62781D01*
X56166Y62791D01*
X56158Y62803D01*
X56149Y62817D01*
X56141Y62832D01*
X56133Y62849D01*
X56125Y62867D01*
X56118Y62887D01*
X56112Y62908D01*
X56108Y62930D01*
X56105Y62953D01*
X56104Y62978D01*
Y62986D01*
X56105Y62993D01*
Y63001D01*
X56106Y63010D01*
X56108Y63021D01*
X56110Y63032D01*
X56114Y63056D01*
X56122Y63084D01*
X56133Y63110D01*
X56139Y63124D01*
X56147Y63138D01*
X56148Y63139D01*
X56149Y63141D01*
X56151Y63145D01*
X56154Y63150D01*
X56159Y63156D01*
X56164Y63163D01*
X56177Y63179D01*
X56194Y63195D01*
X56214Y63214D01*
X56238Y63231D01*
X56265Y63246D01*
X56266D01*
X56269Y63248D01*
X56272Y63250D01*
X56278Y63252D01*
X56285Y63256D01*
X56294Y63258D01*
X56304Y63262D01*
X56315Y63266D01*
X56327Y63268D01*
X56340Y63272D01*
X56355Y63276D01*
X56369Y63279D01*
X56402Y63282D01*
X56437Y63284D01*
X56438D01*
X56442D01*
X56446D01*
X56454Y63283D01*
D02*
G37*
G36*
X56594Y62580D02*
X56607Y62578D01*
X56622Y62574D01*
X56638Y62569D01*
X56654Y62562D01*
X56672Y62552D01*
X56673D01*
X56674Y62551D01*
X56679Y62546D01*
X56688Y62540D01*
X56697Y62531D01*
X56708Y62519D01*
X56720Y62504D01*
X56731Y62487D01*
X56741Y62468D01*
Y62467D01*
X56742Y62465D01*
X56743Y62462D01*
X56745Y62459D01*
X56747Y62453D01*
X56749Y62447D01*
X56753Y62432D01*
X56758Y62414D01*
X56762Y62393D01*
X56765Y62370D01*
X56766Y62345D01*
Y62330D01*
X56765Y62323D01*
Y62314D01*
X56764Y62305D01*
X56763Y62294D01*
X56760Y62271D01*
X56756Y62247D01*
X56749Y62223D01*
X56741Y62200D01*
Y62199D01*
X56740Y62197D01*
X56738Y62194D01*
X56737Y62190D01*
X56731Y62179D01*
X56723Y62166D01*
X56712Y62152D01*
X56699Y62136D01*
X56683Y62121D01*
X56665Y62107D01*
X56664D01*
X56663Y62105D01*
X56660Y62104D01*
X56656Y62102D01*
X56651Y62100D01*
X56646Y62097D01*
X56632Y62091D01*
X56614Y62084D01*
X56595Y62079D01*
X56573Y62075D01*
X56550Y62073D01*
X56542Y62153D01*
X56543D01*
X56544D01*
X56547Y62153D01*
X56551D01*
X56559Y62155D01*
X56571Y62158D01*
X56583Y62162D01*
X56597Y62165D01*
X56610Y62172D01*
X56622Y62178D01*
X56623Y62179D01*
X56627Y62182D01*
X56633Y62187D01*
X56639Y62194D01*
X56648Y62203D01*
X56656Y62214D01*
X56664Y62227D01*
X56672Y62242D01*
Y62243D01*
X56673Y62244D01*
X56674Y62247D01*
X56675Y62250D01*
X56677Y62259D01*
X56681Y62271D01*
X56685Y62286D01*
X56688Y62302D01*
X56689Y62321D01*
X56690Y62341D01*
Y62349D01*
X56689Y62359D01*
X56688Y62370D01*
X56687Y62383D01*
X56685Y62398D01*
X56681Y62412D01*
X56676Y62426D01*
X56676Y62428D01*
X56674Y62433D01*
X56670Y62439D01*
X56666Y62447D01*
X56660Y62456D01*
X56653Y62465D01*
X56646Y62474D01*
X56637Y62482D01*
X56636Y62483D01*
X56632Y62484D01*
X56627Y62487D01*
X56620Y62491D01*
X56613Y62495D01*
X56603Y62497D01*
X56593Y62499D01*
X56582Y62500D01*
X56581D01*
X56577D01*
X56571Y62499D01*
X56564Y62498D01*
X56556Y62496D01*
X56547Y62493D01*
X56538Y62488D01*
X56529Y62482D01*
X56529Y62481D01*
X56526Y62478D01*
X56522Y62474D01*
X56516Y62468D01*
X56511Y62460D01*
X56504Y62450D01*
X56498Y62438D01*
X56492Y62424D01*
X56492Y62423D01*
X56491Y62419D01*
X56488Y62411D01*
X56487Y62407D01*
X56485Y62400D01*
X56482Y62394D01*
X56480Y62386D01*
X56478Y62376D01*
X56475Y62365D01*
X56472Y62354D01*
X56468Y62341D01*
X56465Y62326D01*
X56461Y62311D01*
Y62310D01*
X56460Y62307D01*
X56459Y62302D01*
X56457Y62297D01*
X56455Y62289D01*
X56454Y62281D01*
X56448Y62263D01*
X56442Y62242D01*
X56435Y62221D01*
X56429Y62202D01*
X56425Y62194D01*
X56421Y62187D01*
Y62186D01*
X56420Y62185D01*
X56417Y62179D01*
X56412Y62171D01*
X56405Y62162D01*
X56396Y62151D01*
X56386Y62140D01*
X56374Y62128D01*
X56361Y62119D01*
X56359Y62118D01*
X56355Y62116D01*
X56347Y62112D01*
X56338Y62108D01*
X56326Y62104D01*
X56312Y62101D01*
X56297Y62098D01*
X56282Y62097D01*
X56281D01*
X56280D01*
X56277D01*
X56273D01*
X56264Y62099D01*
X56252Y62101D01*
X56238Y62104D01*
X56222Y62108D01*
X56207Y62115D01*
X56191Y62124D01*
X56190D01*
X56189Y62125D01*
X56184Y62129D01*
X56176Y62136D01*
X56167Y62144D01*
X56157Y62155D01*
X56146Y62169D01*
X56136Y62186D01*
X56126Y62204D01*
Y62205D01*
X56125Y62207D01*
X56124Y62210D01*
X56123Y62214D01*
X56121Y62218D01*
X56119Y62225D01*
X56115Y62238D01*
X56112Y62256D01*
X56108Y62276D01*
X56105Y62298D01*
X56104Y62322D01*
Y62334D01*
X56105Y62340D01*
Y62347D01*
X56107Y62364D01*
X56110Y62384D01*
X56114Y62404D01*
X56120Y62426D01*
X56127Y62447D01*
Y62447D01*
X56128Y62449D01*
X56130Y62452D01*
X56132Y62456D01*
X56137Y62465D01*
X56145Y62477D01*
X56154Y62491D01*
X56166Y62505D01*
X56180Y62518D01*
X56196Y62530D01*
X56197D01*
X56198Y62531D01*
X56200Y62533D01*
X56203Y62534D01*
X56212Y62539D01*
X56224Y62545D01*
X56239Y62551D01*
X56257Y62556D01*
X56275Y62560D01*
X56296Y62562D01*
X56302Y62481D01*
X56301D01*
X56299D01*
X56296Y62480D01*
X56292Y62479D01*
X56282Y62476D01*
X56268Y62472D01*
X56253Y62467D01*
X56238Y62459D01*
X56224Y62448D01*
X56211Y62435D01*
X56210Y62434D01*
X56207Y62429D01*
X56201Y62420D01*
X56196Y62408D01*
X56190Y62392D01*
X56185Y62373D01*
X56181Y62350D01*
X56180Y62324D01*
Y62312D01*
X56181Y62306D01*
X56182Y62299D01*
X56184Y62282D01*
X56187Y62263D01*
X56192Y62245D01*
X56199Y62227D01*
X56204Y62220D01*
X56209Y62213D01*
X56210Y62211D01*
X56213Y62207D01*
X56220Y62202D01*
X56227Y62196D01*
X56237Y62189D01*
X56248Y62184D01*
X56261Y62180D01*
X56276Y62178D01*
X56278D01*
X56282D01*
X56288Y62179D01*
X56296Y62181D01*
X56305Y62184D01*
X56314Y62189D01*
X56323Y62194D01*
X56333Y62202D01*
X56333Y62203D01*
X56336Y62208D01*
X56339Y62212D01*
X56341Y62215D01*
X56344Y62221D01*
X56347Y62227D01*
X56350Y62236D01*
X56354Y62245D01*
X56357Y62255D01*
X56362Y62267D01*
X56366Y62280D01*
X56370Y62295D01*
X56374Y62312D01*
X56379Y62330D01*
Y62331D01*
X56380Y62335D01*
X56381Y62340D01*
X56382Y62347D01*
X56384Y62355D01*
X56387Y62365D01*
X56390Y62375D01*
X56393Y62386D01*
X56399Y62410D01*
X56406Y62434D01*
X56409Y62445D01*
X56413Y62455D01*
X56416Y62464D01*
X56419Y62471D01*
Y62472D01*
X56420Y62474D01*
X56422Y62477D01*
X56424Y62481D01*
X56430Y62491D01*
X56437Y62503D01*
X56447Y62517D01*
X56458Y62531D01*
X56471Y62544D01*
X56485Y62555D01*
X56487Y62556D01*
X56492Y62559D01*
X56500Y62563D01*
X56511Y62569D01*
X56524Y62573D01*
X56540Y62578D01*
X56557Y62581D01*
X56576Y62582D01*
X56577D01*
X56578D01*
X56580D01*
X56584D01*
X56594Y62580D01*
D02*
G37*
G36*
X56755Y61867D02*
X56115D01*
Y61952D01*
X56755D01*
Y61867D01*
D02*
G37*
G36*
Y61634D02*
X56220D01*
X56755Y61447D01*
Y61371D01*
X56210Y61186D01*
X56755D01*
Y61105D01*
X56115D01*
Y61232D01*
X56569Y61383D01*
X56570D01*
X56572Y61384D01*
X56575Y61385D01*
X56579Y61387D01*
X56590Y61391D01*
X56604Y61395D01*
X56620Y61400D01*
X56636Y61405D01*
X56651Y61410D01*
X56664Y61414D01*
X56662Y61415D01*
X56657Y61416D01*
X56649Y61418D01*
X56638Y61422D01*
X56623Y61427D01*
X56605Y61433D01*
X56585Y61440D01*
X56561Y61448D01*
X56115Y61601D01*
Y61715D01*
X56755D01*
Y61634D01*
D02*
G37*
G36*
X51514Y62253D02*
X51527Y62251D01*
X51542Y62248D01*
X51558Y62243D01*
X51574Y62236D01*
X51592Y62226D01*
X51593D01*
X51594Y62225D01*
X51599Y62220D01*
X51608Y62214D01*
X51617Y62204D01*
X51628Y62192D01*
X51640Y62177D01*
X51651Y62161D01*
X51661Y62141D01*
Y62140D01*
X51662Y62139D01*
X51663Y62136D01*
X51665Y62132D01*
X51667Y62127D01*
X51669Y62120D01*
X51673Y62105D01*
X51678Y62088D01*
X51682Y62067D01*
X51685Y62043D01*
X51686Y62018D01*
Y62004D01*
X51685Y61996D01*
Y61988D01*
X51684Y61979D01*
X51683Y61968D01*
X51680Y61944D01*
X51676Y61920D01*
X51669Y61896D01*
X51661Y61873D01*
Y61872D01*
X51660Y61871D01*
X51658Y61868D01*
X51657Y61864D01*
X51651Y61853D01*
X51643Y61840D01*
X51632Y61825D01*
X51619Y61810D01*
X51603Y61795D01*
X51585Y61781D01*
X51584D01*
X51583Y61779D01*
X51580Y61778D01*
X51576Y61775D01*
X51571Y61773D01*
X51566Y61771D01*
X51552Y61764D01*
X51535Y61758D01*
X51515Y61752D01*
X51493Y61748D01*
X51470Y61747D01*
X51462Y61826D01*
X51463D01*
X51464D01*
X51467Y61827D01*
X51471D01*
X51479Y61829D01*
X51491Y61832D01*
X51503Y61835D01*
X51517Y61839D01*
X51530Y61846D01*
X51542Y61852D01*
X51543Y61853D01*
X51547Y61856D01*
X51553Y61860D01*
X51559Y61868D01*
X51568Y61877D01*
X51576Y61887D01*
X51584Y61901D01*
X51592Y61916D01*
Y61917D01*
X51593Y61918D01*
X51594Y61920D01*
X51595Y61923D01*
X51597Y61932D01*
X51601Y61944D01*
X51605Y61959D01*
X51608Y61976D01*
X51609Y61994D01*
X51610Y62015D01*
Y62023D01*
X51609Y62032D01*
X51608Y62043D01*
X51607Y62056D01*
X51605Y62071D01*
X51601Y62086D01*
X51596Y62100D01*
X51596Y62102D01*
X51594Y62106D01*
X51590Y62113D01*
X51586Y62121D01*
X51580Y62129D01*
X51573Y62139D01*
X51566Y62148D01*
X51557Y62155D01*
X51556Y62156D01*
X51552Y62158D01*
X51547Y62161D01*
X51540Y62165D01*
X51533Y62168D01*
X51523Y62171D01*
X51513Y62173D01*
X51502Y62174D01*
X51501D01*
X51497D01*
X51491Y62173D01*
X51484Y62172D01*
X51476Y62169D01*
X51467Y62166D01*
X51458Y62162D01*
X51449Y62155D01*
X51449Y62154D01*
X51446Y62152D01*
X51442Y62148D01*
X51437Y62141D01*
X51431Y62134D01*
X51424Y62124D01*
X51418Y62112D01*
X51412Y62098D01*
X51412Y62097D01*
X51411Y62092D01*
X51408Y62085D01*
X51407Y62080D01*
X51405Y62074D01*
X51402Y62067D01*
X51400Y62059D01*
X51398Y62050D01*
X51395Y62039D01*
X51392Y62028D01*
X51388Y62015D01*
X51385Y62000D01*
X51381Y61984D01*
Y61983D01*
X51380Y61981D01*
X51379Y61976D01*
X51377Y61970D01*
X51375Y61963D01*
X51374Y61955D01*
X51368Y61936D01*
X51362Y61916D01*
X51355Y61895D01*
X51349Y61876D01*
X51345Y61868D01*
X51341Y61860D01*
Y61859D01*
X51340Y61859D01*
X51337Y61853D01*
X51332Y61845D01*
X51325Y61835D01*
X51316Y61824D01*
X51306Y61813D01*
X51294Y61802D01*
X51281Y61793D01*
X51279Y61792D01*
X51275Y61789D01*
X51267Y61785D01*
X51258Y61782D01*
X51246Y61778D01*
X51232Y61774D01*
X51217Y61772D01*
X51202Y61771D01*
X51201D01*
X51200D01*
X51197D01*
X51193D01*
X51184Y61773D01*
X51172Y61774D01*
X51158Y61777D01*
X51142Y61782D01*
X51127Y61788D01*
X51111Y61797D01*
X51110D01*
X51109Y61798D01*
X51104Y61803D01*
X51096Y61810D01*
X51087Y61818D01*
X51077Y61829D01*
X51066Y61843D01*
X51056Y61859D01*
X51046Y61878D01*
Y61879D01*
X51045Y61881D01*
X51044Y61883D01*
X51043Y61887D01*
X51041Y61892D01*
X51039Y61898D01*
X51035Y61912D01*
X51032Y61930D01*
X51028Y61950D01*
X51025Y61971D01*
X51024Y61995D01*
Y62007D01*
X51025Y62014D01*
Y62020D01*
X51027Y62038D01*
X51030Y62057D01*
X51034Y62078D01*
X51040Y62100D01*
X51047Y62120D01*
Y62121D01*
X51048Y62123D01*
X51050Y62126D01*
X51052Y62129D01*
X51056Y62139D01*
X51065Y62151D01*
X51074Y62165D01*
X51086Y62178D01*
X51100Y62191D01*
X51116Y62203D01*
X51117D01*
X51118Y62204D01*
X51120Y62206D01*
X51123Y62208D01*
X51132Y62213D01*
X51144Y62218D01*
X51159Y62225D01*
X51177Y62229D01*
X51195Y62234D01*
X51216Y62236D01*
X51222Y62154D01*
X51221D01*
X51219D01*
X51216Y62153D01*
X51212Y62153D01*
X51202Y62150D01*
X51188Y62146D01*
X51173Y62140D01*
X51158Y62132D01*
X51144Y62122D01*
X51131Y62109D01*
X51130Y62107D01*
X51127Y62103D01*
X51121Y62093D01*
X51116Y62081D01*
X51110Y62066D01*
X51105Y62047D01*
X51101Y62024D01*
X51100Y61998D01*
Y61985D01*
X51101Y61980D01*
X51102Y61972D01*
X51104Y61956D01*
X51107Y61937D01*
X51112Y61919D01*
X51119Y61901D01*
X51124Y61894D01*
X51129Y61886D01*
X51130Y61884D01*
X51133Y61881D01*
X51140Y61875D01*
X51147Y61870D01*
X51157Y61863D01*
X51168Y61858D01*
X51181Y61854D01*
X51196Y61852D01*
X51198D01*
X51202D01*
X51208Y61853D01*
X51216Y61855D01*
X51225Y61858D01*
X51234Y61862D01*
X51243Y61868D01*
X51253Y61876D01*
X51253Y61877D01*
X51256Y61882D01*
X51259Y61885D01*
X51261Y61889D01*
X51264Y61895D01*
X51267Y61901D01*
X51270Y61909D01*
X51274Y61919D01*
X51277Y61929D01*
X51282Y61941D01*
X51286Y61954D01*
X51290Y61969D01*
X51294Y61985D01*
X51299Y62004D01*
Y62005D01*
X51300Y62008D01*
X51301Y62014D01*
X51302Y62020D01*
X51304Y62029D01*
X51307Y62039D01*
X51310Y62049D01*
X51313Y62060D01*
X51319Y62084D01*
X51326Y62107D01*
X51329Y62118D01*
X51333Y62128D01*
X51336Y62138D01*
X51339Y62145D01*
Y62146D01*
X51340Y62148D01*
X51342Y62151D01*
X51344Y62154D01*
X51350Y62165D01*
X51357Y62177D01*
X51367Y62190D01*
X51378Y62204D01*
X51391Y62217D01*
X51405Y62228D01*
X51407Y62229D01*
X51412Y62233D01*
X51420Y62237D01*
X51431Y62242D01*
X51444Y62247D01*
X51460Y62251D01*
X51477Y62254D01*
X51496Y62255D01*
X51497D01*
X51498D01*
X51500D01*
X51504D01*
X51514Y62253D01*
D02*
G37*
G36*
X51477Y61670D02*
X51483Y61668D01*
X51490Y61665D01*
X51498Y61662D01*
X51509Y61659D01*
X51520Y61654D01*
X51532Y61649D01*
X51558Y61636D01*
X51583Y61619D01*
X51596Y61609D01*
X51609Y61599D01*
X51620Y61588D01*
X51632Y61575D01*
X51633Y61574D01*
X51634Y61572D01*
X51636Y61567D01*
X51640Y61563D01*
X51645Y61555D01*
X51649Y61548D01*
X51654Y61538D01*
X51658Y61528D01*
X51664Y61515D01*
X51669Y61503D01*
X51673Y61489D01*
X51678Y61474D01*
X51682Y61458D01*
X51683Y61442D01*
X51685Y61424D01*
X51686Y61405D01*
Y61395D01*
X51685Y61388D01*
Y61380D01*
X51684Y61369D01*
X51682Y61358D01*
X51681Y61345D01*
X51676Y61319D01*
X51669Y61291D01*
X51658Y61263D01*
X51652Y61250D01*
X51645Y61237D01*
X51644Y61236D01*
X51643Y61234D01*
X51640Y61231D01*
X51636Y61227D01*
X51633Y61221D01*
X51627Y61215D01*
X51620Y61208D01*
X51613Y61200D01*
X51605Y61193D01*
X51596Y61185D01*
X51575Y61168D01*
X51550Y61152D01*
X51522Y61138D01*
X51522D01*
X51519Y61136D01*
X51514Y61136D01*
X51509Y61133D01*
X51501Y61131D01*
X51492Y61128D01*
X51482Y61124D01*
X51471Y61122D01*
X51459Y61119D01*
X51445Y61115D01*
X51416Y61111D01*
X51384Y61107D01*
X51351Y61105D01*
X51350D01*
X51346D01*
X51340D01*
X51334Y61106D01*
X51325D01*
X51315Y61107D01*
X51303Y61108D01*
X51291Y61110D01*
X51265Y61114D01*
X51235Y61121D01*
X51205Y61130D01*
X51177Y61143D01*
X51176Y61144D01*
X51173Y61145D01*
X51169Y61147D01*
X51165Y61150D01*
X51158Y61154D01*
X51151Y61159D01*
X51134Y61171D01*
X51116Y61186D01*
X51097Y61205D01*
X51079Y61226D01*
X51063Y61251D01*
X51062Y61252D01*
X51061Y61255D01*
X51059Y61258D01*
X51056Y61263D01*
X51054Y61270D01*
X51051Y61278D01*
X51047Y61287D01*
X51044Y61297D01*
X51040Y61308D01*
X51036Y61320D01*
X51031Y61346D01*
X51026Y61376D01*
X51024Y61406D01*
Y61416D01*
X51025Y61422D01*
X51026Y61430D01*
X51027Y61441D01*
X51028Y61451D01*
X51031Y61463D01*
X51036Y61488D01*
X51044Y61515D01*
X51050Y61529D01*
X51056Y61542D01*
X51065Y61555D01*
X51073Y61568D01*
X51074Y61569D01*
X51075Y61571D01*
X51078Y61575D01*
X51082Y61579D01*
X51087Y61584D01*
X51093Y61590D01*
X51101Y61597D01*
X51108Y61604D01*
X51118Y61612D01*
X51129Y61619D01*
X51140Y61627D01*
X51152Y61635D01*
X51166Y61641D01*
X51179Y61649D01*
X51194Y61654D01*
X51211Y61660D01*
X51230Y61577D01*
X51229D01*
X51228Y61576D01*
X51224Y61574D01*
X51219Y61572D01*
X51214Y61570D01*
X51206Y61567D01*
X51191Y61560D01*
X51175Y61551D01*
X51158Y61540D01*
X51142Y61526D01*
X51129Y61511D01*
X51127Y61509D01*
X51123Y61503D01*
X51118Y61494D01*
X51112Y61482D01*
X51106Y61466D01*
X51101Y61449D01*
X51097Y61428D01*
X51096Y61405D01*
Y61397D01*
X51097Y61393D01*
Y61386D01*
X51098Y61379D01*
X51101Y61361D01*
X51105Y61342D01*
X51111Y61321D01*
X51120Y61300D01*
X51132Y61281D01*
Y61280D01*
X51134Y61279D01*
X51139Y61272D01*
X51146Y61264D01*
X51157Y61254D01*
X51171Y61242D01*
X51187Y61231D01*
X51206Y61221D01*
X51228Y61211D01*
X51228D01*
X51230Y61210D01*
X51233Y61209D01*
X51238Y61209D01*
X51243Y61207D01*
X51250Y61205D01*
X51265Y61202D01*
X51284Y61198D01*
X51304Y61195D01*
X51326Y61193D01*
X51351Y61192D01*
X51351D01*
X51354D01*
X51359D01*
X51364D01*
X51371Y61193D01*
X51379D01*
X51388Y61194D01*
X51399Y61195D01*
X51421Y61197D01*
X51445Y61202D01*
X51469Y61208D01*
X51493Y61215D01*
X51494D01*
X51496Y61216D01*
X51498Y61218D01*
X51503Y61220D01*
X51514Y61225D01*
X51527Y61234D01*
X51542Y61244D01*
X51558Y61257D01*
X51571Y61271D01*
X51584Y61289D01*
Y61290D01*
X51585Y61292D01*
X51587Y61295D01*
X51589Y61298D01*
X51591Y61303D01*
X51594Y61308D01*
X51599Y61321D01*
X51605Y61338D01*
X51609Y61356D01*
X51613Y61377D01*
X51614Y61398D01*
Y61405D01*
X51613Y61410D01*
Y61417D01*
X51612Y61423D01*
X51608Y61440D01*
X51604Y61459D01*
X51596Y61479D01*
X51586Y61499D01*
X51581Y61509D01*
X51573Y61518D01*
X51572Y61519D01*
X51571Y61520D01*
X51569Y61523D01*
X51566Y61527D01*
X51561Y61530D01*
X51556Y61535D01*
X51550Y61540D01*
X51543Y61545D01*
X51535Y61551D01*
X51525Y61557D01*
X51516Y61563D01*
X51505Y61568D01*
X51493Y61573D01*
X51480Y61577D01*
X51466Y61582D01*
X51451Y61586D01*
X51473Y61671D01*
X51473D01*
X51477Y61670D01*
D02*
G37*
G36*
X48571Y62594D02*
X49135D01*
Y62508D01*
X48571D01*
Y62298D01*
X48495D01*
Y62804D01*
X48571D01*
Y62594D01*
D02*
G37*
G36*
X48974Y62227D02*
X48987Y62226D01*
X49002Y62222D01*
X49018Y62217D01*
X49034Y62210D01*
X49052Y62200D01*
X49053D01*
X49054Y62199D01*
X49059Y62194D01*
X49068Y62188D01*
X49077Y62178D01*
X49088Y62166D01*
X49100Y62152D01*
X49111Y62135D01*
X49121Y62116D01*
Y62115D01*
X49122Y62113D01*
X49123Y62110D01*
X49125Y62106D01*
X49127Y62101D01*
X49129Y62094D01*
X49133Y62079D01*
X49138Y62062D01*
X49142Y62041D01*
X49145Y62018D01*
X49146Y61993D01*
Y61978D01*
X49145Y61970D01*
Y61962D01*
X49144Y61953D01*
X49143Y61942D01*
X49140Y61919D01*
X49136Y61895D01*
X49129Y61871D01*
X49121Y61847D01*
Y61846D01*
X49120Y61845D01*
X49118Y61842D01*
X49117Y61838D01*
X49111Y61827D01*
X49103Y61814D01*
X49092Y61799D01*
X49079Y61784D01*
X49063Y61769D01*
X49045Y61755D01*
X49044D01*
X49043Y61753D01*
X49040Y61752D01*
X49036Y61749D01*
X49031Y61748D01*
X49026Y61745D01*
X49012Y61738D01*
X48994Y61732D01*
X48975Y61726D01*
X48953Y61723D01*
X48930Y61721D01*
X48922Y61800D01*
X48923D01*
X48924D01*
X48927Y61801D01*
X48931D01*
X48939Y61803D01*
X48951Y61806D01*
X48963Y61810D01*
X48977Y61813D01*
X48990Y61820D01*
X49002Y61826D01*
X49003Y61827D01*
X49007Y61830D01*
X49013Y61834D01*
X49019Y61842D01*
X49028Y61851D01*
X49036Y61861D01*
X49044Y61875D01*
X49052Y61890D01*
Y61891D01*
X49053Y61892D01*
X49054Y61895D01*
X49055Y61897D01*
X49057Y61907D01*
X49061Y61919D01*
X49065Y61933D01*
X49068Y61950D01*
X49069Y61969D01*
X49070Y61989D01*
Y61997D01*
X49069Y62006D01*
X49068Y62018D01*
X49067Y62030D01*
X49065Y62045D01*
X49061Y62060D01*
X49056Y62074D01*
X49056Y62076D01*
X49054Y62080D01*
X49050Y62087D01*
X49046Y62095D01*
X49040Y62104D01*
X49033Y62113D01*
X49026Y62122D01*
X49017Y62129D01*
X49016Y62130D01*
X49012Y62132D01*
X49007Y62135D01*
X49000Y62139D01*
X48993Y62142D01*
X48983Y62145D01*
X48973Y62147D01*
X48962Y62148D01*
X48961D01*
X48957D01*
X48951Y62147D01*
X48944Y62146D01*
X48936Y62143D01*
X48927Y62140D01*
X48918Y62136D01*
X48909Y62129D01*
X48909Y62128D01*
X48906Y62126D01*
X48902Y62122D01*
X48896Y62116D01*
X48891Y62108D01*
X48884Y62098D01*
X48878Y62086D01*
X48872Y62072D01*
X48872Y62071D01*
X48871Y62067D01*
X48868Y62059D01*
X48867Y62055D01*
X48865Y62048D01*
X48862Y62042D01*
X48860Y62033D01*
X48858Y62024D01*
X48855Y62013D01*
X48852Y62002D01*
X48848Y61989D01*
X48845Y61974D01*
X48841Y61958D01*
Y61957D01*
X48840Y61955D01*
X48839Y61950D01*
X48837Y61944D01*
X48835Y61937D01*
X48834Y61929D01*
X48828Y61910D01*
X48822Y61890D01*
X48815Y61869D01*
X48809Y61850D01*
X48805Y61842D01*
X48801Y61834D01*
Y61834D01*
X48800Y61833D01*
X48797Y61827D01*
X48792Y61819D01*
X48785Y61810D01*
X48776Y61798D01*
X48766Y61787D01*
X48754Y61776D01*
X48741Y61767D01*
X48739Y61766D01*
X48735Y61763D01*
X48727Y61760D01*
X48718Y61756D01*
X48706Y61752D01*
X48692Y61748D01*
X48677Y61746D01*
X48662Y61745D01*
X48661D01*
X48660D01*
X48657D01*
X48653D01*
X48644Y61747D01*
X48632Y61748D01*
X48618Y61751D01*
X48602Y61756D01*
X48587Y61762D01*
X48571Y61772D01*
X48570D01*
X48569Y61773D01*
X48564Y61777D01*
X48556Y61784D01*
X48547Y61792D01*
X48537Y61803D01*
X48526Y61817D01*
X48516Y61834D01*
X48506Y61852D01*
Y61853D01*
X48505Y61855D01*
X48504Y61858D01*
X48503Y61861D01*
X48501Y61866D01*
X48499Y61872D01*
X48495Y61886D01*
X48492Y61904D01*
X48488Y61924D01*
X48485Y61945D01*
X48484Y61969D01*
Y61981D01*
X48485Y61988D01*
Y61994D01*
X48487Y62012D01*
X48490Y62031D01*
X48494Y62052D01*
X48500Y62074D01*
X48507Y62094D01*
Y62095D01*
X48508Y62097D01*
X48510Y62100D01*
X48512Y62104D01*
X48516Y62113D01*
X48525Y62125D01*
X48534Y62139D01*
X48546Y62153D01*
X48560Y62165D01*
X48576Y62177D01*
X48577D01*
X48578Y62178D01*
X48580Y62180D01*
X48583Y62182D01*
X48592Y62187D01*
X48604Y62192D01*
X48619Y62199D01*
X48637Y62203D01*
X48655Y62208D01*
X48676Y62210D01*
X48682Y62128D01*
X48681D01*
X48679D01*
X48676Y62128D01*
X48672Y62127D01*
X48662Y62124D01*
X48648Y62120D01*
X48633Y62115D01*
X48618Y62106D01*
X48604Y62096D01*
X48591Y62083D01*
X48590Y62081D01*
X48587Y62077D01*
X48581Y62067D01*
X48576Y62055D01*
X48570Y62040D01*
X48565Y62021D01*
X48561Y61998D01*
X48560Y61972D01*
Y61959D01*
X48561Y61954D01*
X48562Y61946D01*
X48564Y61930D01*
X48567Y61911D01*
X48572Y61893D01*
X48579Y61875D01*
X48584Y61868D01*
X48589Y61860D01*
X48590Y61859D01*
X48593Y61855D01*
X48600Y61849D01*
X48607Y61844D01*
X48617Y61837D01*
X48628Y61832D01*
X48641Y61828D01*
X48656Y61826D01*
X48658D01*
X48662D01*
X48668Y61827D01*
X48676Y61829D01*
X48685Y61832D01*
X48694Y61836D01*
X48703Y61842D01*
X48713Y61850D01*
X48713Y61851D01*
X48716Y61856D01*
X48719Y61859D01*
X48721Y61863D01*
X48724Y61869D01*
X48727Y61875D01*
X48730Y61883D01*
X48734Y61893D01*
X48737Y61903D01*
X48742Y61915D01*
X48746Y61928D01*
X48750Y61943D01*
X48754Y61959D01*
X48759Y61978D01*
Y61979D01*
X48760Y61982D01*
X48761Y61988D01*
X48762Y61994D01*
X48764Y62003D01*
X48767Y62013D01*
X48770Y62023D01*
X48773Y62034D01*
X48779Y62058D01*
X48786Y62081D01*
X48789Y62092D01*
X48793Y62103D01*
X48796Y62112D01*
X48799Y62119D01*
Y62120D01*
X48800Y62122D01*
X48802Y62125D01*
X48804Y62128D01*
X48810Y62139D01*
X48817Y62151D01*
X48827Y62165D01*
X48838Y62178D01*
X48851Y62191D01*
X48865Y62202D01*
X48867Y62203D01*
X48872Y62207D01*
X48880Y62211D01*
X48891Y62216D01*
X48904Y62221D01*
X48920Y62226D01*
X48937Y62228D01*
X48956Y62229D01*
X48957D01*
X48958D01*
X48960D01*
X48964D01*
X48974Y62227D01*
D02*
G37*
G36*
X49135Y61562D02*
X49002Y61478D01*
X49001D01*
X48999Y61476D01*
X48996Y61474D01*
X48993Y61471D01*
X48982Y61465D01*
X48970Y61456D01*
X48956Y61446D01*
X48941Y61436D01*
X48927Y61426D01*
X48914Y61417D01*
X48913Y61416D01*
X48909Y61413D01*
X48904Y61408D01*
X48897Y61402D01*
X48884Y61388D01*
X48877Y61381D01*
X48872Y61373D01*
X48871Y61372D01*
X48870Y61370D01*
X48868Y61367D01*
X48865Y61361D01*
X48862Y61356D01*
X48860Y61349D01*
X48855Y61334D01*
Y61333D01*
X48854Y61332D01*
Y61328D01*
X48853Y61323D01*
X48852Y61317D01*
Y61309D01*
X48851Y61299D01*
Y61190D01*
X49135D01*
Y61105D01*
X48495D01*
Y61402D01*
X48496Y61409D01*
Y61417D01*
X48497Y61437D01*
X48500Y61457D01*
X48503Y61479D01*
X48507Y61500D01*
X48510Y61510D01*
X48513Y61518D01*
Y61519D01*
X48514Y61520D01*
X48516Y61526D01*
X48520Y61534D01*
X48527Y61544D01*
X48535Y61555D01*
X48546Y61567D01*
X48559Y61578D01*
X48574Y61589D01*
X48575D01*
X48576Y61590D01*
X48581Y61594D01*
X48590Y61598D01*
X48602Y61603D01*
X48616Y61608D01*
X48633Y61613D01*
X48651Y61615D01*
X48670Y61616D01*
X48671D01*
X48673D01*
X48676D01*
X48681Y61615D01*
X48688D01*
X48694Y61614D01*
X48710Y61611D01*
X48728Y61605D01*
X48748Y61598D01*
X48767Y61587D01*
X48776Y61579D01*
X48786Y61572D01*
X48786Y61571D01*
X48787Y61570D01*
X48790Y61567D01*
X48793Y61564D01*
X48797Y61559D01*
X48800Y61553D01*
X48805Y61546D01*
X48811Y61539D01*
X48815Y61529D01*
X48820Y61519D01*
X48825Y61508D01*
X48830Y61496D01*
X48834Y61482D01*
X48838Y61468D01*
X48841Y61453D01*
X48844Y61436D01*
X48845Y61438D01*
X48847Y61442D01*
X48850Y61447D01*
X48854Y61454D01*
X48864Y61471D01*
X48871Y61479D01*
X48876Y61487D01*
X48878Y61489D01*
X48883Y61493D01*
X48890Y61501D01*
X48899Y61510D01*
X48912Y61520D01*
X48926Y61532D01*
X48943Y61544D01*
X48961Y61557D01*
X49135Y61667D01*
Y61562D01*
D02*
G37*
G36*
X59295Y77394D02*
X59101Y77319D01*
Y77051D01*
X59295Y76982D01*
Y76892D01*
X58655Y77136D01*
Y77228D01*
X59295Y77490D01*
Y77394D01*
D02*
G37*
G36*
X58991Y76845D02*
X58998D01*
X59016Y76844D01*
X59036Y76841D01*
X59057Y76838D01*
X59080Y76834D01*
X59102Y76828D01*
X59103D01*
X59105Y76827D01*
X59107Y76826D01*
X59111Y76825D01*
X59121Y76822D01*
X59134Y76816D01*
X59149Y76810D01*
X59164Y76803D01*
X59179Y76794D01*
X59194Y76785D01*
X59196Y76784D01*
X59201Y76780D01*
X59207Y76774D01*
X59216Y76767D01*
X59225Y76759D01*
X59234Y76749D01*
X59244Y76738D01*
X59253Y76726D01*
X59253Y76724D01*
X59256Y76721D01*
X59260Y76714D01*
X59265Y76705D01*
X59270Y76694D01*
X59275Y76681D01*
X59280Y76666D01*
X59285Y76650D01*
Y76648D01*
X59286Y76645D01*
X59287Y76642D01*
X59288Y76633D01*
X59290Y76620D01*
X59291Y76605D01*
X59293Y76588D01*
X59294Y76568D01*
X59295Y76547D01*
Y76317D01*
X58655D01*
Y76563D01*
X58656Y76579D01*
X58657Y76598D01*
X58659Y76616D01*
X58662Y76635D01*
X58665Y76651D01*
Y76651D01*
X58665Y76653D01*
Y76656D01*
X58667Y76660D01*
X58670Y76670D01*
X58675Y76683D01*
X58681Y76698D01*
X58689Y76713D01*
X58699Y76729D01*
X58711Y76744D01*
X58712Y76745D01*
X58713Y76746D01*
X58715Y76749D01*
X58718Y76752D01*
X58727Y76761D01*
X58740Y76773D01*
X58756Y76785D01*
X58775Y76798D01*
X58796Y76810D01*
X58820Y76820D01*
X58821D01*
X58823Y76821D01*
X58826Y76822D01*
X58832Y76823D01*
X58838Y76826D01*
X58846Y76828D01*
X58854Y76830D01*
X58864Y76833D01*
X58874Y76835D01*
X58886Y76837D01*
X58912Y76842D01*
X58941Y76845D01*
X58972Y76846D01*
X58973D01*
X58975D01*
X58980D01*
X58984D01*
X58991Y76845D01*
D02*
G37*
G36*
X59134Y76198D02*
X59147Y76197D01*
X59162Y76193D01*
X59178Y76188D01*
X59194Y76181D01*
X59212Y76171D01*
X59213D01*
X59214Y76170D01*
X59219Y76165D01*
X59228Y76159D01*
X59237Y76149D01*
X59248Y76137D01*
X59260Y76123D01*
X59271Y76106D01*
X59281Y76087D01*
Y76086D01*
X59282Y76084D01*
X59283Y76081D01*
X59285Y76077D01*
X59287Y76072D01*
X59290Y76065D01*
X59293Y76050D01*
X59298Y76033D01*
X59302Y76012D01*
X59305Y75989D01*
X59306Y75964D01*
Y75949D01*
X59305Y75941D01*
Y75933D01*
X59304Y75924D01*
X59303Y75913D01*
X59300Y75890D01*
X59296Y75866D01*
X59290Y75842D01*
X59281Y75818D01*
Y75817D01*
X59280Y75816D01*
X59278Y75813D01*
X59277Y75809D01*
X59271Y75798D01*
X59263Y75785D01*
X59252Y75770D01*
X59239Y75755D01*
X59223Y75740D01*
X59205Y75726D01*
X59204D01*
X59203Y75724D01*
X59200Y75723D01*
X59196Y75720D01*
X59192Y75719D01*
X59186Y75716D01*
X59172Y75709D01*
X59155Y75703D01*
X59135Y75697D01*
X59113Y75694D01*
X59090Y75692D01*
X59082Y75771D01*
X59083D01*
X59084D01*
X59087Y75772D01*
X59091D01*
X59099Y75774D01*
X59111Y75777D01*
X59123Y75781D01*
X59137Y75784D01*
X59150Y75791D01*
X59162Y75797D01*
X59163Y75798D01*
X59167Y75801D01*
X59173Y75805D01*
X59179Y75813D01*
X59188Y75822D01*
X59196Y75832D01*
X59204Y75846D01*
X59212Y75861D01*
Y75862D01*
X59213Y75863D01*
X59214Y75866D01*
X59215Y75868D01*
X59217Y75878D01*
X59221Y75890D01*
X59225Y75904D01*
X59228Y75921D01*
X59229Y75940D01*
X59230Y75960D01*
Y75968D01*
X59229Y75977D01*
X59228Y75989D01*
X59227Y76001D01*
X59225Y76016D01*
X59221Y76031D01*
X59216Y76045D01*
X59216Y76047D01*
X59214Y76051D01*
X59210Y76058D01*
X59206Y76066D01*
X59200Y76075D01*
X59193Y76084D01*
X59186Y76093D01*
X59177Y76100D01*
X59176Y76101D01*
X59172Y76103D01*
X59167Y76106D01*
X59160Y76110D01*
X59153Y76113D01*
X59143Y76116D01*
X59133Y76118D01*
X59122Y76119D01*
X59121D01*
X59117D01*
X59111Y76118D01*
X59104Y76117D01*
X59096Y76114D01*
X59087Y76112D01*
X59078Y76107D01*
X59069Y76100D01*
X59069Y76099D01*
X59066Y76097D01*
X59062Y76093D01*
X59057Y76087D01*
X59051Y76079D01*
X59045Y76069D01*
X59038Y76057D01*
X59032Y76043D01*
X59032Y76042D01*
X59031Y76038D01*
X59028Y76030D01*
X59027Y76026D01*
X59025Y76019D01*
X59022Y76013D01*
X59020Y76004D01*
X59018Y75995D01*
X59015Y75984D01*
X59012Y75973D01*
X59008Y75960D01*
X59005Y75945D01*
X59001Y75929D01*
Y75928D01*
X59000Y75926D01*
X58999Y75921D01*
X58997Y75915D01*
X58996Y75908D01*
X58994Y75900D01*
X58988Y75881D01*
X58982Y75861D01*
X58975Y75840D01*
X58969Y75821D01*
X58965Y75813D01*
X58961Y75805D01*
Y75805D01*
X58960Y75804D01*
X58957Y75798D01*
X58952Y75790D01*
X58945Y75781D01*
X58936Y75769D01*
X58926Y75758D01*
X58914Y75747D01*
X58901Y75738D01*
X58899Y75737D01*
X58895Y75734D01*
X58887Y75731D01*
X58878Y75727D01*
X58866Y75723D01*
X58852Y75719D01*
X58837Y75717D01*
X58822Y75716D01*
X58821D01*
X58820D01*
X58817D01*
X58813D01*
X58804Y75718D01*
X58792Y75719D01*
X58778Y75722D01*
X58763Y75727D01*
X58747Y75733D01*
X58731Y75743D01*
X58730D01*
X58729Y75744D01*
X58724Y75748D01*
X58716Y75755D01*
X58707Y75763D01*
X58697Y75774D01*
X58686Y75788D01*
X58676Y75805D01*
X58666Y75823D01*
Y75824D01*
X58665Y75826D01*
X58665Y75829D01*
X58663Y75832D01*
X58661Y75837D01*
X58659Y75843D01*
X58655Y75857D01*
X58652Y75875D01*
X58648Y75895D01*
X58645Y75916D01*
X58644Y75940D01*
Y75952D01*
X58645Y75959D01*
Y75965D01*
X58647Y75983D01*
X58650Y76002D01*
X58654Y76023D01*
X58660Y76045D01*
X58667Y76065D01*
Y76066D01*
X58668Y76068D01*
X58670Y76071D01*
X58672Y76075D01*
X58677Y76084D01*
X58685Y76096D01*
X58694Y76110D01*
X58706Y76124D01*
X58720Y76136D01*
X58736Y76148D01*
X58737D01*
X58738Y76149D01*
X58740Y76151D01*
X58743Y76153D01*
X58752Y76158D01*
X58764Y76163D01*
X58779Y76170D01*
X58797Y76174D01*
X58815Y76179D01*
X58836Y76181D01*
X58842Y76099D01*
X58841D01*
X58839D01*
X58836Y76099D01*
X58832Y76098D01*
X58822Y76095D01*
X58808Y76091D01*
X58793Y76086D01*
X58778Y76077D01*
X58764Y76067D01*
X58751Y76054D01*
X58750Y76052D01*
X58747Y76048D01*
X58741Y76038D01*
X58736Y76026D01*
X58730Y76011D01*
X58725Y75992D01*
X58721Y75969D01*
X58720Y75943D01*
Y75930D01*
X58721Y75925D01*
X58722Y75917D01*
X58724Y75901D01*
X58727Y75882D01*
X58732Y75864D01*
X58739Y75846D01*
X58744Y75839D01*
X58749Y75831D01*
X58750Y75830D01*
X58753Y75826D01*
X58760Y75820D01*
X58767Y75815D01*
X58777Y75808D01*
X58788Y75803D01*
X58801Y75799D01*
X58816Y75797D01*
X58818D01*
X58822D01*
X58828Y75798D01*
X58836Y75800D01*
X58845Y75803D01*
X58854Y75807D01*
X58863Y75813D01*
X58873Y75821D01*
X58873Y75822D01*
X58876Y75827D01*
X58879Y75830D01*
X58881Y75834D01*
X58884Y75840D01*
X58887Y75846D01*
X58890Y75854D01*
X58894Y75864D01*
X58897Y75874D01*
X58902Y75886D01*
X58906Y75899D01*
X58910Y75914D01*
X58914Y75930D01*
X58919Y75949D01*
Y75950D01*
X58920Y75953D01*
X58921Y75959D01*
X58922Y75965D01*
X58924Y75974D01*
X58927Y75984D01*
X58930Y75994D01*
X58933Y76005D01*
X58939Y76029D01*
X58946Y76052D01*
X58949Y76063D01*
X58953Y76074D01*
X58956Y76083D01*
X58959Y76090D01*
Y76091D01*
X58960Y76093D01*
X58962Y76096D01*
X58964Y76099D01*
X58970Y76110D01*
X58977Y76122D01*
X58987Y76136D01*
X58998Y76149D01*
X59011Y76162D01*
X59025Y76173D01*
X59027Y76174D01*
X59032Y76178D01*
X59040Y76182D01*
X59051Y76187D01*
X59064Y76192D01*
X59080Y76197D01*
X59097Y76199D01*
X59116Y76200D01*
X59117D01*
X59118D01*
X59120D01*
X59124D01*
X59134Y76198D01*
D02*
G37*
%LPC*%
G36*
X44295Y70835D02*
X44294D01*
X44293D01*
X44290D01*
X44286D01*
X44277Y70834D01*
X44266Y70831D01*
X44255Y70828D01*
X44242Y70823D01*
X44231Y70817D01*
X44221Y70808D01*
X44221Y70807D01*
X44218Y70802D01*
X44214Y70796D01*
X44210Y70786D01*
X44207Y70774D01*
X44203Y70759D01*
X44200Y70740D01*
X44199Y70719D01*
Y70525D01*
X44396D01*
Y70716D01*
X44395Y70722D01*
X44394Y70730D01*
X44393Y70739D01*
X44391Y70749D01*
X44388Y70761D01*
X44383Y70773D01*
X44378Y70785D01*
X44371Y70796D01*
X44363Y70806D01*
X44354Y70815D01*
X44342Y70823D01*
X44328Y70829D01*
X44312Y70834D01*
X44295Y70835D01*
D02*
G37*
G36*
X44031Y70828D02*
X44030D01*
X44027D01*
X44024D01*
X44019Y70827D01*
X44006Y70825D01*
X43993Y70822D01*
X43992D01*
X43990Y70821D01*
X43987Y70819D01*
X43983Y70817D01*
X43973Y70811D01*
X43964Y70803D01*
X43963Y70802D01*
X43962Y70801D01*
X43959Y70798D01*
X43956Y70795D01*
X43951Y70785D01*
X43946Y70773D01*
Y70772D01*
X43945Y70769D01*
X43944Y70765D01*
X43943Y70760D01*
Y70752D01*
X43942Y70743D01*
X43941Y70732D01*
Y70525D01*
X44122D01*
Y70729D01*
X44121Y70736D01*
X44120Y70750D01*
X44119Y70758D01*
X44118Y70765D01*
Y70766D01*
X44117Y70768D01*
X44116Y70772D01*
X44114Y70776D01*
X44111Y70786D01*
X44104Y70797D01*
X44103Y70798D01*
X44099Y70801D01*
X44094Y70807D01*
X44086Y70812D01*
X44075Y70818D01*
X44062Y70823D01*
X44048Y70827D01*
X44031Y70828D01*
D02*
G37*
G36*
X41918Y72556D02*
X41917D01*
X41914D01*
X41911D01*
X41905Y72555D01*
X41899D01*
X41891Y72554D01*
X41875Y72551D01*
X41855Y72548D01*
X41836Y72541D01*
X41817Y72533D01*
X41801Y72521D01*
X41800D01*
X41799Y72519D01*
X41794Y72514D01*
X41788Y72506D01*
X41780Y72495D01*
X41773Y72481D01*
X41766Y72464D01*
X41762Y72443D01*
X41760Y72432D01*
Y72414D01*
X41761Y72409D01*
Y72404D01*
X41762Y72397D01*
X41765Y72382D01*
X41770Y72367D01*
X41777Y72349D01*
X41787Y72333D01*
X41793Y72326D01*
X41801Y72318D01*
X41802Y72317D01*
X41808Y72313D01*
X41817Y72307D01*
X41830Y72302D01*
X41846Y72295D01*
X41866Y72290D01*
X41889Y72286D01*
X41916Y72284D01*
X41918D01*
X41923D01*
X41930Y72285D01*
X41940Y72286D01*
X41951Y72288D01*
X41964Y72292D01*
X41978Y72295D01*
X41992Y72301D01*
X42006Y72308D01*
X42020Y72317D01*
X42033Y72328D01*
X42044Y72341D01*
X42054Y72356D01*
X42061Y72374D01*
X42066Y72395D01*
X42068Y72418D01*
Y72424D01*
X42067Y72431D01*
X42065Y72440D01*
X42063Y72451D01*
X42059Y72462D01*
X42055Y72475D01*
X42049Y72488D01*
X42041Y72500D01*
X42031Y72513D01*
X42019Y72524D01*
X42005Y72535D01*
X41987Y72543D01*
X41967Y72551D01*
X41944Y72554D01*
X41918Y72556D01*
D02*
G37*
G36*
X46144Y75649D02*
X46143D01*
X46142D01*
X46137D01*
X46129Y75648D01*
X46120Y75646D01*
X46110Y75644D01*
X46098Y75640D01*
X46087Y75635D01*
X46075Y75628D01*
X46075Y75627D01*
X46071Y75625D01*
X46066Y75620D01*
X46060Y75614D01*
X46053Y75606D01*
X46048Y75597D01*
X46042Y75587D01*
X46038Y75575D01*
Y75574D01*
X46037Y75570D01*
X46036Y75564D01*
X46034Y75557D01*
X46033Y75546D01*
X46032Y75532D01*
X46031Y75515D01*
Y75332D01*
X46259D01*
Y75504D01*
X46259Y75511D01*
Y75517D01*
X46258Y75525D01*
X46256Y75542D01*
X46252Y75562D01*
X46246Y75581D01*
X46239Y75599D01*
X46234Y75607D01*
X46229Y75613D01*
X46227Y75615D01*
X46223Y75619D01*
X46216Y75625D01*
X46207Y75631D01*
X46195Y75638D01*
X46180Y75643D01*
X46163Y75647D01*
X46144Y75649D01*
D02*
G37*
G36*
X46332Y61505D02*
X46156Y61439D01*
X46155D01*
X46152Y61438D01*
X46148Y61436D01*
X46142Y61434D01*
X46136Y61431D01*
X46127Y61429D01*
X46118Y61426D01*
X46109Y61422D01*
X46087Y61415D01*
X46065Y61407D01*
X46043Y61400D01*
X46022Y61393D01*
X46023D01*
X46025Y61393D01*
X46028D01*
X46032Y61391D01*
X46038Y61390D01*
X46045Y61388D01*
X46061Y61384D01*
X46079Y61380D01*
X46099Y61373D01*
X46122Y61367D01*
X46145Y61358D01*
X46332Y61289D01*
Y61505D01*
D02*
G37*
G36*
X64051Y77337D02*
X64050D01*
X64046D01*
X64041D01*
X64034Y77336D01*
X64026D01*
X64016Y77335D01*
X64005Y77334D01*
X63994Y77333D01*
X63969Y77329D01*
X63943Y77323D01*
X63919Y77315D01*
X63907Y77309D01*
X63897Y77304D01*
X63896D01*
X63894Y77302D01*
X63892Y77300D01*
X63888Y77298D01*
X63879Y77291D01*
X63867Y77281D01*
X63855Y77269D01*
X63843Y77256D01*
X63833Y77240D01*
X63825Y77223D01*
X63824Y77221D01*
X63823Y77217D01*
X63820Y77208D01*
X63818Y77196D01*
X63816Y77182D01*
X63813Y77163D01*
X63812Y77152D01*
Y77140D01*
X63811Y77128D01*
Y76980D01*
X64299D01*
Y77132D01*
X64298Y77138D01*
X64297Y77152D01*
X64296Y77168D01*
X64295Y77184D01*
X64292Y77201D01*
X64288Y77215D01*
X64287Y77217D01*
X64286Y77221D01*
X64284Y77228D01*
X64280Y77236D01*
X64274Y77245D01*
X64269Y77255D01*
X64262Y77264D01*
X64255Y77273D01*
X64253Y77274D01*
X64249Y77278D01*
X64243Y77283D01*
X64234Y77290D01*
X64222Y77297D01*
X64208Y77305D01*
X64192Y77313D01*
X64174Y77319D01*
X64174D01*
X64172Y77320D01*
X64169Y77321D01*
X64165Y77322D01*
X64161Y77323D01*
X64154Y77325D01*
X64148Y77327D01*
X64140Y77329D01*
X64122Y77331D01*
X64100Y77334D01*
X64076Y77336D01*
X64051Y77337D01*
D02*
G37*
G36*
X51211Y77244D02*
X51210D01*
X51209D01*
X51204Y77243D01*
X51195Y77242D01*
X51184Y77240D01*
X51173Y77235D01*
X51160Y77230D01*
X51148Y77221D01*
X51136Y77210D01*
X51135Y77208D01*
X51131Y77204D01*
X51127Y77196D01*
X51121Y77184D01*
X51116Y77171D01*
X51111Y77152D01*
X51107Y77131D01*
X51106Y77106D01*
Y76904D01*
X51318D01*
Y77095D01*
X51317Y77106D01*
X51316Y77119D01*
X51315Y77134D01*
X51314Y77148D01*
X51311Y77163D01*
X51307Y77176D01*
X51306Y77178D01*
X51304Y77182D01*
X51302Y77187D01*
X51298Y77195D01*
X51292Y77203D01*
X51286Y77211D01*
X51278Y77220D01*
X51268Y77226D01*
X51267Y77227D01*
X51264Y77229D01*
X51258Y77232D01*
X51251Y77235D01*
X51242Y77238D01*
X51233Y77241D01*
X51222Y77243D01*
X51211Y77244D01*
D02*
G37*
G36*
X64051Y62910D02*
X64050D01*
X64046D01*
X64041D01*
X64034Y62909D01*
X64026D01*
X64016Y62908D01*
X64005Y62907D01*
X63994Y62906D01*
X63969Y62901D01*
X63943Y62896D01*
X63919Y62888D01*
X63907Y62882D01*
X63897Y62876D01*
X63896D01*
X63894Y62875D01*
X63891Y62873D01*
X63888Y62871D01*
X63879Y62863D01*
X63867Y62854D01*
X63855Y62842D01*
X63843Y62828D01*
X63833Y62813D01*
X63825Y62796D01*
X63824Y62794D01*
X63823Y62790D01*
X63820Y62781D01*
X63818Y62769D01*
X63816Y62754D01*
X63813Y62736D01*
X63812Y62725D01*
Y62713D01*
X63811Y62701D01*
Y62553D01*
X64299D01*
Y62704D01*
X64298Y62711D01*
X64297Y62725D01*
X64296Y62741D01*
X64295Y62757D01*
X64292Y62774D01*
X64288Y62788D01*
X64287Y62790D01*
X64286Y62794D01*
X64284Y62801D01*
X64280Y62809D01*
X64274Y62818D01*
X64269Y62827D01*
X64262Y62837D01*
X64255Y62846D01*
X64253Y62847D01*
X64249Y62851D01*
X64243Y62856D01*
X64234Y62863D01*
X64222Y62870D01*
X64208Y62878D01*
X64192Y62886D01*
X64174Y62892D01*
X64173D01*
X64172Y62893D01*
X64169Y62894D01*
X64165Y62895D01*
X64161Y62896D01*
X64154Y62898D01*
X64148Y62900D01*
X64140Y62901D01*
X64122Y62904D01*
X64100Y62907D01*
X64076Y62909D01*
X64051Y62910D01*
D02*
G37*
G36*
X58976Y62352D02*
X58975D01*
X58972D01*
X58969D01*
X58963D01*
X58957Y62351D01*
X58948D01*
X58940Y62350D01*
X58930Y62349D01*
X58909Y62346D01*
X58886Y62341D01*
X58862Y62335D01*
X58840Y62325D01*
X58839D01*
X58837Y62324D01*
X58835Y62323D01*
X58831Y62321D01*
X58820Y62314D01*
X58807Y62306D01*
X58792Y62295D01*
X58777Y62281D01*
X58762Y62265D01*
X58750Y62248D01*
Y62247D01*
X58748Y62246D01*
X58747Y62243D01*
X58744Y62238D01*
X58742Y62234D01*
X58739Y62228D01*
X58733Y62214D01*
X58727Y62198D01*
X58722Y62178D01*
X58718Y62156D01*
X58717Y62133D01*
Y62125D01*
X58718Y62118D01*
X58719Y62110D01*
X58721Y62102D01*
X58723Y62091D01*
X58725Y62080D01*
X58732Y62056D01*
X58738Y62043D01*
X58743Y62030D01*
X58750Y62017D01*
X58759Y62004D01*
X58768Y61991D01*
X58779Y61979D01*
X58780Y61978D01*
X58782Y61976D01*
X58786Y61973D01*
X58791Y61969D01*
X58798Y61964D01*
X58806Y61958D01*
X58816Y61953D01*
X58828Y61946D01*
X58841Y61941D01*
X58857Y61934D01*
X58873Y61929D01*
X58892Y61924D01*
X58912Y61920D01*
X58935Y61917D01*
X58959Y61915D01*
X58985Y61914D01*
X58986D01*
X58990D01*
X58996D01*
X59005Y61915D01*
X59014Y61916D01*
X59025Y61918D01*
X59038Y61920D01*
X59051Y61921D01*
X59081Y61929D01*
X59095Y61934D01*
X59111Y61940D01*
X59126Y61947D01*
X59141Y61956D01*
X59154Y61965D01*
X59167Y61976D01*
X59168Y61977D01*
X59170Y61979D01*
X59174Y61982D01*
X59178Y61987D01*
X59183Y61993D01*
X59189Y62001D01*
X59194Y62009D01*
X59201Y62018D01*
X59207Y62030D01*
X59213Y62042D01*
X59218Y62055D01*
X59224Y62068D01*
X59228Y62083D01*
X59231Y62098D01*
X59233Y62115D01*
X59234Y62132D01*
Y62137D01*
X59233Y62141D01*
Y62148D01*
X59232Y62156D01*
X59230Y62165D01*
X59228Y62177D01*
X59226Y62188D01*
X59222Y62201D01*
X59217Y62213D01*
X59213Y62226D01*
X59206Y62239D01*
X59198Y62252D01*
X59190Y62265D01*
X59179Y62278D01*
X59167Y62290D01*
X59167Y62291D01*
X59165Y62293D01*
X59160Y62296D01*
X59154Y62300D01*
X59148Y62305D01*
X59140Y62310D01*
X59130Y62315D01*
X59118Y62322D01*
X59105Y62327D01*
X59091Y62333D01*
X59075Y62337D01*
X59058Y62343D01*
X59040Y62347D01*
X59020Y62349D01*
X58998Y62351D01*
X58976Y62352D01*
D02*
G37*
G36*
X56436Y63197D02*
X56435D01*
X56432D01*
X56429D01*
X56423D01*
X56417Y63196D01*
X56408D01*
X56400Y63195D01*
X56390Y63194D01*
X56369Y63191D01*
X56346Y63186D01*
X56322Y63180D01*
X56300Y63170D01*
X56299D01*
X56297Y63170D01*
X56295Y63168D01*
X56291Y63166D01*
X56280Y63159D01*
X56267Y63151D01*
X56252Y63140D01*
X56237Y63126D01*
X56222Y63110D01*
X56210Y63093D01*
Y63092D01*
X56208Y63091D01*
X56207Y63088D01*
X56204Y63084D01*
X56202Y63079D01*
X56199Y63073D01*
X56193Y63060D01*
X56187Y63043D01*
X56182Y63023D01*
X56178Y63001D01*
X56177Y62978D01*
Y62970D01*
X56178Y62963D01*
X56179Y62955D01*
X56181Y62947D01*
X56183Y62937D01*
X56185Y62925D01*
X56192Y62901D01*
X56198Y62888D01*
X56203Y62876D01*
X56210Y62862D01*
X56219Y62849D01*
X56228Y62836D01*
X56239Y62824D01*
X56240Y62823D01*
X56242Y62821D01*
X56246Y62818D01*
X56251Y62814D01*
X56258Y62809D01*
X56266Y62803D01*
X56276Y62798D01*
X56288Y62791D01*
X56301Y62786D01*
X56317Y62779D01*
X56333Y62774D01*
X56352Y62769D01*
X56372Y62765D01*
X56395Y62762D01*
X56419Y62760D01*
X56445Y62759D01*
X56446D01*
X56450D01*
X56456D01*
X56465Y62760D01*
X56474Y62761D01*
X56485Y62763D01*
X56498Y62765D01*
X56511Y62766D01*
X56541Y62774D01*
X56555Y62779D01*
X56571Y62785D01*
X56586Y62792D01*
X56601Y62801D01*
X56614Y62810D01*
X56627Y62821D01*
X56628Y62822D01*
X56630Y62824D01*
X56634Y62827D01*
X56638Y62832D01*
X56643Y62839D01*
X56649Y62846D01*
X56654Y62854D01*
X56661Y62863D01*
X56667Y62875D01*
X56673Y62887D01*
X56678Y62900D01*
X56684Y62913D01*
X56688Y62928D01*
X56691Y62943D01*
X56693Y62960D01*
X56694Y62977D01*
Y62982D01*
X56693Y62986D01*
Y62993D01*
X56692Y63001D01*
X56690Y63011D01*
X56688Y63022D01*
X56686Y63033D01*
X56682Y63046D01*
X56677Y63058D01*
X56673Y63072D01*
X56666Y63084D01*
X56658Y63097D01*
X56650Y63110D01*
X56639Y63123D01*
X56627Y63135D01*
X56627Y63136D01*
X56625Y63138D01*
X56620Y63141D01*
X56614Y63145D01*
X56608Y63150D01*
X56600Y63155D01*
X56590Y63160D01*
X56578Y63167D01*
X56565Y63172D01*
X56551Y63178D01*
X56535Y63182D01*
X56518Y63188D01*
X56500Y63192D01*
X56480Y63194D01*
X56458Y63196D01*
X56436Y63197D01*
D02*
G37*
G36*
X48671Y61529D02*
X48670D01*
X48669D01*
X48664Y61528D01*
X48655Y61528D01*
X48644Y61526D01*
X48633Y61521D01*
X48620Y61515D01*
X48608Y61507D01*
X48596Y61496D01*
X48595Y61494D01*
X48591Y61490D01*
X48587Y61482D01*
X48581Y61470D01*
X48576Y61456D01*
X48571Y61438D01*
X48567Y61417D01*
X48566Y61392D01*
Y61190D01*
X48778D01*
Y61381D01*
X48777Y61392D01*
X48776Y61405D01*
X48775Y61419D01*
X48774Y61434D01*
X48771Y61449D01*
X48767Y61462D01*
X48766Y61464D01*
X48764Y61467D01*
X48762Y61473D01*
X48758Y61480D01*
X48752Y61489D01*
X48746Y61497D01*
X48737Y61505D01*
X48728Y61512D01*
X48727Y61513D01*
X48724Y61515D01*
X48718Y61517D01*
X48711Y61521D01*
X48702Y61524D01*
X48693Y61527D01*
X48682Y61528D01*
X48671Y61529D01*
D02*
G37*
G36*
X59032Y77292D02*
X58856Y77226D01*
X58855D01*
X58852Y77225D01*
X58848Y77223D01*
X58842Y77221D01*
X58836Y77218D01*
X58827Y77215D01*
X58818Y77213D01*
X58809Y77209D01*
X58787Y77202D01*
X58765Y77194D01*
X58743Y77187D01*
X58722Y77180D01*
X58723D01*
X58725Y77179D01*
X58728D01*
X58732Y77178D01*
X58738Y77177D01*
X58745Y77175D01*
X58761Y77171D01*
X58779Y77166D01*
X58799Y77160D01*
X58822Y77153D01*
X58845Y77145D01*
X59032Y77076D01*
Y77292D01*
D02*
G37*
G36*
X58971Y76759D02*
X58970D01*
X58966D01*
X58961D01*
X58954Y76758D01*
X58946D01*
X58936Y76757D01*
X58925Y76756D01*
X58914Y76755D01*
X58889Y76750D01*
X58863Y76745D01*
X58839Y76737D01*
X58827Y76731D01*
X58817Y76725D01*
X58816D01*
X58814Y76724D01*
X58812Y76722D01*
X58808Y76720D01*
X58799Y76712D01*
X58787Y76703D01*
X58775Y76691D01*
X58763Y76677D01*
X58753Y76662D01*
X58745Y76645D01*
X58744Y76643D01*
X58743Y76638D01*
X58740Y76630D01*
X58738Y76618D01*
X58736Y76603D01*
X58733Y76585D01*
X58732Y76574D01*
Y76562D01*
X58731Y76550D01*
Y76402D01*
X59219D01*
Y76553D01*
X59218Y76560D01*
X59217Y76574D01*
X59216Y76590D01*
X59215Y76606D01*
X59212Y76623D01*
X59208Y76637D01*
X59207Y76638D01*
X59206Y76643D01*
X59204Y76650D01*
X59200Y76658D01*
X59194Y76667D01*
X59189Y76676D01*
X59182Y76686D01*
X59175Y76695D01*
X59173Y76696D01*
X59169Y76700D01*
X59163Y76705D01*
X59154Y76712D01*
X59142Y76719D01*
X59128Y76727D01*
X59112Y76735D01*
X59094Y76741D01*
X59094D01*
X59092Y76742D01*
X59089Y76743D01*
X59085Y76744D01*
X59081Y76745D01*
X59074Y76747D01*
X59068Y76749D01*
X59060Y76750D01*
X59042Y76753D01*
X59020Y76756D01*
X58996Y76758D01*
X58971Y76759D01*
D02*
G37*
%LPD*%
D37*
X9250Y81500D02*
G03*
X9250Y81500I-2750J0D01*
G01*
X84250D02*
G03*
X84250Y81500I-2750J0D01*
G01*
Y6500D02*
G03*
X84250Y6500I-2750J0D01*
G01*
X9250D02*
G03*
X9250Y6500I-2750J0D01*
G01*
X27297Y29134D02*
Y34087D01*
X24503Y28753D02*
X26154D01*
X24503D02*
Y29261D01*
X24757Y28753D02*
X26027D01*
X27297D02*
Y29134D01*
X26027Y28753D02*
X27297D01*
X24503Y34087D02*
X27297D01*
X24503Y29261D02*
Y34087D01*
X6100Y72600D02*
X5300D01*
X6100Y73400D01*
Y73600D01*
X5900Y73800D01*
X5500D01*
X5300Y73600D01*
X6500D02*
X6700Y73800D01*
X7099D01*
X7299Y73600D01*
Y72800D01*
X7099Y72600D01*
X6700D01*
X6500Y72800D01*
Y73600D01*
X7699D02*
X7899Y73800D01*
X8299D01*
X8499Y73600D01*
Y72800D01*
X8299Y72600D01*
X7899D01*
X7699Y72800D01*
Y73600D01*
X9699Y72600D02*
X8899D01*
X9699Y73400D01*
Y73600D01*
X9499Y73800D01*
X9099D01*
X8899Y73600D01*
X10098Y72400D02*
X10898D01*
X11298Y72600D02*
Y73400D01*
X11698Y73800D01*
X12098Y73400D01*
Y72600D01*
Y73200D01*
X11298D01*
X12498Y72400D02*
X13297D01*
X14497Y73600D02*
X14297Y73800D01*
X13897D01*
X13697Y73600D01*
Y72800D01*
X13897Y72600D01*
X14297D01*
X14497Y72800D01*
X15097Y73400D02*
X15497D01*
X15697Y73200D01*
Y72600D01*
X15097D01*
X14897Y72800D01*
X15097Y73000D01*
X15697D01*
X16097Y72200D02*
Y73400D01*
X16696D01*
X16896Y73200D01*
Y72800D01*
X16696Y72600D01*
X16097D01*
X17496Y73600D02*
Y73400D01*
X17296D01*
X17696D01*
X17496D01*
Y72800D01*
X17696Y72600D01*
X18896D02*
X18496D01*
X18296Y72800D01*
Y73200D01*
X18496Y73400D01*
X18896D01*
X19096Y73200D01*
Y73000D01*
X18296D01*
X19495Y73400D02*
Y72800D01*
X19695Y72600D01*
X20295D01*
Y73400D01*
X20695D02*
Y72600D01*
Y73000D01*
X20895Y73200D01*
X21095Y73400D01*
X21295D01*
X21895Y72600D02*
Y73800D01*
X22295Y73400D01*
X22694Y73800D01*
Y72600D01*
X23694D02*
X23294D01*
X23094Y72800D01*
Y73200D01*
X23294Y73400D01*
X23694D01*
X23894Y73200D01*
Y73000D01*
X23094D01*
X24494Y73600D02*
Y73400D01*
X24294D01*
X24694D01*
X24494D01*
Y72800D01*
X24694Y72600D01*
X25893D02*
X25493D01*
X25294Y72800D01*
Y73200D01*
X25493Y73400D01*
X25893D01*
X26093Y73200D01*
Y73000D01*
X25294D01*
X26693Y72600D02*
X27093D01*
X27293Y72800D01*
Y73200D01*
X27093Y73400D01*
X26693D01*
X26493Y73200D01*
Y72800D01*
X26693Y72600D01*
X27693Y73800D02*
Y72600D01*
X28093Y73000D01*
X28492Y72600D01*
Y73800D01*
X28892Y72600D02*
X29292D01*
X29092D01*
Y73400D01*
X28892D01*
X30092Y72600D02*
Y73600D01*
Y73200D01*
X29892D01*
X30292D01*
X30092D01*
Y73600D01*
X30292Y73800D01*
X30892Y72600D02*
X31292D01*
X31092D01*
Y73400D01*
X30892D01*
X54500Y16900D02*
Y16233D01*
X54833Y15900D01*
X55166Y16233D01*
Y16900D01*
X56166Y16733D02*
X56000Y16900D01*
X55666D01*
X55500Y16733D01*
Y16067D01*
X55666Y15900D01*
X56000D01*
X56166Y16067D01*
X57166Y16733D02*
X56999Y16900D01*
X56666D01*
X56499Y16733D01*
Y16067D01*
X56666Y15900D01*
X56999D01*
X57166Y16067D01*
X55166Y29458D02*
X55000Y29625D01*
X54667D01*
X54500Y29458D01*
Y28792D01*
X54667Y28625D01*
X55000D01*
X55166Y28792D01*
Y29125D01*
X54833D01*
X55500Y28625D02*
Y29625D01*
X56166Y28625D01*
Y29625D01*
X56499D02*
Y28625D01*
X56999D01*
X57166Y28792D01*
Y29458D01*
X56999Y29625D01*
X56499D01*
X84716Y24333D02*
X84550Y24500D01*
X84217D01*
X84050Y24333D01*
Y23667D01*
X84217Y23500D01*
X84550D01*
X84716Y23667D01*
Y24000D01*
X84383D01*
X85050Y23500D02*
Y24500D01*
X85716Y23500D01*
Y24500D01*
X86049D02*
Y23500D01*
X86549D01*
X86716Y23667D01*
Y24333D01*
X86549Y24500D01*
X86049D01*
X84716Y26908D02*
X84550Y27075D01*
X84217D01*
X84050Y26908D01*
Y26242D01*
X84217Y26075D01*
X84550D01*
X84716Y26242D01*
Y26575D01*
X84383D01*
X85050Y26075D02*
Y27075D01*
X85716Y26075D01*
Y27075D01*
X86049D02*
Y26075D01*
X86549D01*
X86716Y26242D01*
Y26908D01*
X86549Y27075D01*
X86049D01*
X84716Y44658D02*
X84550Y44825D01*
X84217D01*
X84050Y44658D01*
Y43992D01*
X84217Y43825D01*
X84550D01*
X84716Y43992D01*
Y44325D01*
X84383D01*
X85050Y43825D02*
Y44825D01*
X85716Y43825D01*
Y44825D01*
X86049D02*
Y43825D01*
X86549D01*
X86716Y43992D01*
Y44658D01*
X86549Y44825D01*
X86049D01*
X84050Y47400D02*
Y46733D01*
X84383Y46400D01*
X84716Y46733D01*
Y47400D01*
X85716Y47233D02*
X85550Y47400D01*
X85216D01*
X85050Y47233D01*
Y46567D01*
X85216Y46400D01*
X85550D01*
X85716Y46567D01*
X86716Y47233D02*
X86549Y47400D01*
X86216D01*
X86049Y47233D01*
Y46567D01*
X86216Y46400D01*
X86549D01*
X86716Y46567D01*
X32500Y49099D02*
Y47575D01*
X33262D01*
X33516Y47829D01*
Y48083D01*
X33262Y48337D01*
X32500D01*
X33262D01*
X33516Y48591D01*
Y48845D01*
X33262Y49099D01*
X32500D01*
X34024D02*
Y47829D01*
X34277Y47575D01*
X34785D01*
X35039Y47829D01*
Y49099D01*
X35547D02*
X36563D01*
X36055D01*
Y47575D01*
X37071Y49099D02*
X38086D01*
X37578D01*
Y47575D01*
X39356Y49099D02*
X38848D01*
X38594Y48845D01*
Y47829D01*
X38848Y47575D01*
X39356D01*
X39610Y47829D01*
Y48845D01*
X39356Y49099D01*
X40118Y47575D02*
Y49099D01*
X41133Y47575D01*
Y49099D01*
X18775Y47550D02*
Y49074D01*
X19537D01*
X19791Y48820D01*
Y48312D01*
X19537Y48058D01*
X18775D01*
X19283D02*
X19791Y47550D01*
X21314Y49074D02*
X20299D01*
Y47550D01*
X21314D01*
X20299Y48312D02*
X20806D01*
X22838Y48820D02*
X22584Y49074D01*
X22076D01*
X21822Y48820D01*
Y48566D01*
X22076Y48312D01*
X22584D01*
X22838Y48058D01*
Y47804D01*
X22584Y47550D01*
X22076D01*
X21822Y47804D01*
X24361Y49074D02*
X23346D01*
Y47550D01*
X24361D01*
X23346Y48312D02*
X23853D01*
X24869Y49074D02*
X25885D01*
X25377D01*
Y47550D01*
X3200Y46225D02*
X3708D01*
X3454D01*
Y47749D01*
X3200Y47495D01*
X34350Y8217D02*
X34683D01*
X34517D01*
Y9216D01*
X34350Y9050D01*
X46057Y11766D02*
X45865Y11575D01*
Y11192D01*
X46057Y11000D01*
X46249D01*
X46440Y11192D01*
Y11575D01*
X46632Y11766D01*
X46823D01*
X47015Y11575D01*
Y11192D01*
X46823Y11000D01*
X45865Y12150D02*
X47015D01*
Y12724D01*
X46823Y12916D01*
X46057D01*
X45865Y12724D01*
Y12150D01*
X47015Y13299D02*
X46249D01*
X45865Y13682D01*
X46249Y14066D01*
X47015D01*
X46440D01*
Y13299D01*
X43517Y11766D02*
X43325Y11575D01*
Y11192D01*
X43517Y11000D01*
X43709D01*
X43900Y11192D01*
Y11575D01*
X44092Y11766D01*
X44283D01*
X44475Y11575D01*
Y11192D01*
X44283Y11000D01*
X43517Y12916D02*
X43325Y12724D01*
Y12341D01*
X43517Y12150D01*
X44283D01*
X44475Y12341D01*
Y12724D01*
X44283Y12916D01*
X43325Y13299D02*
X44475D01*
Y14066D01*
X40785Y11000D02*
X41935D01*
X41552Y11383D01*
X41935Y11766D01*
X40785D01*
X41935Y12150D02*
X41169D01*
X40785Y12533D01*
X41169Y12916D01*
X41935D01*
X41360D01*
Y12150D01*
X40785Y13299D02*
X41935D01*
X41552D01*
X40785Y14066D01*
X41360Y13491D01*
X41935Y14066D01*
X38245Y11000D02*
Y11383D01*
Y11192D01*
X39395D01*
Y11000D01*
Y11383D01*
Y11958D02*
X38245D01*
X39395Y12724D01*
X38245D01*
Y13108D02*
Y13491D01*
Y13299D01*
X39395D01*
Y13108D01*
Y13491D01*
X38245Y14066D02*
Y14832D01*
Y14449D01*
X39395D01*
X36825Y11000D02*
X35675D01*
Y11575D01*
X35867Y11766D01*
X36250D01*
X36442Y11575D01*
Y11000D01*
Y11383D02*
X36825Y11766D01*
X35867Y12916D02*
X35675Y12724D01*
Y12341D01*
X35867Y12150D01*
X36059D01*
X36250Y12341D01*
Y12724D01*
X36442Y12916D01*
X36633D01*
X36825Y12724D01*
Y12341D01*
X36633Y12150D01*
X35675Y13299D02*
Y14066D01*
Y13682D01*
X36825D01*
X3165Y31972D02*
X2911Y32226D01*
X2403D01*
X2149Y31972D01*
Y30957D01*
X2403Y30703D01*
X2911D01*
X3165Y30957D01*
Y31464D01*
X2657D01*
X3673Y30703D02*
Y32226D01*
X4688Y30703D01*
Y32226D01*
X5196D02*
Y30703D01*
X5958D01*
X6212Y30957D01*
Y31972D01*
X5958Y32226D01*
X5196D01*
X1441Y24100D02*
X1108D01*
X1275D01*
Y23267D01*
X1108Y23100D01*
X942D01*
X775Y23267D01*
X1775Y23100D02*
X2108D01*
X1941D01*
Y24100D01*
X1775Y23933D01*
X54066Y9275D02*
X53733D01*
X53900D01*
Y8442D01*
X53733Y8275D01*
X53567D01*
X53400Y8442D01*
X55066Y9275D02*
X54400D01*
Y8775D01*
X54733Y8941D01*
X54900D01*
X55066Y8775D01*
Y8442D01*
X54900Y8275D01*
X54566D01*
X54400Y8442D01*
X20475Y8800D02*
Y7800D01*
X20975Y7300D01*
X21475Y7800D01*
Y8800D01*
X22974Y8550D02*
X22724Y8800D01*
X22224D01*
X21975Y8550D01*
Y7550D01*
X22224Y7300D01*
X22724D01*
X22974Y7550D01*
X24474Y8550D02*
X24224Y8800D01*
X23724D01*
X23474Y8550D01*
Y7550D01*
X23724Y7300D01*
X24224D01*
X24474Y7550D01*
X11950Y8800D02*
Y7800D01*
X12450Y7300D01*
X12950Y7800D01*
Y8800D01*
X13450D02*
Y7550D01*
X13699Y7300D01*
X14199D01*
X14449Y7550D01*
Y8800D01*
X15949Y8550D02*
X15699Y8800D01*
X15199D01*
X14949Y8550D01*
Y8300D01*
X15199Y8050D01*
X15699D01*
X15949Y7800D01*
Y7550D01*
X15699Y7300D01*
X15199D01*
X14949Y7550D01*
X16449Y8800D02*
Y7300D01*
X17198D01*
X17448Y7550D01*
Y7800D01*
X17198Y8050D01*
X16449D01*
X17198D01*
X17448Y8300D01*
Y8550D01*
X17198Y8800D01*
X16449D01*
X32866Y40790D02*
X32700Y40956D01*
X32367D01*
X32200Y40790D01*
Y40623D01*
X32367Y40457D01*
X32700D01*
X32866Y40290D01*
Y40123D01*
X32700Y39957D01*
X32367D01*
X32200Y40123D01*
X33200Y40956D02*
Y39957D01*
X33533Y40290D01*
X33866Y39957D01*
Y40956D01*
X34866Y39957D02*
X34199D01*
X34866Y40623D01*
Y40790D01*
X34699Y40956D01*
X34366D01*
X34199Y40790D01*
X28550Y39050D02*
Y40050D01*
X29050D01*
X29216Y39883D01*
Y39550D01*
X29050Y39383D01*
X28550D01*
X28883D02*
X29216Y39050D01*
X29550Y39883D02*
X29716Y40050D01*
X30050D01*
X30216Y39883D01*
Y39716D01*
X30050Y39550D01*
X30216Y39383D01*
Y39217D01*
X30050Y39050D01*
X29716D01*
X29550Y39217D01*
Y39383D01*
X29716Y39550D01*
X29550Y39716D01*
Y39883D01*
X29716Y39550D02*
X30050D01*
X49725Y46825D02*
Y47825D01*
X50225D01*
X50391Y47658D01*
Y47325D01*
X50225Y47158D01*
X49725D01*
X50058D02*
X50391Y46825D01*
X50725Y47825D02*
X51391D01*
Y47658D01*
X50725Y46992D01*
Y46825D01*
X49700Y44800D02*
Y45800D01*
X50200D01*
X50366Y45633D01*
Y45300D01*
X50200Y45133D01*
X49700D01*
X50033D02*
X50366Y44800D01*
X51366Y45800D02*
X51033Y45633D01*
X50700Y45300D01*
Y44967D01*
X50866Y44800D01*
X51200D01*
X51366Y44967D01*
Y45133D01*
X51200Y45300D01*
X50700D01*
X40146Y85888D02*
Y84888D01*
X40479Y85221D01*
X40813Y84888D01*
Y85888D01*
X41146Y84888D02*
X41479D01*
X41312D01*
Y85555D01*
X41146D01*
X42146Y84888D02*
Y85721D01*
Y85388D01*
X41979D01*
X42312D01*
X42146D01*
Y85721D01*
X42312Y85888D01*
X42812Y84888D02*
X43145D01*
X42979D01*
Y85555D01*
X42812D01*
X45311Y85888D02*
X44645D01*
Y84888D01*
X45311D01*
X44645Y85388D02*
X44978D01*
X46311Y85721D02*
X46144Y85888D01*
X45811D01*
X45644Y85721D01*
Y85555D01*
X45811Y85388D01*
X46144D01*
X46311Y85221D01*
Y85055D01*
X46144Y84888D01*
X45811D01*
X45644Y85055D01*
X46644Y84888D02*
Y85888D01*
X47144D01*
X47311Y85721D01*
Y85388D01*
X47144Y85221D01*
X46644D01*
X49310Y85555D02*
X48810D01*
X48643Y85388D01*
Y85055D01*
X48810Y84888D01*
X49310D01*
X49643D02*
X49976D01*
X49810D01*
Y85888D01*
X49643D01*
X50476Y84888D02*
X50809D01*
X50643D01*
Y85555D01*
X50476D01*
X51976D02*
X51476D01*
X51309Y85388D01*
Y85055D01*
X51476Y84888D01*
X51976D01*
X52309D02*
Y85888D01*
Y85221D02*
X52809Y85555D01*
X52309Y85221D02*
X52809Y84888D01*
X15692Y34625D02*
Y33792D01*
X15858Y33625D01*
X16192D01*
X16358Y33792D01*
Y34625D01*
X16692Y34458D02*
X16858Y34625D01*
X17191D01*
X17358Y34458D01*
Y34291D01*
X17191Y34125D01*
X17025D01*
X17191D01*
X17358Y33958D01*
Y33792D01*
X17191Y33625D01*
X16858D01*
X16692Y33792D01*
X68175Y36925D02*
Y36092D01*
X68342Y35925D01*
X68675D01*
X68841Y36092D01*
Y36925D01*
X69841Y35925D02*
X69175D01*
X69841Y36591D01*
Y36758D01*
X69675Y36925D01*
X69341D01*
X69175Y36758D01*
X25626Y19219D02*
Y18386D01*
X25793Y18220D01*
X26126D01*
X26292Y18386D01*
Y19219D01*
X26626Y18220D02*
X26959D01*
X26792D01*
Y19219D01*
X26626Y19053D01*
X18433Y40790D02*
X18267Y40956D01*
X17933D01*
X17767Y40790D01*
Y40623D01*
X17933Y40457D01*
X18267D01*
X18433Y40290D01*
Y40123D01*
X18267Y39957D01*
X17933D01*
X17767Y40123D01*
X18767Y40956D02*
Y39957D01*
X19100Y40290D01*
X19433Y39957D01*
Y40956D01*
X19766Y39957D02*
X20099D01*
X19933D01*
Y40956D01*
X19766Y40790D01*
X49675Y42700D02*
Y43700D01*
X50175D01*
X50341Y43533D01*
Y43200D01*
X50175Y43033D01*
X49675D01*
X50008D02*
X50341Y42700D01*
X51341Y43700D02*
X50675D01*
Y43200D01*
X51008Y43366D01*
X51175D01*
X51341Y43200D01*
Y42867D01*
X51175Y42700D01*
X50841D01*
X50675Y42867D01*
X10435Y48310D02*
Y49310D01*
X10934D01*
X11101Y49143D01*
Y48810D01*
X10934Y48643D01*
X10435D01*
X10768D02*
X11101Y48310D01*
X11934D02*
Y49310D01*
X11434Y48810D01*
X12101D01*
X14228Y19625D02*
Y20625D01*
X14728D01*
X14895Y20458D01*
Y20125D01*
X14728Y19958D01*
X14228D01*
X14562D02*
X14895Y19625D01*
X15228Y20458D02*
X15395Y20625D01*
X15728D01*
X15894Y20458D01*
Y20291D01*
X15728Y20125D01*
X15561D01*
X15728D01*
X15894Y19958D01*
Y19792D01*
X15728Y19625D01*
X15395D01*
X15228Y19792D01*
X13900Y39000D02*
Y40000D01*
X14400D01*
X14566Y39833D01*
Y39500D01*
X14400Y39333D01*
X13900D01*
X14233D02*
X14566Y39000D01*
X15566D02*
X14900D01*
X15566Y39666D01*
Y39833D01*
X15400Y40000D01*
X15066D01*
X14900Y39833D01*
X14242Y14223D02*
Y15223D01*
X14742D01*
X14909Y15056D01*
Y14723D01*
X14742Y14556D01*
X14242D01*
X14576D02*
X14909Y14223D01*
X15242D02*
X15575D01*
X15409D01*
Y15223D01*
X15242Y15056D01*
X9615Y18099D02*
Y17100D01*
X10281D01*
X10615D02*
X10948D01*
X10781D01*
Y18099D01*
X10615Y17933D01*
X25001Y28108D02*
X24668D01*
X24835D01*
Y27275D01*
X24668Y27108D01*
X24501D01*
X24335Y27275D01*
X25335Y27108D02*
Y28108D01*
X25834D01*
X26001Y27941D01*
Y27608D01*
X25834Y27441D01*
X25335D01*
X26334Y27108D02*
X26667D01*
X26501D01*
Y28108D01*
X26334Y27941D01*
X81357Y49950D02*
X81024D01*
X81191D01*
Y49117D01*
X81024Y48950D01*
X80858D01*
X80691Y49117D01*
X82191Y48950D02*
Y49950D01*
X81691Y49450D01*
X82357D01*
X58321Y49950D02*
X57988D01*
X58155D01*
Y49117D01*
X57988Y48950D01*
X57822D01*
X57655Y49117D01*
X58655Y49783D02*
X58821Y49950D01*
X59155D01*
X59321Y49783D01*
Y49616D01*
X59155Y49450D01*
X58988D01*
X59155D01*
X59321Y49283D01*
Y49117D01*
X59155Y48950D01*
X58821D01*
X58655Y49117D01*
X5354Y49693D02*
X5021D01*
X5188D01*
Y48860D01*
X5021Y48693D01*
X4854D01*
X4688Y48860D01*
X6354Y48693D02*
X5687D01*
X6354Y49360D01*
Y49526D01*
X6187Y49693D01*
X5854D01*
X5687Y49526D01*
X43350Y42250D02*
Y41250D01*
X43850D01*
X44016Y41417D01*
Y42083D01*
X43850Y42250D01*
X43350D01*
X44350Y41250D02*
X44683D01*
X44516D01*
Y42250D01*
X44350Y42083D01*
X72000Y39391D02*
X71834Y39557D01*
X71500D01*
X71334Y39391D01*
Y38724D01*
X71500Y38558D01*
X71834D01*
X72000Y38724D01*
X72334Y38558D02*
X72667D01*
X72500D01*
Y39557D01*
X72334Y39391D01*
X73833Y38558D02*
X73167D01*
X73833Y39224D01*
Y39391D01*
X73666Y39557D01*
X73333D01*
X73167Y39391D01*
X61891Y26683D02*
X61725Y26850D01*
X61392D01*
X61225Y26683D01*
Y26017D01*
X61392Y25850D01*
X61725D01*
X61891Y26017D01*
X62225Y25850D02*
X62558D01*
X62391D01*
Y26850D01*
X62225Y26683D01*
X63058Y25850D02*
X63391D01*
X63224D01*
Y26850D01*
X63058Y26683D01*
X76216Y29133D02*
X76050Y29300D01*
X75717D01*
X75550Y29133D01*
Y28467D01*
X75717Y28300D01*
X76050D01*
X76216Y28467D01*
X76550Y28300D02*
X76883D01*
X76716D01*
Y29300D01*
X76550Y29133D01*
X77383D02*
X77549Y29300D01*
X77883D01*
X78049Y29133D01*
Y28467D01*
X77883Y28300D01*
X77549D01*
X77383Y28467D01*
Y29133D01*
X22281Y32083D02*
X22114Y32250D01*
X21781D01*
X21614Y32083D01*
Y31417D01*
X21781Y31250D01*
X22114D01*
X22281Y31417D01*
X22614Y32083D02*
X22781Y32250D01*
X23114D01*
X23280Y32083D01*
Y31916D01*
X23114Y31750D01*
X23280Y31583D01*
Y31417D01*
X23114Y31250D01*
X22781D01*
X22614Y31417D01*
Y31583D01*
X22781Y31750D01*
X22614Y31916D01*
Y32083D01*
X22781Y31750D02*
X23114D01*
X21458Y23003D02*
X21292Y23170D01*
X20958D01*
X20792Y23003D01*
Y22337D01*
X20958Y22170D01*
X21292D01*
X21458Y22337D01*
X21792Y23170D02*
X22458D01*
Y23003D01*
X21792Y22337D01*
Y22170D01*
X20116Y12183D02*
X19950Y12350D01*
X19617D01*
X19450Y12183D01*
Y11517D01*
X19617Y11350D01*
X19950D01*
X20116Y11517D01*
X21116Y12350D02*
X20783Y12183D01*
X20450Y11850D01*
Y11517D01*
X20616Y11350D01*
X20950D01*
X21116Y11517D01*
Y11683D01*
X20950Y11850D01*
X20450D01*
X7991Y12258D02*
X7825Y12425D01*
X7492D01*
X7325Y12258D01*
Y11592D01*
X7492Y11425D01*
X7825D01*
X7991Y11592D01*
X8991Y12425D02*
X8325D01*
Y11925D01*
X8658Y12091D01*
X8825D01*
X8991Y11925D01*
Y11592D01*
X8825Y11425D01*
X8491D01*
X8325Y11592D01*
X11166Y42958D02*
X11000Y43125D01*
X10667D01*
X10500Y42958D01*
Y42292D01*
X10667Y42125D01*
X11000D01*
X11166Y42292D01*
X12000Y42125D02*
Y43125D01*
X11500Y42625D01*
X12166D01*
X12266Y22183D02*
X12100Y22350D01*
X11767D01*
X11600Y22183D01*
Y21517D01*
X11767Y21350D01*
X12100D01*
X12266Y21517D01*
X12600Y22183D02*
X12766Y22350D01*
X13100D01*
X13266Y22183D01*
Y22016D01*
X13100Y21850D01*
X12933D01*
X13100D01*
X13266Y21683D01*
Y21517D01*
X13100Y21350D01*
X12766D01*
X12600Y21517D01*
X12341Y13358D02*
X12175Y13525D01*
X11842D01*
X11675Y13358D01*
Y12692D01*
X11842Y12525D01*
X12175D01*
X12341Y12692D01*
X13341Y12525D02*
X12675D01*
X13341Y13191D01*
Y13358D01*
X13175Y13525D01*
X12841D01*
X12675Y13358D01*
X7839Y17923D02*
X7673Y18090D01*
X7340D01*
X7173Y17923D01*
Y17257D01*
X7340Y17090D01*
X7673D01*
X7839Y17257D01*
X8173Y17090D02*
X8506D01*
X8339D01*
Y18090D01*
X8173Y17923D01*
D38*
X43600Y45600D02*
G03*
X43500Y45600I-50J0D01*
G01*
D02*
G03*
X43600Y45600I50J0D01*
G01*
X43200Y43830D02*
Y44170D01*
X44800Y43830D02*
Y44170D01*
X35110Y8050D02*
Y10405D01*
Y8050D02*
X52880D01*
Y10405D01*
X35110D02*
X52880D01*
D39*
X38075Y44050D02*
G03*
X38075Y44050I-1250J0D01*
G01*
X23369Y44050D02*
G03*
X23369Y44050I-1250J0D01*
G01*
X39025Y41800D02*
Y46325D01*
X34625D02*
X39025D01*
X34625Y41800D02*
Y46325D01*
Y41800D02*
X39025D01*
X19920Y41775D02*
Y46300D01*
Y41775D02*
X24319D01*
Y46300D01*
X19920D02*
X24319D01*
D40*
X24350Y18025D02*
G03*
X24350Y18025I-300J0D01*
G01*
D41*
X25648Y20050D02*
G03*
X25648Y20050I-125J0D01*
G01*
X6390Y16450D02*
G03*
X6390Y16450I-125J0D01*
G01*
D42*
X42785Y83965D02*
G03*
X40245Y81425I0J-2540D01*
G01*
X68820Y81425D02*
G03*
X66280Y83965I-2540J0D01*
G01*
X40245Y58565D02*
G03*
X42785Y56025I2540J0D01*
G01*
X66280D02*
G03*
X68820Y58565I0J2540D01*
G01*
X44690Y82695D02*
X65010D01*
X44690D02*
X44690Y80155D01*
X65010D01*
Y82695D01*
X47230Y80155D02*
Y82695D01*
Y57295D02*
Y59835D01*
X65010Y57295D02*
Y59835D01*
X44690Y57295D02*
X65010D01*
X44690Y59835D02*
X44690Y57295D01*
X44690Y59835D02*
X65010D01*
X68820Y58565D02*
Y81425D01*
X42785Y56025D02*
X66280D01*
X42785Y83965D02*
X66280D01*
X65010Y82695D02*
X67550Y80155D01*
D43*
X80691Y12430D02*
X83381D01*
Y48290D01*
X80691D02*
X83381D01*
X80691Y12430D02*
Y48290D01*
X68218Y35477D02*
X72818D01*
Y25277D02*
Y35477D01*
X68218Y25277D02*
X72818D01*
X68218D02*
Y35477D01*
X66068Y35177D02*
X67868D01*
X20050Y15825D02*
Y19025D01*
Y15825D02*
X25050D01*
X20050Y19025D02*
X25050D01*
Y15825D02*
Y19025D01*
X3840Y13950D02*
X5340D01*
Y21325D02*
Y21550D01*
Y13950D02*
Y14175D01*
X3840Y21550D02*
X5340D01*
X57655Y12430D02*
X60345D01*
Y48290D01*
X57655D02*
X60345D01*
X57655Y12430D02*
Y48290D01*
X13342Y33275D02*
X14792D01*
X4700Y33411D02*
Y47651D01*
X9300Y34131D02*
Y46256D01*
D44*
X44491Y69100D02*
Y69306D01*
Y66832D02*
Y67039D01*
Y64559D02*
Y64765D01*
X44470Y69021D02*
Y69384D01*
Y66754D02*
Y67117D01*
Y64481D02*
Y64844D01*
X44448Y68970D02*
Y69436D01*
Y66702D02*
Y67168D01*
Y64429D02*
Y64895D01*
X44426Y68930D02*
Y69476D01*
Y66662D02*
Y67208D01*
Y64389D02*
Y64935D01*
X44404Y68896D02*
Y69509D01*
Y66629D02*
Y67242D01*
Y64356D02*
Y64969D01*
X44382Y68868D02*
Y69538D01*
Y66600D02*
Y67271D01*
Y64327D02*
Y64997D01*
X44361Y68842D02*
Y69563D01*
Y66575D02*
Y67296D01*
Y64302D02*
Y65023D01*
X44339Y68820D02*
Y69585D01*
Y66553D02*
Y67318D01*
Y64279D02*
Y65045D01*
X44317Y68800D02*
Y69605D01*
Y66533D02*
Y67338D01*
Y64259D02*
Y65065D01*
X44295Y68782D02*
Y69623D01*
Y66515D02*
Y67356D01*
Y64242D02*
Y65083D01*
X44274Y68766D02*
Y69639D01*
Y66499D02*
Y67372D01*
Y64226D02*
Y65099D01*
X44252Y68752D02*
Y69654D01*
Y66484D02*
Y67386D01*
Y64211D02*
Y65113D01*
X44230Y68739D02*
Y69667D01*
Y66471D02*
Y67399D01*
Y64198D02*
Y65126D01*
X44208Y68727D02*
Y69678D01*
Y66460D02*
Y67411D01*
Y64187D02*
Y65138D01*
X44186Y68717D02*
Y69689D01*
Y66449D02*
Y67421D01*
Y64176D02*
Y65148D01*
X44165Y68708D02*
Y69698D01*
Y66440D02*
Y67430D01*
Y64167D02*
Y65157D01*
X44143Y68700D02*
Y69706D01*
Y66432D02*
Y67438D01*
Y64159D02*
Y65165D01*
X44121Y68693D02*
Y69713D01*
Y66425D02*
Y67445D01*
Y64152D02*
Y65172D01*
X44099Y68687D02*
Y69719D01*
Y66419D02*
Y67451D01*
Y64146D02*
Y65178D01*
X44078Y68682D02*
Y69724D01*
Y66414D02*
Y67457D01*
Y64141D02*
Y65183D01*
X44056Y68678D02*
Y69728D01*
Y66410D02*
Y67460D01*
Y64137D02*
Y65187D01*
X44034Y68675D02*
Y69731D01*
Y66407D02*
Y67464D01*
Y64134D02*
Y65191D01*
X44012Y68672D02*
Y69733D01*
Y66405D02*
Y67466D01*
Y64132D02*
Y65193D01*
X43990Y68671D02*
Y69734D01*
Y66403D02*
Y67467D01*
Y64130D02*
Y65194D01*
X43969Y68671D02*
Y69735D01*
Y66403D02*
Y67468D01*
Y64130D02*
Y65194D01*
X43947Y68671D02*
Y69734D01*
Y66403D02*
Y67467D01*
Y64130D02*
Y65194D01*
X43925Y68672D02*
Y69733D01*
Y66405D02*
Y67466D01*
Y64132D02*
Y65193D01*
X43903Y68675D02*
Y69731D01*
Y66407D02*
Y67464D01*
Y64134D02*
Y65190D01*
X43882Y68678D02*
Y69728D01*
Y66410D02*
Y67460D01*
Y64137D02*
Y65187D01*
X43860Y68682D02*
Y69724D01*
Y66414D02*
Y67456D01*
Y64141D02*
Y65183D01*
X43838Y68687D02*
Y69719D01*
Y66419D02*
Y67451D01*
Y64146D02*
Y65178D01*
X43816Y68693D02*
Y69713D01*
Y66425D02*
Y67445D01*
Y64152D02*
Y65172D01*
X43794Y68700D02*
Y69705D01*
Y66432D02*
Y67438D01*
Y64159D02*
Y65165D01*
X43773Y68708D02*
Y69697D01*
Y66440D02*
Y67430D01*
Y64167D02*
Y65157D01*
X43751Y68717D02*
Y69688D01*
Y66450D02*
Y67421D01*
Y64177D02*
Y65148D01*
X43729Y68728D02*
Y69678D01*
Y66460D02*
Y67410D01*
Y64187D02*
Y65137D01*
X43707Y68739D02*
Y69666D01*
Y66472D02*
Y67399D01*
Y64199D02*
Y65126D01*
X43686Y68752D02*
Y69653D01*
Y66485D02*
Y67386D01*
Y64212D02*
Y65113D01*
X43664Y68767D02*
Y69638D01*
Y66499D02*
Y67371D01*
Y64226D02*
Y65098D01*
X43642Y68783D02*
Y69622D01*
Y66515D02*
Y67355D01*
Y64242D02*
Y65082D01*
X43620Y68801D02*
Y69604D01*
Y66534D02*
Y67337D01*
Y64260D02*
Y65064D01*
X43598Y68821D02*
Y69584D01*
Y66554D02*
Y67317D01*
Y64280D02*
Y65044D01*
X43577Y68844D02*
Y69562D01*
Y66576D02*
Y67294D01*
Y64303D02*
Y65021D01*
X43555Y68869D02*
Y69536D01*
Y66601D02*
Y67269D01*
Y64328D02*
Y64996D01*
X43533Y68898D02*
Y69507D01*
Y66630D02*
Y67240D01*
Y64357D02*
Y64967D01*
X43511Y68932D02*
Y69474D01*
Y66664D02*
Y67206D01*
Y64391D02*
Y64933D01*
X43490Y68972D02*
Y69433D01*
Y66705D02*
Y67165D01*
Y64432D02*
Y64892D01*
X43468Y69025D02*
Y69380D01*
Y66757D02*
Y67113D01*
Y64484D02*
Y64840D01*
X43446Y69106D02*
Y69298D01*
Y66838D02*
Y67031D01*
Y64565D02*
Y64758D01*
X43424Y69110D02*
Y69287D01*
Y66842D02*
Y67019D01*
Y64569D02*
Y64746D01*
X43402Y69110D02*
Y69287D01*
Y66842D02*
Y67019D01*
Y64569D02*
Y64746D01*
X43381Y69110D02*
Y69287D01*
Y66842D02*
Y67019D01*
Y64569D02*
Y64746D01*
X43359Y69110D02*
Y69287D01*
Y66842D02*
Y67019D01*
Y64569D02*
Y64746D01*
X43337Y69110D02*
Y69287D01*
Y66842D02*
Y67019D01*
Y64568D02*
Y64746D01*
X43315Y69110D02*
Y69287D01*
Y66842D02*
Y67019D01*
Y64568D02*
Y64746D01*
X43294Y69110D02*
Y69287D01*
Y66842D02*
Y67019D01*
Y64568D02*
Y64746D01*
X43272Y69110D02*
Y69287D01*
Y66842D02*
Y67019D01*
Y64568D02*
Y64746D01*
X43250Y69110D02*
Y69287D01*
Y66842D02*
Y67019D01*
Y64568D02*
Y64746D01*
X43228Y69110D02*
Y69287D01*
Y66842D02*
Y67019D01*
Y64568D02*
Y64746D01*
X43206Y69110D02*
Y69287D01*
Y66842D02*
Y67019D01*
Y64568D02*
Y64746D01*
X43185Y69110D02*
Y69287D01*
Y66842D02*
Y67019D01*
Y64568D02*
Y64746D01*
X43163Y69110D02*
Y69287D01*
Y66842D02*
Y67019D01*
Y64567D02*
Y64746D01*
X43141Y69110D02*
Y69287D01*
Y66842D02*
Y67019D01*
Y64567D02*
Y64746D01*
X43119Y69110D02*
Y69287D01*
Y66842D02*
Y67019D01*
Y64567D02*
Y64746D01*
X43098Y69110D02*
Y69287D01*
Y66842D02*
Y67019D01*
Y64567D02*
Y64746D01*
X43076Y69110D02*
Y69287D01*
Y66842D02*
Y67019D01*
Y64567D02*
Y64746D01*
X43054Y69110D02*
Y69287D01*
Y66842D02*
Y67019D01*
Y64567D02*
Y64746D01*
X43032Y69110D02*
Y69287D01*
Y66842D02*
Y67019D01*
Y64567D02*
Y64746D01*
X43010Y69110D02*
Y69287D01*
Y66842D02*
Y67019D01*
Y64567D02*
Y64746D01*
X42989Y69110D02*
Y69287D01*
Y66842D02*
Y67019D01*
Y64567D02*
Y64746D01*
X42967Y69110D02*
Y69287D01*
Y66842D02*
Y67019D01*
Y64567D02*
Y64746D01*
X42945Y69110D02*
Y69287D01*
Y66842D02*
Y67019D01*
Y64567D02*
Y64746D01*
X42923Y69110D02*
Y69287D01*
Y66842D02*
Y67019D01*
Y64568D02*
Y64746D01*
X42902Y69110D02*
Y69287D01*
Y66842D02*
Y67019D01*
Y64568D02*
Y64746D01*
X42880Y69110D02*
Y69287D01*
Y66842D02*
Y67019D01*
Y64568D02*
Y64746D01*
X42858Y69110D02*
Y69287D01*
Y66842D02*
Y67019D01*
Y64568D02*
Y64746D01*
X42836Y69110D02*
Y69287D01*
Y66842D02*
Y67019D01*
Y64568D02*
Y64746D01*
X42814Y69110D02*
Y69287D01*
Y66842D02*
Y67019D01*
Y64568D02*
Y64746D01*
X42793Y69110D02*
Y69287D01*
Y66842D02*
Y67019D01*
Y64568D02*
Y64746D01*
X42771Y69110D02*
Y69287D01*
Y66842D02*
Y67019D01*
Y64568D02*
Y64746D01*
X42749Y69110D02*
Y69287D01*
Y66842D02*
Y67019D01*
Y64568D02*
Y64746D01*
X42727Y69110D02*
Y69287D01*
Y66842D02*
Y67019D01*
Y64568D02*
Y64746D01*
X42706Y69110D02*
Y69287D01*
Y66842D02*
Y67019D01*
Y64568D02*
Y64746D01*
X42684Y69110D02*
Y69287D01*
Y66842D02*
Y67019D01*
Y64568D02*
Y64746D01*
X42662Y69110D02*
Y69287D01*
Y66842D02*
Y67019D01*
Y64568D02*
Y64746D01*
X42640Y69110D02*
Y69287D01*
Y66842D02*
Y67019D01*
Y64568D02*
Y64746D01*
X42618Y69110D02*
Y69287D01*
Y66842D02*
Y67019D01*
Y64568D02*
Y64746D01*
X42597Y69110D02*
Y69287D01*
Y66842D02*
Y67019D01*
Y64568D02*
Y64746D01*
X42575Y64568D02*
Y69287D01*
X42553Y64568D02*
Y69287D01*
X42531Y64568D02*
Y69287D01*
X42510Y64568D02*
Y69287D01*
X42488Y64568D02*
Y69287D01*
X42466Y64568D02*
Y69287D01*
X42444Y64568D02*
Y69287D01*
X42423Y64568D02*
Y69287D01*
X42401Y67973D02*
Y68150D01*
Y65706D02*
Y65883D01*
X42379Y67973D02*
Y68150D01*
Y65706D02*
Y65883D01*
X42357Y67973D02*
Y68150D01*
Y65706D02*
Y65883D01*
X42335Y67973D02*
Y68150D01*
Y65706D02*
Y65883D01*
X42314Y67973D02*
Y68150D01*
Y65706D02*
Y65883D01*
X42292Y67973D02*
Y68150D01*
Y65706D02*
Y65883D01*
X42270Y67973D02*
Y68150D01*
Y65706D02*
Y65883D01*
X42248Y67973D02*
Y68150D01*
Y65706D02*
Y65883D01*
X42227Y67973D02*
Y68150D01*
Y65706D02*
Y65883D01*
X42205Y67973D02*
Y68150D01*
Y65706D02*
Y65883D01*
X42183Y67973D02*
Y68150D01*
Y65706D02*
Y65883D01*
X42161Y67973D02*
Y68150D01*
Y65706D02*
Y65883D01*
X42139Y67973D02*
Y68150D01*
Y65706D02*
Y65883D01*
X42118Y67973D02*
Y68150D01*
Y65706D02*
Y65883D01*
X42096Y67973D02*
Y68150D01*
Y65706D02*
Y65883D01*
X42074Y67973D02*
Y68150D01*
Y65706D02*
Y65883D01*
X42052Y67973D02*
Y68150D01*
Y65706D02*
Y65883D01*
X42031Y67973D02*
Y68150D01*
Y65706D02*
Y65883D01*
X42009Y67973D02*
Y68150D01*
Y65706D02*
Y65883D01*
X41987Y67973D02*
Y68150D01*
Y65706D02*
Y65883D01*
X41965Y67973D02*
Y68150D01*
Y65706D02*
Y65883D01*
X41943Y67973D02*
Y68150D01*
Y65706D02*
Y65883D01*
X41922Y67973D02*
Y68150D01*
Y65706D02*
Y65883D01*
X41900Y67973D02*
Y68150D01*
Y65706D02*
Y65883D01*
X41878Y67973D02*
Y68150D01*
Y65706D02*
Y65883D01*
X41856Y67973D02*
Y68150D01*
Y65706D02*
Y65883D01*
X41835Y67973D02*
Y68150D01*
Y65706D02*
Y65883D01*
X41813Y67973D02*
Y68150D01*
Y65706D02*
Y65883D01*
X41791Y67973D02*
Y68150D01*
Y65706D02*
Y65883D01*
X41769Y67973D02*
Y68150D01*
Y65706D02*
Y65883D01*
X41747Y67973D02*
Y68150D01*
Y65706D02*
Y65883D01*
X41726Y67973D02*
Y68150D01*
Y65706D02*
Y65883D01*
X41704Y67973D02*
Y68150D01*
Y65706D02*
Y65883D01*
X41682Y67973D02*
Y68150D01*
Y65706D02*
Y65883D01*
X41660Y67973D02*
Y68150D01*
Y65706D02*
Y65883D01*
X41639Y67973D02*
Y68150D01*
Y65706D02*
Y65883D01*
X41617Y67973D02*
Y68150D01*
Y65706D02*
Y65883D01*
X41595Y67973D02*
Y68150D01*
Y65706D02*
Y65883D01*
X41573Y67973D02*
Y68150D01*
Y65706D02*
Y65883D01*
X41551Y67973D02*
Y68153D01*
Y65706D02*
Y65886D01*
X41530Y67892D02*
Y68240D01*
Y65625D02*
Y65972D01*
X41508Y67839D02*
Y68293D01*
Y65571D02*
Y66026D01*
X41486Y67797D02*
Y68335D01*
Y65530D02*
Y66067D01*
X41464Y67763D02*
Y68369D01*
Y65496D02*
Y66101D01*
X41443Y67734D02*
Y68398D01*
Y65467D02*
Y66131D01*
X41421Y67709D02*
Y68424D01*
Y65441D02*
Y66156D01*
X41399Y67686D02*
Y68446D01*
Y65418D02*
Y66179D01*
X41377Y67666D02*
Y68467D01*
Y65398D02*
Y66199D01*
X41355Y67648D02*
Y68485D01*
Y65380D02*
Y66217D01*
X41334Y67631D02*
Y68501D01*
Y65364D02*
Y66233D01*
X41312Y67617D02*
Y68516D01*
Y65349D02*
Y66248D01*
X41290Y67604D02*
Y68529D01*
Y65336D02*
Y66261D01*
X41268Y67592D02*
Y68541D01*
Y65324D02*
Y66273D01*
X41247Y67581D02*
Y68551D01*
Y65314D02*
Y66283D01*
X41225Y67572D02*
Y68560D01*
Y65304D02*
Y66293D01*
X41203Y67564D02*
Y68569D01*
Y65296D02*
Y66301D01*
X41181Y67557D02*
Y68576D01*
Y65289D02*
Y66308D01*
X41159Y67551D02*
Y68582D01*
Y65283D02*
Y66314D01*
X41138Y67546D02*
Y68587D01*
Y65278D02*
Y66319D01*
X41116Y67541D02*
Y68591D01*
Y65274D02*
Y66323D01*
X41094Y67538D02*
Y68594D01*
Y65271D02*
Y66327D01*
X41072Y67536D02*
Y68597D01*
Y65268D02*
Y66329D01*
X41051Y67535D02*
Y68598D01*
Y65267D02*
Y66330D01*
X41029Y67534D02*
Y68598D01*
Y65266D02*
Y66331D01*
X41007Y67534D02*
Y68598D01*
Y65267D02*
Y66330D01*
X40985Y67536D02*
Y68597D01*
Y65268D02*
Y66329D01*
X40963Y67538D02*
Y68595D01*
Y65270D02*
Y66327D01*
X40942Y67541D02*
Y68592D01*
Y65273D02*
Y66324D01*
X40920Y67545D02*
Y68588D01*
Y65277D02*
Y66320D01*
X40898Y67550D02*
Y68583D01*
Y65282D02*
Y66315D01*
X40876Y67556D02*
Y68577D01*
Y65288D02*
Y66309D01*
X40855Y67563D02*
Y68570D01*
Y65295D02*
Y66302D01*
X40833Y67571D02*
Y68562D01*
Y65303D02*
Y66294D01*
X40811Y67580D02*
Y68553D01*
Y65312D02*
Y66285D01*
X40789Y67590D02*
Y68543D01*
Y65322D02*
Y66275D01*
X40767Y67601D02*
Y68531D01*
Y65334D02*
Y66263D01*
X40746Y67614D02*
Y68518D01*
Y65347D02*
Y66251D01*
X40724Y67629D02*
Y68504D01*
Y65361D02*
Y66236D01*
X40702Y67645D02*
Y68488D01*
Y65377D02*
Y66220D01*
X40680Y67662D02*
Y68470D01*
Y65395D02*
Y66203D01*
X40659Y67682D02*
Y68450D01*
Y65415D02*
Y66183D01*
X40637Y67704D02*
Y68428D01*
Y65437D02*
Y66161D01*
X40615Y67729D02*
Y68403D01*
Y65462D02*
Y66136D01*
X40593Y67758D02*
Y68375D01*
Y65490D02*
Y66107D01*
X40571Y67791D02*
Y68342D01*
Y65523D02*
Y66074D01*
X40550Y67831D02*
Y68302D01*
Y65563D02*
Y66034D01*
X40528Y67881D02*
Y68252D01*
Y65613D02*
Y65984D01*
X40506Y67956D02*
Y68176D01*
Y65689D02*
Y65909D01*
X42409Y69110D02*
Y69287D01*
Y68150D02*
Y69110D01*
X41552Y68150D02*
X42409D01*
X41529Y68243D02*
X41552Y68150D01*
X41490Y68327D02*
X41529Y68243D01*
X41438Y68404D02*
X41490Y68327D01*
X41374Y68470D02*
X41438Y68404D01*
X41299Y68524D02*
X41374Y68470D01*
X41215Y68564D02*
X41299Y68524D01*
X41124Y68590D02*
X41215Y68564D01*
X41027Y68598D02*
X41124Y68590D01*
X40920Y68588D02*
X41027Y68598D01*
X40820Y68557D02*
X40920Y68588D01*
X40729Y68508D02*
X40820Y68557D01*
X40651Y68443D02*
X40729Y68508D01*
X40586Y68364D02*
X40651Y68443D01*
X40537Y68273D02*
X40586Y68364D01*
X40506Y68173D02*
X40537Y68273D01*
X40495Y68066D02*
X40506Y68173D01*
X40495Y68066D02*
X40506Y67959D01*
X40537Y67859D01*
X40586Y67769D01*
X40651Y67690D01*
X40729Y67625D01*
X40820Y67576D01*
X40920Y67545D01*
X41027Y67534D01*
X41123Y67543D01*
X41213Y67568D01*
X41296Y67607D01*
X41371Y67660D01*
X41435Y67724D01*
X41487Y67799D01*
X41526Y67882D01*
X41551Y67973D01*
X42409D01*
Y67019D02*
Y67973D01*
Y66842D02*
Y67019D01*
Y65883D02*
Y66842D01*
X41552Y65883D02*
X42409D01*
X41529Y65975D02*
X41552Y65883D01*
X41490Y66060D02*
X41529Y65975D01*
X41438Y66136D02*
X41490Y66060D01*
X41374Y66202D02*
X41438Y66136D01*
X41299Y66256D02*
X41374Y66202D01*
X41215Y66297D02*
X41299Y66256D01*
X41124Y66322D02*
X41215Y66297D01*
X41027Y66331D02*
X41124Y66322D01*
X40920Y66320D02*
X41027Y66331D01*
X40820Y66289D02*
X40920Y66320D01*
X40729Y66240D02*
X40820Y66289D01*
X40651Y66175D02*
X40729Y66240D01*
X40586Y66096D02*
X40651Y66175D01*
X40537Y66006D02*
X40586Y66096D01*
X40506Y65906D02*
X40537Y66006D01*
X40495Y65799D02*
X40506Y65906D01*
X40495Y65799D02*
X40506Y65691D01*
X40537Y65591D01*
X40586Y65501D01*
X40651Y65422D01*
X40729Y65357D01*
X40820Y65308D01*
X40920Y65277D01*
X41027Y65266D01*
X41123Y65275D01*
X41213Y65300D01*
X41296Y65340D01*
X41371Y65392D01*
X41435Y65457D01*
X41487Y65532D01*
X41526Y65615D01*
X41551Y65706D01*
X42409D01*
Y64568D02*
Y65706D01*
Y64568D02*
X43107Y64567D01*
X43445Y64569D01*
X43470Y64478D01*
X43509Y64395D01*
X43561Y64320D01*
X43625Y64256D01*
X43700Y64203D01*
X43783Y64163D01*
X43873Y64139D01*
X43969Y64130D01*
X44076Y64141D01*
X44176Y64172D01*
X44267Y64221D01*
X44345Y64286D01*
X44410Y64364D01*
X44459Y64455D01*
X44491Y64555D01*
X44501Y64662D01*
X44491Y64769D02*
X44501Y64662D01*
X44459Y64869D02*
X44491Y64769D01*
X44410Y64960D02*
X44459Y64869D01*
X44345Y65039D02*
X44410Y64960D01*
X44267Y65103D02*
X44345Y65039D01*
X44176Y65153D02*
X44267Y65103D01*
X44076Y65184D02*
X44176Y65153D01*
X43969Y65194D02*
X44076Y65184D01*
X43872Y65186D02*
X43969Y65194D01*
X43781Y65160D02*
X43872Y65186D01*
X43697Y65120D02*
X43781Y65160D01*
X43622Y65066D02*
X43697Y65120D01*
X43558Y65000D02*
X43622Y65066D01*
X43506Y64923D02*
X43558Y65000D01*
X43467Y64838D02*
X43506Y64923D01*
X43444Y64746D02*
X43467Y64838D01*
X42587Y64746D02*
X43444D01*
X42587D02*
Y65706D01*
Y65883D01*
Y66842D01*
X43445D01*
X43470Y66752D01*
X43509Y66668D01*
X43561Y66593D01*
X43625Y66529D01*
X43700Y66476D01*
X43783Y66437D01*
X43873Y66412D01*
X43969Y66403D01*
X44076Y66414D01*
X44176Y66445D01*
X44267Y66494D01*
X44345Y66559D01*
X44410Y66638D01*
X44459Y66728D01*
X44491Y66828D01*
X44501Y66935D01*
X44491Y67043D02*
X44501Y66935D01*
X44459Y67142D02*
X44491Y67043D01*
X44410Y67233D02*
X44459Y67142D01*
X44345Y67312D02*
X44410Y67233D01*
X44267Y67377D02*
X44345Y67312D01*
X44176Y67426D02*
X44267Y67377D01*
X44076Y67457D02*
X44176Y67426D01*
X43969Y67468D02*
X44076Y67457D01*
X43872Y67459D02*
X43969Y67468D01*
X43781Y67433D02*
X43872Y67459D01*
X43697Y67393D02*
X43781Y67433D01*
X43622Y67339D02*
X43697Y67393D01*
X43558Y67273D02*
X43622Y67339D01*
X43506Y67197D02*
X43558Y67273D01*
X43467Y67112D02*
X43506Y67197D01*
X43444Y67019D02*
X43467Y67112D01*
X42587Y67019D02*
X43444D01*
X42587D02*
Y67973D01*
Y68150D01*
Y69110D01*
X43445D01*
X43470Y69019D01*
X43509Y68936D01*
X43561Y68861D01*
X43625Y68797D01*
X43700Y68744D01*
X43783Y68704D01*
X43873Y68679D01*
X43969Y68671D01*
X44076Y68681D01*
X44176Y68712D01*
X44267Y68761D01*
X44345Y68826D01*
X44410Y68905D01*
X44459Y68996D01*
X44491Y69096D01*
X44501Y69203D01*
X44491Y69310D02*
X44501Y69203D01*
X44459Y69410D02*
X44491Y69310D01*
X44410Y69500D02*
X44459Y69410D01*
X44345Y69579D02*
X44410Y69500D01*
X44267Y69644D02*
X44345Y69579D01*
X44176Y69693D02*
X44267Y69644D01*
X44076Y69724D02*
X44176Y69693D01*
X43969Y69735D02*
X44076Y69724D01*
X43872Y69726D02*
X43969Y69735D01*
X43781Y69701D02*
X43872Y69726D01*
X43697Y69660D02*
X43781Y69701D01*
X43622Y69606D02*
X43697Y69660D01*
X43558Y69540D02*
X43622Y69606D01*
X43506Y69464D02*
X43558Y69540D01*
X43467Y69379D02*
X43506Y69464D01*
X43444Y69287D02*
X43467Y69379D01*
X42587Y69287D02*
X43444D01*
X42409D02*
X42587D01*
D45*
X79016Y46280D02*
X78350D01*
X79016Y46947D01*
Y47114D01*
X78850Y47280D01*
X78517D01*
X78350Y47114D01*
X79350D02*
X79516Y47280D01*
X79850D01*
X80016Y47114D01*
Y46947D01*
X79850Y46780D01*
X80016Y46614D01*
Y46447D01*
X79850Y46280D01*
X79516D01*
X79350Y46447D01*
Y46614D01*
X79516Y46780D01*
X79350Y46947D01*
Y47114D01*
X79516Y46780D02*
X79850D01*
X78525Y13075D02*
X78858D01*
X78692D01*
Y14075D01*
X78525Y13908D01*
X80025Y14075D02*
X79358D01*
Y13575D01*
X79691Y13741D01*
X79858D01*
X80025Y13575D01*
Y13242D01*
X79858Y13075D01*
X79525D01*
X79358Y13242D01*
X60975Y46385D02*
X61308D01*
X61142D01*
Y47385D01*
X60975Y47218D01*
Y13310D02*
X61308D01*
X61142D01*
Y14310D01*
X60975Y14143D01*
X62308Y13310D02*
Y14310D01*
X61808Y13810D01*
X62475D01*
%TF.MD5,51149ff9a579a54b03b9030a705aca4d*%
M02*
