M48
;Layer_Color=9474304
;FILE_FORMAT=4:3
METRIC,LZ
;TYPE=PLATED
T1F00S00C0.400
T3F00S00C0.700
T4F00S00C1.000
T5F00S00C1.100
T6F00S00C1.170
T7F00S00C3.500
;TYPE=NON_PLATED
T8F00S00C0.650
T9F00S00C3.170
%
T01
X00131Y0010903
X00184Y0010071
X0032651Y00109
X0033008Y0007953
X00356Y0012903
X00368Y00119
X0038646Y0016395
X004Y0015829
X0041507Y0016645
Y0019715
X0045093Y0019503
X0045993Y002053
X00484Y0021
X0050778Y0021878
X00484Y0025635
X0039186Y0023743
X00368Y0019712
X0032651
X00334Y0016755
X00324Y00239
X00298Y00252
X0035874Y0027055
X0044036Y0014152
X00447Y0012903
X0045Y0011341
X0043472
X0046927Y0008593
X0048569Y0008637
X00479Y00077
X0049817
X0051107Y0008593
X0049681Y0010164
X0049061Y0003903
X00508Y00023
X00533Y00013
X00549Y0001186
X005409Y000335
X00528Y00046
X00555Y0008593
X005583Y0015855
X0057978Y0023743
X0045807Y0015597
X0044141Y0003903
X00444Y0002269
X0041507Y0005634
X00404Y0007026
X004Y0032535
X00366Y0033
X0035238Y0035132
X00361Y00384
X0036Y0042
X0039186Y00435
X00404Y0044003
X0041814Y0046089
Y00499
X003595Y0052928
X0034178Y0045046
X0042088Y00399
X0043Y00392
X00451Y00415
X00531Y0042403
X0053111Y0045
X0057916Y00469
X00486Y00335
X00501Y00294
X0050778Y00281
X00292Y00304
X00261Y00316
X00252Y00337
X00234Y00369
X00197Y00377
X00184Y0033
X0016307Y0032642
X00125Y00377
X00059
X0013289Y0044744
X0014714Y0046156
X001636Y0045366
X0017181Y0046288
X0013323Y0053423
X0005328Y0054398
X00258Y00522
X00252Y00399
T03
X0032Y00499
X00345
T04
X001636Y00514
X00189
X002144
T05
X00025Y000798
Y001052
Y001306
Y00156
Y001814
X00029Y002862
Y003116
Y00337
Y003624
Y003878
Y004132
X001306Y00582
X00156
X001814
X002068
T06
X000923Y00066
Y00186
X00573
Y00066
Y00306
Y00426
X000923
Y00306
T07
X00569Y00029
X00029Y00473
T08
X000658Y005201
Y005779
T09
X0033265Y00426
M30
