%TF.GenerationSoftware,Altium Limited,Altium Designer,23.6.0 (18)*%
G04 Layer_Physical_Order=1*
G04 Layer_Color=255*
%FSLAX43Y43*%
%MOMM*%
%TF.SameCoordinates,F25C87D7-65A5-4791-ADD7-2C3EA61E28BD*%
%TF.FilePolarity,Positive*%
%TF.FileFunction,Copper,L1,Top,Signal*%
%TF.Part,Single*%
G01*
G75*
%TA.AperFunction,ConnectorPad*%
%ADD10R,1.500X0.900*%
%TA.AperFunction,BGAPad,CuDef*%
%ADD11R,0.700X0.700*%
%TA.AperFunction,ConnectorPad*%
%ADD12R,1.150X0.300*%
%ADD13R,1.150X0.600*%
%TA.AperFunction,SMDPad,CuDef*%
%ADD14R,1.100X1.350*%
%ADD15R,0.600X0.500*%
%ADD16R,3.800X2.030*%
%ADD17R,0.600X1.100*%
%ADD18R,1.350X1.100*%
%ADD19R,1.475X0.600*%
%ADD20R,0.600X1.475*%
%ADD21R,2.030X3.800*%
%TA.AperFunction,ConnectorPad*%
%ADD22R,2.300X1.500*%
%TA.AperFunction,SMDPad,CuDef*%
%ADD23R,1.525X0.650*%
%ADD24R,1.100X0.600*%
%ADD25R,2.300X1.500*%
%ADD26R,1.500X2.300*%
%ADD27R,0.500X0.400*%
%ADD28R,1.000X1.700*%
%ADD29R,0.700X0.300*%
%ADD30O,1.250X0.400*%
%ADD31R,1.470X1.285*%
%TA.AperFunction,Conductor*%
%ADD32C,0.254*%
%ADD33C,0.350*%
%ADD34C,0.381*%
%TA.AperFunction,ComponentPad*%
%ADD35C,3.170*%
%ADD36C,1.755*%
%ADD37R,1.650X1.650*%
%ADD38C,1.650*%
%ADD39C,0.650*%
%ADD40O,2.100X1.000*%
%ADD41O,1.800X1.000*%
%ADD42C,1.500*%
%ADD43C,1.600*%
G04:AMPARAMS|DCode=44|XSize=1.6mm|YSize=1.6mm|CornerRadius=0.4mm|HoleSize=0mm|Usage=FLASHONLY|Rotation=0.000|XOffset=0mm|YOffset=0mm|HoleType=Round|Shape=RoundedRectangle|*
%AMROUNDEDRECTD44*
21,1,1.600,0.800,0,0,0.0*
21,1,0.800,1.600,0,0,0.0*
1,1,0.800,0.400,-0.400*
1,1,0.800,-0.400,-0.400*
1,1,0.800,-0.400,0.400*
1,1,0.800,0.400,0.400*
%
%ADD44ROUNDEDRECTD44*%
%ADD45C,1.200*%
%TA.AperFunction,ViaPad*%
%ADD46C,0.800*%
G36*
X5990Y59585D02*
X5961Y59548D01*
X5896Y59390D01*
X5873Y59220D01*
X5896Y59050D01*
X5961Y58892D01*
X6066Y58756D01*
X6202Y58651D01*
X6360Y58586D01*
X6530Y58563D01*
X6880D01*
Y58354D01*
X6720Y58247D01*
X6675Y58266D01*
X6485D01*
X6310Y58194D01*
X6176Y58060D01*
X6104Y57885D01*
Y57695D01*
X6167Y57543D01*
X6130Y57449D01*
X6087Y57383D01*
X5550D01*
X5442Y57362D01*
X5350Y57300D01*
X4300Y56250D01*
X4238Y56158D01*
X4217Y56050D01*
Y53628D01*
X4238Y53520D01*
X4300Y53428D01*
X5315Y52413D01*
X5407Y52351D01*
X5515Y52330D01*
X6024D01*
X6131Y52170D01*
X6104Y52105D01*
Y51915D01*
X6176Y51740D01*
X6310Y51606D01*
X6485Y51534D01*
X6675D01*
X6720Y51553D01*
X6880Y51446D01*
Y51237D01*
X6530D01*
X6360Y51214D01*
X6202Y51149D01*
X6066Y51044D01*
X5961Y50908D01*
X5896Y50750D01*
X5873Y50580D01*
X5896Y50410D01*
X5961Y50252D01*
X6066Y50116D01*
X6202Y50011D01*
X6360Y49946D01*
X6530Y49923D01*
X7630D01*
X7800Y49946D01*
X7958Y50011D01*
X8094Y50116D01*
X8199Y50252D01*
X8264Y50410D01*
X8287Y50580D01*
X8264Y50750D01*
X8199Y50908D01*
X8098Y51040D01*
X8101Y51060D01*
X8154Y51200D01*
X8430D01*
Y51600D01*
X7655D01*
Y51800D01*
X8430D01*
Y51960D01*
X8578Y52021D01*
X9117Y51483D01*
Y49626D01*
X8899D01*
Y47974D01*
X10301D01*
Y49626D01*
X9817D01*
X9764Y49690D01*
X9839Y49850D01*
X10460D01*
Y50600D01*
X10560D01*
Y50700D01*
X11435D01*
Y51350D01*
X11413D01*
X11386Y51499D01*
X11386Y51510D01*
Y52901D01*
X9734D01*
Y52762D01*
X9586Y52701D01*
X8887Y53400D01*
X8795Y53462D01*
X8686Y53483D01*
X8381D01*
Y54310D01*
X8897D01*
X9554Y53654D01*
X9667Y53578D01*
X9800Y53552D01*
X11167D01*
X17792Y46927D01*
Y46666D01*
X17708Y46628D01*
X17632Y46616D01*
X17493Y46755D01*
X17291Y46839D01*
X17100D01*
X16404Y47535D01*
X16296Y47607D01*
X16169Y47632D01*
X11532D01*
Y47974D01*
X11901D01*
Y49626D01*
X10499D01*
Y47974D01*
X10868D01*
Y47350D01*
Y46566D01*
X7849D01*
Y44234D01*
X10441D01*
Y42863D01*
X10281Y42842D01*
X10234Y43016D01*
X10092Y43262D01*
X9892Y43462D01*
X9646Y43604D01*
X9372Y43678D01*
X9330D01*
Y42600D01*
Y41523D01*
X9372D01*
X9646Y41596D01*
X9892Y41738D01*
X10092Y41938D01*
X10234Y42184D01*
X10281Y42358D01*
X10441Y42337D01*
Y38040D01*
X9314D01*
Y37232D01*
X9026D01*
Y37601D01*
X7374D01*
Y36210D01*
X7374Y36199D01*
X7347Y36050D01*
X7325D01*
Y35400D01*
X9075D01*
Y36050D01*
X9053D01*
X9026Y36199D01*
X9026Y36210D01*
Y36568D01*
X9314D01*
Y36453D01*
X11086D01*
Y37664D01*
X11105Y37762D01*
Y44234D01*
X11951D01*
Y46566D01*
X11532D01*
Y46968D01*
X16031D01*
X16630Y46369D01*
Y46178D01*
X16708Y45991D01*
X16681Y45943D01*
X16601Y45862D01*
X16470Y45917D01*
X16250D01*
X16048Y45833D01*
X15893Y45678D01*
X15809Y45475D01*
Y45256D01*
X15893Y45054D01*
X15972Y44974D01*
X15965Y44793D01*
X15850Y44775D01*
Y44775D01*
X15200D01*
Y43900D01*
X15100D01*
Y43800D01*
X14350D01*
Y43066D01*
X14350Y43025D01*
X14399Y42885D01*
X14399Y42865D01*
Y42432D01*
X13886D01*
Y43551D01*
X13052D01*
Y43962D01*
X13283Y44193D01*
X13398D01*
X13601Y44277D01*
X13756Y44432D01*
X13840Y44634D01*
Y44854D01*
X13756Y45056D01*
X13601Y45211D01*
X13398Y45295D01*
X13179D01*
X12976Y45211D01*
X12821Y45056D01*
X12738Y44854D01*
Y44634D01*
X12751Y44601D01*
X12485Y44335D01*
X12413Y44227D01*
X12388Y44100D01*
Y43551D01*
X11554D01*
Y39449D01*
X12168D01*
Y38147D01*
X12033Y38012D01*
X11949Y37810D01*
Y37590D01*
X12033Y37388D01*
X12188Y37233D01*
X12390Y37149D01*
X12610D01*
X12812Y37233D01*
X12914Y37335D01*
X13074Y37269D01*
Y36199D01*
X13617D01*
Y34500D01*
X13638Y34392D01*
X13700Y34300D01*
X13883Y34116D01*
X13975Y34055D01*
X14034Y34043D01*
X14051Y34023D01*
X14094Y33921D01*
X14099Y33873D01*
X14054Y33807D01*
X14027Y33670D01*
X14054Y33533D01*
X14091Y33478D01*
X14013Y33318D01*
X13126D01*
Y33590D01*
X13126Y33601D01*
X13153Y33750D01*
X13175D01*
Y34400D01*
X12300D01*
X11425D01*
Y33750D01*
X11447D01*
X11474Y33601D01*
X11474Y33590D01*
Y33318D01*
X10901D01*
Y33861D01*
X10483D01*
Y34507D01*
X11086D01*
Y36094D01*
X9314D01*
Y34507D01*
X9917D01*
Y33861D01*
X9510D01*
X9499Y33861D01*
X9350Y33888D01*
Y33910D01*
X8700D01*
Y33035D01*
Y32160D01*
X9350D01*
Y32182D01*
X9499Y32209D01*
X9510Y32209D01*
X10901D01*
Y32752D01*
X11474D01*
Y32199D01*
X13126D01*
Y32752D01*
X13946D01*
X14032Y32592D01*
X14008Y32556D01*
X13997Y32500D01*
X14810D01*
Y32300D01*
X13997D01*
X14008Y32244D01*
X14062Y32164D01*
X14132Y32018D01*
X14054Y31902D01*
X14027Y31765D01*
X14054Y31628D01*
X14132Y31512D01*
Y31383D01*
X14054Y31267D01*
X14027Y31130D01*
X14054Y30993D01*
X14132Y30877D01*
Y30748D01*
X14054Y30632D01*
X14027Y30495D01*
X14054Y30358D01*
X14132Y30242D01*
X14248Y30164D01*
X14385Y30137D01*
X15235D01*
X15372Y30164D01*
X15488Y30242D01*
X15566Y30358D01*
X15593Y30495D01*
X15566Y30632D01*
X15488Y30748D01*
Y30877D01*
X15566Y30993D01*
X15593Y31130D01*
X15566Y31267D01*
X15488Y31383D01*
Y31512D01*
X15566Y31628D01*
X15593Y31765D01*
X15566Y31902D01*
X15488Y32018D01*
X15558Y32164D01*
X15612Y32244D01*
X15641Y32391D01*
X15651Y32398D01*
X15809Y32405D01*
X15840Y32330D01*
X15995Y32175D01*
X16197Y32091D01*
X16417D01*
X16443Y32102D01*
X16981Y31565D01*
X17073Y31503D01*
X17181Y31482D01*
X17317D01*
Y29726D01*
X16599D01*
Y28074D01*
X18001D01*
Y29726D01*
X17883D01*
Y31482D01*
X19263D01*
X19341Y31322D01*
X19304Y31267D01*
X19277Y31130D01*
X19304Y30993D01*
X19382Y30877D01*
Y30748D01*
X19304Y30632D01*
X19277Y30495D01*
X19304Y30358D01*
X19382Y30242D01*
X19498Y30164D01*
X19635Y30137D01*
X19777D01*
Y29183D01*
X19601D01*
Y29726D01*
X18199D01*
Y28074D01*
X18617D01*
Y27583D01*
X15371D01*
Y28866D01*
X11269D01*
Y26534D01*
X15371D01*
Y27017D01*
X18617D01*
Y26449D01*
X18638Y26340D01*
X18700Y26248D01*
X26748Y18200D01*
X26840Y18138D01*
X26949Y18117D01*
X34420D01*
X34574Y18101D01*
X34574Y17846D01*
X34461Y17732D01*
X34048D01*
X33921Y17707D01*
X33813Y17635D01*
X33484Y17306D01*
X33290D01*
X33088Y17222D01*
X32933Y17067D01*
X32849Y16865D01*
Y16645D01*
X32933Y16443D01*
X33088Y16288D01*
X33290Y16204D01*
X33510D01*
X33712Y16288D01*
X33867Y16443D01*
X33951Y16645D01*
Y16833D01*
X34185Y17068D01*
X34574D01*
Y16699D01*
X36143Y16699D01*
X36253Y16601D01*
X36257Y16574D01*
X36240Y16510D01*
X36211Y16501D01*
X34574D01*
Y16033D01*
X32401D01*
Y17051D01*
X30599D01*
Y14543D01*
X30599Y14449D01*
X30466Y14383D01*
X21017D01*
X6580Y28820D01*
X6488Y28882D01*
X6380Y28903D01*
X3876D01*
Y29596D01*
X1924D01*
Y27644D01*
X3876D01*
Y28337D01*
X6263D01*
X20700Y13900D01*
X20792Y13838D01*
X20900Y13817D01*
X20900Y13817D01*
X34847D01*
Y13274D01*
X34984D01*
X35091Y13114D01*
X35049Y13012D01*
Y12793D01*
X35133Y12591D01*
X35288Y12436D01*
X35490Y12352D01*
X35710D01*
X35912Y12436D01*
X36067Y12591D01*
X36151Y12793D01*
Y13012D01*
X36109Y13114D01*
X36216Y13274D01*
X36249D01*
Y14926D01*
X34847D01*
Y14383D01*
X32534D01*
X32401Y14449D01*
X32401Y14543D01*
Y15467D01*
X34574D01*
Y15099D01*
X36226D01*
Y15099D01*
X36374Y15099D01*
Y15099D01*
X36917D01*
Y14926D01*
X36447D01*
Y13274D01*
X37849D01*
Y14926D01*
X37483D01*
Y15099D01*
X38026D01*
Y16033D01*
X38148Y16073D01*
X38186Y16076D01*
X38333Y15928D01*
X38362Y15916D01*
Y15113D01*
X38384Y15004D01*
X38445Y14912D01*
X39959Y13398D01*
X39898Y13250D01*
X39125D01*
Y12600D01*
X40000D01*
Y12400D01*
X39125D01*
Y11750D01*
X39147D01*
X39174Y11601D01*
X39174D01*
Y10199D01*
X40826D01*
Y10617D01*
X41273D01*
Y9649D01*
Y8783D01*
X39951D01*
Y9666D01*
X37039D01*
X37012Y9671D01*
X34281D01*
X33190Y10762D01*
X33202Y10790D01*
Y11010D01*
X33118Y11212D01*
X32963Y11367D01*
X32761Y11451D01*
X32770Y11607D01*
X36325D01*
X36333Y11588D01*
X36488Y11433D01*
X36690Y11349D01*
X36910D01*
X37112Y11433D01*
X37267Y11588D01*
X37351Y11790D01*
Y12010D01*
X37267Y12212D01*
X37112Y12367D01*
X36910Y12451D01*
X36690D01*
X36488Y12367D01*
X36333Y12212D01*
X36317Y12174D01*
X14027D01*
X9513Y16687D01*
Y17611D01*
X9627Y17642D01*
X9862Y17777D01*
X10053Y17969D01*
X10188Y18203D01*
X10259Y18465D01*
Y18735D01*
X10188Y18997D01*
X10053Y19232D01*
X9862Y19423D01*
X9627Y19558D01*
X9365Y19629D01*
X9095D01*
X8833Y19558D01*
X8599Y19423D01*
X8407Y19232D01*
X8272Y18997D01*
X8202Y18735D01*
Y18465D01*
X8272Y18203D01*
X8407Y17969D01*
X8599Y17777D01*
X8833Y17642D01*
X8947Y17611D01*
Y16570D01*
X8968Y16462D01*
X9030Y16370D01*
X13709Y11690D01*
X13801Y11629D01*
X13909Y11607D01*
X32533D01*
X32542Y11451D01*
X32339Y11367D01*
X32184Y11212D01*
X32173Y11185D01*
X13580D01*
X13567Y11215D01*
X13412Y11370D01*
X13210Y11454D01*
X12990D01*
X12788Y11370D01*
X12633Y11215D01*
X12549Y11012D01*
Y10793D01*
X12633Y10591D01*
X12788Y10436D01*
X12990Y10352D01*
X13210D01*
X13412Y10436D01*
X13567Y10591D01*
X13578Y10618D01*
X17942D01*
X18008Y10458D01*
X17933Y10383D01*
X17849Y10180D01*
Y9961D01*
X17933Y9758D01*
X18088Y9603D01*
X18290Y9520D01*
X18510D01*
X18538Y9531D01*
X21063Y7007D01*
X21155Y6945D01*
X21264Y6924D01*
X36766D01*
X37988Y5701D01*
X37927Y5553D01*
X36542D01*
Y5634D01*
X36521Y5743D01*
X36459Y5835D01*
X35894Y6400D01*
X35802Y6462D01*
X35693Y6483D01*
X12517D01*
X5740Y13260D01*
X5648Y13322D01*
X5540Y13343D01*
X3434D01*
X3409Y13437D01*
X3281Y13659D01*
X3099Y13841D01*
X2877Y13969D01*
X2628Y14036D01*
X2372D01*
X2123Y13969D01*
X1901Y13841D01*
X1719Y13659D01*
X1591Y13437D01*
X1524Y13188D01*
Y12932D01*
X1591Y12683D01*
X1719Y12461D01*
X1901Y12279D01*
X2123Y12151D01*
X2372Y12084D01*
X2628D01*
X2877Y12151D01*
X3099Y12279D01*
X3281Y12461D01*
X3409Y12683D01*
X3434Y12777D01*
X5423D01*
X7056Y11143D01*
X6989Y10983D01*
X3359D01*
X3281Y11119D01*
X3099Y11301D01*
X2877Y11429D01*
X2628Y11496D01*
X2372D01*
X2123Y11429D01*
X1901Y11301D01*
X1719Y11119D01*
X1591Y10897D01*
X1524Y10648D01*
Y10392D01*
X1591Y10143D01*
X1719Y9921D01*
X1901Y9739D01*
X2123Y9611D01*
X2372Y9544D01*
X2628D01*
X2877Y9611D01*
X3099Y9739D01*
X3281Y9921D01*
X3409Y10143D01*
X3476Y10392D01*
Y10417D01*
X6983D01*
X9660Y7739D01*
X9655Y7715D01*
X9467Y7601D01*
X9365Y7628D01*
X9095D01*
X8833Y7558D01*
X8599Y7423D01*
X8407Y7232D01*
X8272Y6997D01*
X8202Y6735D01*
Y6465D01*
X8272Y6203D01*
X8407Y5968D01*
X8599Y5777D01*
X8833Y5642D01*
X9095Y5571D01*
X9365D01*
X9627Y5642D01*
X9862Y5777D01*
X10053Y5968D01*
X10188Y6203D01*
X10259Y6465D01*
Y6735D01*
X10231Y6837D01*
X10345Y7025D01*
X10369Y7030D01*
X11874Y5526D01*
X11966Y5464D01*
X12074Y5443D01*
X29898D01*
X30242Y5099D01*
X30180Y4951D01*
X28334D01*
Y3183D01*
X7697D01*
X3361Y7520D01*
X3409Y7603D01*
X3476Y7852D01*
Y8108D01*
X3409Y8357D01*
X3281Y8579D01*
X3099Y8761D01*
X2877Y8889D01*
X2628Y8956D01*
X2372D01*
X2123Y8889D01*
X1901Y8761D01*
X1719Y8579D01*
X1591Y8357D01*
X1524Y8108D01*
Y7852D01*
X1591Y7603D01*
X1719Y7381D01*
X1901Y7199D01*
X2123Y7071D01*
X2372Y7004D01*
X2628D01*
X2877Y7071D01*
X2960Y7119D01*
X7380Y2700D01*
X7472Y2638D01*
X7580Y2617D01*
X28334D01*
Y849D01*
X30666D01*
Y1017D01*
X31183D01*
X31784Y415D01*
X31718Y255D01*
X255D01*
Y59745D01*
X1881D01*
X1960Y59585D01*
X1931Y59548D01*
X1866Y59390D01*
X1843Y59220D01*
X1866Y59050D01*
X1931Y58892D01*
X2036Y58756D01*
X2172Y58651D01*
X2330Y58586D01*
X2500Y58563D01*
X3300D01*
X3470Y58586D01*
X3628Y58651D01*
X3764Y58756D01*
X3869Y58892D01*
X3934Y59050D01*
X3957Y59220D01*
X3934Y59390D01*
X3869Y59548D01*
X3840Y59585D01*
X3919Y59745D01*
X5911D01*
X5990Y59585D01*
D02*
G37*
G36*
X6929Y55490D02*
X6542D01*
X6408Y55463D01*
X6295Y55388D01*
X6048Y55141D01*
X5973Y55028D01*
X5946Y54894D01*
Y54747D01*
X5759D01*
X5640Y54865D01*
X5437Y54949D01*
X5218D01*
X5016Y54865D01*
X4943Y54793D01*
X4783Y54859D01*
Y55933D01*
X5667Y56817D01*
X6929D01*
Y55490D01*
D02*
G37*
G36*
X6244Y53912D02*
X6357Y53837D01*
X6490Y53810D01*
X6929D01*
Y53040D01*
X6830Y52896D01*
X5632D01*
X4783Y53745D01*
Y53937D01*
X4943Y54003D01*
X5016Y53931D01*
X5218Y53847D01*
X5437D01*
X5640Y53931D01*
X5759Y54050D01*
X6106D01*
X6244Y53912D01*
D02*
G37*
G36*
X22245Y54000D02*
X22265Y53902D01*
X22289Y53866D01*
X22248Y53706D01*
X21740D01*
X18423Y57022D01*
Y57291D01*
X18507Y57314D01*
X18724Y57439D01*
X18901Y57616D01*
X19026Y57833D01*
X19091Y58075D01*
Y58325D01*
X19026Y58567D01*
X18901Y58784D01*
X18724Y58961D01*
X18507Y59086D01*
X18265Y59151D01*
X18015D01*
X17773Y59086D01*
X17556Y58961D01*
X17379Y58784D01*
X17254Y58567D01*
X17189Y58325D01*
Y58075D01*
X17254Y57833D01*
X17379Y57616D01*
X17556Y57439D01*
X17773Y57314D01*
X17857Y57291D01*
Y56905D01*
X17878Y56797D01*
X17940Y56705D01*
X21273Y53371D01*
X21206Y53211D01*
X19952D01*
X16005Y57158D01*
X15999Y57185D01*
X16036Y57354D01*
X16184Y57439D01*
X16361Y57616D01*
X16486Y57833D01*
X16551Y58075D01*
Y58325D01*
X16486Y58567D01*
X16361Y58784D01*
X16184Y58961D01*
X15967Y59086D01*
X15725Y59151D01*
X15475D01*
X15233Y59086D01*
X15016Y58961D01*
X14839Y58784D01*
X14714Y58567D01*
X14649Y58325D01*
Y58075D01*
X14714Y57833D01*
X14839Y57616D01*
X15016Y57439D01*
X15233Y57314D01*
X15317Y57291D01*
Y57162D01*
X15338Y57054D01*
X15400Y56962D01*
X19634Y52728D01*
X19726Y52666D01*
X19834Y52645D01*
X25256D01*
X25321Y52485D01*
X25249Y52310D01*
Y52090D01*
X25333Y51888D01*
X25488Y51733D01*
X25690Y51649D01*
X25910D01*
X26112Y51733D01*
X26247Y51868D01*
X26774D01*
Y51410D01*
X26774Y51399D01*
X26747Y51250D01*
X26725D01*
Y50600D01*
X27600D01*
Y50500D01*
X27700D01*
Y49750D01*
X29200D01*
Y50500D01*
X29300D01*
Y50600D01*
X30175D01*
Y51250D01*
X30153D01*
X30126Y51399D01*
X30126Y51410D01*
Y52645D01*
X32596D01*
X34447Y50794D01*
X34372Y50643D01*
X34210Y50600D01*
X34039Y50501D01*
X33899Y50361D01*
X33800Y50190D01*
X33749Y49999D01*
Y49801D01*
X33800Y49610D01*
X33899Y49439D01*
X34039Y49299D01*
X34210Y49200D01*
X34401Y49149D01*
X34599D01*
X34790Y49200D01*
X34961Y49299D01*
X35101Y49439D01*
X35200Y49610D01*
X35251Y49801D01*
Y49999D01*
X35200Y50190D01*
X35191Y50206D01*
X35271Y50345D01*
X36949D01*
Y49299D01*
X38751D01*
Y49982D01*
X38899Y50043D01*
X45243Y43700D01*
X45335Y43638D01*
X45443Y43617D01*
X54449D01*
Y43299D01*
X56251D01*
Y44501D01*
X54449D01*
Y44183D01*
X45561D01*
X38916Y50828D01*
X38824Y50890D01*
X38751Y50904D01*
Y51117D01*
X40197D01*
X41024Y50289D01*
X41024Y50289D01*
X41275Y50038D01*
X41263Y50010D01*
Y49790D01*
X41347Y49588D01*
X41502Y49433D01*
X41704Y49349D01*
X41924D01*
X42126Y49433D01*
X42281Y49588D01*
X42365Y49790D01*
Y50010D01*
X42281Y50212D01*
X42126Y50367D01*
X41924Y50451D01*
X41704D01*
X41676Y50439D01*
X41425Y50690D01*
X41425Y50690D01*
X40514Y51600D01*
X40422Y51662D01*
X40314Y51683D01*
X38751D01*
Y51889D01*
X45822D01*
X52572Y45138D01*
X52560Y45110D01*
Y44890D01*
X52644Y44688D01*
X52799Y44533D01*
X53002Y44449D01*
X53221D01*
X53423Y44533D01*
X53578Y44688D01*
X53662Y44890D01*
Y45110D01*
X53578Y45312D01*
X53423Y45467D01*
X53221Y45551D01*
X53002D01*
X52973Y45539D01*
X46140Y52372D01*
X46048Y52434D01*
X45939Y52455D01*
X38751D01*
Y53501D01*
X36949D01*
Y53260D01*
X36397D01*
X36262Y53395D01*
X36060Y53479D01*
X35840D01*
X35638Y53395D01*
X35483Y53240D01*
X35399Y53038D01*
Y52818D01*
X35483Y52616D01*
X35483Y52615D01*
X35417Y52455D01*
X34725D01*
X33640Y53540D01*
X33706Y53700D01*
X59745D01*
Y255D01*
X54499D01*
X54432Y415D01*
X54693Y675D01*
X54790Y635D01*
X55010D01*
X55212Y719D01*
X55367Y874D01*
X55451Y1076D01*
Y1296D01*
X55367Y1498D01*
X55212Y1653D01*
X55010Y1737D01*
X54790D01*
X54588Y1653D01*
X54433Y1498D01*
X54349Y1296D01*
Y1133D01*
X53972Y756D01*
X53762D01*
X53696Y916D01*
X53767Y988D01*
X53851Y1190D01*
Y1410D01*
X53767Y1612D01*
X53612Y1767D01*
X53410Y1851D01*
X53218D01*
X53164Y1926D01*
X53139Y1999D01*
X53951Y2811D01*
X53980Y2799D01*
X54199D01*
X54402Y2883D01*
X54557Y3038D01*
X54641Y3241D01*
Y3460D01*
X54557Y3662D01*
X54402Y3817D01*
X54199Y3901D01*
X53980D01*
X53778Y3817D01*
X53623Y3662D01*
X53539Y3460D01*
Y3241D01*
X53550Y3212D01*
X52213Y1874D01*
X51363D01*
X51286Y2034D01*
X51351Y2190D01*
Y2410D01*
X51339Y2438D01*
X52100Y3200D01*
X52162Y3292D01*
X52183Y3400D01*
Y4231D01*
X52293Y4273D01*
X52343Y4277D01*
X52488Y4133D01*
X52690Y4049D01*
X52910D01*
X53112Y4133D01*
X53247Y4268D01*
X55185D01*
X55312Y4293D01*
X55420Y4365D01*
X55865Y4810D01*
X56125D01*
X56157Y4650D01*
X56000Y4585D01*
X55688Y4377D01*
X55423Y4112D01*
X55215Y3800D01*
X55072Y3454D01*
X54999Y3087D01*
Y2713D01*
X55072Y2345D01*
X55215Y2000D01*
X55423Y1688D01*
X55688Y1423D01*
X56000Y1215D01*
X56346Y1072D01*
X56713Y999D01*
X57087D01*
X57455Y1072D01*
X57800Y1215D01*
X58112Y1423D01*
X58377Y1688D01*
X58585Y2000D01*
X58728Y2345D01*
X58801Y2713D01*
Y3087D01*
X58728Y3454D01*
X58585Y3800D01*
X58377Y4112D01*
X58112Y4377D01*
X57800Y4585D01*
X57643Y4650D01*
X57675Y4810D01*
X58065D01*
X58192Y4835D01*
X58300Y4907D01*
X58947Y5554D01*
X59019Y5662D01*
X59044Y5789D01*
Y11100D01*
Y19367D01*
X59019Y19494D01*
X58947Y19602D01*
X55432Y23116D01*
Y24599D01*
X55926D01*
Y26001D01*
X54274D01*
Y25632D01*
X54028D01*
X53790Y25870D01*
X53683Y25942D01*
X53555Y25967D01*
X53304D01*
Y26111D01*
X51477D01*
Y25967D01*
X48847D01*
X48732Y26082D01*
Y30874D01*
X49201D01*
Y32526D01*
X48932D01*
Y33053D01*
X49067Y33188D01*
X49151Y33390D01*
Y33610D01*
X49067Y33812D01*
X48912Y33967D01*
X48710Y34051D01*
X48490D01*
X48288Y33967D01*
X48276Y33955D01*
X48116Y34021D01*
Y34374D01*
X48601D01*
Y34917D01*
X53623D01*
X53731Y34938D01*
X53823Y35000D01*
X55440Y36617D01*
X56849D01*
Y35999D01*
X59451D01*
Y37801D01*
X56849D01*
Y37183D01*
X55323D01*
X55215Y37162D01*
X55123Y37100D01*
X53506Y35483D01*
X48601D01*
Y36026D01*
X48601D01*
Y36074D01*
X48601D01*
Y37726D01*
X48601D01*
Y37874D01*
X48601D01*
Y39526D01*
X48183D01*
Y40000D01*
X48162Y40108D01*
X48100Y40200D01*
X42352Y45949D01*
X42365Y45979D01*
Y46198D01*
X42281Y46401D01*
X42126Y46556D01*
X41924Y46640D01*
X41704D01*
X41502Y46556D01*
X41347Y46401D01*
X41263Y46198D01*
Y45979D01*
X41347Y45777D01*
X41502Y45622D01*
X41704Y45538D01*
X41924D01*
X41950Y45549D01*
X45321Y42178D01*
X45231Y42042D01*
X45210Y42051D01*
X44990D01*
X44788Y41967D01*
X44633Y41812D01*
X44549Y41610D01*
Y41390D01*
X44633Y41188D01*
X44788Y41033D01*
X44990Y40949D01*
X45181D01*
X45968Y40162D01*
Y39526D01*
X45599D01*
X45599Y37915D01*
X45550Y37775D01*
X45550Y37734D01*
Y37000D01*
X46300D01*
Y36800D01*
X45550D01*
Y36025D01*
Y35300D01*
X46300D01*
Y35200D01*
X46400D01*
Y34325D01*
X47050D01*
Y34347D01*
X47199Y34374D01*
X47210Y34374D01*
X47549D01*
Y33890D01*
X46343Y32683D01*
X45251D01*
Y33566D01*
X41149D01*
Y32818D01*
X40479D01*
X40467Y32847D01*
X40312Y33002D01*
X40110Y33086D01*
X39890D01*
X39688Y33002D01*
X39533Y32847D01*
X39449Y32644D01*
Y32425D01*
X39533Y32223D01*
X39688Y32068D01*
X39890Y31984D01*
X40110D01*
X40312Y32068D01*
X40467Y32223D01*
X40479Y32251D01*
X41149D01*
Y31234D01*
X45251D01*
Y32117D01*
X46460D01*
X46568Y32138D01*
X46660Y32200D01*
X47889Y33428D01*
X47972Y33409D01*
X48057Y33370D01*
X48133Y33188D01*
X48268Y33053D01*
Y32526D01*
X47799D01*
Y30874D01*
X48068D01*
Y27480D01*
X47928Y27430D01*
X47908Y27430D01*
X47066D01*
Y26905D01*
Y26380D01*
X47908D01*
X47928Y26380D01*
X47997Y26355D01*
Y26292D01*
X47848Y26160D01*
X47066D01*
Y25635D01*
Y25110D01*
X47928D01*
Y25110D01*
X48088Y25168D01*
X48290Y25084D01*
X48510D01*
X48712Y25168D01*
X48847Y25303D01*
X51477D01*
Y25159D01*
X52058D01*
Y24559D01*
X52068Y24508D01*
Y24326D01*
X51710D01*
X51699Y24326D01*
X51550Y24353D01*
Y24375D01*
X50900D01*
Y23500D01*
Y22625D01*
X51550D01*
Y22647D01*
X51699Y22674D01*
X51710Y22674D01*
X53101D01*
Y24326D01*
X52732D01*
Y24549D01*
X52722Y24599D01*
Y25159D01*
X53304D01*
Y25192D01*
X53464Y25257D01*
X53655Y25065D01*
X53763Y24993D01*
X53890Y24968D01*
X54274D01*
Y24599D01*
X54768D01*
Y22979D01*
X54793Y22851D01*
X54865Y22744D01*
X58347Y19261D01*
X58336Y19183D01*
X58170Y19151D01*
X58123Y19232D01*
X57932Y19423D01*
X57697Y19558D01*
X57435Y19629D01*
X57165D01*
X56903Y19558D01*
X56669Y19423D01*
X56477Y19232D01*
X56342Y18997D01*
X56272Y18735D01*
Y18465D01*
X56342Y18203D01*
X56477Y17969D01*
X56669Y17777D01*
X56903Y17642D01*
X57165Y17572D01*
X57435D01*
X57697Y17642D01*
X57932Y17777D01*
X58123Y17969D01*
X58219Y18135D01*
X58379Y18092D01*
Y11432D01*
X56926D01*
Y11790D01*
X56926Y11801D01*
X56953Y11950D01*
X56975D01*
Y12600D01*
X55225D01*
Y11950D01*
X55247D01*
X55274Y11801D01*
X55274Y11790D01*
Y11646D01*
X55114Y11580D01*
X54843Y11851D01*
X54735Y11923D01*
X54706Y11929D01*
X54576Y12000D01*
Y12400D01*
X52701D01*
Y12000D01*
X52750D01*
Y11249D01*
Y10383D01*
X52451D01*
X50540Y12295D01*
X50448Y12357D01*
X50339Y12378D01*
X45181D01*
X45115Y12538D01*
X45167Y12591D01*
X45251Y12793D01*
Y13012D01*
X45167Y13215D01*
X45012Y13370D01*
X44810Y13454D01*
X44590D01*
X44388Y13370D01*
X44233Y13215D01*
X44149Y13012D01*
Y12900D01*
X44032Y12783D01*
X43050D01*
Y13649D01*
Y14449D01*
Y15047D01*
X43210Y15113D01*
X43714Y14609D01*
X43569Y14465D01*
X43485Y14262D01*
Y14043D01*
X43569Y13840D01*
X43724Y13685D01*
X43927Y13601D01*
X44146D01*
X44348Y13685D01*
X44503Y13840D01*
X44587Y14043D01*
Y14116D01*
X44747Y14182D01*
X45830Y13100D01*
X45922Y13038D01*
X46030Y13017D01*
X52547D01*
X52701Y13000D01*
Y12600D01*
X54576D01*
Y13000D01*
X54527D01*
Y13649D01*
Y14449D01*
Y15478D01*
X55428D01*
X55518Y15388D01*
X55721Y15304D01*
X55940D01*
X56142Y15388D01*
X56297Y15543D01*
X56381Y15746D01*
Y15965D01*
X56297Y16167D01*
X56142Y16322D01*
X55940Y16406D01*
X55721D01*
X55518Y16322D01*
X55363Y16167D01*
X55313Y16045D01*
X54527D01*
Y16151D01*
X52750D01*
Y15249D01*
Y14383D01*
X45925D01*
X43907Y16402D01*
X43968Y16550D01*
X46017D01*
Y16326D01*
X45838Y16148D01*
X45698D01*
X45495Y16064D01*
X45340Y15909D01*
X45256Y15707D01*
Y15487D01*
X45340Y15285D01*
X45495Y15130D01*
X45698Y15046D01*
X45917D01*
X46119Y15130D01*
X46274Y15285D01*
X46358Y15487D01*
Y15707D01*
X46312Y15820D01*
X46500Y16008D01*
X46562Y16100D01*
X46583Y16209D01*
Y16550D01*
X47400D01*
Y16501D01*
X47800D01*
Y17438D01*
Y18376D01*
X47432D01*
Y18674D01*
X47790D01*
X47801Y18674D01*
X47950Y18647D01*
Y18625D01*
X48600D01*
Y19500D01*
X48700D01*
Y19600D01*
X49450D01*
Y20375D01*
X48749D01*
X48714Y20523D01*
X48714Y20535D01*
X48867Y20688D01*
X48951Y20890D01*
Y21110D01*
X48867Y21312D01*
X48745Y21435D01*
X48788Y21586D01*
X48794Y21595D01*
X50299D01*
X50311Y21566D01*
X50466Y21411D01*
X50668Y21327D01*
X50888D01*
X51090Y21411D01*
X51245Y21566D01*
X51329Y21768D01*
Y21988D01*
X51245Y22190D01*
X51090Y22345D01*
X50888Y22429D01*
X50668D01*
X50466Y22345D01*
X50311Y22190D01*
X50299Y22161D01*
X44566D01*
Y23651D01*
X42234D01*
Y19549D01*
X43617D01*
Y18327D01*
X43449D01*
Y17068D01*
X43301Y17007D01*
X41261Y19047D01*
X41352Y19183D01*
X41398Y19164D01*
X41617D01*
X41819Y19247D01*
X41974Y19402D01*
X42058Y19605D01*
Y19824D01*
X41974Y20027D01*
X41819Y20182D01*
X41617Y20266D01*
X41398D01*
X41195Y20182D01*
X41040Y20027D01*
X41028Y19997D01*
X37278D01*
X37267Y20024D01*
X37112Y20179D01*
X37003Y20224D01*
X37035Y20384D01*
X40697D01*
Y22716D01*
X39469D01*
Y23264D01*
X39498Y23276D01*
X39653Y23431D01*
X39737Y23634D01*
Y23853D01*
X39653Y24055D01*
X39498Y24210D01*
X39295Y24294D01*
X39076D01*
X38874Y24210D01*
X38719Y24055D01*
X38635Y23853D01*
Y23634D01*
X38719Y23431D01*
X38874Y23276D01*
X38902Y23264D01*
Y22716D01*
X36595D01*
Y20384D01*
X36595D01*
X36597Y20224D01*
X36488Y20179D01*
X36333Y20024D01*
X36249Y19821D01*
Y19602D01*
X36315Y19443D01*
X36240Y19283D01*
X34267D01*
X34251Y19443D01*
X34284Y19450D01*
X34376Y19511D01*
X34950Y20086D01*
X35012Y20178D01*
X35033Y20287D01*
Y20849D01*
X35201D01*
Y22251D01*
X34299D01*
Y20849D01*
X34467D01*
Y20404D01*
X34058Y19995D01*
X33130D01*
X33118Y20024D01*
X32963Y20179D01*
X32761Y20263D01*
X32542D01*
X32339Y20179D01*
X32184Y20024D01*
X32100Y19821D01*
Y19602D01*
X32166Y19443D01*
X32091Y19283D01*
X28217D01*
X25700Y21800D01*
X25700Y21800D01*
X23683Y23817D01*
Y26134D01*
X25451D01*
Y28466D01*
X22583D01*
Y29174D01*
X23001D01*
Y30826D01*
X21599D01*
Y30724D01*
X21451Y30663D01*
X20856Y31257D01*
X20794Y31299D01*
X20738Y31383D01*
Y31512D01*
X20758Y31541D01*
X20808Y31564D01*
X20954Y31582D01*
X20961Y31580D01*
X21005Y31551D01*
X21113Y31530D01*
X21743D01*
Y30987D01*
X23145D01*
Y32639D01*
X21743D01*
Y32096D01*
X21230D01*
X20883Y32443D01*
X20879Y32446D01*
X20822Y32503D01*
X20816Y32537D01*
X20738Y32653D01*
X20808Y32799D01*
X20862Y32879D01*
X20873Y32935D01*
X20060D01*
X19247D01*
X19248Y32932D01*
X19158Y32795D01*
X19137Y32778D01*
X19055Y32769D01*
X18950Y32888D01*
X18951Y32890D01*
Y33110D01*
X18867Y33312D01*
X18712Y33467D01*
X18510Y33551D01*
X18290D01*
X18088Y33467D01*
X17933Y33312D01*
X17849Y33110D01*
Y32890D01*
X17933Y32688D01*
X18088Y32533D01*
X18290Y32449D01*
X18510D01*
X18538Y32461D01*
X18772Y32228D01*
X18800Y32208D01*
X18752Y32048D01*
X17298D01*
X16845Y32502D01*
X16858Y32532D01*
Y32751D01*
X16774Y32954D01*
X16619Y33109D01*
X16417Y33193D01*
X16197D01*
X16167Y33180D01*
X15633Y33713D01*
X15629Y33716D01*
X15572Y33773D01*
X15566Y33807D01*
X15488Y33923D01*
Y34052D01*
X15566Y34168D01*
X15593Y34305D01*
X15566Y34442D01*
X15529Y34497D01*
X15607Y34657D01*
X15840D01*
X15948Y34678D01*
X16040Y34740D01*
X16400Y35100D01*
X16462Y35192D01*
X16483Y35300D01*
Y36199D01*
X17026D01*
Y37601D01*
X15374D01*
Y36199D01*
X15917D01*
Y35417D01*
X15723Y35223D01*
X15443D01*
X15372Y35271D01*
X15235Y35298D01*
X14385D01*
X14343Y35290D01*
X14183Y35405D01*
Y36199D01*
X14726D01*
Y37590D01*
X14726Y37601D01*
X14753Y37750D01*
X14775D01*
Y38400D01*
X13900D01*
X13025D01*
Y38338D01*
X12865Y38252D01*
X12832Y38274D01*
Y39449D01*
X13886D01*
Y41768D01*
X14399D01*
X14399Y41315D01*
X14350Y41175D01*
X14350Y41134D01*
Y40400D01*
X15100D01*
Y40300D01*
X15200D01*
Y39425D01*
X15850D01*
Y39448D01*
X15999Y39474D01*
X16152Y39430D01*
Y39201D01*
X15374D01*
Y37799D01*
X17026D01*
Y39201D01*
X16848D01*
Y39474D01*
X17401D01*
Y39894D01*
X17917D01*
X18050Y39921D01*
X18163Y39996D01*
X18371Y40204D01*
X18434Y40196D01*
X18531Y40148D01*
Y39474D01*
X18884D01*
Y39201D01*
X17474D01*
Y37799D01*
X19005D01*
X19038Y37761D01*
X19005Y37654D01*
X18964Y37601D01*
X17474D01*
Y36199D01*
X18017D01*
Y35707D01*
X18038Y35598D01*
X18100Y35506D01*
X18866Y34740D01*
X18958Y34678D01*
X19067Y34657D01*
X19263D01*
X19341Y34497D01*
X19304Y34442D01*
X19277Y34305D01*
X19304Y34168D01*
X19382Y34052D01*
Y33923D01*
X19304Y33807D01*
X19277Y33670D01*
X19304Y33533D01*
X19382Y33417D01*
X19312Y33271D01*
X19258Y33191D01*
X19247Y33135D01*
X20060D01*
X20873D01*
X20862Y33191D01*
X20838Y33227D01*
X20924Y33387D01*
X21699D01*
Y32849D01*
X23101D01*
Y34501D01*
X22683D01*
Y34679D01*
X25370D01*
X25839Y34210D01*
Y34015D01*
X25679Y33983D01*
X25667Y34012D01*
X25512Y34167D01*
X25310Y34251D01*
X25090D01*
X24888Y34167D01*
X24861Y34140D01*
X24701Y34207D01*
Y34501D01*
X23299D01*
Y32849D01*
X23761D01*
Y32639D01*
X23343D01*
Y30987D01*
X23761D01*
Y30826D01*
X23199D01*
Y29174D01*
X24090D01*
X24093Y29168D01*
X24185Y29107D01*
X24294Y29085D01*
X24402Y29107D01*
X24494Y29168D01*
X24498Y29174D01*
X24601D01*
Y30826D01*
X24327D01*
Y30987D01*
X24745D01*
Y32639D01*
X24327D01*
Y32849D01*
X24701D01*
Y33193D01*
X24861Y33260D01*
X24888Y33233D01*
X25090Y33149D01*
X25310D01*
X25512Y33233D01*
X25667Y33388D01*
X25679Y33417D01*
X25839Y33385D01*
Y32088D01*
X25788Y32067D01*
X25633Y31912D01*
X25549Y31710D01*
Y31490D01*
X25633Y31288D01*
X25788Y31133D01*
X25990Y31049D01*
X26210D01*
X26412Y31133D01*
X26567Y31288D01*
X26651Y31490D01*
Y31710D01*
X26567Y31912D01*
X26412Y32067D01*
X26406Y32070D01*
Y33417D01*
X26749D01*
Y32134D01*
X30851D01*
Y34466D01*
X26749D01*
Y34127D01*
X26744Y34100D01*
Y33983D01*
X26406D01*
Y34327D01*
X26385Y34436D01*
X26323Y34528D01*
X25688Y35163D01*
X25596Y35225D01*
X25487Y35246D01*
X22549D01*
X22440Y35225D01*
X22348Y35163D01*
X22200Y35014D01*
X22138Y34922D01*
X22117Y34814D01*
Y34501D01*
X21699D01*
Y33953D01*
X20857D01*
X20779Y34113D01*
X20816Y34168D01*
X20843Y34305D01*
X20816Y34442D01*
X20738Y34558D01*
Y34687D01*
X20816Y34803D01*
X20843Y34940D01*
X20816Y35077D01*
X20738Y35193D01*
X20622Y35271D01*
X20485Y35298D01*
X19635D01*
X19498Y35271D01*
X19427Y35223D01*
X19184D01*
X18583Y35824D01*
Y36199D01*
X19126D01*
Y37269D01*
X19286Y37335D01*
X19388Y37233D01*
X19590Y37149D01*
X19810D01*
X20012Y37233D01*
X20167Y37388D01*
X20251Y37590D01*
Y37810D01*
X20167Y38012D01*
X20012Y38167D01*
X19810Y38251D01*
X19641D01*
X19580Y38312D01*
Y39474D01*
X19922D01*
X19933Y39474D01*
X20082Y39447D01*
Y39425D01*
X20732D01*
Y40300D01*
Y41175D01*
X20082D01*
Y41153D01*
X19933Y41126D01*
X19922Y41126D01*
X18531Y41126D01*
X18488Y41268D01*
Y47071D01*
X18462Y47204D01*
X18386Y47317D01*
X11557Y54146D01*
X11444Y54222D01*
X11311Y54248D01*
X9944D01*
X9566Y54626D01*
X9627Y54774D01*
X10590D01*
X10601Y54774D01*
X10750Y54747D01*
Y54725D01*
X11400D01*
Y55600D01*
Y56475D01*
X10750D01*
Y56453D01*
X10601Y56426D01*
X10590Y56426D01*
X9199D01*
Y56104D01*
X9039Y56037D01*
X8749Y56327D01*
X8657Y56389D01*
X8549Y56410D01*
X8381D01*
Y57600D01*
X8430D01*
Y58000D01*
X7655D01*
Y58200D01*
X8430D01*
Y58600D01*
X8154D01*
X8101Y58740D01*
X8098Y58760D01*
X8199Y58892D01*
X8264Y59050D01*
X8287Y59220D01*
X8264Y59390D01*
X8199Y59548D01*
X8170Y59585D01*
X8249Y59745D01*
X22245D01*
Y54000D01*
D02*
G37*
G36*
X34407Y51972D02*
X34499Y51910D01*
X34607Y51889D01*
X36949D01*
Y50911D01*
X35131D01*
X33122Y52920D01*
X33181Y53088D01*
X33277Y53101D01*
X34407Y51972D01*
D02*
G37*
G36*
X17708Y45948D02*
X17792Y45910D01*
Y40610D01*
X17773Y40591D01*
X17401D01*
Y41114D01*
X17401Y41126D01*
Y41274D01*
X17401Y41286D01*
Y42926D01*
X17401D01*
Y43074D01*
X17401D01*
Y44726D01*
X16643D01*
Y44887D01*
X16672Y44899D01*
X16827Y45054D01*
X16911Y45256D01*
Y45475D01*
X16833Y45662D01*
X16860Y45711D01*
X16940Y45792D01*
X17071Y45737D01*
X17291D01*
X17493Y45821D01*
X17632Y45960D01*
X17708Y45948D01*
D02*
G37*
G36*
X48012Y21586D02*
X48050Y21452D01*
X47948Y21332D01*
X47572D01*
X47445Y21307D01*
X47337Y21235D01*
X46865Y20763D01*
X46793Y20655D01*
X46768Y20528D01*
Y20326D01*
X46607D01*
X46544Y20421D01*
Y20640D01*
X46460Y20842D01*
X46305Y20997D01*
X46102Y21081D01*
X45883D01*
X45681Y20997D01*
X45526Y20842D01*
X45442Y20640D01*
Y20421D01*
X45526Y20218D01*
X45681Y20063D01*
X45709Y20051D01*
Y19872D01*
X45600Y19830D01*
X45549Y19826D01*
X45405Y19970D01*
X45202Y20054D01*
X44983D01*
X44781Y19970D01*
X44726Y19915D01*
X44566Y19982D01*
Y21595D01*
X48006D01*
X48012Y21586D01*
D02*
G37*
G36*
X21317Y29995D02*
X21409Y29933D01*
X21518Y29912D01*
X21599D01*
Y29174D01*
X22017D01*
Y28466D01*
X21349D01*
Y26134D01*
X23117D01*
Y23700D01*
X23138Y23592D01*
X23200Y23500D01*
X25300Y21400D01*
X25300Y21400D01*
X27856Y18843D01*
X27794Y18683D01*
X27066D01*
X19183Y26566D01*
Y27300D01*
Y28074D01*
X19601D01*
Y28617D01*
X20060D01*
X20168Y28638D01*
X20260Y28700D01*
X20322Y28792D01*
X20343Y28900D01*
Y30137D01*
X20485D01*
X20622Y30164D01*
X20738Y30242D01*
X20780Y30305D01*
X20964Y30348D01*
X21317Y29995D01*
D02*
G37*
G36*
X41524Y17405D02*
X41458Y17245D01*
X41388D01*
X41167Y17154D01*
X40999Y16985D01*
X40907Y16765D01*
Y16745D01*
X41507D01*
Y16545D01*
X40907D01*
Y16526D01*
X40999Y16306D01*
X41167Y16137D01*
X41273Y16093D01*
Y15249D01*
Y14383D01*
X40848D01*
X40283Y14948D01*
Y15350D01*
X40312Y15361D01*
X40467Y15516D01*
X40551Y15719D01*
Y15938D01*
X40467Y16141D01*
X40312Y16296D01*
X40110Y16380D01*
X39890D01*
X39688Y16296D01*
X39533Y16141D01*
X39449Y15938D01*
Y15719D01*
X39533Y15516D01*
X39688Y15361D01*
X39717Y15350D01*
Y14831D01*
X39738Y14722D01*
X39800Y14630D01*
X40530Y13900D01*
X40622Y13838D01*
X40675Y13828D01*
X40659Y13668D01*
X40491D01*
X38929Y15230D01*
Y15916D01*
X38958Y15928D01*
X39113Y16083D01*
X39197Y16286D01*
Y16505D01*
X39113Y16707D01*
X38958Y16862D01*
X38755Y16946D01*
X38536D01*
X38333Y16862D01*
X38235Y16764D01*
X38075Y16830D01*
Y17300D01*
X37200D01*
Y17500D01*
X38075D01*
Y18117D01*
X40813D01*
X41524Y17405D01*
D02*
G37*
G36*
X44442Y11771D02*
X44521Y11623D01*
X44449Y11450D01*
Y11231D01*
X44533Y11028D01*
X44688Y10873D01*
X44890Y10790D01*
X45110D01*
X45312Y10873D01*
X45467Y11028D01*
X45496Y11097D01*
X49943D01*
X51941Y9100D01*
X52033Y9038D01*
X52142Y9017D01*
X52750D01*
Y8783D01*
X51625D01*
X51574Y8905D01*
X51419Y9060D01*
X51216Y9144D01*
X50997D01*
X50795Y9060D01*
X50640Y8905D01*
X50556Y8703D01*
Y8610D01*
X50396Y8544D01*
X49450Y9490D01*
X49541Y9626D01*
X49571Y9613D01*
X49791D01*
X49993Y9697D01*
X50148Y9852D01*
X50232Y10054D01*
Y10274D01*
X50148Y10476D01*
X49993Y10631D01*
X49791Y10715D01*
X49571D01*
X49369Y10631D01*
X49214Y10476D01*
X49169Y10369D01*
X43050D01*
Y10773D01*
X43210Y10852D01*
X43362Y10790D01*
X43581D01*
X43784Y10873D01*
X43939Y11028D01*
X44023Y11231D01*
Y11450D01*
X44011Y11479D01*
X44318Y11786D01*
X44442Y11771D01*
D02*
G37*
G36*
X44694Y9786D02*
X44741Y9642D01*
X43210Y8111D01*
X43050Y8178D01*
Y8849D01*
Y9802D01*
X44682D01*
X44694Y9786D01*
D02*
G37*
G36*
X54889Y10865D02*
X54996Y10793D01*
X55124Y10768D01*
X55274D01*
Y10399D01*
X56926D01*
Y10768D01*
X58379D01*
Y7108D01*
X58219Y7065D01*
X58123Y7232D01*
X57932Y7423D01*
X57697Y7558D01*
X57435Y7628D01*
X57165D01*
X56903Y7558D01*
X56669Y7423D01*
X56477Y7232D01*
X56342Y6997D01*
X56311Y6883D01*
X52917D01*
X52685Y7116D01*
X52778Y7249D01*
X54527D01*
Y7310D01*
X54634Y7417D01*
X54742Y7438D01*
X54834Y7500D01*
X55381Y8046D01*
X55390Y8042D01*
X55609D01*
X55812Y8126D01*
X55967Y8281D01*
X56051Y8484D01*
Y8703D01*
X55967Y8905D01*
X55812Y9060D01*
X55609Y9144D01*
X55390D01*
X55188Y9060D01*
X55033Y8905D01*
X54949Y8703D01*
Y8484D01*
X54969Y8436D01*
X54687Y8154D01*
X54527Y8220D01*
Y8849D01*
Y9649D01*
Y10449D01*
Y11018D01*
X54674Y11079D01*
X54889Y10865D01*
D02*
G37*
G36*
X48117Y9035D02*
X48060Y8977D01*
X47968Y8757D01*
Y8737D01*
X48569D01*
Y8537D01*
X47968D01*
Y8518D01*
X48014Y8409D01*
X47906Y8251D01*
X47790D01*
X47588Y8167D01*
X47433Y8012D01*
X47349Y7810D01*
Y7590D01*
X47433Y7388D01*
X47588Y7233D01*
X47790Y7149D01*
X48010D01*
X48143Y7204D01*
X48331Y7015D01*
X48339Y7010D01*
X48291Y6852D01*
X48289Y6851D01*
X47600D01*
Y6899D01*
X47200D01*
Y5962D01*
Y5024D01*
X47568D01*
Y4726D01*
X47199D01*
Y4726D01*
X47050Y4753D01*
Y4775D01*
X46400D01*
Y3900D01*
X46300D01*
Y3800D01*
X45550D01*
Y3230D01*
X44375D01*
X44343Y3390D01*
X44453Y3436D01*
X44608Y3591D01*
X44692Y3793D01*
Y4012D01*
X44608Y4215D01*
X44453Y4370D01*
X44250Y4454D01*
X44060D01*
X43600Y4913D01*
X43666Y5074D01*
X46600D01*
Y5024D01*
X47000D01*
Y5962D01*
Y6899D01*
X46644D01*
Y7909D01*
X46789Y8054D01*
X46817Y8042D01*
X47037D01*
X47239Y8126D01*
X47394Y8281D01*
X47478Y8484D01*
Y8703D01*
X47394Y8905D01*
X47265Y9035D01*
X47293Y9157D01*
X47314Y9195D01*
X48051D01*
X48117Y9035D01*
D02*
G37*
G36*
X32102Y10560D02*
X32016Y10400D01*
X31600D01*
Y9150D01*
X32450D01*
Y10288D01*
X32542Y10349D01*
X32761D01*
X32789Y10361D01*
X33963Y9188D01*
X34055Y9126D01*
X34163Y9105D01*
X35849D01*
Y7490D01*
X33603D01*
X33532Y7650D01*
X33608Y7834D01*
Y7853D01*
X33008D01*
Y7953D01*
X32908D01*
Y8553D01*
X32889D01*
X32668Y8462D01*
X32610Y8404D01*
X32450Y8470D01*
Y8950D01*
X31600D01*
Y7700D01*
X32331D01*
X32363Y7650D01*
X32277Y7490D01*
X21381D01*
X18939Y9932D01*
X18951Y9961D01*
Y10180D01*
X18867Y10383D01*
X18792Y10458D01*
X18858Y10618D01*
X32063D01*
X32102Y10560D01*
D02*
G37*
G36*
X46561Y9157D02*
X46589Y9035D01*
X46460Y8905D01*
X46376Y8703D01*
Y8484D01*
X46388Y8455D01*
X46160Y8227D01*
X46099Y8135D01*
X46077Y8027D01*
Y6851D01*
X45594D01*
X45589Y6874D01*
X45527Y6966D01*
X45267Y7227D01*
X45175Y7288D01*
X45066Y7310D01*
X43404D01*
X43356Y7470D01*
X43400Y7500D01*
X45095Y9195D01*
X46540D01*
X46561Y9157D01*
D02*
G37*
G36*
X39876Y7201D02*
X39849Y7136D01*
Y6917D01*
X39933Y6714D01*
X40088Y6559D01*
X40291Y6475D01*
X40510D01*
X40712Y6559D01*
X40867Y6714D01*
X40879Y6743D01*
X43449D01*
Y5291D01*
X43289Y5224D01*
X42644Y5869D01*
X42536Y5941D01*
X42409Y5967D01*
X41954D01*
X41819Y6101D01*
X41617Y6185D01*
X41398D01*
X41195Y6101D01*
X41040Y5946D01*
X40956Y5744D01*
Y5525D01*
X41040Y5322D01*
X41195Y5167D01*
X41398Y5083D01*
X41617D01*
X41819Y5167D01*
X41954Y5302D01*
X42271D01*
X43060Y4514D01*
X42998Y4366D01*
X40054D01*
X40044Y4416D01*
X39983Y4508D01*
X37305Y7186D01*
X37366Y7334D01*
X39787D01*
X39876Y7201D01*
D02*
G37*
G36*
X52600Y6400D02*
X52692Y6338D01*
X52800Y6317D01*
X56311D01*
X56342Y6203D01*
X56477Y5968D01*
X56669Y5777D01*
X56903Y5642D01*
X56929Y5635D01*
X56908Y5475D01*
X55727D01*
X55600Y5449D01*
X55492Y5377D01*
X55048Y4932D01*
X53247D01*
X53112Y5067D01*
X52910Y5151D01*
X52690D01*
X52511Y5077D01*
X52417Y5114D01*
X52351Y5156D01*
Y6439D01*
X52499Y6500D01*
X52600Y6400D01*
D02*
G37*
G36*
X39175Y4514D02*
X39114Y4366D01*
X39107D01*
Y2034D01*
X39107D01*
X39106Y1965D01*
X38946Y1913D01*
X38521Y2338D01*
X38429Y2399D01*
X38320Y2421D01*
X38186D01*
Y5294D01*
X38334Y5355D01*
X39175Y4514D01*
D02*
G37*
G36*
X35798Y5694D02*
X35854Y5553D01*
X35854D01*
X35854Y5553D01*
Y1469D01*
X34566D01*
Y4951D01*
X32234D01*
Y4134D01*
X32074Y4068D01*
X30373Y5769D01*
X30435Y5917D01*
X35576D01*
X35798Y5694D01*
D02*
G37*
G36*
X31889Y3452D02*
X31981Y3390D01*
X32089Y3369D01*
X32234D01*
Y993D01*
X32074Y927D01*
X31500Y1500D01*
X31408Y1562D01*
X31300Y1583D01*
X30666D01*
Y4465D01*
X30814Y4527D01*
X31889Y3452D01*
D02*
G37*
%LPC*%
G36*
X3300Y51237D02*
X2500D01*
X2330Y51214D01*
X2172Y51149D01*
X2036Y51044D01*
X1931Y50908D01*
X1866Y50750D01*
X1843Y50580D01*
X1866Y50410D01*
X1931Y50252D01*
X2036Y50116D01*
X2172Y50011D01*
X2330Y49946D01*
X2500Y49923D01*
X3300D01*
X3470Y49946D01*
X3628Y50011D01*
X3764Y50116D01*
X3869Y50252D01*
X3934Y50410D01*
X3957Y50580D01*
X3934Y50750D01*
X3869Y50908D01*
X3764Y51044D01*
X3628Y51149D01*
X3470Y51214D01*
X3300Y51237D01*
D02*
G37*
G36*
X11435Y50500D02*
X10660D01*
Y49850D01*
X11435D01*
Y50500D01*
D02*
G37*
G36*
X14833Y46756D02*
X14814D01*
Y46256D01*
X15314D01*
Y46275D01*
X15222Y46496D01*
X15054Y46665D01*
X14833Y46756D01*
D02*
G37*
G36*
X14614D02*
X14594D01*
X14374Y46665D01*
X14205Y46496D01*
X14114Y46275D01*
Y46256D01*
X14614D01*
Y46756D01*
D02*
G37*
G36*
X15314Y46056D02*
X14814D01*
Y45556D01*
X14833D01*
X15054Y45647D01*
X15222Y45816D01*
X15314Y46037D01*
Y46056D01*
D02*
G37*
G36*
X14614D02*
X14114D01*
Y46037D01*
X14205Y45816D01*
X14374Y45647D01*
X14594Y45556D01*
X14614D01*
Y46056D01*
D02*
G37*
G36*
X3087Y49201D02*
X2713D01*
X2345Y49128D01*
X2000Y48985D01*
X1688Y48777D01*
X1423Y48512D01*
X1215Y48200D01*
X1072Y47854D01*
X999Y47487D01*
Y47113D01*
X1072Y46745D01*
X1215Y46400D01*
X1423Y46088D01*
X1688Y45823D01*
X2000Y45615D01*
X2345Y45472D01*
X2713Y45399D01*
X3087D01*
X3454Y45472D01*
X3800Y45615D01*
X4112Y45823D01*
X4377Y46088D01*
X4585Y46400D01*
X4728Y46745D01*
X4801Y47113D01*
Y47487D01*
X4728Y47854D01*
X4585Y48200D01*
X4377Y48512D01*
X4112Y48777D01*
X3800Y48985D01*
X3454Y49128D01*
X3087Y49201D01*
D02*
G37*
G36*
X15000Y44775D02*
X14350D01*
Y44000D01*
X15000D01*
Y44775D01*
D02*
G37*
G36*
X9130Y43678D02*
X9088D01*
X8814Y43604D01*
X8568Y43462D01*
X8368Y43262D01*
X8226Y43016D01*
X8153Y42742D01*
Y42700D01*
X9130D01*
Y43678D01*
D02*
G37*
G36*
Y42500D02*
X8153D01*
Y42458D01*
X8226Y42184D01*
X8368Y41938D01*
X8568Y41738D01*
X8814Y41596D01*
X9088Y41523D01*
X9130D01*
Y42500D01*
D02*
G37*
G36*
X3028Y42296D02*
X2771D01*
X2523Y42229D01*
X2301Y42101D01*
X2119Y41919D01*
X1990Y41697D01*
X1924Y41448D01*
Y41192D01*
X1990Y40943D01*
X2119Y40721D01*
X2301Y40539D01*
X2523Y40411D01*
X2771Y40344D01*
X3028D01*
X3277Y40411D01*
X3499Y40539D01*
X3681Y40721D01*
X3809Y40943D01*
X3876Y41192D01*
Y41448D01*
X3809Y41697D01*
X3681Y41919D01*
X3499Y42101D01*
X3277Y42229D01*
X3028Y42296D01*
D02*
G37*
G36*
Y39756D02*
X2771D01*
X2523Y39689D01*
X2301Y39561D01*
X2119Y39379D01*
X1990Y39157D01*
X1924Y38908D01*
Y38652D01*
X1990Y38403D01*
X2119Y38181D01*
X2301Y37999D01*
X2523Y37871D01*
X2771Y37804D01*
X3028D01*
X3277Y37871D01*
X3499Y37999D01*
X3681Y38181D01*
X3809Y38403D01*
X3876Y38652D01*
Y38908D01*
X3809Y39157D01*
X3681Y39379D01*
X3499Y39561D01*
X3277Y39689D01*
X3028Y39756D01*
D02*
G37*
G36*
Y37216D02*
X2771D01*
X2523Y37149D01*
X2301Y37021D01*
X2119Y36839D01*
X1990Y36617D01*
X1924Y36368D01*
Y36112D01*
X1990Y35863D01*
X2119Y35641D01*
X2301Y35459D01*
X2523Y35331D01*
X2771Y35264D01*
X3028D01*
X3277Y35331D01*
X3499Y35459D01*
X3681Y35641D01*
X3809Y35863D01*
X3876Y36112D01*
Y36368D01*
X3809Y36617D01*
X3681Y36839D01*
X3499Y37021D01*
X3277Y37149D01*
X3028Y37216D01*
D02*
G37*
G36*
X13175Y35250D02*
X12400D01*
Y34600D01*
X13175D01*
Y35250D01*
D02*
G37*
G36*
X12200D02*
X11425D01*
Y34600D01*
X12200D01*
Y35250D01*
D02*
G37*
G36*
X9075Y35200D02*
X8300D01*
Y34550D01*
X9075D01*
Y35200D01*
D02*
G37*
G36*
X8100D02*
X7325D01*
Y34550D01*
X8100D01*
Y35200D01*
D02*
G37*
G36*
X3035Y34725D02*
X3000D01*
Y33800D01*
X3925D01*
Y33835D01*
X3855Y34096D01*
X3720Y34329D01*
X3529Y34520D01*
X3296Y34655D01*
X3035Y34725D01*
D02*
G37*
G36*
X2800D02*
X2765D01*
X2504Y34655D01*
X2271Y34520D01*
X2080Y34329D01*
X1945Y34096D01*
X1875Y33835D01*
Y33800D01*
X2800D01*
Y34725D01*
D02*
G37*
G36*
X8500Y33910D02*
X7850D01*
Y33135D01*
X8500D01*
Y33910D01*
D02*
G37*
G36*
X3925Y33600D02*
X3000D01*
Y32675D01*
X3035D01*
X3296Y32745D01*
X3529Y32880D01*
X3720Y33071D01*
X3855Y33304D01*
X3925Y33565D01*
Y33600D01*
D02*
G37*
G36*
X2800D02*
X1875D01*
Y33565D01*
X1945Y33304D01*
X2080Y33071D01*
X2271Y32880D01*
X2504Y32745D01*
X2765Y32675D01*
X2800D01*
Y33600D01*
D02*
G37*
G36*
X8500Y32935D02*
X7850D01*
Y32160D01*
X8500D01*
Y32935D01*
D02*
G37*
G36*
X6010Y38251D02*
X5790D01*
X5588Y38167D01*
X5433Y38012D01*
X5349Y37810D01*
Y37603D01*
X5019Y37273D01*
X4947Y37165D01*
X4922Y37038D01*
Y32214D01*
X4200Y31492D01*
X3821D01*
X3809Y31537D01*
X3681Y31759D01*
X3499Y31941D01*
X3277Y32069D01*
X3028Y32136D01*
X2771D01*
X2523Y32069D01*
X2301Y31941D01*
X2119Y31759D01*
X1990Y31537D01*
X1924Y31288D01*
Y31032D01*
X1990Y30783D01*
X2119Y30561D01*
X2301Y30379D01*
X2523Y30251D01*
X2771Y30184D01*
X3028D01*
X3277Y30251D01*
X3499Y30379D01*
X3681Y30561D01*
X3809Y30783D01*
X3821Y30828D01*
X4337D01*
X4465Y30853D01*
X4572Y30925D01*
X5489Y31842D01*
X5561Y31949D01*
X5586Y32077D01*
Y36900D01*
X5835Y37149D01*
X6010D01*
X6212Y37233D01*
X6367Y37388D01*
X6451Y37590D01*
Y37810D01*
X6367Y38012D01*
X6212Y38167D01*
X6010Y38251D01*
D02*
G37*
G36*
X9365Y31628D02*
X9095D01*
X8833Y31558D01*
X8599Y31423D01*
X8407Y31232D01*
X8272Y30997D01*
X8202Y30735D01*
Y30465D01*
X8272Y30203D01*
X8407Y29968D01*
X8599Y29777D01*
X8833Y29642D01*
X9095Y29572D01*
X9365D01*
X9627Y29642D01*
X9862Y29777D01*
X10053Y29968D01*
X10188Y30203D01*
X10259Y30465D01*
Y30735D01*
X10188Y30997D01*
X10053Y31232D01*
X9862Y31423D01*
X9627Y31558D01*
X9365Y31628D01*
D02*
G37*
G36*
X2635Y19165D02*
X2600D01*
Y18240D01*
X3525D01*
Y18275D01*
X3455Y18536D01*
X3320Y18769D01*
X3129Y18960D01*
X2896Y19095D01*
X2635Y19165D01*
D02*
G37*
G36*
X2400D02*
X2365D01*
X2104Y19095D01*
X1871Y18960D01*
X1680Y18769D01*
X1545Y18536D01*
X1475Y18275D01*
Y18240D01*
X2400D01*
Y19165D01*
D02*
G37*
G36*
X6475Y18050D02*
X5700D01*
Y17400D01*
X6475D01*
Y18050D01*
D02*
G37*
G36*
X5500D02*
X4725D01*
Y17400D01*
X5500D01*
Y18050D01*
D02*
G37*
G36*
X3525Y18040D02*
X2600D01*
Y17115D01*
X2635D01*
X2896Y17185D01*
X3129Y17320D01*
X3320Y17511D01*
X3455Y17744D01*
X3525Y18005D01*
Y18040D01*
D02*
G37*
G36*
X2400D02*
X1475D01*
Y18005D01*
X1545Y17744D01*
X1680Y17511D01*
X1871Y17320D01*
X2104Y17185D01*
X2365Y17115D01*
X2400D01*
Y18040D01*
D02*
G37*
G36*
X6475Y17200D02*
X5600D01*
X4725D01*
Y16550D01*
X4748D01*
X4774Y16401D01*
X4774Y16390D01*
Y15932D01*
X3421D01*
X3409Y15977D01*
X3281Y16199D01*
X3099Y16381D01*
X2877Y16509D01*
X2628Y16576D01*
X2372D01*
X2123Y16509D01*
X1901Y16381D01*
X1719Y16199D01*
X1591Y15977D01*
X1524Y15728D01*
Y15472D01*
X1591Y15223D01*
X1719Y15001D01*
X1901Y14819D01*
X2123Y14691D01*
X2372Y14624D01*
X2628D01*
X2877Y14691D01*
X3099Y14819D01*
X3281Y15001D01*
X3409Y15223D01*
X3421Y15268D01*
X4774D01*
Y14999D01*
X6426D01*
Y16390D01*
X6426Y16401D01*
X6452Y16550D01*
X6475D01*
Y17200D01*
D02*
G37*
G36*
X20812Y59200D02*
X20780D01*
Y58300D01*
X21680D01*
Y58332D01*
X21612Y58586D01*
X21480Y58814D01*
X21294Y59000D01*
X21066Y59132D01*
X20812Y59200D01*
D02*
G37*
G36*
X20580D02*
X20548D01*
X20294Y59132D01*
X20066Y59000D01*
X19880Y58814D01*
X19748Y58586D01*
X19680Y58332D01*
Y58300D01*
X20580D01*
Y59200D01*
D02*
G37*
G36*
X21680Y58100D02*
X20780D01*
Y57200D01*
X20812D01*
X21066Y57268D01*
X21294Y57400D01*
X21480Y57586D01*
X21612Y57814D01*
X21680Y58068D01*
Y58100D01*
D02*
G37*
G36*
X20580D02*
X19680D01*
Y58068D01*
X19748Y57814D01*
X19880Y57586D01*
X20066Y57400D01*
X20294Y57268D01*
X20548Y57200D01*
X20580D01*
Y58100D01*
D02*
G37*
G36*
X13460Y59162D02*
X12660D01*
X12445Y59119D01*
X12263Y58997D01*
X12141Y58815D01*
X12098Y58600D01*
Y57800D01*
X12141Y57585D01*
X12263Y57403D01*
X12445Y57281D01*
X12660Y57238D01*
X12728D01*
Y56426D01*
X12250D01*
Y56475D01*
X11600D01*
Y55600D01*
Y54725D01*
X12250D01*
Y54774D01*
X12568D01*
Y53853D01*
X12593Y53725D01*
X12665Y53618D01*
X12772Y53511D01*
Y53313D01*
X12856Y53110D01*
X13011Y52955D01*
X13213Y52872D01*
X13433D01*
X13635Y52955D01*
X13790Y53110D01*
X13874Y53313D01*
Y53532D01*
X13790Y53735D01*
X13635Y53890D01*
X13433Y53974D01*
X13249D01*
X13232Y53990D01*
Y54774D01*
X13590D01*
X13601Y54774D01*
X13750Y54747D01*
Y54725D01*
X14400D01*
Y55600D01*
Y56475D01*
X13750D01*
Y56453D01*
X13601Y56426D01*
X13590Y56426D01*
X13392D01*
Y57238D01*
X13460D01*
X13675Y57281D01*
X13857Y57403D01*
X13979Y57585D01*
X14022Y57800D01*
Y58600D01*
X13979Y58815D01*
X13857Y58997D01*
X13675Y59119D01*
X13460Y59162D01*
D02*
G37*
G36*
X15250Y56475D02*
X14600D01*
Y55700D01*
X15250D01*
Y56475D01*
D02*
G37*
G36*
Y55500D02*
X14600D01*
Y54725D01*
X15250D01*
Y55500D01*
D02*
G37*
G36*
X56251Y53501D02*
X54449D01*
Y52299D01*
X56251D01*
Y53501D01*
D02*
G37*
G36*
X19025Y52350D02*
X19000D01*
Y51500D01*
X19850D01*
Y51525D01*
X19785Y51767D01*
X19660Y51983D01*
X19483Y52160D01*
X19267Y52285D01*
X19025Y52350D01*
D02*
G37*
G36*
X18800D02*
X18775D01*
X18533Y52285D01*
X18317Y52160D01*
X18140Y51983D01*
X18015Y51767D01*
X17950Y51525D01*
Y51500D01*
X18800D01*
Y52350D01*
D02*
G37*
G36*
X56251Y52001D02*
X54449D01*
Y50799D01*
X56251D01*
Y52001D01*
D02*
G37*
G36*
X16479Y52301D02*
X16241D01*
X16012Y52240D01*
X15807Y52121D01*
X15639Y51953D01*
X15520Y51748D01*
X15459Y51519D01*
Y51281D01*
X15520Y51052D01*
X15639Y50847D01*
X15807Y50679D01*
X16012Y50560D01*
X16241Y50499D01*
X16479D01*
X16708Y50560D01*
X16913Y50679D01*
X17081Y50847D01*
X17200Y51052D01*
X17261Y51281D01*
Y51519D01*
X17200Y51748D01*
X17081Y51953D01*
X16913Y52121D01*
X16708Y52240D01*
X16479Y52301D01*
D02*
G37*
G36*
X19850Y51300D02*
X19000D01*
Y50450D01*
X19025D01*
X19267Y50515D01*
X19483Y50640D01*
X19660Y50817D01*
X19785Y51033D01*
X19850Y51275D01*
Y51300D01*
D02*
G37*
G36*
X18800D02*
X17950D01*
Y51275D01*
X18015Y51033D01*
X18140Y50817D01*
X18317Y50640D01*
X18533Y50515D01*
X18775Y50450D01*
X18800D01*
Y51300D01*
D02*
G37*
G36*
X58326Y50601D02*
X56674D01*
Y50183D01*
X56251D01*
Y50501D01*
X54449D01*
Y49299D01*
X56251D01*
Y49617D01*
X56674D01*
Y49199D01*
X58326D01*
Y50601D01*
D02*
G37*
G36*
X32105Y50700D02*
X32100D01*
Y50000D01*
X32800D01*
Y50005D01*
X32745Y50209D01*
X32640Y50391D01*
X32491Y50540D01*
X32309Y50645D01*
X32105Y50700D01*
D02*
G37*
G36*
X31900D02*
X31895D01*
X31691Y50645D01*
X31509Y50540D01*
X31360Y50391D01*
X31255Y50209D01*
X31200Y50005D01*
Y50000D01*
X31900D01*
Y50700D01*
D02*
G37*
G36*
X30175Y50400D02*
X29400D01*
Y49750D01*
X30175D01*
Y50400D01*
D02*
G37*
G36*
X27500D02*
X26725D01*
Y49750D01*
X27500D01*
Y50400D01*
D02*
G37*
G36*
X32800Y49800D02*
X32100D01*
Y49100D01*
X32105D01*
X32309Y49154D01*
X32491Y49260D01*
X32640Y49409D01*
X32745Y49591D01*
X32800Y49795D01*
Y49800D01*
D02*
G37*
G36*
X31900D02*
X31200D01*
Y49795D01*
X31255Y49591D01*
X31360Y49409D01*
X31509Y49260D01*
X31691Y49154D01*
X31895Y49100D01*
X31900D01*
Y49800D01*
D02*
G37*
G36*
X48061Y48301D02*
X47999Y48301D01*
X47121D01*
X46961Y48301D01*
X46899Y48301D01*
X45959D01*
Y47361D01*
X45959Y47201D01*
X45959Y47139D01*
Y46261D01*
X45959Y46101D01*
X45959Y46039D01*
Y45099D01*
X46899D01*
X47059Y45099D01*
X47121Y45099D01*
X47999D01*
X48159Y45099D01*
X48221Y45099D01*
X49161D01*
Y46039D01*
X49161Y46199D01*
X49161Y46261D01*
Y47139D01*
X49161Y47299D01*
X49161Y47361D01*
Y48301D01*
X48221D01*
X48061Y48301D01*
D02*
G37*
G36*
X56251Y49001D02*
X54449D01*
Y47799D01*
X56251D01*
Y49001D01*
D02*
G37*
G36*
X38751D02*
X36949D01*
Y47799D01*
X38751D01*
Y49001D01*
D02*
G37*
G36*
X58326Y49001D02*
X56674D01*
Y47599D01*
X57168D01*
Y47369D01*
X57193Y47242D01*
X57265Y47134D01*
X57372Y47027D01*
X57365Y47010D01*
Y46790D01*
X57449Y46588D01*
X57604Y46433D01*
X57806Y46349D01*
X58026D01*
X58228Y46433D01*
X58383Y46588D01*
X58467Y46790D01*
Y47010D01*
X58383Y47212D01*
X58228Y47367D01*
X58026Y47451D01*
X58055Y47599D01*
X58326D01*
Y49001D01*
D02*
G37*
G36*
X56251Y47501D02*
X54449D01*
Y46299D01*
X56251D01*
Y47501D01*
D02*
G37*
G36*
Y46001D02*
X54449D01*
Y44799D01*
X56251D01*
Y46001D01*
D02*
G37*
G36*
X21559Y52301D02*
X21321D01*
X21092Y52240D01*
X20887Y52121D01*
X20719Y51953D01*
X20600Y51748D01*
X20539Y51519D01*
Y51281D01*
X20600Y51052D01*
X20719Y50847D01*
X20887Y50679D01*
X21092Y50560D01*
X21321Y50499D01*
X21559D01*
X21788Y50560D01*
X21845Y50594D01*
X22717Y49723D01*
Y44726D01*
X22310D01*
X22299Y44726D01*
X22150Y44753D01*
Y44775D01*
X21500D01*
Y43900D01*
X21400D01*
D01*
X21500D01*
Y43025D01*
X22150D01*
Y43047D01*
X22299Y43074D01*
X22310Y43074D01*
X22664D01*
Y37501D01*
X22685Y37392D01*
X22747Y37300D01*
X22904Y37143D01*
X22849Y37010D01*
Y36790D01*
X22933Y36588D01*
X23088Y36433D01*
X23290Y36349D01*
X23510D01*
X23712Y36433D01*
X23867Y36588D01*
X23951Y36790D01*
Y37010D01*
X23867Y37212D01*
X23712Y37367D01*
X23510Y37451D01*
X23539Y37599D01*
X24726D01*
Y38067D01*
X25549D01*
Y37999D01*
X26351D01*
Y38699D01*
Y39401D01*
X26282D01*
Y41291D01*
X26451Y41460D01*
X26599Y41399D01*
Y40174D01*
X26967D01*
Y39401D01*
X26849D01*
Y38699D01*
Y37999D01*
X27651D01*
Y38067D01*
X28474D01*
Y37699D01*
X30126D01*
Y39101D01*
X28474D01*
Y38633D01*
X27651D01*
Y39401D01*
X27533D01*
Y40174D01*
X28001D01*
Y41826D01*
X27026D01*
X26965Y41974D01*
X27651Y42660D01*
X30481D01*
X30608Y42685D01*
X30716Y42757D01*
X32672Y44714D01*
X33731D01*
X33866Y44579D01*
X34068Y44495D01*
X34288D01*
X34490Y44579D01*
X34625Y44714D01*
X35049D01*
Y44345D01*
X36701D01*
Y45747D01*
X35049D01*
Y45379D01*
X34625D01*
X34490Y45513D01*
X34288Y45597D01*
X34068D01*
X33866Y45513D01*
X33731Y45379D01*
X32535D01*
X32407Y45353D01*
X32299Y45281D01*
X30343Y43325D01*
X27513D01*
X27386Y43299D01*
X27278Y43227D01*
X25715Y41664D01*
X25643Y41556D01*
X25618Y41429D01*
Y40471D01*
X25458Y40390D01*
X25310Y40451D01*
X25090D01*
X24888Y40367D01*
X24886Y40365D01*
X24726Y40431D01*
Y40601D01*
X23230D01*
Y43074D01*
X23701D01*
Y44726D01*
X23283D01*
Y49840D01*
X23262Y49948D01*
X23200Y50040D01*
X22246Y50995D01*
X22280Y51052D01*
X22341Y51281D01*
Y51519D01*
X22280Y51748D01*
X22161Y51953D01*
X21993Y52121D01*
X21788Y52240D01*
X21559Y52301D01*
D02*
G37*
G36*
X21300Y44775D02*
X20650D01*
Y44000D01*
X21300D01*
Y44775D01*
D02*
G37*
G36*
X38751Y47501D02*
X36949D01*
Y47183D01*
X31185D01*
X31077Y47162D01*
X30985Y47100D01*
X30250Y46366D01*
X26549D01*
Y44034D01*
X30651D01*
Y45965D01*
X31302Y46617D01*
X36949D01*
Y46299D01*
X38751D01*
Y46617D01*
X39469D01*
X40117Y45969D01*
Y44482D01*
X40088Y44470D01*
X39933Y44315D01*
X39849Y44112D01*
Y43893D01*
X39933Y43691D01*
X40088Y43536D01*
X40290Y43452D01*
X40510D01*
X40712Y43536D01*
X40867Y43691D01*
X40951Y43893D01*
Y44112D01*
X40867Y44315D01*
X40712Y44470D01*
X40683Y44482D01*
Y46086D01*
X40662Y46194D01*
X40600Y46286D01*
X39786Y47100D01*
X39694Y47162D01*
X39586Y47183D01*
X38751D01*
Y47501D01*
D02*
G37*
G36*
Y46001D02*
X36949D01*
Y44799D01*
X38751D01*
Y44799D01*
X38902Y44778D01*
Y44522D01*
X38751Y44501D01*
Y44501D01*
X36949D01*
Y44183D01*
X36329D01*
X36220Y44162D01*
X36198Y44147D01*
X35049D01*
Y43248D01*
X34889Y43216D01*
X34803Y43422D01*
X34613Y43707D01*
X34372Y43948D01*
X34087Y44138D01*
X33771Y44269D01*
X33436Y44336D01*
X33094D01*
X32759Y44269D01*
X32443Y44138D01*
X32158Y43948D01*
X31917Y43707D01*
X31727Y43422D01*
X31596Y43106D01*
X31529Y42771D01*
Y42429D01*
X31596Y42094D01*
X31727Y41778D01*
X31917Y41493D01*
X32158Y41252D01*
X32443Y41062D01*
X32759Y40931D01*
X33094Y40864D01*
X33436D01*
X33771Y40931D01*
X34087Y41062D01*
X34372Y41252D01*
X34613Y41493D01*
X34803Y41778D01*
X34934Y42094D01*
X35001Y42429D01*
Y42605D01*
X35049Y42745D01*
X35161Y42745D01*
X35820D01*
X35842Y42731D01*
X35950Y42709D01*
X36059Y42731D01*
X36080Y42745D01*
X36224D01*
X36281Y42585D01*
X36204Y42512D01*
X36110Y42551D01*
X35890D01*
X35688Y42467D01*
X35533Y42312D01*
X35449Y42110D01*
Y41890D01*
X35533Y41688D01*
X35688Y41533D01*
X35890Y41449D01*
X36110D01*
X36312Y41533D01*
X36467Y41688D01*
X36551Y41890D01*
Y42002D01*
X36644Y42096D01*
X36949D01*
Y41799D01*
X38751D01*
Y42864D01*
X38751Y42929D01*
X38800Y42970D01*
X38903Y43021D01*
X39076Y42949D01*
X39295D01*
X39498Y43033D01*
X39653Y43188D01*
X39737Y43390D01*
Y43610D01*
X39653Y43812D01*
X39498Y43967D01*
X39469Y43979D01*
Y45217D01*
X39448Y45325D01*
X39386Y45417D01*
X39237Y45566D01*
X39146Y45628D01*
X39037Y45649D01*
X38751D01*
Y46001D01*
D02*
G37*
G36*
X21300Y43800D02*
X20650D01*
Y43025D01*
X21300D01*
Y43800D01*
D02*
G37*
G36*
X57435Y43629D02*
X57165D01*
X56903Y43558D01*
X56669Y43423D01*
X56477Y43232D01*
X56383Y43069D01*
X56251Y43001D01*
X56177Y43001D01*
X54449D01*
Y42683D01*
X53580D01*
X53567Y42715D01*
X53412Y42870D01*
X53210Y42954D01*
X52990D01*
X52788Y42870D01*
X52633Y42715D01*
X52549Y42512D01*
Y42293D01*
X52633Y42091D01*
X52788Y41936D01*
X52990Y41852D01*
X53210D01*
X53412Y41936D01*
X53567Y42091D01*
X53578Y42117D01*
X54449D01*
Y41799D01*
X56251D01*
Y42040D01*
X56411Y42083D01*
X56477Y41969D01*
X56669Y41777D01*
X56903Y41642D01*
X57165Y41572D01*
X57435D01*
X57697Y41642D01*
X57932Y41777D01*
X58123Y41969D01*
X58258Y42203D01*
X58329Y42465D01*
Y42735D01*
X58258Y42997D01*
X58123Y43232D01*
X57932Y43423D01*
X57697Y43558D01*
X57435Y43629D01*
D02*
G37*
G36*
X38800Y41550D02*
X37950D01*
Y41000D01*
X38800D01*
Y41550D01*
D02*
G37*
G36*
X37750D02*
X36900D01*
Y41000D01*
X37750D01*
Y41550D01*
D02*
G37*
G36*
X21582Y41175D02*
X20932D01*
Y40400D01*
X21582D01*
Y41175D01*
D02*
G37*
G36*
X56251Y41501D02*
X54449D01*
Y40299D01*
X56251D01*
Y41501D01*
D02*
G37*
G36*
X21582Y40200D02*
X20932D01*
Y39425D01*
X21582D01*
Y40200D01*
D02*
G37*
G36*
X15000Y40200D02*
X14350D01*
Y39425D01*
X15000D01*
Y40200D01*
D02*
G37*
G36*
X29601Y41826D02*
X28199D01*
Y40174D01*
X29601D01*
Y40717D01*
X31056D01*
X32073Y39700D01*
X32164Y39638D01*
X32273Y39617D01*
X32741D01*
X32804Y39468D01*
X32802Y39457D01*
X32718Y39400D01*
X30401Y37083D01*
X30126D01*
Y37501D01*
X28474D01*
Y36099D01*
X30126D01*
Y36517D01*
X30518D01*
X30627Y36538D01*
X30719Y36600D01*
X33036Y38917D01*
X35611D01*
X35677Y38757D01*
X35633Y38712D01*
X35549Y38510D01*
Y38290D01*
X35633Y38088D01*
X35760Y37961D01*
X35727Y37829D01*
X35711Y37801D01*
X35449D01*
Y35999D01*
X38051D01*
Y37801D01*
X36489D01*
X36473Y37829D01*
X36440Y37961D01*
X36567Y38088D01*
X36651Y38290D01*
Y38510D01*
X36567Y38712D01*
X36523Y38757D01*
X36589Y38917D01*
X42521D01*
X42533Y38888D01*
X42688Y38733D01*
X42890Y38649D01*
X43110D01*
X43312Y38733D01*
X43467Y38888D01*
X43551Y39090D01*
Y39310D01*
X43467Y39512D01*
X43312Y39667D01*
X43110Y39751D01*
X42890D01*
X42776Y39704D01*
X42716Y39741D01*
X42639Y39820D01*
Y40010D01*
X42555Y40212D01*
X42400Y40367D01*
X42197Y40451D01*
X41978D01*
X41776Y40367D01*
X41621Y40212D01*
X41609Y40183D01*
X38932D01*
X38800Y40250D01*
X38800Y40343D01*
Y40800D01*
X36900D01*
Y40343D01*
X36900Y40250D01*
X36768Y40183D01*
X32390D01*
X31373Y41200D01*
X31281Y41262D01*
X31173Y41283D01*
X29601D01*
Y41826D01*
D02*
G37*
G36*
X14775Y39250D02*
X14000D01*
Y38600D01*
X14775D01*
Y39250D01*
D02*
G37*
G36*
X13800D02*
X13025D01*
Y38600D01*
X13800D01*
Y39250D01*
D02*
G37*
G36*
X52800Y37850D02*
X51550D01*
Y37000D01*
X52800D01*
Y37850D01*
D02*
G37*
G36*
X51350D02*
X50100D01*
Y37000D01*
X51350D01*
Y37850D01*
D02*
G37*
G36*
X44800D02*
X43550D01*
Y37000D01*
X44800D01*
Y37850D01*
D02*
G37*
G36*
X43350D02*
X42100D01*
Y37000D01*
X43350D01*
Y37850D01*
D02*
G37*
G36*
X52800Y36800D02*
X51550D01*
Y35950D01*
X52800D01*
Y36800D01*
D02*
G37*
G36*
X51350D02*
X50100D01*
Y35950D01*
X51350D01*
Y36800D01*
D02*
G37*
G36*
X44800D02*
X43550D01*
Y35950D01*
X44800D01*
Y36800D01*
D02*
G37*
G36*
X43350D02*
X42100D01*
Y35950D01*
X43350D01*
Y36800D01*
D02*
G37*
G36*
X46200Y35100D02*
X45550D01*
Y34325D01*
X46200D01*
Y35100D01*
D02*
G37*
G36*
X55951Y33566D02*
X51849D01*
Y32108D01*
X50801D01*
Y32526D01*
X49399D01*
Y30874D01*
X49817D01*
Y29879D01*
X49788Y29867D01*
X49633Y29712D01*
X49549Y29510D01*
Y29290D01*
X49633Y29088D01*
X49788Y28933D01*
X49990Y28849D01*
X50210D01*
X50412Y28933D01*
X50567Y29088D01*
X50588Y29139D01*
X51477D01*
Y28969D01*
X53304D01*
Y29921D01*
X51477D01*
Y29706D01*
X50570D01*
X50567Y29712D01*
X50412Y29867D01*
X50383Y29879D01*
Y30874D01*
X50801D01*
Y31542D01*
X51849D01*
Y31234D01*
X55951D01*
Y33566D01*
D02*
G37*
G36*
X38375Y30650D02*
X37600D01*
Y30000D01*
X38375D01*
Y30650D01*
D02*
G37*
G36*
X57435Y31628D02*
X57165D01*
X56903Y31558D01*
X56669Y31423D01*
X56477Y31232D01*
X56342Y30997D01*
X56272Y30735D01*
Y30465D01*
X56342Y30203D01*
X56477Y29968D01*
X56669Y29777D01*
X56903Y29642D01*
X57165Y29572D01*
X57435D01*
X57697Y29642D01*
X57932Y29777D01*
X58123Y29968D01*
X58258Y30203D01*
X58329Y30465D01*
Y30735D01*
X58258Y30997D01*
X58123Y31232D01*
X57932Y31423D01*
X57697Y31558D01*
X57435Y31628D01*
D02*
G37*
G36*
X35347Y35683D02*
X35128D01*
X34925Y35599D01*
X34770Y35444D01*
X34687Y35242D01*
Y35023D01*
X34770Y34820D01*
X34905Y34685D01*
Y34014D01*
X34348D01*
Y32612D01*
X36000D01*
Y32612D01*
X36142Y32656D01*
X36145Y32657D01*
X36264Y32553D01*
Y29650D01*
X36000D01*
Y29300D01*
X35800D01*
Y29650D01*
X35350D01*
Y29551D01*
X34301D01*
Y29601D01*
X34083D01*
Y29949D01*
X34251D01*
Y30689D01*
X34251Y30751D01*
Y30892D01*
X34348Y31012D01*
X36000D01*
Y32414D01*
X34348D01*
Y32183D01*
X33949D01*
X33840Y32162D01*
X33748Y32100D01*
X33600Y31952D01*
X33538Y31860D01*
X33517Y31751D01*
Y31651D01*
X33349D01*
Y30911D01*
X33349Y30751D01*
X33281Y30683D01*
X29679D01*
X29667Y30712D01*
X29512Y30867D01*
X29310Y30951D01*
X29090D01*
X28888Y30867D01*
X28733Y30712D01*
X28649Y30510D01*
Y30290D01*
X28733Y30088D01*
X28888Y29933D01*
X29090Y29849D01*
X29310D01*
X29512Y29933D01*
X29667Y30088D01*
X29679Y30117D01*
X29850D01*
Y29500D01*
X30600D01*
Y29300D01*
X29850D01*
Y28525D01*
Y27800D01*
X30600D01*
Y27700D01*
X30700D01*
Y26825D01*
X31350D01*
Y26847D01*
X31499Y26874D01*
Y26874D01*
X32901D01*
Y27448D01*
X32979Y27500D01*
X33151Y27672D01*
X33299Y27611D01*
Y27499D01*
X33517D01*
Y26626D01*
X33110D01*
X33099Y26626D01*
X32950Y26653D01*
Y26675D01*
X32300D01*
Y25800D01*
X32200D01*
D01*
X32300D01*
Y24925D01*
X32950D01*
Y24947D01*
X33099Y24974D01*
X33110Y24974D01*
X33517D01*
Y24551D01*
X33349D01*
Y24183D01*
X32879D01*
X32867Y24212D01*
X32712Y24367D01*
X32510Y24451D01*
X32290D01*
X32088Y24367D01*
X31933Y24212D01*
X31874Y24069D01*
X31812Y23995D01*
X31701Y23950D01*
X31000D01*
Y23300D01*
X31775D01*
Y23551D01*
X31923Y23586D01*
X31935Y23586D01*
X32088Y23433D01*
X32290Y23349D01*
X32510D01*
X32712Y23433D01*
X32867Y23588D01*
X32879Y23617D01*
X33349D01*
Y23149D01*
X34251D01*
Y24551D01*
X34083D01*
Y24974D01*
X34501D01*
Y26626D01*
X34083D01*
Y27499D01*
X34301D01*
Y27549D01*
X35262D01*
X35397Y27403D01*
X35396Y27340D01*
X35323Y27164D01*
Y26945D01*
X35389Y26786D01*
X35315Y26626D01*
X35199D01*
Y24974D01*
X36590D01*
X36601Y24974D01*
X36750Y24947D01*
Y24925D01*
X37400D01*
Y25800D01*
Y26675D01*
X36750D01*
Y26653D01*
X36601Y26626D01*
X36590Y26626D01*
X36434D01*
X36360Y26786D01*
X36425Y26945D01*
Y27164D01*
X36353Y27339D01*
X36401Y27499D01*
X36401D01*
Y28017D01*
X36674D01*
Y27599D01*
X38326D01*
Y29001D01*
X38326D01*
X38352Y29150D01*
X38375D01*
Y29800D01*
X37500D01*
Y29900D01*
X37400D01*
Y30650D01*
X36830D01*
Y32499D01*
X36912Y32533D01*
X37067Y32688D01*
X37151Y32890D01*
Y33110D01*
X37067Y33312D01*
X36912Y33467D01*
X36710Y33551D01*
X36490D01*
X36288Y33467D01*
X36160Y33339D01*
X36032Y33370D01*
X36000Y33388D01*
Y34014D01*
X35570D01*
Y34685D01*
X35705Y34820D01*
X35789Y35023D01*
Y35242D01*
X35705Y35444D01*
X35550Y35599D01*
X35347Y35683D01*
D02*
G37*
G36*
X43126Y30201D02*
X41474D01*
Y28810D01*
X41474Y28799D01*
X41448Y28650D01*
X41425D01*
Y28000D01*
X42300D01*
X43175D01*
Y28650D01*
X43152D01*
X43126Y28799D01*
X43126Y28810D01*
Y29217D01*
X43499D01*
Y29049D01*
X44901D01*
Y29162D01*
X46052D01*
Y28969D01*
X47879D01*
Y29921D01*
X46052D01*
Y29728D01*
X44901D01*
Y29951D01*
X43499D01*
Y29783D01*
X43126D01*
Y30201D01*
D02*
G37*
G36*
X47879Y28651D02*
X46052D01*
Y28458D01*
X44901D01*
Y28551D01*
X43499D01*
Y27649D01*
X43917D01*
Y26826D01*
X43510D01*
X43499Y26826D01*
X43350Y26853D01*
Y26875D01*
X42700D01*
Y26000D01*
Y25125D01*
X43350D01*
Y25147D01*
X43499Y25174D01*
X43510Y25174D01*
X44901D01*
Y26826D01*
X44483D01*
Y27649D01*
X44901D01*
Y27892D01*
X46052D01*
Y27699D01*
X47879D01*
Y28651D01*
D02*
G37*
G36*
X53304D02*
X51477D01*
Y28421D01*
X51236D01*
X51090Y28567D01*
X50888Y28651D01*
X50668D01*
X50466Y28567D01*
X50311Y28412D01*
X50227Y28210D01*
Y27990D01*
X50311Y27788D01*
X50466Y27633D01*
X50668Y27549D01*
X50888D01*
X51090Y27633D01*
X51245Y27788D01*
X51273Y27854D01*
X51477D01*
Y27699D01*
X53304D01*
Y28651D01*
D02*
G37*
G36*
X59066Y28951D02*
X56734D01*
Y27183D01*
X55926D01*
Y27601D01*
X54274D01*
Y27188D01*
X53304D01*
Y27381D01*
X51477D01*
Y26429D01*
X53304D01*
Y26622D01*
X54274D01*
Y26199D01*
X55926D01*
Y26617D01*
X56734D01*
Y24849D01*
X57695D01*
Y24222D01*
X57666Y24210D01*
X57511Y24055D01*
X57427Y23853D01*
Y23634D01*
X57511Y23431D01*
X57666Y23276D01*
X57868Y23192D01*
X58088D01*
X58290Y23276D01*
X58445Y23431D01*
X58529Y23634D01*
Y23853D01*
X58445Y24055D01*
X58290Y24210D01*
X58261Y24222D01*
Y24849D01*
X59066D01*
Y28951D01*
D02*
G37*
G36*
X43175Y27800D02*
X42400D01*
Y27150D01*
X43175D01*
Y27800D01*
D02*
G37*
G36*
X42200D02*
X41425D01*
Y27150D01*
X42200D01*
Y27800D01*
D02*
G37*
G36*
X46866Y27430D02*
X46003D01*
Y27005D01*
X46866D01*
Y27430D01*
D02*
G37*
G36*
X30500Y27600D02*
X29850D01*
Y26825D01*
X30500D01*
Y27600D01*
D02*
G37*
G36*
X46866Y26805D02*
X46003D01*
Y26380D01*
X46866D01*
Y26805D01*
D02*
G37*
G36*
X42500Y26875D02*
X41850D01*
Y26100D01*
X42500D01*
Y26875D01*
D02*
G37*
G36*
X38250Y26675D02*
X37600D01*
Y25900D01*
X38250D01*
Y26675D01*
D02*
G37*
G36*
X32100D02*
X31450D01*
Y25900D01*
X32100D01*
Y26675D01*
D02*
G37*
G36*
X46866Y26160D02*
X46003D01*
Y25735D01*
X46866D01*
Y26160D01*
D02*
G37*
G36*
X42500Y25900D02*
X41850D01*
Y25125D01*
X42500D01*
Y25900D01*
D02*
G37*
G36*
X46866Y25535D02*
X46003D01*
Y25110D01*
X46866D01*
Y25535D01*
D02*
G37*
G36*
X38250Y25700D02*
X37600D01*
Y24925D01*
X38250D01*
Y25700D01*
D02*
G37*
G36*
X32100Y25700D02*
X31450D01*
Y24925D01*
X32100D01*
Y25700D01*
D02*
G37*
G36*
X29910Y25751D02*
X29690D01*
X29488Y25667D01*
X29333Y25512D01*
X29249Y25310D01*
Y25090D01*
X29261Y25062D01*
X28800Y24600D01*
X28738Y24508D01*
X28717Y24400D01*
Y23901D01*
X28274D01*
Y22499D01*
X29843Y22499D01*
X29953Y22401D01*
X29957Y22374D01*
X29940Y22310D01*
X29912Y22301D01*
X28274D01*
Y20899D01*
X29926D01*
Y20899D01*
X30074D01*
Y20899D01*
X31726D01*
Y21146D01*
X31886Y21267D01*
X31888Y21267D01*
X32399D01*
Y20849D01*
X33301D01*
Y22251D01*
X32399D01*
Y21833D01*
X31989D01*
X31947Y21862D01*
X31838Y21883D01*
X31726D01*
Y22290D01*
X31726Y22301D01*
X31753Y22450D01*
X31775D01*
Y23100D01*
X30900D01*
Y23200D01*
X30800D01*
Y23950D01*
X30066D01*
X30025Y23950D01*
X29885Y23901D01*
X29865Y23901D01*
X29283D01*
Y24283D01*
X29662Y24661D01*
X29690Y24649D01*
X29910D01*
X30112Y24733D01*
X30267Y24888D01*
X30351Y25090D01*
Y25310D01*
X30267Y25512D01*
X30112Y25667D01*
X29910Y25751D01*
D02*
G37*
G36*
X50700Y24375D02*
X50050D01*
Y23600D01*
X50700D01*
Y24375D01*
D02*
G37*
G36*
Y23400D02*
X50050D01*
Y22625D01*
X50700D01*
Y23400D01*
D02*
G37*
G36*
X49450Y19400D02*
X48800D01*
Y18625D01*
X49450D01*
Y19400D01*
D02*
G37*
G36*
X48400Y18376D02*
X48000D01*
Y17438D01*
Y16501D01*
X48400D01*
Y16550D01*
X52351D01*
Y18327D01*
X48400D01*
Y18376D01*
D02*
G37*
G36*
X56975Y13450D02*
X56200D01*
Y12800D01*
X56975D01*
Y13450D01*
D02*
G37*
G36*
X56000D02*
X55225D01*
Y12800D01*
X56000D01*
Y13450D01*
D02*
G37*
G36*
X46200Y4775D02*
X45550D01*
Y4000D01*
X46200D01*
Y4775D01*
D02*
G37*
G36*
X31400Y10400D02*
X30550D01*
Y9150D01*
X31400D01*
Y10400D01*
D02*
G37*
G36*
X33127Y8553D02*
X33108D01*
Y8053D01*
X33608D01*
Y8073D01*
X33517Y8293D01*
X33348Y8462D01*
X33127Y8553D01*
D02*
G37*
G36*
X31400Y8950D02*
X30550D01*
Y7700D01*
X31400D01*
Y8950D01*
D02*
G37*
%LPD*%
D10*
X37850Y52900D02*
D03*
Y51400D02*
D03*
Y49900D02*
D03*
Y48400D02*
D03*
Y46900D02*
D03*
Y45400D02*
D03*
Y43900D02*
D03*
Y42400D02*
D03*
Y40900D02*
D03*
X55350D02*
D03*
Y42400D02*
D03*
Y43900D02*
D03*
Y45400D02*
D03*
Y46900D02*
D03*
Y48400D02*
D03*
Y49900D02*
D03*
Y51400D02*
D03*
Y52900D02*
D03*
D11*
X47560Y46700D02*
D03*
X48660D02*
D03*
X46460D02*
D03*
Y47800D02*
D03*
X47560D02*
D03*
X48660D02*
D03*
Y45600D02*
D03*
X47560D02*
D03*
X46460D02*
D03*
D12*
X7655Y56650D02*
D03*
Y56150D02*
D03*
Y55650D02*
D03*
Y53150D02*
D03*
Y53650D02*
D03*
Y54150D02*
D03*
Y55150D02*
D03*
Y54650D02*
D03*
D13*
Y52500D02*
D03*
Y57300D02*
D03*
Y51700D02*
D03*
Y58100D02*
D03*
D14*
X20832Y40300D02*
D03*
X19232D02*
D03*
X47100Y19500D02*
D03*
X48700D02*
D03*
X12900Y55600D02*
D03*
X14500D02*
D03*
X9900Y55600D02*
D03*
X11500D02*
D03*
X9600Y48800D02*
D03*
X11200D02*
D03*
X46300Y38700D02*
D03*
X47900D02*
D03*
X46300Y36900D02*
D03*
X47900D02*
D03*
Y35200D02*
D03*
X46300D02*
D03*
X48500Y31700D02*
D03*
X50100D02*
D03*
X46300Y3900D02*
D03*
X47900D02*
D03*
X37148Y14100D02*
D03*
X35548D02*
D03*
X52400Y23500D02*
D03*
X50800D02*
D03*
X42600Y26000D02*
D03*
X44200D02*
D03*
X28900Y41000D02*
D03*
X27300D02*
D03*
X33800Y25800D02*
D03*
X32200D02*
D03*
X30600Y29400D02*
D03*
X32200D02*
D03*
X30600Y27700D02*
D03*
X32200D02*
D03*
X35900Y25800D02*
D03*
X37500D02*
D03*
X15100Y42100D02*
D03*
X16700D02*
D03*
Y43900D02*
D03*
X15100D02*
D03*
X23000D02*
D03*
X21400D02*
D03*
X18900Y28900D02*
D03*
X17300D02*
D03*
X16700Y40300D02*
D03*
X15100D02*
D03*
X22400Y33675D02*
D03*
X24000D02*
D03*
X22444Y31813D02*
D03*
X24044D02*
D03*
X22300Y30000D02*
D03*
X23900D02*
D03*
X10200Y33035D02*
D03*
X8600D02*
D03*
D15*
X33800Y30350D02*
D03*
Y31250D02*
D03*
D16*
X28800Y33300D02*
D03*
X23400Y27300D02*
D03*
X9900Y45400D02*
D03*
X38646Y21550D02*
D03*
X13320Y27700D02*
D03*
X41158Y3200D02*
D03*
X37900Y8500D02*
D03*
X43200Y32400D02*
D03*
X53900D02*
D03*
X28600Y45200D02*
D03*
D17*
X33800Y23850D02*
D03*
X34750Y21550D02*
D03*
X32850D02*
D03*
D18*
X10560Y50600D02*
D03*
Y52200D02*
D03*
X57500Y48300D02*
D03*
Y49900D02*
D03*
X56100Y12700D02*
D03*
Y11100D02*
D03*
X40000Y10900D02*
D03*
Y12500D02*
D03*
X35875Y43446D02*
D03*
Y45046D02*
D03*
X35400Y17400D02*
D03*
Y15800D02*
D03*
X37200Y15800D02*
D03*
Y17400D02*
D03*
X55100Y25300D02*
D03*
Y26900D02*
D03*
X42300Y27900D02*
D03*
Y29500D02*
D03*
X29300Y50500D02*
D03*
Y52100D02*
D03*
X27600Y50500D02*
D03*
Y52100D02*
D03*
X29300Y36800D02*
D03*
Y38400D02*
D03*
X23900Y39900D02*
D03*
Y38300D02*
D03*
X29100Y21600D02*
D03*
Y23200D02*
D03*
X30900D02*
D03*
Y21600D02*
D03*
X35174Y33313D02*
D03*
Y31713D02*
D03*
X37500Y29900D02*
D03*
Y28300D02*
D03*
X18300Y38500D02*
D03*
Y36900D02*
D03*
X16200Y38500D02*
D03*
Y36900D02*
D03*
X13900D02*
D03*
Y38500D02*
D03*
X8200Y36900D02*
D03*
Y35300D02*
D03*
X12300Y32900D02*
D03*
Y34500D02*
D03*
X5600Y15700D02*
D03*
Y17300D02*
D03*
D19*
X42162Y15700D02*
D03*
Y14900D02*
D03*
Y14100D02*
D03*
Y13300D02*
D03*
Y12500D02*
D03*
Y11700D02*
D03*
Y10900D02*
D03*
Y10100D02*
D03*
Y9300D02*
D03*
Y8500D02*
D03*
Y7700D02*
D03*
X53638D02*
D03*
Y8500D02*
D03*
Y9300D02*
D03*
Y10100D02*
D03*
Y10900D02*
D03*
Y11700D02*
D03*
Y12500D02*
D03*
Y13300D02*
D03*
Y14100D02*
D03*
Y14900D02*
D03*
Y15700D02*
D03*
D20*
X43900Y5962D02*
D03*
X44700D02*
D03*
X45500D02*
D03*
X46300D02*
D03*
X47100D02*
D03*
X47900D02*
D03*
X48700D02*
D03*
X49500D02*
D03*
X50300D02*
D03*
X51100D02*
D03*
X51900D02*
D03*
Y17438D02*
D03*
X51100D02*
D03*
X50300D02*
D03*
X49500D02*
D03*
X48700D02*
D03*
X47900D02*
D03*
X47100D02*
D03*
X46300D02*
D03*
X45500D02*
D03*
X44700D02*
D03*
X43900D02*
D03*
D21*
X43400Y21600D02*
D03*
X37020Y3502D02*
D03*
X33400Y2900D02*
D03*
X29500D02*
D03*
X57900Y26900D02*
D03*
X12720Y41500D02*
D03*
D22*
X58150Y36900D02*
D03*
X51450D02*
D03*
D23*
X46966Y29445D02*
D03*
Y28175D02*
D03*
Y26905D02*
D03*
Y25635D02*
D03*
X52390D02*
D03*
Y26905D02*
D03*
Y28175D02*
D03*
Y29445D02*
D03*
D24*
X44200Y28100D02*
D03*
Y29500D02*
D03*
D25*
X43450Y36900D02*
D03*
X36750D02*
D03*
D26*
X31500Y15750D02*
D03*
Y9050D02*
D03*
D27*
X25950Y39050D02*
D03*
X27250D02*
D03*
X25950Y38350D02*
D03*
X27250D02*
D03*
D28*
X34850Y28550D02*
D03*
D29*
X33800Y27800D02*
D03*
Y28300D02*
D03*
Y28800D02*
D03*
Y29300D02*
D03*
X35900D02*
D03*
Y28800D02*
D03*
Y28300D02*
D03*
Y27800D02*
D03*
D30*
X14810Y34940D02*
D03*
Y34305D02*
D03*
Y33670D02*
D03*
X20060Y34940D02*
D03*
Y34305D02*
D03*
Y33670D02*
D03*
X14810Y31765D02*
D03*
Y31130D02*
D03*
Y33035D02*
D03*
Y32400D02*
D03*
Y30495D02*
D03*
X20060Y33035D02*
D03*
Y32400D02*
D03*
Y31765D02*
D03*
Y31130D02*
D03*
Y30495D02*
D03*
D31*
X10200Y37246D02*
D03*
Y35300D02*
D03*
D32*
X2500Y13060D02*
X5540D01*
X12400Y6200D02*
X35693D01*
X5540Y13060D02*
X12400Y6200D01*
X7100Y10700D02*
X12074Y5726D01*
X2680Y10700D02*
X7100D01*
X12074Y5726D02*
X30015D01*
X2500Y10520D02*
X2680Y10700D01*
X7580Y2900D02*
X29500D01*
X2500Y7980D02*
X7580Y2900D01*
X33356Y53423D02*
X34607Y52172D01*
X18140Y56905D02*
X21622Y53423D01*
X33356D01*
X26949Y18400D02*
X40930D01*
X18900Y26449D02*
Y27300D01*
Y26449D02*
X26949Y18400D01*
X13320Y27700D02*
X13720Y27300D01*
X18900D01*
Y28900D01*
X15433Y33513D02*
X16306Y32640D01*
X17181Y31765D01*
X17300Y28900D02*
X17600Y29200D01*
Y31765D01*
X17181D02*
X17600D01*
X20060D01*
X39186Y21612D02*
Y23743D01*
X39124Y21550D02*
X39186Y21612D01*
X40400Y7026D02*
X45066D01*
X45327Y6766D01*
X33949Y31900D02*
X34987D01*
X33800Y31250D02*
Y31751D01*
X33949Y31900D01*
X34987D02*
X35174Y31713D01*
X52331Y1591D02*
X54090Y3350D01*
X51900Y3400D02*
Y5962D01*
X50800Y2300D02*
X51900Y3400D01*
X40000Y12500D02*
X40326Y12174D01*
X40999D01*
X41300Y11873D01*
X41989D01*
X42162Y11700D01*
X32089Y3652D02*
X32648D01*
X30015Y5726D02*
X32089Y3652D01*
X32648D02*
X33400Y2900D01*
X16360Y44240D02*
Y45366D01*
X16700Y42100D02*
Y43900D01*
X16360Y44240D02*
X16700Y43900D01*
X15600Y57162D02*
X19834Y52928D01*
X32714D01*
X35014Y50628D01*
X2900Y28620D02*
X6380D01*
X20900Y14100D01*
X2900Y28620D02*
X3598Y28432D01*
X7560Y52595D02*
X7617Y52538D01*
X8462D01*
X9400Y51600D01*
Y49000D02*
Y51600D01*
X5515Y52613D02*
X6830D01*
X4500Y53628D02*
X5515Y52613D01*
X6848Y52595D02*
X7560D01*
X6830Y52613D02*
X6848Y52595D01*
X8686Y53200D02*
X9653Y52234D01*
X7415Y53200D02*
X8686D01*
X7655Y54650D02*
X7663Y54658D01*
X8203D01*
X7584Y56127D02*
X8549D01*
X9075Y55600D02*
X9900D01*
X8549Y56127D02*
X9075Y55600D01*
X7482Y57127D02*
X7655Y57300D01*
X4500Y56050D02*
X5550Y57100D01*
X7085Y57127D02*
X7482D01*
X7058Y57100D02*
X7085Y57127D01*
X5550Y57100D02*
X7058D01*
X9400Y49000D02*
X9600Y48800D01*
X4500Y53628D02*
Y56050D01*
X10526Y52234D02*
X10560Y52200D01*
X9653Y52234D02*
X10526D01*
X13101Y10901D02*
X32650D01*
X13100Y10900D02*
X13101Y10901D01*
X32650D02*
X34163Y9388D01*
X36547Y29054D02*
Y32947D01*
X36600Y33000D01*
X36316Y28823D02*
X36547Y29054D01*
X23900Y39900D02*
X25200D01*
X36800Y19712D02*
X36801Y19713D01*
X41506D01*
X41507Y19715D01*
X33750Y30400D02*
X33800Y30350D01*
X29200Y30400D02*
X33750D01*
X33750Y23900D02*
X33800Y23850D01*
X32400Y23900D02*
X33750D01*
X33800Y23850D02*
Y25800D01*
X46300Y16209D02*
Y17438D01*
X45807Y15716D02*
X46300Y16209D01*
X45807Y15597D02*
Y15716D01*
X28100Y19000D02*
X40907D01*
X45807Y14100D02*
X53638D01*
X40907Y19000D02*
X45807Y14100D01*
X40930Y18400D02*
X46030Y13300D01*
X35923Y28823D02*
X36316D01*
X22947Y37501D02*
X23400Y37048D01*
X22947Y43847D02*
X23000Y43900D01*
X22947Y37501D02*
Y43847D01*
X23400Y36900D02*
Y37048D01*
X23000Y43900D02*
Y49840D01*
X24113Y33700D02*
X25200D01*
X27376Y33036D02*
Y33395D01*
X26123Y33700D02*
X27027D01*
Y33744D02*
Y34100D01*
X28000D01*
X27027Y33700D02*
X28400D01*
X27376Y33036D02*
X28536D01*
X28400Y33700D02*
X28800Y33300D01*
X28536Y33036D02*
X28800Y33300D01*
X26100Y31600D02*
X26123Y31623D01*
X28356Y33744D02*
X28800Y33300D01*
X26123Y31623D02*
Y33700D01*
X27027Y33744D02*
X27376Y33395D01*
X28000Y34100D02*
X28356Y33744D01*
X24044Y33631D02*
X24113Y33700D01*
X26123D02*
Y34327D01*
X22549Y34963D02*
X25487D01*
X26123Y34327D01*
X22400Y33706D02*
Y34814D01*
X22549Y34963D01*
X24044Y31813D02*
Y33631D01*
X44036Y14152D02*
Y14688D01*
X42265Y15597D02*
X43127D01*
X42162Y15700D02*
X42265Y15597D01*
X43127D02*
X44036Y14688D01*
X46030Y13300D02*
X53638D01*
X40000Y14831D02*
Y15829D01*
X42162Y12500D02*
X44149D01*
X44552Y12903D02*
X44700D01*
X44149Y12500D02*
X44552Y12903D01*
X45500Y18693D02*
X45993Y19185D01*
Y20528D01*
X45500Y17438D02*
Y18693D01*
X44700Y17438D02*
Y19027D01*
X45040Y19367D01*
X29300Y36800D02*
X30518D01*
X32918Y39200D02*
X43000D01*
X30518Y36800D02*
X32918Y39200D01*
X32273Y39900D02*
X42088D01*
X31173Y41000D02*
X32273Y39900D01*
X43400Y21600D02*
X43900Y21100D01*
Y17438D02*
Y21100D01*
X43678Y21878D02*
X50778D01*
X43400Y21600D02*
X43678Y21878D01*
X50815Y28138D02*
X52352D01*
X50778Y28100D02*
X50815Y28138D01*
X52352D02*
X52390Y28175D01*
X42600Y32400D02*
X46460D01*
X42465Y32535D02*
X42600Y32400D01*
X40000Y32535D02*
X42465D01*
X40400Y44003D02*
Y46086D01*
X39586Y46900D02*
X40400Y46086D01*
X37884Y45366D02*
X39037D01*
X39186Y43500D02*
Y45217D01*
X39037Y45366D02*
X39186Y45217D01*
X37850Y45400D02*
X37884Y45366D01*
X36527Y42379D02*
X37829D01*
X36000Y42000D02*
X36148D01*
X36527Y42379D01*
X36723Y36900D02*
X36750D01*
X36100Y37523D02*
X36723Y36900D01*
X36100Y37523D02*
Y38400D01*
X28900Y41000D02*
X31173D01*
X47832Y33772D02*
Y35132D01*
X46460Y32400D02*
X47832Y33772D01*
X46360Y8027D02*
X46927Y8593D01*
X46360Y6022D02*
Y8027D01*
X46300Y5962D02*
X46360Y6022D01*
X44978Y9478D02*
X49061D01*
X42177Y10085D02*
X49600D01*
X49615Y10071D01*
X49061Y9478D02*
X50739Y7800D01*
X43200Y7700D02*
X44978Y9478D01*
X48532Y7216D02*
X48551D01*
X48700Y7067D01*
Y5962D02*
Y7067D01*
X48048Y7700D02*
X48532Y7216D01*
X47900Y7700D02*
X48048D01*
X20060Y33670D02*
X22395D01*
X22400Y33675D01*
X24294Y29369D02*
Y30000D01*
X24044Y30144D02*
Y31813D01*
X25500Y21600D02*
X28100Y19000D01*
X25500Y21600D02*
X25500D01*
X23400Y23700D02*
X25500Y21600D01*
X44226Y12095D02*
X50339D01*
X52334Y10100D01*
X43472Y11341D02*
X44226Y12095D01*
X45040Y11381D02*
X50061D01*
X52142Y9300D01*
X45000Y11341D02*
X45040Y11381D01*
X23400Y23700D02*
Y27300D01*
X22300Y28188D02*
Y30000D01*
Y28188D02*
X23188Y27300D01*
X23400D01*
X22105Y30195D02*
X22300Y30000D01*
X20656Y31057D02*
X21518Y30195D01*
X22105D01*
X20525Y31130D02*
X20598Y31057D01*
X20060Y31130D02*
X20525D01*
X20598Y31057D02*
X20656D01*
X20060Y32400D02*
X20525D01*
X20682Y32243D01*
X20683D02*
X21113Y31813D01*
X20682Y32243D02*
X20683D01*
X21113Y31813D02*
X22444D01*
X41147Y2947D02*
X49506D01*
X39783Y3640D02*
X40723Y2700D01*
X23900Y30000D02*
X24044Y30144D01*
X24193Y30101D02*
X24294Y30000D01*
X18900Y28900D02*
X20060D01*
X50100Y29400D02*
Y31825D01*
X52367Y29423D02*
X52390Y29445D01*
X50122Y29423D02*
X52367D01*
X50100Y29400D02*
X50122Y29423D01*
X53325Y31825D02*
X53900Y32400D01*
X50100Y31825D02*
X53325D01*
X38866Y1591D02*
X52331D01*
X34229Y1186D02*
X52800D01*
X52810Y1196D01*
X53196D01*
X53300Y1300D01*
X32127Y473D02*
X54090D01*
X54803Y1186D01*
X54900D01*
X44400Y2269D02*
X49708D01*
X51100Y3661D02*
Y5962D01*
X49708Y2269D02*
X51100Y3661D01*
X38320Y2137D02*
X38866Y1591D01*
X33400Y2015D02*
Y2900D01*
Y2015D02*
X34229Y1186D01*
X49506Y2947D02*
X50061Y3502D01*
Y4439D01*
X20900Y14100D02*
X35548D01*
X9230Y16570D02*
Y18600D01*
X13909Y11891D02*
X36791D01*
X9230Y16570D02*
X13909Y11891D01*
X36791D02*
X36800Y11900D01*
X35548Y14100D02*
X35600Y14048D01*
Y12903D02*
Y14048D01*
X49508Y4992D02*
Y5954D01*
X49500Y5962D02*
X49508Y5954D01*
Y4992D02*
X50061Y4439D01*
X49817Y7564D02*
Y7700D01*
X51041Y8500D02*
X53638D01*
X49817Y7564D02*
X50300Y7081D01*
X50739Y7800D02*
X51600D01*
X50300Y5962D02*
Y7081D01*
X48700Y5962D02*
X48700Y5962D01*
X45327Y6135D02*
Y6766D01*
Y6135D02*
X45500Y5962D01*
X36259Y3350D02*
Y5634D01*
X35693Y6200D02*
X36259Y5634D01*
Y3350D02*
X36709Y2900D01*
X37500D01*
X21264Y7207D02*
X36883D01*
X18400Y10071D02*
X21264Y7207D01*
X36883D02*
X39783Y4308D01*
X37500Y2545D02*
Y2900D01*
X52334Y10100D02*
X53638D01*
X52142Y9300D02*
X53638D01*
X46927Y5789D02*
X47100Y5962D01*
X29000Y23300D02*
Y24400D01*
X29800Y25200D01*
X29000Y23300D02*
X29100Y23200D01*
X34163Y9388D02*
X37012D01*
X37900Y8500D01*
X32651Y19712D02*
X34175D01*
X34750Y20287D02*
Y21550D01*
X34175Y19712D02*
X34750Y20287D01*
X51600Y7800D02*
X52800Y6600D01*
X57978Y23743D02*
Y26822D01*
X57900Y26900D02*
X57978Y26822D01*
X40374Y13384D02*
X42078D01*
X38646Y15113D02*
Y16395D01*
Y15113D02*
X40374Y13384D01*
X40000Y14831D02*
X40731Y14100D01*
X20032Y32428D02*
X20060Y32400D01*
X18400Y33000D02*
X18972Y32428D01*
X20032D01*
X47832Y35132D02*
X47900Y35200D01*
X52390Y29445D02*
X52394Y29449D01*
X40314Y51400D02*
X41225Y50489D01*
X37850Y51400D02*
X40314D01*
X41225Y50489D02*
Y50489D01*
Y50489D02*
X41814Y49900D01*
X41797Y46086D02*
X41814D01*
X47900Y40000D01*
Y38700D02*
Y40000D01*
X45939Y52172D02*
X53111Y45000D01*
X34607Y52172D02*
X45939D01*
X20060Y28900D02*
Y30495D01*
X15600Y57162D02*
Y58200D01*
X18140Y56905D02*
Y58200D01*
X40731Y14100D02*
X42162D01*
X42078Y13384D02*
X42162Y13300D01*
X37829Y42379D02*
X37850Y42400D01*
X33800Y25800D02*
Y27800D01*
X35900Y28300D02*
X35900Y28300D01*
X35900Y28800D02*
X35923Y28823D01*
X35900Y28300D02*
X37500D01*
X32200Y29400D02*
X32547Y29053D01*
X32982D01*
X33235Y28800D01*
X33800D01*
X35014Y50628D02*
X38715D01*
X45443Y43900D01*
X55350D01*
X37850Y46900D02*
X39586D01*
X35950Y42992D02*
X36404Y43446D01*
X14810Y33670D02*
X15275D01*
X15432Y33513D01*
X15433D01*
X13900Y34500D02*
Y36900D01*
Y34500D02*
X14083Y34317D01*
X14798D02*
X14810Y34305D01*
X14083Y34317D02*
X14798D01*
X47900Y36900D02*
Y38700D01*
Y35200D02*
X53623D01*
X55323Y36900D02*
X58150D01*
X53623Y35200D02*
X55323Y36900D01*
X53700Y15762D02*
X55764D01*
X55826Y15824D01*
X53638Y15700D02*
X53700Y15762D01*
X42162Y10100D02*
X42177Y10085D01*
X52800Y6600D02*
X57300D01*
X37500Y2545D02*
X37908Y2137D01*
X38320D01*
X31300Y1300D02*
X32127Y473D01*
X39783Y3640D02*
Y4308D01*
X37148Y14400D02*
X37200D01*
X33378Y28300D02*
X33800D01*
X32778Y27700D02*
X33378Y28300D01*
X32200Y27700D02*
X32778D01*
X37148Y14100D02*
Y14400D01*
X33800Y29300D02*
Y30350D01*
X31888Y21550D02*
X32850D01*
X31838Y21600D02*
X31888Y21550D01*
X30900Y21600D02*
X31838D01*
X29100D02*
X30900D01*
X37200Y15800D02*
Y15800D01*
Y14400D02*
Y15800D01*
X21440Y51400D02*
X23000Y49840D01*
X27250Y39050D02*
Y40950D01*
X27300Y41000D01*
X27250Y38350D02*
X29250D01*
X29300Y38400D01*
X23900Y38300D02*
X23950Y38350D01*
X25950D01*
X18300Y35707D02*
Y36900D01*
Y35707D02*
X19067Y34940D01*
X20060D01*
X14810D02*
X15840D01*
X16200Y35300D02*
Y36900D01*
X15840Y34940D02*
X16200Y35300D01*
X10200Y33035D02*
Y35300D01*
Y33035D02*
X12165D01*
X12300Y32900D01*
X12435Y33035D02*
X14810D01*
X12300Y32900D02*
X12435Y33035D01*
X14810Y33670D02*
Y34305D01*
X42162Y7700D02*
X43200D01*
X55100Y26900D02*
X57900D01*
X52390Y26905D02*
X55095D01*
X55100Y26900D01*
X42300Y29500D02*
X44200D01*
X44255Y29445D01*
X44200Y26000D02*
Y28100D01*
X44275Y28175D02*
X46966D01*
X44200Y28100D02*
X44275Y28175D01*
X44255Y29445D02*
X46966D01*
X53100Y42400D02*
X55350D01*
Y49900D02*
X57500D01*
X36329Y43900D02*
X37850D01*
X31185Y46900D02*
X37850D01*
X29485Y45200D02*
X31185Y46900D01*
X28600Y45200D02*
X29485D01*
X47900Y35200D02*
Y36900D01*
X40000Y10900D02*
X42162D01*
X37900Y8500D02*
X42162D01*
X54634Y7700D02*
X55434Y8500D01*
X53638Y7700D02*
X54634D01*
X55434Y8500D02*
X55500D01*
X29500Y2015D02*
X30215Y1300D01*
X31300D01*
X29500Y2015D02*
Y2900D01*
X35400Y15800D02*
X37200D01*
X31500Y15750D02*
X35350D01*
X35400Y15800D01*
D33*
X5900Y37684D02*
Y37700D01*
X5254Y37038D02*
X5900Y37684D01*
X5254Y32077D02*
Y37038D01*
X12500Y41280D02*
X12720Y41500D01*
X12500Y37700D02*
Y41280D01*
X12900Y53853D02*
Y55600D01*
Y53853D02*
X13323Y53430D01*
Y53423D02*
Y53430D01*
X13060Y55600D02*
Y58200D01*
X35874Y25826D02*
X35900Y25800D01*
X35874Y25826D02*
Y27055D01*
X35887Y27067D01*
Y27787D01*
X52800Y4600D02*
X55185D01*
X55727Y5142D01*
X48400Y25635D02*
Y31600D01*
Y25635D02*
X52390D01*
X48400Y31600D02*
X48600Y31800D01*
X2900Y31160D02*
X4337D01*
X5254Y32077D01*
X5500Y15600D02*
X5600Y15700D01*
X2500Y15600D02*
X5500D01*
X11200Y47350D02*
Y48800D01*
Y46288D02*
Y47350D01*
X11250Y47300D02*
X16169D01*
X11200Y47350D02*
X11250Y47300D01*
X16169D02*
X17181Y46288D01*
X8016Y37246D02*
X8546D01*
X9050Y45650D02*
X10184D01*
X10690Y46156D02*
X11068D01*
X8200Y36900D02*
X8546Y37246D01*
X56100Y11100D02*
X58712D01*
X55124D02*
X56100D01*
X47100Y19500D02*
Y20528D01*
Y17438D02*
Y19500D01*
X47900Y3900D02*
X49061D01*
X33400Y16752D02*
X34048Y17400D01*
X25800Y52200D02*
X27500D01*
X27600Y52100D02*
X29300D01*
X27500Y52200D02*
X27600Y52100D01*
X11068Y46156D02*
X11200Y46288D01*
X10167Y45667D02*
X10367D01*
X10200Y37246D02*
X10257D01*
X9900Y45400D02*
X10167Y45667D01*
X10257Y37246D02*
X10773Y37762D01*
Y46073D01*
X10367Y45667D02*
X10773Y46073D01*
X9854Y36900D02*
X10200Y37246D01*
X35174Y33313D02*
X35238Y33377D01*
Y35132D01*
X12720Y41500D02*
X13320Y42100D01*
X12720Y41500D02*
Y44100D01*
X13320Y44700D01*
Y42100D02*
X15100D01*
X35887Y27787D02*
X35900Y27800D01*
X8200Y36900D02*
X9854D01*
X47100Y20528D02*
X47572Y21000D01*
X48400D01*
X54608Y11616D02*
X55124Y11100D01*
X46300Y38700D02*
Y40300D01*
X45100Y41500D02*
X46300Y40300D01*
X25950Y39050D02*
Y41429D01*
X27513Y42992D02*
X30481D01*
X25950Y41429D02*
X27513Y42992D01*
X55727Y5142D02*
X58065D01*
X58712Y5789D01*
Y11100D01*
Y19367D01*
X42409Y5634D02*
X44141Y3903D01*
X41507Y5634D02*
X42409D01*
X34048Y17400D02*
X35400D01*
X32535Y45046D02*
X34178D01*
X30481Y42992D02*
X32535Y45046D01*
X34178D02*
X35875D01*
X48600Y31800D02*
Y33500D01*
X57500Y47369D02*
Y48300D01*
Y47369D02*
X57916Y46953D01*
Y46900D02*
Y46953D01*
X37822Y52928D02*
X37850Y52900D01*
X35950Y52928D02*
X37822D01*
X53638Y11700D02*
X53722Y11616D01*
X54608D01*
X55100Y22979D02*
X58712Y19367D01*
X55100Y22979D02*
Y25300D01*
X53890D02*
X55100D01*
X53555Y25635D02*
X53890Y25300D01*
X52390Y25635D02*
X53555D01*
X52390Y24559D02*
Y25635D01*
Y24559D02*
X52400Y24549D01*
Y23500D02*
Y24549D01*
X47900Y3900D02*
Y5962D01*
D34*
X18300Y38500D02*
X19232D01*
Y38168D02*
Y38500D01*
Y40300D01*
X16200Y38500D02*
X16500Y38800D01*
Y40100D02*
X16700Y40300D01*
X16500Y38800D02*
Y40100D01*
X16700Y40300D02*
X16758Y40242D01*
X17917D02*
X18140Y40466D01*
X16758Y40242D02*
X17917D01*
X18140Y40466D02*
Y47071D01*
X9800Y53900D02*
X11311D01*
X18140Y47071D01*
X8203Y54658D02*
X8572D01*
X9068Y54632D02*
X9800Y53900D01*
X8572Y54658D02*
X9042D01*
X8572Y54697D02*
Y54803D01*
Y55441D01*
X5328Y54398D02*
X6294D01*
Y54354D02*
Y54894D01*
X6542Y55142D02*
X7271D01*
X6294Y54894D02*
X6542Y55142D01*
X6294Y54354D02*
X6490Y54159D01*
X7138D01*
X7155Y54142D01*
X8371Y55641D02*
X8572Y55441D01*
X8040Y55641D02*
X8371D01*
X19236Y38164D02*
X19700Y37700D01*
D35*
X33265Y42600D02*
D03*
D36*
X57300D02*
D03*
X9230D02*
D03*
X57300Y30600D02*
D03*
X9230D02*
D03*
X57300Y18600D02*
D03*
X9230D02*
D03*
X57300Y6600D02*
D03*
X9230D02*
D03*
D37*
X2900Y28620D02*
D03*
D38*
Y31160D02*
D03*
Y33700D02*
D03*
Y36240D02*
D03*
Y38780D02*
D03*
Y41320D02*
D03*
X2500Y7980D02*
D03*
Y10520D02*
D03*
Y13060D02*
D03*
Y15600D02*
D03*
Y18140D02*
D03*
D39*
X6580Y57790D02*
D03*
Y52010D02*
D03*
D40*
X7080Y50580D02*
D03*
Y59220D02*
D03*
D41*
X2900Y50580D02*
D03*
Y59220D02*
D03*
D42*
X16360Y51400D02*
D03*
X18900D02*
D03*
X21440D02*
D03*
D43*
X15600Y58200D02*
D03*
X18140D02*
D03*
X20680D02*
D03*
D44*
X13060D02*
D03*
D45*
X34500Y49900D02*
D03*
X32000D02*
D03*
D46*
X5900Y37700D02*
D03*
X12500D02*
D03*
X39186Y23743D02*
D03*
X40400Y7026D02*
D03*
X35874Y27055D02*
D03*
X52800Y4600D02*
D03*
X54090Y3350D02*
D03*
X14714Y46156D02*
D03*
X41507Y16645D02*
D03*
X48400Y25635D02*
D03*
X13323Y53423D02*
D03*
X16360Y45366D02*
D03*
X17181Y46288D02*
D03*
X25800Y52200D02*
D03*
X35238Y35132D02*
D03*
X33008Y7953D02*
D03*
X48569Y8637D02*
D03*
X13289Y44744D02*
D03*
X5328Y54398D02*
D03*
X19700Y37700D02*
D03*
X13100Y10903D02*
D03*
X36600Y33000D02*
D03*
X25200Y39900D02*
D03*
X36800Y19712D02*
D03*
X29200Y30400D02*
D03*
X32400Y23900D02*
D03*
X45807Y15597D02*
D03*
X41507Y19715D02*
D03*
X23400Y36900D02*
D03*
X25200Y33700D02*
D03*
X26100Y31600D02*
D03*
X44036Y14152D02*
D03*
X40000Y15829D02*
D03*
X44700Y12903D02*
D03*
X45993Y20530D02*
D03*
X45093Y19503D02*
D03*
X43000Y39200D02*
D03*
X42088Y39900D02*
D03*
X50778Y28100D02*
D03*
X48400Y21000D02*
D03*
X50778Y21878D02*
D03*
X40000Y32535D02*
D03*
X40400Y44003D02*
D03*
X45100Y41500D02*
D03*
X39186Y43500D02*
D03*
X36000Y42000D02*
D03*
X36100Y38400D02*
D03*
X46927Y8593D02*
D03*
X47900Y7700D02*
D03*
X16307Y32642D02*
D03*
X50100Y29400D02*
D03*
X54900Y1186D02*
D03*
X53300Y1300D02*
D03*
X50800Y2300D02*
D03*
X45000Y11341D02*
D03*
X36800Y11900D02*
D03*
X35600Y12903D02*
D03*
X41507Y5634D02*
D03*
X44141Y3903D02*
D03*
X49061D02*
D03*
X51107Y8593D02*
D03*
X49817Y7700D02*
D03*
X33400Y16755D02*
D03*
X34178Y45046D02*
D03*
X48600Y33500D02*
D03*
X29800Y25200D02*
D03*
X32651Y10900D02*
D03*
Y19712D02*
D03*
X44400Y2269D02*
D03*
X57978Y23743D02*
D03*
X18400Y10071D02*
D03*
Y33000D02*
D03*
X41814Y49900D02*
D03*
Y46089D02*
D03*
X53111Y45000D02*
D03*
X57916Y46900D02*
D03*
X35950Y52928D02*
D03*
X53100Y42403D02*
D03*
X55830Y15855D02*
D03*
X55500Y8593D02*
D03*
X49681Y10164D02*
D03*
X43472Y11341D02*
D03*
X38646Y16395D02*
D03*
%TF.MD5,c4a6ebfabe631a7ff226ca3605be07c0*%
M02*
