%TF.GenerationSoftware,Altium Limited,Altium Designer,23.6.0 (18)*%
G04 Layer_Physical_Order=2*
G04 Layer_Color=16711680*
%FSLAX43Y43*%
%MOMM*%
%TF.SameCoordinates,F25C87D7-65A5-4791-ADD7-2C3EA61E28BD*%
%TF.FilePolarity,Positive*%
%TF.FileFunction,Copper,L2,Bot,Signal*%
%TF.Part,Single*%
G01*
G75*
%TA.AperFunction,Conductor*%
%ADD32C,0.254*%
%ADD33C,0.350*%
%ADD34C,0.381*%
%TA.AperFunction,ComponentPad*%
%ADD35C,3.170*%
%ADD36C,1.755*%
%ADD37R,1.650X1.650*%
%ADD38C,1.650*%
%ADD39C,0.650*%
%ADD40O,2.100X1.000*%
%ADD41O,1.800X1.000*%
%ADD42C,1.500*%
%ADD43C,1.600*%
G04:AMPARAMS|DCode=44|XSize=1.6mm|YSize=1.6mm|CornerRadius=0.4mm|HoleSize=0mm|Usage=FLASHONLY|Rotation=0.000|XOffset=0mm|YOffset=0mm|HoleType=Round|Shape=RoundedRectangle|*
%AMROUNDEDRECTD44*
21,1,1.600,0.800,0,0,0.0*
21,1,0.800,1.600,0,0,0.0*
1,1,0.800,0.400,-0.400*
1,1,0.800,-0.400,-0.400*
1,1,0.800,-0.400,0.400*
1,1,0.800,0.400,0.400*
%
%ADD44ROUNDEDRECTD44*%
%ADD45C,1.200*%
%TA.AperFunction,ViaPad*%
%ADD46C,0.800*%
G36*
X22245Y54000D02*
X22265Y53902D01*
X22278Y53882D01*
X22230Y53755D01*
X13770D01*
X13635Y53890D01*
X13433Y53974D01*
X13213D01*
X13011Y53890D01*
X12856Y53735D01*
X12772Y53532D01*
Y53313D01*
X12856Y53110D01*
X12973Y52993D01*
Y45208D01*
X12821Y45056D01*
X12738Y44854D01*
Y44634D01*
X12821Y44432D01*
X12976Y44277D01*
X13179Y44193D01*
X13398D01*
X13601Y44277D01*
X13756Y44432D01*
X13840Y44634D01*
Y44854D01*
X13756Y45056D01*
X13638Y45174D01*
Y52959D01*
X13770Y53090D01*
X25468D01*
Y52647D01*
X25333Y52512D01*
X25249Y52310D01*
Y52090D01*
X25333Y51888D01*
X25488Y51733D01*
X25690Y51649D01*
X25910D01*
X26112Y51733D01*
X26267Y51888D01*
X26351Y52090D01*
Y52310D01*
X26267Y52512D01*
X26132Y52647D01*
Y53090D01*
X33267D01*
X33280Y53088D01*
X35320D01*
X35399Y53009D01*
Y52818D01*
X35483Y52616D01*
X35638Y52461D01*
X35840Y52377D01*
X36031D01*
X36713Y51695D01*
Y45379D01*
X34625D01*
X34490Y45513D01*
X34288Y45597D01*
X34068D01*
X33866Y45513D01*
X33711Y45358D01*
X33627Y45156D01*
Y44937D01*
X33711Y44734D01*
X33866Y44579D01*
X34068Y44495D01*
X34288D01*
X34490Y44579D01*
X34625Y44714D01*
X41416D01*
X44549Y41581D01*
Y41390D01*
X44633Y41188D01*
X44788Y41033D01*
X44990Y40949D01*
X45181D01*
X48268Y37862D01*
Y33947D01*
X48133Y33812D01*
X48049Y33610D01*
Y33390D01*
X48133Y33188D01*
X48288Y33033D01*
X48490Y32949D01*
X48710D01*
X48912Y33033D01*
X49067Y33188D01*
X49151Y33390D01*
Y33610D01*
X49067Y33812D01*
X48932Y33947D01*
Y38000D01*
X48907Y38127D01*
X48835Y38235D01*
X45651Y41419D01*
Y41610D01*
X45630Y41660D01*
X50538Y46568D01*
X57469D01*
X57604Y46433D01*
X57806Y46349D01*
X58026D01*
X58228Y46433D01*
X58383Y46588D01*
X58467Y46790D01*
Y47010D01*
X58383Y47212D01*
X58228Y47367D01*
X58026Y47451D01*
X57806D01*
X57604Y47367D01*
X57469Y47232D01*
X50400D01*
X50273Y47207D01*
X50165Y47135D01*
X45081Y42051D01*
X45019D01*
X41789Y45281D01*
X41681Y45353D01*
X41554Y45379D01*
X37378D01*
Y51833D01*
X37352Y51960D01*
X37280Y52068D01*
X36501Y52847D01*
Y53038D01*
X36417Y53240D01*
X36262Y53395D01*
X36060Y53479D01*
X35869D01*
X35775Y53573D01*
X35828Y53700D01*
X59745D01*
Y255D01*
X255D01*
Y59745D01*
X1922D01*
X1985Y59618D01*
X1931Y59548D01*
X1866Y59390D01*
X1843Y59220D01*
X1866Y59050D01*
X1931Y58892D01*
X2036Y58756D01*
X2172Y58651D01*
X2330Y58586D01*
X2500Y58563D01*
X3300D01*
X3470Y58586D01*
X3628Y58651D01*
X3764Y58756D01*
X3869Y58892D01*
X3934Y59050D01*
X3957Y59220D01*
X3934Y59390D01*
X3869Y59548D01*
X3815Y59618D01*
X3878Y59745D01*
X5952D01*
X6015Y59618D01*
X5961Y59548D01*
X5896Y59390D01*
X5873Y59220D01*
X5896Y59050D01*
X5961Y58892D01*
X6066Y58756D01*
X6202Y58651D01*
X6360Y58586D01*
X6530Y58563D01*
X7630D01*
X7800Y58586D01*
X7958Y58651D01*
X8094Y58756D01*
X8199Y58892D01*
X8264Y59050D01*
X8287Y59220D01*
X8264Y59390D01*
X8199Y59548D01*
X8145Y59618D01*
X8208Y59745D01*
X22245D01*
Y54000D01*
D02*
G37*
%LPC*%
G36*
X20812Y59200D02*
X20780D01*
Y58300D01*
X21680D01*
Y58332D01*
X21612Y58586D01*
X21480Y58814D01*
X21294Y59000D01*
X21066Y59132D01*
X20812Y59200D01*
D02*
G37*
G36*
X20580D02*
X20548D01*
X20294Y59132D01*
X20066Y59000D01*
X19880Y58814D01*
X19748Y58586D01*
X19680Y58332D01*
Y58300D01*
X20580D01*
Y59200D01*
D02*
G37*
G36*
X6675Y58266D02*
X6485D01*
X6310Y58194D01*
X6176Y58060D01*
X6104Y57885D01*
Y57695D01*
X6176Y57520D01*
X6310Y57386D01*
X6485Y57314D01*
X6675D01*
X6850Y57386D01*
X6984Y57520D01*
X7056Y57695D01*
Y57885D01*
X6984Y58060D01*
X6850Y58194D01*
X6675Y58266D01*
D02*
G37*
G36*
X18265Y59151D02*
X18015D01*
X17773Y59086D01*
X17556Y58961D01*
X17379Y58784D01*
X17254Y58567D01*
X17189Y58325D01*
Y58075D01*
X17254Y57833D01*
X17379Y57616D01*
X17556Y57439D01*
X17773Y57314D01*
X18015Y57249D01*
X18265D01*
X18507Y57314D01*
X18724Y57439D01*
X18901Y57616D01*
X19026Y57833D01*
X19091Y58075D01*
Y58325D01*
X19026Y58567D01*
X18901Y58784D01*
X18724Y58961D01*
X18507Y59086D01*
X18265Y59151D01*
D02*
G37*
G36*
X15725D02*
X15475D01*
X15233Y59086D01*
X15016Y58961D01*
X14839Y58784D01*
X14714Y58567D01*
X14649Y58325D01*
Y58075D01*
X14714Y57833D01*
X14839Y57616D01*
X15016Y57439D01*
X15233Y57314D01*
X15475Y57249D01*
X15725D01*
X15967Y57314D01*
X16184Y57439D01*
X16361Y57616D01*
X16486Y57833D01*
X16551Y58075D01*
Y58325D01*
X16486Y58567D01*
X16361Y58784D01*
X16184Y58961D01*
X15967Y59086D01*
X15725Y59151D01*
D02*
G37*
G36*
X13460Y59162D02*
X12660D01*
X12445Y59119D01*
X12263Y58997D01*
X12141Y58815D01*
X12098Y58600D01*
Y57800D01*
X12141Y57585D01*
X12263Y57403D01*
X12445Y57281D01*
X12660Y57238D01*
X13460D01*
X13675Y57281D01*
X13857Y57403D01*
X13979Y57585D01*
X14022Y57800D01*
Y58600D01*
X13979Y58815D01*
X13857Y58997D01*
X13675Y59119D01*
X13460Y59162D01*
D02*
G37*
G36*
X21680Y58100D02*
X20780D01*
Y57200D01*
X20812D01*
X21066Y57268D01*
X21294Y57400D01*
X21480Y57586D01*
X21612Y57814D01*
X21680Y58068D01*
Y58100D01*
D02*
G37*
G36*
X20580D02*
X19680D01*
Y58068D01*
X19748Y57814D01*
X19880Y57586D01*
X20066Y57400D01*
X20294Y57268D01*
X20548Y57200D01*
X20580D01*
Y58100D01*
D02*
G37*
G36*
X6675Y52486D02*
X6485D01*
X6310Y52414D01*
X6176Y52280D01*
X6104Y52105D01*
Y51915D01*
X6176Y51740D01*
X6310Y51606D01*
X6485Y51534D01*
X6675D01*
X6850Y51606D01*
X6984Y51740D01*
X7056Y51915D01*
Y52105D01*
X6984Y52280D01*
X6850Y52414D01*
X6675Y52486D01*
D02*
G37*
G36*
X19025Y52350D02*
X19000D01*
Y51500D01*
X19850D01*
Y51525D01*
X19785Y51767D01*
X19660Y51983D01*
X19483Y52160D01*
X19267Y52285D01*
X19025Y52350D01*
D02*
G37*
G36*
X18800D02*
X18775D01*
X18533Y52285D01*
X18317Y52160D01*
X18140Y51983D01*
X18015Y51767D01*
X17950Y51525D01*
Y51500D01*
X18800D01*
Y52350D01*
D02*
G37*
G36*
X21559Y52301D02*
X21321D01*
X21092Y52240D01*
X20887Y52121D01*
X20719Y51953D01*
X20600Y51748D01*
X20539Y51519D01*
Y51281D01*
X20600Y51052D01*
X20719Y50847D01*
X20887Y50679D01*
X21092Y50560D01*
X21321Y50499D01*
X21559D01*
X21788Y50560D01*
X21993Y50679D01*
X22161Y50847D01*
X22280Y51052D01*
X22341Y51281D01*
Y51519D01*
X22280Y51748D01*
X22161Y51953D01*
X21993Y52121D01*
X21788Y52240D01*
X21559Y52301D01*
D02*
G37*
G36*
X19850Y51300D02*
X19000D01*
Y50450D01*
X19025D01*
X19267Y50515D01*
X19483Y50640D01*
X19660Y50817D01*
X19785Y51033D01*
X19850Y51275D01*
Y51300D01*
D02*
G37*
G36*
X18800D02*
X17950D01*
Y51275D01*
X18015Y51033D01*
X18140Y50817D01*
X18317Y50640D01*
X18533Y50515D01*
X18775Y50450D01*
X18800D01*
Y51300D01*
D02*
G37*
G36*
X32105Y50700D02*
X32100D01*
Y50000D01*
X32800D01*
Y50005D01*
X32745Y50209D01*
X32640Y50391D01*
X32491Y50540D01*
X32309Y50645D01*
X32105Y50700D01*
D02*
G37*
G36*
X31900D02*
X31895D01*
X31691Y50645D01*
X31509Y50540D01*
X31360Y50391D01*
X31255Y50209D01*
X31200Y50005D01*
Y50000D01*
X31900D01*
Y50700D01*
D02*
G37*
G36*
X7630Y51237D02*
X6530D01*
X6360Y51214D01*
X6202Y51149D01*
X6066Y51044D01*
X5961Y50908D01*
X5896Y50750D01*
X5873Y50580D01*
X5896Y50410D01*
X5961Y50252D01*
X6066Y50116D01*
X6202Y50011D01*
X6360Y49946D01*
X6530Y49923D01*
X7630D01*
X7800Y49946D01*
X7958Y50011D01*
X8094Y50116D01*
X8199Y50252D01*
X8264Y50410D01*
X8287Y50580D01*
X8264Y50750D01*
X8199Y50908D01*
X8094Y51044D01*
X7958Y51149D01*
X7800Y51214D01*
X7630Y51237D01*
D02*
G37*
G36*
X3300D02*
X2500D01*
X2330Y51214D01*
X2172Y51149D01*
X2036Y51044D01*
X1931Y50908D01*
X1866Y50750D01*
X1843Y50580D01*
X1866Y50410D01*
X1931Y50252D01*
X2036Y50116D01*
X2172Y50011D01*
X2330Y49946D01*
X2500Y49923D01*
X3300D01*
X3470Y49946D01*
X3628Y50011D01*
X3764Y50116D01*
X3869Y50252D01*
X3934Y50410D01*
X3957Y50580D01*
X3934Y50750D01*
X3869Y50908D01*
X3764Y51044D01*
X3628Y51149D01*
X3470Y51214D01*
X3300Y51237D01*
D02*
G37*
G36*
X16479Y52301D02*
X16241D01*
X16012Y52240D01*
X15807Y52121D01*
X15639Y51953D01*
X15520Y51748D01*
X15459Y51519D01*
Y51281D01*
X15520Y51052D01*
X15639Y50847D01*
X15807Y50679D01*
X16012Y50560D01*
X16077Y50543D01*
Y45845D01*
X16048Y45833D01*
X15893Y45678D01*
X15809Y45475D01*
Y45256D01*
X15893Y45054D01*
X16048Y44899D01*
X16250Y44815D01*
X16470D01*
X16672Y44899D01*
X16827Y45054D01*
X16911Y45256D01*
Y45475D01*
X16827Y45678D01*
X16737Y45768D01*
X16738Y45772D01*
X16866Y45820D01*
X16876Y45818D01*
X17071Y45737D01*
X17291D01*
X17493Y45821D01*
X17628Y45956D01*
X23994D01*
X34693Y35257D01*
X34687Y35242D01*
Y35023D01*
X34770Y34820D01*
X34925Y34665D01*
X35128Y34581D01*
X35347D01*
X35348Y34581D01*
X35591Y34338D01*
Y27534D01*
X35562Y27522D01*
X35407Y27367D01*
X35323Y27164D01*
Y26945D01*
X35407Y26742D01*
X35562Y26587D01*
X35765Y26504D01*
X35984D01*
X36187Y26587D01*
X36342Y26742D01*
X36425Y26945D01*
Y27164D01*
X36342Y27367D01*
X36187Y27522D01*
X36158Y27534D01*
Y32497D01*
X36275Y32546D01*
X36288Y32533D01*
X36490Y32449D01*
X36710D01*
X36912Y32533D01*
X37067Y32688D01*
X37151Y32890D01*
Y33110D01*
X37067Y33312D01*
X36912Y33467D01*
X36883Y33479D01*
Y35084D01*
X36862Y35192D01*
X36800Y35284D01*
X31183Y40901D01*
Y46183D01*
X34204Y49203D01*
X34210Y49200D01*
X34401Y49149D01*
X34599D01*
X34790Y49200D01*
X34961Y49299D01*
X35101Y49439D01*
X35200Y49610D01*
X35251Y49801D01*
Y49999D01*
X35200Y50190D01*
X35101Y50361D01*
X34961Y50501D01*
X34790Y50600D01*
X34599Y50651D01*
X34401D01*
X34210Y50600D01*
X34039Y50501D01*
X33899Y50361D01*
X33800Y50190D01*
X33749Y49999D01*
Y49801D01*
X33800Y49610D01*
X33804Y49604D01*
X30700Y46500D01*
X30638Y46408D01*
X30617Y46300D01*
Y40784D01*
X30638Y40675D01*
X30700Y40583D01*
X35544Y35739D01*
X35472Y35632D01*
X35347Y35683D01*
X35207D01*
X24367Y46523D01*
X24259Y46595D01*
X24132Y46620D01*
X17628D01*
X17493Y46755D01*
X17291Y46839D01*
X17071D01*
X16869Y46755D01*
X16770Y46657D01*
X16643Y46709D01*
Y50543D01*
X16708Y50560D01*
X16913Y50679D01*
X17081Y50847D01*
X17200Y51052D01*
X17261Y51281D01*
Y51519D01*
X17200Y51748D01*
X17081Y51953D01*
X16913Y52121D01*
X16708Y52240D01*
X16479Y52301D01*
D02*
G37*
G36*
X32800Y49800D02*
X32100D01*
Y49100D01*
X32105D01*
X32309Y49154D01*
X32491Y49260D01*
X32640Y49409D01*
X32745Y49591D01*
X32800Y49795D01*
Y49800D01*
D02*
G37*
G36*
X31900D02*
X31200D01*
Y49795D01*
X31255Y49591D01*
X31360Y49409D01*
X31509Y49260D01*
X31691Y49154D01*
X31895Y49100D01*
X31900D01*
Y49800D01*
D02*
G37*
G36*
X14833Y46756D02*
X14814D01*
Y46256D01*
X15314D01*
Y46275D01*
X15222Y46496D01*
X15054Y46665D01*
X14833Y46756D01*
D02*
G37*
G36*
X14614D02*
X14594D01*
X14374Y46665D01*
X14205Y46496D01*
X14114Y46275D01*
Y46256D01*
X14614D01*
Y46756D01*
D02*
G37*
G36*
X15314Y46056D02*
X14814D01*
Y45556D01*
X14833D01*
X15054Y45647D01*
X15222Y45816D01*
X15314Y46037D01*
Y46056D01*
D02*
G37*
G36*
X14614D02*
X14114D01*
Y46037D01*
X14205Y45816D01*
X14374Y45647D01*
X14594Y45556D01*
X14614D01*
Y46056D01*
D02*
G37*
G36*
X41924Y50451D02*
X41704D01*
X41502Y50367D01*
X41347Y50212D01*
X41263Y50010D01*
Y49790D01*
X41347Y49588D01*
X41502Y49433D01*
X41531Y49421D01*
Y46568D01*
X41502Y46556D01*
X41347Y46401D01*
X41263Y46198D01*
Y45979D01*
X41347Y45777D01*
X41502Y45622D01*
X41704Y45538D01*
X41924D01*
X42126Y45622D01*
X42281Y45777D01*
X42365Y45979D01*
Y46198D01*
X42281Y46401D01*
X42126Y46556D01*
X42097Y46568D01*
Y49421D01*
X42126Y49433D01*
X42281Y49588D01*
X42365Y49790D01*
Y50010D01*
X42281Y50212D01*
X42126Y50367D01*
X41924Y50451D01*
D02*
G37*
G36*
X3087Y49201D02*
X2713D01*
X2345Y49128D01*
X2000Y48985D01*
X1688Y48777D01*
X1423Y48512D01*
X1215Y48200D01*
X1072Y47854D01*
X999Y47487D01*
Y47113D01*
X1072Y46745D01*
X1215Y46400D01*
X1423Y46088D01*
X1688Y45823D01*
X2000Y45615D01*
X2345Y45472D01*
X2713Y45399D01*
X3087D01*
X3454Y45472D01*
X3800Y45615D01*
X4112Y45823D01*
X4377Y46088D01*
X4585Y46400D01*
X4728Y46745D01*
X4801Y47113D01*
Y47487D01*
X4728Y47854D01*
X4585Y48200D01*
X4377Y48512D01*
X4112Y48777D01*
X3800Y48985D01*
X3454Y49128D01*
X3087Y49201D01*
D02*
G37*
G36*
X9372Y43678D02*
X9330D01*
Y42700D01*
X10308D01*
Y42742D01*
X10234Y43016D01*
X10092Y43262D01*
X9892Y43462D01*
X9646Y43604D01*
X9372Y43678D01*
D02*
G37*
G36*
X9130D02*
X9088D01*
X8814Y43604D01*
X8568Y43462D01*
X8368Y43262D01*
X8226Y43016D01*
X8153Y42742D01*
Y42700D01*
X9130D01*
Y43678D01*
D02*
G37*
G36*
X53221Y45551D02*
X53002D01*
X52799Y45467D01*
X52644Y45312D01*
X52560Y45110D01*
Y44890D01*
X52644Y44688D01*
X52799Y44533D01*
X52817Y44526D01*
Y42882D01*
X52788Y42870D01*
X52633Y42715D01*
X52549Y42512D01*
Y42293D01*
X52633Y42091D01*
X52788Y41936D01*
X52990Y41852D01*
X53210D01*
X53412Y41936D01*
X53567Y42091D01*
X53651Y42293D01*
Y42512D01*
X53567Y42715D01*
X53412Y42870D01*
X53383Y42882D01*
Y44516D01*
X53423Y44533D01*
X53578Y44688D01*
X53662Y44890D01*
Y45110D01*
X53578Y45312D01*
X53423Y45467D01*
X53221Y45551D01*
D02*
G37*
G36*
X10308Y42500D02*
X9330D01*
Y41523D01*
X9372D01*
X9646Y41596D01*
X9892Y41738D01*
X10092Y41938D01*
X10234Y42184D01*
X10308Y42458D01*
Y42500D01*
D02*
G37*
G36*
X9130D02*
X8153D01*
Y42458D01*
X8226Y42184D01*
X8368Y41938D01*
X8568Y41738D01*
X8814Y41596D01*
X9088Y41523D01*
X9130D01*
Y42500D01*
D02*
G37*
G36*
X33436Y44336D02*
X33094D01*
X32759Y44269D01*
X32443Y44138D01*
X32158Y43948D01*
X31917Y43707D01*
X31727Y43422D01*
X31596Y43106D01*
X31529Y42771D01*
Y42429D01*
X31596Y42094D01*
X31727Y41778D01*
X31917Y41493D01*
X32158Y41252D01*
X32443Y41062D01*
X32759Y40931D01*
X33094Y40864D01*
X33436D01*
X33771Y40931D01*
X34087Y41062D01*
X34372Y41252D01*
X34613Y41493D01*
X34803Y41778D01*
X34934Y42094D01*
X35001Y42429D01*
Y42771D01*
X34934Y43106D01*
X34803Y43422D01*
X34613Y43707D01*
X34372Y43948D01*
X34087Y44138D01*
X33771Y44269D01*
X33436Y44336D01*
D02*
G37*
G36*
X3028Y42296D02*
X2771D01*
X2523Y42229D01*
X2301Y42101D01*
X2119Y41919D01*
X1990Y41697D01*
X1924Y41448D01*
Y41192D01*
X1990Y40943D01*
X2119Y40721D01*
X2301Y40539D01*
X2523Y40411D01*
X2771Y40344D01*
X3028D01*
X3277Y40411D01*
X3499Y40539D01*
X3681Y40721D01*
X3809Y40943D01*
X3876Y41192D01*
Y41448D01*
X3809Y41697D01*
X3681Y41919D01*
X3499Y42101D01*
X3277Y42229D01*
X3028Y42296D01*
D02*
G37*
G36*
X12610Y38251D02*
X12390D01*
X12188Y38167D01*
X12053Y38032D01*
X6347D01*
X6212Y38167D01*
X6010Y38251D01*
X5790D01*
X5588Y38167D01*
X5433Y38012D01*
X5349Y37810D01*
Y37590D01*
X5433Y37388D01*
X5588Y37233D01*
X5790Y37149D01*
X6010D01*
X6212Y37233D01*
X6347Y37368D01*
X12053D01*
X12188Y37233D01*
X12390Y37149D01*
X12610D01*
X12812Y37233D01*
X12967Y37388D01*
X13051Y37590D01*
Y37810D01*
X12967Y38012D01*
X12812Y38167D01*
X12610Y38251D01*
D02*
G37*
G36*
X36110Y42551D02*
X35890D01*
X35688Y42467D01*
X35533Y42312D01*
X35449Y42110D01*
Y41890D01*
X35533Y41688D01*
X35688Y41533D01*
X35767Y41500D01*
Y38846D01*
X35633Y38712D01*
X35549Y38510D01*
Y38290D01*
X35633Y38088D01*
X35788Y37933D01*
X35990Y37849D01*
X36210D01*
X36412Y37933D01*
X36567Y38088D01*
X36651Y38290D01*
Y38510D01*
X36567Y38712D01*
X36412Y38867D01*
X36333Y38900D01*
Y41554D01*
X36467Y41688D01*
X36551Y41890D01*
Y42110D01*
X36467Y42312D01*
X36312Y42467D01*
X36110Y42551D01*
D02*
G37*
G36*
X5437Y54949D02*
X5218D01*
X5016Y54865D01*
X4861Y54710D01*
X4777Y54508D01*
Y54289D01*
X4861Y54086D01*
X4980Y53967D01*
Y42572D01*
X5006Y42439D01*
X5082Y42326D01*
X7754Y39654D01*
X7867Y39578D01*
X8000Y39552D01*
X11656D01*
X13754Y37454D01*
X13867Y37378D01*
X14000Y37352D01*
X19269D01*
X19388Y37233D01*
X19590Y37149D01*
X19810D01*
X20012Y37233D01*
X20167Y37388D01*
X20251Y37590D01*
Y37810D01*
X20167Y38012D01*
X20012Y38167D01*
X19810Y38251D01*
X19590D01*
X19388Y38167D01*
X19269Y38048D01*
X14144D01*
X12046Y40146D01*
X11933Y40222D01*
X11800Y40248D01*
X8144D01*
X5676Y42716D01*
Y53967D01*
X5795Y54086D01*
X5879Y54289D01*
Y54508D01*
X5795Y54710D01*
X5640Y54865D01*
X5437Y54949D01*
D02*
G37*
G36*
X3035Y34725D02*
X3000D01*
Y33800D01*
X3925D01*
Y33835D01*
X3855Y34096D01*
X3720Y34329D01*
X3529Y34520D01*
X3296Y34655D01*
X3035Y34725D01*
D02*
G37*
G36*
X2800D02*
X2765D01*
X2504Y34655D01*
X2271Y34520D01*
X2080Y34329D01*
X1945Y34096D01*
X1875Y33835D01*
Y33800D01*
X2800D01*
Y34725D01*
D02*
G37*
G36*
X25310Y34251D02*
X25090D01*
X24888Y34167D01*
X24733Y34012D01*
X24721Y33983D01*
X17365D01*
X17257Y33962D01*
X17165Y33900D01*
X16445Y33181D01*
X16417Y33193D01*
X16197D01*
X15995Y33109D01*
X15840Y32954D01*
X15756Y32751D01*
Y32532D01*
X15840Y32330D01*
X15995Y32175D01*
X16197Y32091D01*
X16417D01*
X16619Y32175D01*
X16774Y32330D01*
X16858Y32532D01*
Y32751D01*
X16846Y32780D01*
X17483Y33417D01*
X17871D01*
X17924Y33290D01*
X17849Y33110D01*
Y32890D01*
X17933Y32688D01*
X18088Y32533D01*
X18117Y32521D01*
Y10550D01*
X18088Y10538D01*
X17933Y10383D01*
X17849Y10180D01*
Y9961D01*
X17933Y9758D01*
X18088Y9603D01*
X18290Y9520D01*
X18510D01*
X18712Y9603D01*
X18867Y9758D01*
X18951Y9961D01*
Y10180D01*
X18867Y10383D01*
X18712Y10538D01*
X18683Y10550D01*
Y32521D01*
X18712Y32533D01*
X18867Y32688D01*
X18951Y32890D01*
Y33110D01*
X18876Y33290D01*
X18929Y33417D01*
X24721D01*
X24733Y33388D01*
X24888Y33233D01*
X25090Y33149D01*
X25310D01*
X25512Y33233D01*
X25667Y33388D01*
X25751Y33590D01*
Y33810D01*
X25667Y34012D01*
X25512Y34167D01*
X25310Y34251D01*
D02*
G37*
G36*
X40510Y44554D02*
X40290D01*
X40088Y44470D01*
X39933Y44315D01*
X39849Y44112D01*
Y43893D01*
X39933Y43691D01*
X40088Y43536D01*
X40290Y43452D01*
X40395D01*
Y33085D01*
X40268Y33020D01*
X40110Y33086D01*
X39890D01*
X39688Y33002D01*
X39596Y32910D01*
X39469Y32963D01*
Y43021D01*
X39498Y43033D01*
X39653Y43188D01*
X39737Y43390D01*
Y43610D01*
X39653Y43812D01*
X39498Y43967D01*
X39295Y44051D01*
X39076D01*
X38874Y43967D01*
X38719Y43812D01*
X38635Y43610D01*
Y43390D01*
X38719Y43188D01*
X38874Y43033D01*
X38902Y43021D01*
Y24222D01*
X38874Y24210D01*
X38719Y24055D01*
X38635Y23853D01*
Y23634D01*
X38719Y23431D01*
X38874Y23276D01*
X38902Y23264D01*
Y17053D01*
X38784Y16934D01*
X38755Y16946D01*
X38536D01*
X38333Y16862D01*
X38178Y16707D01*
X38095Y16505D01*
Y16286D01*
X38178Y16083D01*
X38333Y15928D01*
X38536Y15844D01*
X38755D01*
X38958Y15928D01*
X39113Y16083D01*
X39197Y16286D01*
Y16505D01*
X39185Y16533D01*
X39386Y16735D01*
X39448Y16827D01*
X39469Y16935D01*
Y23264D01*
X39498Y23276D01*
X39585Y23363D01*
X39712Y23310D01*
Y16306D01*
X39688Y16296D01*
X39533Y16141D01*
X39449Y15938D01*
Y15719D01*
X39533Y15516D01*
X39688Y15361D01*
X39890Y15278D01*
X40110D01*
X40312Y15361D01*
X40467Y15516D01*
X40551Y15719D01*
Y15852D01*
X40678Y15905D01*
X43881Y12702D01*
X43973Y12641D01*
X44081Y12619D01*
X44102D01*
X44107Y12610D01*
X44033Y12483D01*
X40617D01*
X36283Y16817D01*
Y19270D01*
X36410Y19322D01*
X36488Y19245D01*
X36690Y19161D01*
X36910D01*
X37112Y19245D01*
X37267Y19400D01*
X37351Y19602D01*
Y19821D01*
X37267Y20024D01*
X37112Y20179D01*
X37083Y20191D01*
Y24500D01*
X37062Y24608D01*
X37000Y24700D01*
X25483Y36217D01*
Y39421D01*
X25512Y39433D01*
X25667Y39588D01*
X25751Y39790D01*
Y40010D01*
X25667Y40212D01*
X25512Y40367D01*
X25310Y40451D01*
X25090D01*
X24888Y40367D01*
X24733Y40212D01*
X24649Y40010D01*
Y39790D01*
X24733Y39588D01*
X24888Y39433D01*
X24917Y39421D01*
Y36100D01*
X24938Y35992D01*
X25000Y35900D01*
X36517Y24383D01*
Y20191D01*
X36488Y20179D01*
X36410Y20101D01*
X36283Y20154D01*
Y21700D01*
X36262Y21808D01*
X36200Y21900D01*
X29483Y28617D01*
Y29921D01*
X29512Y29933D01*
X29667Y30088D01*
X29751Y30290D01*
Y30510D01*
X29667Y30712D01*
X29512Y30867D01*
X29310Y30951D01*
X29090D01*
X28888Y30867D01*
X28733Y30712D01*
X28649Y30510D01*
Y30290D01*
X28733Y30088D01*
X28888Y29933D01*
X28917Y29921D01*
Y28500D01*
X28938Y28392D01*
X29000Y28300D01*
X35717Y21583D01*
Y16700D01*
X35738Y16592D01*
X35800Y16500D01*
X40300Y12000D01*
X40392Y11938D01*
X40500Y11917D01*
X43102D01*
X43124Y11875D01*
X43141Y11790D01*
X43004Y11653D01*
X42993Y11624D01*
X40363D01*
X34283Y17704D01*
Y21000D01*
X34262Y21108D01*
X34200Y21200D01*
X32118Y23283D01*
X32190Y23391D01*
X32290Y23349D01*
X32510D01*
X32712Y23433D01*
X32867Y23588D01*
X32951Y23790D01*
Y24010D01*
X32867Y24212D01*
X32712Y24367D01*
X32510Y24451D01*
X32290D01*
X32262Y24439D01*
X27283Y29417D01*
Y33300D01*
X27262Y33408D01*
X27200Y33500D01*
X23939Y36762D01*
X23951Y36790D01*
Y37010D01*
X23867Y37212D01*
X23712Y37367D01*
X23510Y37451D01*
X23290D01*
X23088Y37367D01*
X22933Y37212D01*
X22849Y37010D01*
Y36790D01*
X22933Y36588D01*
X23088Y36433D01*
X23290Y36349D01*
X23510D01*
X23538Y36361D01*
X26717Y33183D01*
Y31883D01*
X26590Y31858D01*
X26567Y31912D01*
X26412Y32067D01*
X26210Y32151D01*
X25990D01*
X25788Y32067D01*
X25633Y31912D01*
X25549Y31710D01*
Y31490D01*
X25633Y31288D01*
X25788Y31133D01*
X25817Y31121D01*
Y11995D01*
X25838Y11886D01*
X25900Y11794D01*
X33183Y4511D01*
X33275Y4449D01*
X33383Y4428D01*
X43707D01*
X43759Y4301D01*
X43673Y4215D01*
X43590Y4012D01*
Y3793D01*
X43673Y3591D01*
X43828Y3436D01*
X44031Y3352D01*
X44017Y3230D01*
X23570D01*
X11183Y15617D01*
Y30780D01*
X11162Y30888D01*
X11100Y30980D01*
X3761Y38320D01*
X3809Y38403D01*
X3876Y38652D01*
Y38908D01*
X3809Y39157D01*
X3681Y39379D01*
X3499Y39561D01*
X3277Y39689D01*
X3028Y39756D01*
X2771D01*
X2523Y39689D01*
X2301Y39561D01*
X2119Y39379D01*
X1990Y39157D01*
X1924Y38908D01*
Y38652D01*
X1990Y38403D01*
X2119Y38181D01*
X2301Y37999D01*
X2523Y37871D01*
X2771Y37804D01*
X3028D01*
X3277Y37871D01*
X3360Y37919D01*
X9575Y31704D01*
X9510Y31590D01*
X9365Y31628D01*
X9095D01*
X8833Y31558D01*
X8599Y31423D01*
X8407Y31232D01*
X8272Y30997D01*
X8202Y30735D01*
Y30465D01*
X8272Y30203D01*
X8407Y29968D01*
X8599Y29777D01*
X8833Y29642D01*
X8947Y29611D01*
Y19589D01*
X8833Y19558D01*
X8599Y19423D01*
X8407Y19232D01*
X8272Y18997D01*
X8202Y18735D01*
Y18465D01*
X8272Y18203D01*
X8407Y17969D01*
X8599Y17777D01*
X8833Y17642D01*
X9095Y17572D01*
X9365D01*
X9627Y17642D01*
X9862Y17777D01*
X10053Y17969D01*
X10188Y18203D01*
X10259Y18465D01*
Y18735D01*
X10188Y18997D01*
X10053Y19232D01*
X9862Y19423D01*
X9627Y19558D01*
X9513Y19589D01*
Y29611D01*
X9627Y29642D01*
X9862Y29777D01*
X10053Y29968D01*
X10188Y30203D01*
X10259Y30465D01*
Y30735D01*
X10220Y30880D01*
X10334Y30945D01*
X10617Y30663D01*
Y15500D01*
X10626Y15455D01*
X10508Y15392D01*
X7583Y18317D01*
Y31840D01*
X7562Y31948D01*
X7500Y32040D01*
X3761Y35780D01*
X3809Y35863D01*
X3876Y36112D01*
Y36368D01*
X3809Y36617D01*
X3681Y36839D01*
X3499Y37021D01*
X3277Y37149D01*
X3028Y37216D01*
X2771D01*
X2523Y37149D01*
X2301Y37021D01*
X2119Y36839D01*
X1990Y36617D01*
X1924Y36368D01*
Y36112D01*
X1990Y35863D01*
X2119Y35641D01*
X2301Y35459D01*
X2523Y35331D01*
X2771Y35264D01*
X3028D01*
X3277Y35331D01*
X3360Y35379D01*
X7017Y31723D01*
Y18200D01*
X7038Y18092D01*
X7100Y18000D01*
X23031Y2069D01*
X23123Y2007D01*
X23231Y1986D01*
X43921D01*
X43933Y1957D01*
X44088Y1802D01*
X44290Y1718D01*
X44510D01*
X44712Y1802D01*
X44867Y1957D01*
X44951Y2159D01*
Y2379D01*
X44899Y2504D01*
X44966Y2622D01*
X45066Y2633D01*
X45631Y2069D01*
X45723Y2007D01*
X45831Y1986D01*
X50335D01*
X50488Y1833D01*
X50690Y1749D01*
X50910D01*
X51112Y1833D01*
X51267Y1988D01*
X51351Y2190D01*
Y2410D01*
X51267Y2612D01*
X51112Y2767D01*
X50910Y2851D01*
X50690D01*
X50488Y2767D01*
X50333Y2612D01*
X50308Y2552D01*
X45948D01*
X45353Y3147D01*
X45261Y3209D01*
X45153Y3230D01*
X44264D01*
X44250Y3352D01*
X44453Y3436D01*
X44587Y3570D01*
X48614D01*
X48749Y3436D01*
X48951Y3352D01*
X49171D01*
X49373Y3436D01*
X49528Y3591D01*
X49612Y3793D01*
Y3984D01*
X49899Y4270D01*
X52350D01*
X52488Y4133D01*
X52690Y4049D01*
X52901D01*
X52915Y4046D01*
X52949Y4024D01*
X53017Y3956D01*
Y1779D01*
X52988Y1767D01*
X52833Y1612D01*
X52749Y1410D01*
Y1190D01*
X52833Y988D01*
X52988Y833D01*
X53190Y749D01*
X53410D01*
X53612Y833D01*
X53767Y988D01*
X53851Y1190D01*
Y1410D01*
X53767Y1612D01*
X53612Y1767D01*
X53583Y1779D01*
Y2897D01*
X53710Y2950D01*
X53778Y2883D01*
X53980Y2799D01*
X54199D01*
X54402Y2883D01*
X54462Y2943D01*
X54589Y2890D01*
Y1653D01*
X54588Y1653D01*
X54433Y1498D01*
X54349Y1296D01*
Y1076D01*
X54433Y874D01*
X54588Y719D01*
X54790Y635D01*
X55010D01*
X55212Y719D01*
X55367Y874D01*
X55451Y1076D01*
Y1296D01*
X55367Y1498D01*
X55212Y1653D01*
X55155Y1677D01*
Y1861D01*
X55282Y1899D01*
X55423Y1688D01*
X55688Y1423D01*
X56000Y1215D01*
X56346Y1072D01*
X56713Y999D01*
X57087D01*
X57455Y1072D01*
X57800Y1215D01*
X58112Y1423D01*
X58377Y1688D01*
X58585Y2000D01*
X58728Y2345D01*
X58801Y2713D01*
Y3087D01*
X58728Y3454D01*
X58585Y3800D01*
X58377Y4112D01*
X58112Y4377D01*
X57800Y4585D01*
X57455Y4728D01*
X57087Y4801D01*
X56713D01*
X56346Y4728D01*
X56000Y4585D01*
X55688Y4377D01*
X55423Y4112D01*
X55282Y3901D01*
X55155Y3939D01*
Y5955D01*
X56215Y7014D01*
X56328Y6948D01*
X56272Y6735D01*
Y6465D01*
X56342Y6203D01*
X56477Y5968D01*
X56669Y5777D01*
X56903Y5642D01*
X57165Y5571D01*
X57435D01*
X57697Y5642D01*
X57932Y5777D01*
X58123Y5968D01*
X58258Y6203D01*
X58329Y6465D01*
Y6735D01*
X58258Y6997D01*
X58123Y7232D01*
X57932Y7423D01*
X57697Y7558D01*
X57583Y7589D01*
Y17611D01*
X57697Y17642D01*
X57932Y17777D01*
X58123Y17969D01*
X58258Y18203D01*
X58329Y18465D01*
Y18735D01*
X58258Y18997D01*
X58123Y19232D01*
X57932Y19423D01*
X57697Y19558D01*
X57435Y19629D01*
X57165D01*
X56903Y19558D01*
X56669Y19423D01*
X56477Y19232D01*
X56342Y18997D01*
X56272Y18735D01*
Y18465D01*
X56342Y18203D01*
X56477Y17969D01*
X56669Y17777D01*
X56903Y17642D01*
X57017Y17611D01*
Y7659D01*
X56971Y7641D01*
X56962Y7645D01*
X56871Y7736D01*
X56883Y7800D01*
Y14958D01*
X56862Y15067D01*
X56800Y15158D01*
X56332Y15627D01*
X56381Y15746D01*
Y15965D01*
X56297Y16167D01*
X56142Y16322D01*
X55940Y16406D01*
X55721D01*
X55518Y16322D01*
X55363Y16167D01*
X55279Y15965D01*
Y15746D01*
X55363Y15543D01*
X55518Y15388D01*
X55721Y15304D01*
X55853D01*
X56317Y14841D01*
Y7917D01*
X54672Y6272D01*
X54610Y6180D01*
X54589Y6072D01*
Y3810D01*
X54472Y3762D01*
X54415Y3804D01*
X54402Y3817D01*
X54391Y3822D01*
X54373Y3835D01*
Y6972D01*
X55443Y8042D01*
X55609D01*
X55812Y8126D01*
X55967Y8281D01*
X56051Y8484D01*
Y8703D01*
X55967Y8905D01*
X55812Y9060D01*
X55609Y9144D01*
X55390D01*
X55188Y9060D01*
X55033Y8905D01*
X54949Y8703D01*
Y8484D01*
X54988Y8389D01*
X53913Y7314D01*
X53822Y7300D01*
X53769Y7307D01*
X53753Y7315D01*
X52384Y8683D01*
X52292Y8745D01*
X52184Y8766D01*
X51632D01*
X51574Y8905D01*
X51419Y9060D01*
X51216Y9144D01*
X50997D01*
X50795Y9060D01*
X50640Y8905D01*
X50556Y8703D01*
Y8484D01*
X50640Y8281D01*
X50795Y8126D01*
X50997Y8042D01*
X51216D01*
X51419Y8126D01*
X51492Y8199D01*
X52066D01*
X53292Y6974D01*
Y5067D01*
X53165Y5015D01*
X53112Y5067D01*
X52910Y5151D01*
X52690D01*
X52488Y5067D01*
X52356Y4935D01*
X49761D01*
X49634Y4910D01*
X49526Y4838D01*
X49142Y4454D01*
X48951D01*
X48749Y4370D01*
X48614Y4235D01*
X44622D01*
X44570Y4303D01*
X44626Y4428D01*
X46828D01*
X46936Y4449D01*
X47028Y4511D01*
X49679Y7161D01*
X49707Y7149D01*
X49926D01*
X50129Y7233D01*
X50284Y7388D01*
X50368Y7590D01*
Y7810D01*
X50284Y8012D01*
X50129Y8167D01*
X49926Y8251D01*
X49707D01*
X49505Y8167D01*
X49350Y8012D01*
X49266Y7810D01*
Y7590D01*
X49278Y7562D01*
X46711Y4995D01*
X41735D01*
X41710Y5122D01*
X41819Y5167D01*
X41974Y5322D01*
X42058Y5525D01*
Y5744D01*
X41974Y5946D01*
X41819Y6101D01*
X41617Y6185D01*
X41398D01*
X41195Y6101D01*
X41040Y5946D01*
X41034Y5932D01*
X40438D01*
X33732Y12638D01*
Y16308D01*
X33867Y16443D01*
X33951Y16645D01*
Y16865D01*
X33867Y17067D01*
X33712Y17222D01*
X33510Y17306D01*
X33290D01*
X33088Y17222D01*
X33052Y17186D01*
X32935Y17235D01*
Y19233D01*
X32963Y19245D01*
X33118Y19400D01*
X33202Y19602D01*
Y19821D01*
X33118Y20024D01*
X32963Y20179D01*
X32761Y20263D01*
X32542D01*
X32339Y20179D01*
X32184Y20024D01*
X32100Y19821D01*
Y19602D01*
X32184Y19400D01*
X32339Y19245D01*
X32368Y19233D01*
Y11379D01*
X32339Y11367D01*
X32184Y11212D01*
X32100Y11010D01*
Y10790D01*
X32184Y10588D01*
X32339Y10433D01*
X32542Y10349D01*
X32761D01*
X32963Y10433D01*
X33118Y10588D01*
X33202Y10790D01*
Y11010D01*
X33118Y11212D01*
X32963Y11367D01*
X32935Y11379D01*
Y16129D01*
X33062Y16197D01*
X33068Y16193D01*
Y12500D01*
X33093Y12373D01*
X33165Y12265D01*
X40065Y5365D01*
X40173Y5293D01*
X40300Y5268D01*
X41095D01*
X41195Y5167D01*
X41305Y5122D01*
X41280Y4995D01*
X33501D01*
X26383Y12112D01*
Y31121D01*
X26412Y31133D01*
X26567Y31288D01*
X26590Y31342D01*
X26717Y31317D01*
Y29300D01*
X26738Y29192D01*
X26800Y29100D01*
X30082Y25817D01*
X30010Y25709D01*
X29910Y25751D01*
X29690D01*
X29488Y25667D01*
X29333Y25512D01*
X29249Y25310D01*
Y25090D01*
X29333Y24888D01*
X29488Y24733D01*
X29690Y24649D01*
X29910D01*
X29938Y24661D01*
X33717Y20883D01*
Y17586D01*
X33738Y17478D01*
X33800Y17386D01*
X40045Y11140D01*
X40137Y11079D01*
X40246Y11057D01*
X42993D01*
X43004Y11028D01*
X43159Y10873D01*
X43362Y10790D01*
X43581D01*
X43784Y10873D01*
X43939Y11028D01*
X44023Y11231D01*
Y11450D01*
X43939Y11653D01*
X43802Y11790D01*
X43819Y11875D01*
X43841Y11917D01*
X44023D01*
X44461Y11479D01*
X44449Y11450D01*
Y11231D01*
X44533Y11028D01*
X44688Y10873D01*
X44890Y10790D01*
X45110D01*
X45312Y10873D01*
X45467Y11028D01*
X45551Y11231D01*
Y11450D01*
X45467Y11653D01*
X45312Y11808D01*
X45110Y11892D01*
X44890D01*
X44862Y11880D01*
X44482Y12259D01*
X44554Y12367D01*
X44590Y12352D01*
X44810D01*
X45012Y12436D01*
X45167Y12591D01*
X45251Y12793D01*
Y13012D01*
X45167Y13215D01*
X45012Y13370D01*
X44810Y13454D01*
X44590D01*
X44388Y13370D01*
X44233Y13215D01*
X44118Y13266D01*
X43901Y13484D01*
X43903Y13492D01*
X43963Y13601D01*
X44146D01*
X44348Y13685D01*
X44503Y13840D01*
X44515Y13869D01*
X45817D01*
X45925Y13891D01*
X46017Y13952D01*
X50300Y18235D01*
X50362Y18327D01*
X50383Y18435D01*
Y21327D01*
X50510Y21392D01*
X50668Y21327D01*
X50888D01*
X51090Y21411D01*
X51245Y21566D01*
X51329Y21768D01*
Y21988D01*
X51245Y22190D01*
X51090Y22345D01*
X51038Y22367D01*
Y27611D01*
X51090Y27633D01*
X51245Y27788D01*
X51329Y27990D01*
Y28210D01*
X51245Y28412D01*
X51090Y28567D01*
X50888Y28651D01*
X50668D01*
X50510Y28586D01*
X50383Y28651D01*
Y28921D01*
X50412Y28933D01*
X50567Y29088D01*
X50651Y29290D01*
Y29510D01*
X50567Y29712D01*
X50412Y29867D01*
X50210Y29951D01*
X49990D01*
X49788Y29867D01*
X49633Y29712D01*
X49549Y29510D01*
Y29290D01*
X49633Y29088D01*
X49788Y28933D01*
X49817Y28921D01*
Y18553D01*
X45700Y14436D01*
X44515D01*
X44503Y14465D01*
X44348Y14620D01*
X44146Y14703D01*
X43927D01*
X43724Y14620D01*
X43569Y14465D01*
X43485Y14262D01*
Y14079D01*
X43376Y14019D01*
X43368Y14017D01*
X41466Y15918D01*
X41519Y16045D01*
X41627D01*
X41847Y16137D01*
X42016Y16306D01*
X42107Y16526D01*
Y16545D01*
X41507D01*
Y16645D01*
X41407D01*
Y17245D01*
X41388D01*
X41167Y17154D01*
X41088Y17075D01*
X40961Y17128D01*
Y19302D01*
X41088Y19354D01*
X41195Y19247D01*
X41398Y19164D01*
X41617D01*
X41710Y19202D01*
X45256Y15656D01*
Y15487D01*
X45340Y15285D01*
X45495Y15130D01*
X45698Y15046D01*
X45917D01*
X46119Y15130D01*
X46274Y15285D01*
X46358Y15487D01*
Y15707D01*
X46274Y15909D01*
X46119Y16064D01*
X45917Y16148D01*
X45698D01*
X45605Y16109D01*
X42058Y19656D01*
Y19824D01*
X41974Y20027D01*
X41819Y20182D01*
X41617Y20266D01*
X41398D01*
X41195Y20182D01*
X41088Y20075D01*
X40961Y20128D01*
Y43577D01*
X40940Y43686D01*
X40894Y43755D01*
X40951Y43893D01*
Y44112D01*
X40867Y44315D01*
X40712Y44470D01*
X40510Y44554D01*
D02*
G37*
G36*
X3925Y33600D02*
X3000D01*
Y32675D01*
X3035D01*
X3296Y32745D01*
X3529Y32880D01*
X3720Y33071D01*
X3855Y33304D01*
X3925Y33565D01*
Y33600D01*
D02*
G37*
G36*
X2800D02*
X1875D01*
Y33565D01*
X1945Y33304D01*
X2080Y33071D01*
X2271Y32880D01*
X2504Y32745D01*
X2765Y32675D01*
X2800D01*
Y33600D01*
D02*
G37*
G36*
X3876Y29596D02*
X1924D01*
Y27644D01*
X3876D01*
Y29596D01*
D02*
G37*
G36*
X57435Y43629D02*
X57165D01*
X56903Y43558D01*
X56669Y43423D01*
X56477Y43232D01*
X56342Y42997D01*
X56272Y42735D01*
Y42465D01*
X56342Y42203D01*
X56477Y41969D01*
X56669Y41777D01*
X56903Y41642D01*
X57017Y41611D01*
Y31589D01*
X56903Y31558D01*
X56669Y31423D01*
X56477Y31232D01*
X56342Y30997D01*
X56272Y30735D01*
Y30465D01*
X56342Y30203D01*
X56477Y29968D01*
X56669Y29777D01*
X56903Y29642D01*
X57017Y29611D01*
Y24454D01*
X46727Y14164D01*
X46665Y14072D01*
X46644Y13963D01*
Y9072D01*
X46615Y9060D01*
X46460Y8905D01*
X46376Y8703D01*
Y8484D01*
X46460Y8281D01*
X46615Y8126D01*
X46653Y8110D01*
X46628Y7983D01*
X42817D01*
X37698Y13103D01*
X37606Y13165D01*
X37497Y13186D01*
X36079D01*
X36067Y13215D01*
X35912Y13370D01*
X35710Y13454D01*
X35490D01*
X35288Y13370D01*
X35133Y13215D01*
X35049Y13012D01*
Y12793D01*
X35133Y12591D01*
X35288Y12436D01*
X35490Y12352D01*
X35710D01*
X35912Y12436D01*
X36067Y12591D01*
X36079Y12619D01*
X37380D01*
X42500Y7500D01*
X42592Y7438D01*
X42700Y7417D01*
X47421D01*
X47433Y7388D01*
X47588Y7233D01*
X47790Y7149D01*
X48010D01*
X48212Y7233D01*
X48367Y7388D01*
X48451Y7590D01*
Y7810D01*
X48405Y7920D01*
X48415Y7947D01*
X48468Y8008D01*
Y8537D01*
X47968D01*
Y8518D01*
X48030Y8370D01*
X47942Y8251D01*
X47790D01*
X47588Y8167D01*
X47433Y8012D01*
X47421Y7983D01*
X47226D01*
X47201Y8110D01*
X47239Y8126D01*
X47394Y8281D01*
X47478Y8484D01*
Y8703D01*
X47394Y8905D01*
X47239Y9060D01*
X47210Y9072D01*
Y13846D01*
X57341Y23976D01*
X57448Y23904D01*
X57427Y23853D01*
Y23634D01*
X57439Y23605D01*
X49481Y15647D01*
X49419Y15555D01*
X49398Y15446D01*
Y10643D01*
X49369Y10631D01*
X49214Y10476D01*
X49130Y10274D01*
Y10054D01*
X49214Y9852D01*
X49369Y9697D01*
X49571Y9613D01*
X49791D01*
X49993Y9697D01*
X50148Y9852D01*
X50232Y10054D01*
Y10274D01*
X50148Y10476D01*
X49993Y10631D01*
X49964Y10643D01*
Y15329D01*
X57840Y23204D01*
X57868Y23192D01*
X58088D01*
X58290Y23276D01*
X58445Y23431D01*
X58529Y23634D01*
Y23853D01*
X58445Y24055D01*
X58290Y24210D01*
X58088Y24294D01*
X57868D01*
X57690Y24220D01*
X57617Y24260D01*
X57576Y24300D01*
X57583Y24336D01*
Y29611D01*
X57697Y29642D01*
X57932Y29777D01*
X58123Y29968D01*
X58258Y30203D01*
X58329Y30465D01*
Y30735D01*
X58258Y30997D01*
X58123Y31232D01*
X57932Y31423D01*
X57697Y31558D01*
X57583Y31589D01*
Y41611D01*
X57697Y41642D01*
X57932Y41777D01*
X58123Y41969D01*
X58258Y42203D01*
X58329Y42465D01*
Y42735D01*
X58258Y42997D01*
X58123Y43232D01*
X57932Y43423D01*
X57697Y43558D01*
X57435Y43629D01*
D02*
G37*
G36*
X48510Y26186D02*
X48290D01*
X48088Y26102D01*
X47933Y25947D01*
X47849Y25745D01*
Y25525D01*
X47933Y25323D01*
X48068Y25188D01*
Y21447D01*
X47933Y21312D01*
X47849Y21110D01*
Y20890D01*
X47933Y20688D01*
X48088Y20533D01*
X48290Y20449D01*
X48510D01*
X48712Y20533D01*
X48867Y20688D01*
X48951Y20890D01*
Y21110D01*
X48867Y21312D01*
X48732Y21447D01*
Y25188D01*
X48867Y25323D01*
X48951Y25525D01*
Y25745D01*
X48867Y25947D01*
X48712Y26102D01*
X48510Y26186D01*
D02*
G37*
G36*
X42197Y40451D02*
X41978D01*
X41776Y40367D01*
X41621Y40212D01*
X41537Y40010D01*
Y39790D01*
X41621Y39588D01*
X41776Y39433D01*
X41804Y39421D01*
Y22508D01*
X41826Y22399D01*
X41887Y22307D01*
X44554Y19641D01*
X44542Y19612D01*
Y19393D01*
X44626Y19191D01*
X44781Y19036D01*
X44983Y18952D01*
X45202D01*
X45405Y19036D01*
X45560Y19191D01*
X45644Y19393D01*
Y19612D01*
X45560Y19815D01*
X45405Y19970D01*
X45202Y20054D01*
X44983D01*
X44954Y20042D01*
X42371Y22625D01*
Y38946D01*
X42498Y38972D01*
X42533Y38888D01*
X42688Y38733D01*
X42717Y38721D01*
Y23523D01*
X42738Y23415D01*
X42800Y23323D01*
X45453Y20669D01*
X45442Y20640D01*
Y20421D01*
X45526Y20218D01*
X45681Y20063D01*
X45883Y19979D01*
X46102D01*
X46305Y20063D01*
X46460Y20218D01*
X46544Y20421D01*
Y20640D01*
X46460Y20842D01*
X46305Y20997D01*
X46102Y21081D01*
X45883D01*
X45854Y21069D01*
X43283Y23640D01*
Y38721D01*
X43312Y38733D01*
X43467Y38888D01*
X43551Y39090D01*
Y39310D01*
X43467Y39512D01*
X43312Y39667D01*
X43110Y39751D01*
X42890D01*
X42733Y39686D01*
X42634Y39779D01*
X42639Y39790D01*
Y40010D01*
X42555Y40212D01*
X42400Y40367D01*
X42197Y40451D01*
D02*
G37*
G36*
X2635Y19165D02*
X2600D01*
Y18240D01*
X3525D01*
Y18275D01*
X3455Y18536D01*
X3320Y18769D01*
X3129Y18960D01*
X2896Y19095D01*
X2635Y19165D01*
D02*
G37*
G36*
X2400D02*
X2365D01*
X2104Y19095D01*
X1871Y18960D01*
X1680Y18769D01*
X1545Y18536D01*
X1475Y18275D01*
Y18240D01*
X2400D01*
Y19165D01*
D02*
G37*
G36*
X3525Y18040D02*
X2600D01*
Y17115D01*
X2635D01*
X2896Y17185D01*
X3129Y17320D01*
X3320Y17511D01*
X3455Y17744D01*
X3525Y18005D01*
Y18040D01*
D02*
G37*
G36*
X2400D02*
X1475D01*
Y18005D01*
X1545Y17744D01*
X1680Y17511D01*
X1871Y17320D01*
X2104Y17185D01*
X2365Y17115D01*
X2400D01*
Y18040D01*
D02*
G37*
G36*
X41627Y17245D02*
X41607D01*
Y16745D01*
X42107D01*
Y16765D01*
X42016Y16985D01*
X41847Y17154D01*
X41627Y17245D01*
D02*
G37*
G36*
X3028Y32136D02*
X2771D01*
X2523Y32069D01*
X2301Y31941D01*
X2119Y31759D01*
X1990Y31537D01*
X1924Y31288D01*
Y31032D01*
X1990Y30783D01*
X2119Y30561D01*
X2301Y30379D01*
X2523Y30251D01*
X2771Y30184D01*
X3028D01*
X3277Y30251D01*
X3469Y30361D01*
X5268Y28562D01*
Y18838D01*
X2916Y16487D01*
X2877Y16509D01*
X2628Y16576D01*
X2372D01*
X2123Y16509D01*
X1901Y16381D01*
X1719Y16199D01*
X1591Y15977D01*
X1524Y15728D01*
Y15472D01*
X1591Y15223D01*
X1719Y15001D01*
X1901Y14819D01*
X2123Y14691D01*
X2372Y14624D01*
X2628D01*
X2877Y14691D01*
X3099Y14819D01*
X3281Y15001D01*
X3409Y15223D01*
X3476Y15472D01*
Y15728D01*
X3409Y15977D01*
X3387Y16016D01*
X5835Y18465D01*
X5907Y18573D01*
X5932Y18700D01*
Y28700D01*
X5907Y28827D01*
X5835Y28935D01*
X3847Y30923D01*
X3876Y31032D01*
Y31288D01*
X3809Y31537D01*
X3681Y31759D01*
X3499Y31941D01*
X3277Y32069D01*
X3028Y32136D01*
D02*
G37*
G36*
X2628Y14036D02*
X2372D01*
X2123Y13969D01*
X1901Y13841D01*
X1719Y13659D01*
X1591Y13437D01*
X1524Y13188D01*
Y12932D01*
X1591Y12683D01*
X1719Y12461D01*
X1901Y12279D01*
X2123Y12151D01*
X2372Y12084D01*
X2628D01*
X2877Y12151D01*
X3099Y12279D01*
X3281Y12461D01*
X3409Y12683D01*
X3476Y12932D01*
Y13188D01*
X3409Y13437D01*
X3281Y13659D01*
X3099Y13841D01*
X2877Y13969D01*
X2628Y14036D01*
D02*
G37*
G36*
X13210Y11454D02*
X12990D01*
X12788Y11370D01*
X12633Y11215D01*
X12621Y11186D01*
X11303D01*
X11194Y11165D01*
X11102Y11103D01*
X9030Y9030D01*
X8968Y8938D01*
X8947Y8830D01*
Y7589D01*
X8833Y7558D01*
X8599Y7423D01*
X8407Y7232D01*
X8272Y6997D01*
X8202Y6735D01*
Y6465D01*
X8272Y6203D01*
X8407Y5968D01*
X8599Y5777D01*
X8833Y5642D01*
X9095Y5571D01*
X9365D01*
X9627Y5642D01*
X9862Y5777D01*
X10053Y5968D01*
X10188Y6203D01*
X10259Y6465D01*
Y6735D01*
X10188Y6997D01*
X10053Y7232D01*
X9862Y7423D01*
X9627Y7558D01*
X9513Y7589D01*
Y8713D01*
X11420Y10619D01*
X12621D01*
X12633Y10591D01*
X12788Y10436D01*
X12990Y10352D01*
X13210D01*
X13412Y10436D01*
X13567Y10591D01*
X13651Y10793D01*
Y11012D01*
X13567Y11215D01*
X13412Y11370D01*
X13210Y11454D01*
D02*
G37*
G36*
X2628Y11496D02*
X2372D01*
X2123Y11429D01*
X1901Y11301D01*
X1719Y11119D01*
X1591Y10897D01*
X1524Y10648D01*
Y10392D01*
X1591Y10143D01*
X1719Y9921D01*
X1901Y9739D01*
X2123Y9611D01*
X2372Y9544D01*
X2628D01*
X2877Y9611D01*
X3099Y9739D01*
X3281Y9921D01*
X3409Y10143D01*
X3476Y10392D01*
Y10648D01*
X3409Y10897D01*
X3281Y11119D01*
X3099Y11301D01*
X2877Y11429D01*
X2628Y11496D01*
D02*
G37*
G36*
X48688Y9237D02*
X48668D01*
Y8737D01*
X49168D01*
Y8757D01*
X49077Y8977D01*
X48908Y9146D01*
X48688Y9237D01*
D02*
G37*
G36*
X48468D02*
X48449D01*
X48229Y9146D01*
X48060Y8977D01*
X47968Y8757D01*
Y8737D01*
X48468D01*
Y9237D01*
D02*
G37*
G36*
X33127Y8553D02*
X33108D01*
Y8053D01*
X33608D01*
Y8073D01*
X33517Y8293D01*
X33348Y8462D01*
X33127Y8553D01*
D02*
G37*
G36*
X32908D02*
X32889D01*
X32668Y8462D01*
X32499Y8293D01*
X32408Y8073D01*
Y8053D01*
X32908D01*
Y8553D01*
D02*
G37*
G36*
X49168Y8537D02*
X48668D01*
Y8037D01*
X48688D01*
X48908Y8129D01*
X49077Y8298D01*
X49168Y8518D01*
Y8537D01*
D02*
G37*
G36*
X33608Y7853D02*
X33108D01*
Y7353D01*
X33127D01*
X33348Y7445D01*
X33517Y7614D01*
X33608Y7834D01*
Y7853D01*
D02*
G37*
G36*
X32908D02*
X32408D01*
Y7834D01*
X32499Y7614D01*
X32668Y7445D01*
X32889Y7353D01*
X32908D01*
Y7853D01*
D02*
G37*
G36*
X2628Y8956D02*
X2372D01*
X2123Y8889D01*
X1901Y8761D01*
X1719Y8579D01*
X1591Y8357D01*
X1524Y8108D01*
Y7852D01*
X1591Y7603D01*
X1719Y7381D01*
X1901Y7199D01*
X2123Y7071D01*
X2372Y7004D01*
X2628D01*
X2877Y7071D01*
X3099Y7199D01*
X3281Y7381D01*
X3409Y7603D01*
X3476Y7852D01*
Y8108D01*
X3409Y8357D01*
X3281Y8579D01*
X3099Y8761D01*
X2877Y8889D01*
X2628Y8956D01*
D02*
G37*
G36*
X36910Y12451D02*
X36690D01*
X36488Y12367D01*
X36333Y12212D01*
X36249Y12010D01*
Y11790D01*
X36333Y11588D01*
X36488Y11433D01*
X36517Y11421D01*
Y10627D01*
X36538Y10518D01*
X36600Y10426D01*
X39861Y7165D01*
X39849Y7136D01*
Y6917D01*
X39933Y6714D01*
X40088Y6559D01*
X40291Y6475D01*
X40510D01*
X40712Y6559D01*
X40867Y6714D01*
X40951Y6917D01*
Y7136D01*
X40867Y7339D01*
X40712Y7494D01*
X40510Y7577D01*
X40291D01*
X40262Y7566D01*
X37083Y10744D01*
Y11421D01*
X37112Y11433D01*
X37267Y11588D01*
X37351Y11790D01*
Y12010D01*
X37267Y12212D01*
X37112Y12367D01*
X36910Y12451D01*
D02*
G37*
%LPD*%
G36*
X39688Y32068D02*
X39712Y32058D01*
Y24176D01*
X39585Y24124D01*
X39498Y24210D01*
X39469Y24222D01*
Y32107D01*
X39596Y32159D01*
X39688Y32068D01*
D02*
G37*
D32*
X39186Y16935D02*
Y43500D01*
X38646Y16395D02*
X39186Y16935D01*
X36800Y10627D02*
Y11900D01*
Y10627D02*
X40400Y7026D01*
X35238Y35092D02*
Y35132D01*
Y35092D02*
X35874Y34456D01*
Y27055D02*
Y34456D01*
X27000Y29300D02*
Y33300D01*
X23400Y36900D02*
X27000Y33300D01*
X25200Y36100D02*
X36800Y24500D01*
Y19712D02*
Y24500D01*
X25200Y36100D02*
Y39900D01*
X53300Y3980D02*
X53575Y4255D01*
X53300Y1300D02*
Y3980D01*
X52184Y8483D02*
X53575Y7092D01*
Y4255D02*
Y7092D01*
X54090Y3350D02*
Y7090D01*
X49681Y10137D02*
Y15446D01*
X57978Y23743D01*
X56600Y7800D02*
Y14958D01*
X54872Y6072D02*
X56600Y7800D01*
X55826Y15732D02*
X56600Y14958D01*
X16360Y45366D02*
Y51400D01*
X2900Y38780D02*
X10900Y30780D01*
Y15500D02*
Y30780D01*
X7300Y18200D02*
Y31840D01*
X2900Y36240D02*
X7300Y31840D01*
X30900Y40784D02*
X36600Y35084D01*
X30900Y40784D02*
Y46300D01*
X36600Y33009D02*
Y35084D01*
X9230Y8830D02*
X11303Y10903D01*
X13100D01*
X9230Y6600D02*
Y8830D01*
X7300Y18200D02*
X23231Y2269D01*
X44400D01*
X10900Y15500D02*
X23453Y2947D01*
X45153D01*
X29200Y28500D02*
Y30400D01*
Y28500D02*
X36000Y21700D01*
X27000Y29300D02*
X32400Y23900D01*
X36000Y16700D02*
Y21700D01*
X41599Y19715D02*
X45716Y15597D01*
X41507Y19715D02*
X41599D01*
X45716Y15597D02*
X45807D01*
X40678Y16306D02*
Y43577D01*
X40400Y43855D02*
Y44003D01*
Y43855D02*
X40678Y43577D01*
Y16306D02*
X44081Y12903D01*
X17365Y33700D02*
X25200D01*
X26100Y11995D02*
Y31600D01*
Y11995D02*
X33383Y4711D01*
X16200Y32535D02*
X17365Y33700D01*
X42088Y22508D02*
Y39900D01*
Y22508D02*
X45093Y19503D01*
X43000Y23523D02*
X45993Y20530D01*
X43000Y23523D02*
Y39200D01*
X45817Y14152D02*
X50100Y18435D01*
X44036Y14152D02*
X45817D01*
X44081Y12903D02*
X44700D01*
X39995Y15834D02*
Y32530D01*
Y15834D02*
X40000Y15829D01*
X50754Y28076D02*
X50778Y28100D01*
X50754Y21902D02*
Y28076D01*
X50100Y18435D02*
Y29400D01*
X50754Y21902D02*
X50778Y21878D01*
X39995Y32530D02*
X40000Y32535D01*
X36050Y38450D02*
X36100Y38400D01*
X36050Y38450D02*
Y41950D01*
X36000Y42000D02*
X36050Y41950D01*
X46927Y8593D02*
Y13963D01*
X57300Y24336D01*
Y30600D01*
X42700Y7700D02*
X47900D01*
X54872Y1214D02*
Y6072D01*
X54090Y7090D02*
X55500Y8500D01*
X54872Y1214D02*
X54900Y1186D01*
X45831Y2269D02*
X50769D01*
X50800Y2300D01*
X45153Y2947D02*
X45831Y2269D01*
X37497Y12903D02*
X42700Y7700D01*
X44141Y12200D02*
X45000Y11341D01*
X35600Y12903D02*
X37497D01*
X51058Y8483D02*
X52184D01*
X46828Y4711D02*
X49817Y7700D01*
X33383Y4711D02*
X46828D01*
X29800Y25200D02*
X34000Y21000D01*
Y17586D02*
Y21000D01*
X36000Y16700D02*
X40500Y12200D01*
X34000Y17586D02*
X40246Y11341D01*
X32651Y10900D02*
Y19712D01*
X40500Y12200D02*
X44141D01*
X57300Y30600D02*
Y42600D01*
X40246Y11341D02*
X43472D01*
X18400Y10071D02*
Y33000D01*
X41814Y46089D02*
Y49900D01*
X53100Y42400D02*
Y44989D01*
X53111Y45000D01*
X55826Y15732D02*
Y15824D01*
X30900Y46300D02*
X34500Y49900D01*
X9230Y18600D02*
Y30600D01*
X57300Y6600D02*
Y18600D01*
D33*
X5900Y37700D02*
X12500D01*
X40300Y5600D02*
X41473D01*
X33400Y12500D02*
Y16755D01*
Y12500D02*
X40300Y5600D01*
X24132Y46288D02*
X35263Y35157D01*
X52797Y4603D02*
X52800Y4600D01*
X49761Y4603D02*
X52797D01*
X33277Y53423D02*
X33280Y53420D01*
X35458D02*
X35854Y53024D01*
X33280Y53420D02*
X35458D01*
X35854Y53024D02*
X37045Y51833D01*
X25800Y53423D02*
X33277D01*
X25582D02*
X25800D01*
Y52200D02*
Y53423D01*
X13323D02*
X25552D01*
X48400Y21000D02*
Y25635D01*
X13289Y44744D02*
X13306Y44761D01*
Y53405D01*
X13323Y53423D01*
X17181Y46288D02*
X24132D01*
X5600Y18700D02*
Y28700D01*
X2900Y31160D02*
X3140D01*
X5600Y28700D01*
X2500Y15600D02*
X5600Y18700D01*
X37045Y45046D02*
X41554D01*
X45100Y41600D02*
X50400Y46900D01*
X41554Y45046D02*
X45100Y41500D01*
Y41600D01*
Y41500D02*
X48600Y38000D01*
Y33500D02*
Y38000D01*
X49061Y3903D02*
X49761Y4603D01*
X44141Y3903D02*
X49061D01*
X41473Y5600D02*
X41507Y5634D01*
X37045Y45046D02*
Y51833D01*
X34178Y45046D02*
X37045D01*
X50400Y46900D02*
X57916D01*
D34*
X11800Y39900D02*
X14000Y37700D01*
X5328Y42572D02*
X8000Y39900D01*
X11800D01*
X5328Y42572D02*
Y54398D01*
X14000Y37700D02*
X19700D01*
D35*
X33265Y42600D02*
D03*
D36*
X57300D02*
D03*
X9230D02*
D03*
X57300Y30600D02*
D03*
X9230D02*
D03*
X57300Y18600D02*
D03*
X9230D02*
D03*
X57300Y6600D02*
D03*
X9230D02*
D03*
D37*
X2900Y28620D02*
D03*
D38*
Y31160D02*
D03*
Y33700D02*
D03*
Y36240D02*
D03*
Y38780D02*
D03*
Y41320D02*
D03*
X2500Y7980D02*
D03*
Y10520D02*
D03*
Y13060D02*
D03*
Y15600D02*
D03*
Y18140D02*
D03*
D39*
X6580Y57790D02*
D03*
Y52010D02*
D03*
D40*
X7080Y50580D02*
D03*
Y59220D02*
D03*
D41*
X2900Y50580D02*
D03*
Y59220D02*
D03*
D42*
X16360Y51400D02*
D03*
X18900D02*
D03*
X21440D02*
D03*
D43*
X15600Y58200D02*
D03*
X18140D02*
D03*
X20680D02*
D03*
D44*
X13060D02*
D03*
D45*
X34500Y49900D02*
D03*
X32000D02*
D03*
D46*
X5900Y37700D02*
D03*
X12500D02*
D03*
X39186Y23743D02*
D03*
X40400Y7026D02*
D03*
X35874Y27055D02*
D03*
X52800Y4600D02*
D03*
X54090Y3350D02*
D03*
X14714Y46156D02*
D03*
X41507Y16645D02*
D03*
X48400Y25635D02*
D03*
X13323Y53423D02*
D03*
X16360Y45366D02*
D03*
X17181Y46288D02*
D03*
X25800Y52200D02*
D03*
X35238Y35132D02*
D03*
X33008Y7953D02*
D03*
X48569Y8637D02*
D03*
X13289Y44744D02*
D03*
X5328Y54398D02*
D03*
X19700Y37700D02*
D03*
X13100Y10903D02*
D03*
X36600Y33000D02*
D03*
X25200Y39900D02*
D03*
X36800Y19712D02*
D03*
X29200Y30400D02*
D03*
X32400Y23900D02*
D03*
X45807Y15597D02*
D03*
X41507Y19715D02*
D03*
X23400Y36900D02*
D03*
X25200Y33700D02*
D03*
X26100Y31600D02*
D03*
X44036Y14152D02*
D03*
X40000Y15829D02*
D03*
X44700Y12903D02*
D03*
X45993Y20530D02*
D03*
X45093Y19503D02*
D03*
X43000Y39200D02*
D03*
X42088Y39900D02*
D03*
X50778Y28100D02*
D03*
X48400Y21000D02*
D03*
X50778Y21878D02*
D03*
X40000Y32535D02*
D03*
X40400Y44003D02*
D03*
X45100Y41500D02*
D03*
X39186Y43500D02*
D03*
X36000Y42000D02*
D03*
X36100Y38400D02*
D03*
X46927Y8593D02*
D03*
X47900Y7700D02*
D03*
X16307Y32642D02*
D03*
X50100Y29400D02*
D03*
X54900Y1186D02*
D03*
X53300Y1300D02*
D03*
X50800Y2300D02*
D03*
X45000Y11341D02*
D03*
X36800Y11900D02*
D03*
X35600Y12903D02*
D03*
X41507Y5634D02*
D03*
X44141Y3903D02*
D03*
X49061D02*
D03*
X51107Y8593D02*
D03*
X49817Y7700D02*
D03*
X33400Y16755D02*
D03*
X34178Y45046D02*
D03*
X48600Y33500D02*
D03*
X29800Y25200D02*
D03*
X32651Y10900D02*
D03*
Y19712D02*
D03*
X44400Y2269D02*
D03*
X57978Y23743D02*
D03*
X18400Y10071D02*
D03*
Y33000D02*
D03*
X41814Y49900D02*
D03*
Y46089D02*
D03*
X53111Y45000D02*
D03*
X57916Y46900D02*
D03*
X35950Y52928D02*
D03*
X53100Y42403D02*
D03*
X55830Y15855D02*
D03*
X55500Y8593D02*
D03*
X49681Y10164D02*
D03*
X43472Y11341D02*
D03*
X38646Y16395D02*
D03*
%TF.MD5,087a2dffd0ca1865619ac1992d22b0d9*%
M02*
